ISO-10303-21;
HEADER;
/* Generated by software containing ST-Developer
 * from STEP Tools, Inc. (www.steptools.com) 
 */

FILE_DESCRIPTION(
/* description */ (''),
/* implementation_level */ '2;1');

FILE_NAME(
/* name */ 'Diameter_20mm.step',
/* time_stamp */ '2026-06-18T09:58:49+02:00',
/* author */ ('neuhau0004'),
/* organization */ (''),
/* preprocessor_version */ 'ST-DEVELOPER v20.1',
/* originating_system */ 'Autodesk Inventor 2026',
/* authorisation */ '');

FILE_SCHEMA (('AUTOMOTIVE_DESIGN { 1 0 10303 214 3 1 1 }'));
ENDSEC;

DATA;
#10=MECHANICAL_DESIGN_GEOMETRIC_PRESENTATION_REPRESENTATION('',(#766,#767,
#768,#769,#770,#771,#772,#773,#774,#775,#776,#777,#778,#779,#780,#781,#782,
#783,#784,#785,#786,#787,#788,#789,#790,#791,#792,#793,#794,#795,#796,#797,
#798,#799,#800,#801,#802,#803,#804,#805,#806,#807,#808,#809,#810,#811,#812,
#813,#814,#815,#816),#1694);
#11=SHAPE_REPRESENTATION_RELATIONSHIP('SRR','None',#1701,#12);
#12=ADVANCED_BREP_SHAPE_REPRESENTATION('',(#13),#1693);
#13=MANIFOLD_SOLID_BREP('Solid1',#867);
#14=CYLINDRICAL_SURFACE('',#917,43.5);
#15=CYLINDRICAL_SURFACE('',#927,10.);
#16=CYLINDRICAL_SURFACE('',#928,10.);
#17=CYLINDRICAL_SURFACE('',#929,10.);
#18=CYLINDRICAL_SURFACE('',#930,10.);
#19=CYLINDRICAL_SURFACE('',#931,10.);
#20=CYLINDRICAL_SURFACE('',#932,10.);
#21=CYLINDRICAL_SURFACE('',#933,10.);
#22=CONICAL_SURFACE('',#913,43.25,0.785398163397446);
#23=CIRCLE('',#900,10.);
#24=CIRCLE('',#902,10.);
#25=CIRCLE('',#904,10.);
#26=CIRCLE('',#906,10.);
#27=CIRCLE('',#908,10.);
#28=CIRCLE('',#910,10.);
#29=CIRCLE('',#912,10.);
#30=CIRCLE('',#914,43.);
#31=CIRCLE('',#915,43.5);
#32=CIRCLE('',#916,43.5);
#33=CIRCLE('',#918,43.5);
#34=CIRCLE('',#920,10.);
#35=CIRCLE('',#921,10.);
#36=CIRCLE('',#922,10.);
#37=CIRCLE('',#923,10.);
#38=CIRCLE('',#924,10.);
#39=CIRCLE('',#925,10.);
#40=CIRCLE('',#926,10.);
#41=FACE_BOUND('',#155,.T.);
#42=FACE_BOUND('',#167,.T.);
#43=FACE_BOUND('',#168,.T.);
#44=FACE_BOUND('',#169,.T.);
#45=FACE_BOUND('',#170,.T.);
#46=FACE_BOUND('',#171,.T.);
#47=FACE_BOUND('',#172,.T.);
#48=FACE_BOUND('',#173,.T.);
#49=FACE_BOUND('',#174,.T.);
#50=FACE_BOUND('',#175,.T.);
#51=B_SPLINE_SURFACE_WITH_KNOTS('',2,1,((#1179,#1180),(#1181,#1182),(#1183,
#1184),(#1185,#1186)),.UNSPECIFIED.,.F.,.F.,.F.,(3,1,3),(2,2),(-2.,-1.,
0.),(0.,24.7240773336438),.UNSPECIFIED.);
#52=B_SPLINE_SURFACE_WITH_KNOTS('',2,1,((#1195,#1196),(#1197,#1198),(#1199,
#1200),(#1201,#1202)),.UNSPECIFIED.,.F.,.F.,.F.,(3,1,3),(2,2),(-2.,-1.,
0.),(0.,24.7240773336438),.UNSPECIFIED.);
#53=B_SPLINE_SURFACE_WITH_KNOTS('',2,1,((#1209,#1210),(#1211,#1212),(#1213,
#1214),(#1215,#1216)),.UNSPECIFIED.,.F.,.F.,.F.,(3,1,3),(2,2),(-2.,-1.,
0.),(0.,24.7240773336438),.UNSPECIFIED.);
#54=B_SPLINE_SURFACE_WITH_KNOTS('',2,1,((#1223,#1224),(#1225,#1226),(#1227,
#1228),(#1229,#1230)),.UNSPECIFIED.,.F.,.F.,.F.,(3,1,3),(2,2),(-2.,-1.,
0.),(0.,24.7240773336438),.UNSPECIFIED.);
#55=B_SPLINE_SURFACE_WITH_KNOTS('',2,1,((#1237,#1238),(#1239,#1240),(#1241,
#1242),(#1243,#1244)),.UNSPECIFIED.,.F.,.F.,.F.,(3,1,3),(2,2),(-2.,-1.,
0.),(0.,24.7240773336438),.UNSPECIFIED.);
#56=B_SPLINE_SURFACE_WITH_KNOTS('',2,1,((#1267,#1268),(#1269,#1270),(#1271,
#1272),(#1273,#1274)),.UNSPECIFIED.,.F.,.F.,.F.,(3,1,3),(2,2),(-2.,-1.,
0.),(0.,24.7240773336438),.UNSPECIFIED.);
#57=B_SPLINE_SURFACE_WITH_KNOTS('',2,1,((#1281,#1282),(#1283,#1284),(#1285,
#1286),(#1287,#1288)),.UNSPECIFIED.,.F.,.F.,.F.,(3,1,3),(2,2),(-2.,-1.,
0.),(0.,24.7240773336438),.UNSPECIFIED.);
#58=B_SPLINE_SURFACE_WITH_KNOTS('',2,1,((#1295,#1296),(#1297,#1298),(#1299,
#1300),(#1301,#1302)),.UNSPECIFIED.,.F.,.F.,.F.,(3,1,3),(2,2),(-2.,-1.,
0.),(0.,24.7240773336438),.UNSPECIFIED.);
#59=B_SPLINE_SURFACE_WITH_KNOTS('',2,1,((#1309,#1310),(#1311,#1312),(#1313,
#1314),(#1315,#1316)),.UNSPECIFIED.,.F.,.F.,.F.,(3,1,3),(2,2),(-2.,-1.,
0.),(0.,24.7240773336438),.UNSPECIFIED.);
#60=B_SPLINE_SURFACE_WITH_KNOTS('',2,1,((#1323,#1324),(#1325,#1326),(#1327,
#1328),(#1329,#1330)),.UNSPECIFIED.,.F.,.F.,.F.,(3,1,3),(2,2),(-2.,-1.,
0.),(0.,24.7240773336438),.UNSPECIFIED.);
#61=B_SPLINE_SURFACE_WITH_KNOTS('',2,1,((#1337,#1338),(#1339,#1340),(#1341,
#1342),(#1343,#1344)),.UNSPECIFIED.,.F.,.F.,.F.,(3,1,3),(2,2),(-2.,-1.,
0.),(0.,24.7240773336438),.UNSPECIFIED.);
#62=B_SPLINE_SURFACE_WITH_KNOTS('',2,1,((#1357,#1358),(#1359,#1360),(#1361,
#1362),(#1363,#1364)),.UNSPECIFIED.,.F.,.F.,.F.,(3,1,3),(2,2),(-2.,-1.,
0.),(0.,24.7240773336438),.UNSPECIFIED.);
#63=B_SPLINE_SURFACE_WITH_KNOTS('',2,1,((#1387,#1388),(#1389,#1390),(#1391,
#1392),(#1393,#1394)),.UNSPECIFIED.,.F.,.F.,.F.,(3,1,3),(2,2),(-2.,-1.,
0.),(0.,24.7240773336438),.UNSPECIFIED.);
#64=B_SPLINE_SURFACE_WITH_KNOTS('',2,1,((#1409,#1410),(#1411,#1412),(#1413,
#1414),(#1415,#1416)),.UNSPECIFIED.,.F.,.F.,.F.,(3,1,3),(2,2),(0.,1.,2.),
(0.,24.7240773336438),.UNSPECIFIED.);
#65=B_SPLINE_SURFACE_WITH_KNOTS('',2,1,((#1434,#1435),(#1436,#1437),(#1438,
#1439),(#1440,#1441)),.UNSPECIFIED.,.F.,.F.,.F.,(3,1,3),(2,2),(0.,1.,2.),
(0.,24.7240773336438),.UNSPECIFIED.);
#66=B_SPLINE_SURFACE_WITH_KNOTS('',2,1,((#1456,#1457),(#1458,#1459),(#1460,
#1461),(#1462,#1463)),.UNSPECIFIED.,.F.,.F.,.F.,(3,1,3),(2,2),(0.,1.,2.),
(0.,24.7240773336438),.UNSPECIFIED.);
#67=B_SPLINE_SURFACE_WITH_KNOTS('',2,1,((#1478,#1479),(#1480,#1481),(#1482,
#1483),(#1484,#1485)),.UNSPECIFIED.,.F.,.F.,.F.,(3,1,3),(2,2),(0.,1.,2.),
(0.,24.7240773336438),.UNSPECIFIED.);
#68=B_SPLINE_SURFACE_WITH_KNOTS('',2,1,((#1500,#1501),(#1502,#1503),(#1504,
#1505),(#1506,#1507)),.UNSPECIFIED.,.F.,.F.,.F.,(3,1,3),(2,2),(-2.,-1.,
0.),(0.,24.7240773336438),.UNSPECIFIED.);
#69=B_SPLINE_SURFACE_WITH_KNOTS('',2,1,((#1522,#1523),(#1524,#1525),(#1526,
#1527),(#1528,#1529)),.UNSPECIFIED.,.F.,.F.,.F.,(3,1,3),(2,2),(-2.,-1.,
0.),(0.,24.7240773336438),.UNSPECIFIED.);
#70=B_SPLINE_SURFACE_WITH_KNOTS('',2,1,((#1541,#1542),(#1543,#1544),(#1545,
#1546),(#1547,#1548)),.UNSPECIFIED.,.F.,.F.,.F.,(3,1,3),(2,2),(0.,1.,2.),
(0.,24.7240773336438),.UNSPECIFIED.);
#71=B_SPLINE_SURFACE_WITH_KNOTS('',2,1,((#1563,#1564),(#1565,#1566),(#1567,
#1568),(#1569,#1570)),.UNSPECIFIED.,.F.,.F.,.F.,(3,1,3),(2,2),(0.,1.,2.),
(0.,24.7240773336438),.UNSPECIFIED.);
#72=B_SPLINE_SURFACE_WITH_KNOTS('',2,1,((#1585,#1586),(#1587,#1588),(#1589,
#1590),(#1591,#1592)),.UNSPECIFIED.,.F.,.F.,.F.,(3,1,3),(2,2),(0.,1.,2.),
(0.,24.7240773336438),.UNSPECIFIED.);
#73=B_SPLINE_SURFACE_WITH_KNOTS('',2,1,((#1607,#1608),(#1609,#1610),(#1611,
#1612),(#1613,#1614)),.UNSPECIFIED.,.F.,.F.,.F.,(3,1,3),(2,2),(0.,1.,2.),
(0.,24.7240773336438),.UNSPECIFIED.);
#74=FACE_OUTER_BOUND('',#124,.T.);
#75=FACE_OUTER_BOUND('',#125,.T.);
#76=FACE_OUTER_BOUND('',#126,.T.);
#77=FACE_OUTER_BOUND('',#127,.T.);
#78=FACE_OUTER_BOUND('',#128,.T.);
#79=FACE_OUTER_BOUND('',#129,.T.);
#80=FACE_OUTER_BOUND('',#130,.T.);
#81=FACE_OUTER_BOUND('',#131,.T.);
#82=FACE_OUTER_BOUND('',#132,.T.);
#83=FACE_OUTER_BOUND('',#133,.T.);
#84=FACE_OUTER_BOUND('',#134,.T.);
#85=FACE_OUTER_BOUND('',#135,.T.);
#86=FACE_OUTER_BOUND('',#136,.T.);
#87=FACE_OUTER_BOUND('',#137,.T.);
#88=FACE_OUTER_BOUND('',#138,.T.);
#89=FACE_OUTER_BOUND('',#139,.T.);
#90=FACE_OUTER_BOUND('',#140,.T.);
#91=FACE_OUTER_BOUND('',#141,.T.);
#92=FACE_OUTER_BOUND('',#142,.T.);
#93=FACE_OUTER_BOUND('',#143,.T.);
#94=FACE_OUTER_BOUND('',#144,.T.);
#95=FACE_OUTER_BOUND('',#145,.T.);
#96=FACE_OUTER_BOUND('',#146,.T.);
#97=FACE_OUTER_BOUND('',#147,.T.);
#98=FACE_OUTER_BOUND('',#148,.T.);
#99=FACE_OUTER_BOUND('',#149,.T.);
#100=FACE_OUTER_BOUND('',#150,.T.);
#101=FACE_OUTER_BOUND('',#151,.T.);
#102=FACE_OUTER_BOUND('',#152,.T.);
#103=FACE_OUTER_BOUND('',#153,.T.);
#104=FACE_OUTER_BOUND('',#154,.T.);
#105=FACE_OUTER_BOUND('',#156,.T.);
#106=FACE_OUTER_BOUND('',#157,.T.);
#107=FACE_OUTER_BOUND('',#158,.T.);
#108=FACE_OUTER_BOUND('',#159,.T.);
#109=FACE_OUTER_BOUND('',#160,.T.);
#110=FACE_OUTER_BOUND('',#161,.T.);
#111=FACE_OUTER_BOUND('',#162,.T.);
#112=FACE_OUTER_BOUND('',#163,.T.);
#113=FACE_OUTER_BOUND('',#164,.T.);
#114=FACE_OUTER_BOUND('',#165,.T.);
#115=FACE_OUTER_BOUND('',#166,.T.);
#116=FACE_OUTER_BOUND('',#176,.T.);
#117=FACE_OUTER_BOUND('',#177,.T.);
#118=FACE_OUTER_BOUND('',#178,.T.);
#119=FACE_OUTER_BOUND('',#179,.T.);
#120=FACE_OUTER_BOUND('',#180,.T.);
#121=FACE_OUTER_BOUND('',#181,.T.);
#122=FACE_OUTER_BOUND('',#182,.T.);
#123=FACE_OUTER_BOUND('',#183,.T.);
#124=EDGE_LOOP('',(#520,#521,#522,#523,#524,#525,#526,#527,#528,#529,#530,
#531,#532,#533,#534,#535,#536));
#125=EDGE_LOOP('',(#537,#538,#539,#540));
#126=EDGE_LOOP('',(#541,#542,#543,#544));
#127=EDGE_LOOP('',(#545,#546,#547,#548));
#128=EDGE_LOOP('',(#549,#550,#551,#552));
#129=EDGE_LOOP('',(#553,#554,#555,#556));
#130=EDGE_LOOP('',(#557,#558,#559,#560));
#131=EDGE_LOOP('',(#561,#562,#563,#564));
#132=EDGE_LOOP('',(#565,#566,#567,#568));
#133=EDGE_LOOP('',(#569,#570,#571,#572));
#134=EDGE_LOOP('',(#573,#574,#575,#576));
#135=EDGE_LOOP('',(#577,#578,#579,#580));
#136=EDGE_LOOP('',(#581,#582,#583,#584));
#137=EDGE_LOOP('',(#585,#586,#587,#588));
#138=EDGE_LOOP('',(#589,#590,#591,#592));
#139=EDGE_LOOP('',(#593,#594,#595,#596));
#140=EDGE_LOOP('',(#597,#598,#599,#600));
#141=EDGE_LOOP('',(#601,#602,#603,#604));
#142=EDGE_LOOP('',(#605,#606,#607,#608));
#143=EDGE_LOOP('',(#609,#610,#611,#612));
#144=EDGE_LOOP('',(#613,#614,#615,#616));
#145=EDGE_LOOP('',(#617,#618,#619,#620));
#146=EDGE_LOOP('',(#621,#622,#623,#624));
#147=EDGE_LOOP('',(#625,#626,#627,#628));
#148=EDGE_LOOP('',(#629,#630,#631,#632));
#149=EDGE_LOOP('',(#633,#634,#635,#636));
#150=EDGE_LOOP('',(#637,#638,#639,#640));
#151=EDGE_LOOP('',(#641,#642,#643,#644));
#152=EDGE_LOOP('',(#645,#646,#647,#648));
#153=EDGE_LOOP('',(#649,#650,#651,#652));
#154=EDGE_LOOP('',(#653,#654,#655,#656));
#155=EDGE_LOOP('',(#657,#658,#659,#660,#661,#662,#663,#664));
#156=EDGE_LOOP('',(#665,#666,#667,#668,#669,#670,#671,#672));
#157=EDGE_LOOP('',(#673));
#158=EDGE_LOOP('',(#674));
#159=EDGE_LOOP('',(#675));
#160=EDGE_LOOP('',(#676));
#161=EDGE_LOOP('',(#677));
#162=EDGE_LOOP('',(#678));
#163=EDGE_LOOP('',(#679));
#164=EDGE_LOOP('',(#680,#681,#682,#683,#684));
#165=EDGE_LOOP('',(#685,#686,#687,#688,#689));
#166=EDGE_LOOP('',(#690));
#167=EDGE_LOOP('',(#691,#692,#693,#694,#695,#696,#697,#698,#699,#700,#701,
#702,#703,#704,#705,#706,#707));
#168=EDGE_LOOP('',(#708,#709,#710,#711));
#169=EDGE_LOOP('',(#712));
#170=EDGE_LOOP('',(#713));
#171=EDGE_LOOP('',(#714));
#172=EDGE_LOOP('',(#715));
#173=EDGE_LOOP('',(#716));
#174=EDGE_LOOP('',(#717));
#175=EDGE_LOOP('',(#718));
#176=EDGE_LOOP('',(#719,#720,#721,#722));
#177=EDGE_LOOP('',(#723,#724,#725,#726));
#178=EDGE_LOOP('',(#727,#728,#729,#730));
#179=EDGE_LOOP('',(#731,#732,#733,#734));
#180=EDGE_LOOP('',(#735,#736,#737,#738));
#181=EDGE_LOOP('',(#739,#740,#741,#742));
#182=EDGE_LOOP('',(#743,#744,#745,#746));
#183=EDGE_LOOP('',(#747));
#184=B_SPLINE_CURVE_WITH_KNOTS('',3,(#1089,#1090,#1091,#1092,#1093,#1094,
#1095),.UNSPECIFIED.,.F.,.F.,(4,3,4),(-0.150618703974205,-0.0753093519871024,
0.),.UNSPECIFIED.);
#185=B_SPLINE_CURVE_WITH_KNOTS('',3,(#1097,#1098,#1099,#1100,#1101,#1102,
#1103),.UNSPECIFIED.,.F.,.F.,(4,3,4),(-0.0803277729487645,-0.0401638864743823,
0.),.UNSPECIFIED.);
#186=B_SPLINE_CURVE_WITH_KNOTS('',3,(#1105,#1106,#1107,#1108,#1109,#1110,
#1111),.UNSPECIFIED.,.F.,.F.,(4,3,4),(-0.0767804757386611,-0.0383902378693306,
0.),.UNSPECIFIED.);
#187=B_SPLINE_CURVE_WITH_KNOTS('',3,(#1113,#1114,#1115,#1116,#1117,#1118,
#1119),.UNSPECIFIED.,.F.,.F.,(4,3,4),(-0.230935243163299,-0.11546762158165,
0.),.UNSPECIFIED.);
#188=B_SPLINE_CURVE_WITH_KNOTS('',3,(#1121,#1122,#1123,#1124,#1125,#1126,
#1127),.UNSPECIFIED.,.F.,.F.,(4,3,4),(-0.101483632533915,-0.0507418162669574,
0.),.UNSPECIFIED.);
#189=B_SPLINE_CURVE_WITH_KNOTS('',3,(#1133,#1134,#1135,#1136,#1137,#1138,
#1139),.UNSPECIFIED.,.F.,.F.,(4,3,4),(-0.0363807884375638,-0.0181903942187819,
0.),.UNSPECIFIED.);
#190=B_SPLINE_CURVE_WITH_KNOTS('',3,(#1141,#1142,#1143,#1144,#1145,#1146,
#1147),.UNSPECIFIED.,.F.,.F.,(4,3,4),(-0.0547181286077652,-0.0273590643038826,
0.),.UNSPECIFIED.);
#191=B_SPLINE_CURVE_WITH_KNOTS('',3,(#1149,#1150,#1151,#1152,#1153,#1154,
#1155),.UNSPECIFIED.,.F.,.F.,(4,3,4),(-0.0588888809990031,-0.0294444404995015,
0.),.UNSPECIFIED.);
#192=B_SPLINE_CURVE_WITH_KNOTS('',3,(#1157,#1158,#1159,#1160,#1161,#1162,
#1163),.UNSPECIFIED.,.F.,.F.,(4,3,4),(-0.0572825778075252,-0.0286412889037626,
0.),.UNSPECIFIED.);
#193=B_SPLINE_CURVE_WITH_KNOTS('',3,(#1165,#1166,#1167,#1168,#1169,#1170,
#1171),.UNSPECIFIED.,.F.,.F.,(4,3,4),(-0.124560456417811,-0.0622802282089055,
0.),.UNSPECIFIED.);
#194=B_SPLINE_CURVE_WITH_KNOTS('',3,(#1172,#1173,#1174,#1175,#1176,#1177,
#1178),.UNSPECIFIED.,.F.,.F.,(4,3,4),(-0.134401149589203,-0.0672005747946013,
0.),.UNSPECIFIED.);
#195=B_SPLINE_CURVE_WITH_KNOTS('',2,(#1189,#1190,#1191,#1192),
 .UNSPECIFIED.,.F.,.F.,(3,1,3),(0.,1.,2.),.UNSPECIFIED.);
#196=B_SPLINE_CURVE_WITH_KNOTS('',2,(#1204,#1205,#1206,#1207),
 .UNSPECIFIED.,.F.,.F.,(3,1,3),(0.,1.,2.),.UNSPECIFIED.);
#197=B_SPLINE_CURVE_WITH_KNOTS('',2,(#1218,#1219,#1220,#1221),
 .UNSPECIFIED.,.F.,.F.,(3,1,3),(0.,1.,2.),.UNSPECIFIED.);
#198=B_SPLINE_CURVE_WITH_KNOTS('',2,(#1232,#1233,#1234,#1235),
 .UNSPECIFIED.,.F.,.F.,(3,1,3),(0.,1.,2.),.UNSPECIFIED.);
#199=B_SPLINE_CURVE_WITH_KNOTS('',2,(#1246,#1247,#1248,#1249),
 .UNSPECIFIED.,.F.,.F.,(3,1,3),(0.,1.,2.),.UNSPECIFIED.);
#200=B_SPLINE_CURVE_WITH_KNOTS('',2,(#1276,#1277,#1278,#1279),
 .UNSPECIFIED.,.F.,.F.,(3,1,3),(0.,1.,2.),.UNSPECIFIED.);
#201=B_SPLINE_CURVE_WITH_KNOTS('',2,(#1290,#1291,#1292,#1293),
 .UNSPECIFIED.,.F.,.F.,(3,1,3),(0.,1.,2.),.UNSPECIFIED.);
#202=B_SPLINE_CURVE_WITH_KNOTS('',2,(#1304,#1305,#1306,#1307),
 .UNSPECIFIED.,.F.,.F.,(3,1,3),(0.,1.,2.),.UNSPECIFIED.);
#203=B_SPLINE_CURVE_WITH_KNOTS('',2,(#1318,#1319,#1320,#1321),
 .UNSPECIFIED.,.F.,.F.,(3,1,3),(0.,1.,2.),.UNSPECIFIED.);
#204=B_SPLINE_CURVE_WITH_KNOTS('',2,(#1332,#1333,#1334,#1335),
 .UNSPECIFIED.,.F.,.F.,(3,1,3),(0.,1.,2.),.UNSPECIFIED.);
#205=B_SPLINE_CURVE_WITH_KNOTS('',2,(#1346,#1347,#1348,#1349),
 .UNSPECIFIED.,.F.,.F.,(3,1,3),(0.,1.,2.),.UNSPECIFIED.);
#206=B_SPLINE_CURVE_WITH_KNOTS('',2,(#1367,#1368,#1369,#1370),
 .UNSPECIFIED.,.F.,.F.,(3,1,3),(0.,1.,2.),.UNSPECIFIED.);
#207=B_SPLINE_CURVE_WITH_KNOTS('',3,(#1374,#1375,#1376,#1377,#1378,#1379,
#1380,#1381,#1382,#1383,#1384,#1385),.UNSPECIFIED.,.F.,.F.,(4,2,2,2,2,4),
(-0.636304470304778,-0.525452568830697,-0.423941164916083,-0.27786163467693,
-0.165142367736054,0.),.UNSPECIFIED.);
#208=B_SPLINE_CURVE_WITH_KNOTS('',2,(#1396,#1397,#1398,#1399),
 .UNSPECIFIED.,.F.,.F.,(3,1,3),(0.,1.,2.),.UNSPECIFIED.);
#209=B_SPLINE_CURVE_WITH_KNOTS('',3,(#1402,#1403,#1404,#1405,#1406,#1407,
#1408),.UNSPECIFIED.,.F.,.F.,(4,3,4),(-0.438339211233062,-0.219169605616531,
0.),.UNSPECIFIED.);
#210=B_SPLINE_CURVE_WITH_KNOTS('',2,(#1419,#1420,#1421,#1422),
 .UNSPECIFIED.,.F.,.F.,(3,1,3),(0.,1.,2.),.UNSPECIFIED.);
#211=B_SPLINE_CURVE_WITH_KNOTS('',3,(#1426,#1427,#1428,#1429,#1430,#1431,
#1432),.UNSPECIFIED.,.F.,.F.,(4,3,4),(-0.350817759288606,-0.175408879644303,
0.),.UNSPECIFIED.);
#212=B_SPLINE_CURVE_WITH_KNOTS('',2,(#1443,#1444,#1445,#1446),
 .UNSPECIFIED.,.F.,.F.,(3,1,3),(0.,1.,2.),.UNSPECIFIED.);
#213=B_SPLINE_CURVE_WITH_KNOTS('',3,(#1448,#1449,#1450,#1451,#1452,#1453,
#1454),.UNSPECIFIED.,.F.,.F.,(4,3,4),(-0.257713089303455,-0.128856544651727,
0.),.UNSPECIFIED.);
#214=B_SPLINE_CURVE_WITH_KNOTS('',2,(#1465,#1466,#1467,#1468),
 .UNSPECIFIED.,.F.,.F.,(3,1,3),(0.,1.,2.),.UNSPECIFIED.);
#215=B_SPLINE_CURVE_WITH_KNOTS('',3,(#1470,#1471,#1472,#1473,#1474,#1475,
#1476),.UNSPECIFIED.,.F.,.F.,(4,3,4),(-0.0736867550401935,-0.0368433775200967,
0.),.UNSPECIFIED.);
#216=B_SPLINE_CURVE_WITH_KNOTS('',2,(#1487,#1488,#1489,#1490),
 .UNSPECIFIED.,.F.,.F.,(3,1,3),(0.,1.,2.),.UNSPECIFIED.);
#217=B_SPLINE_CURVE_WITH_KNOTS('',3,(#1492,#1493,#1494,#1495,#1496,#1497,
#1498),.UNSPECIFIED.,.F.,.F.,(4,3,4),(-0.140593638731402,-0.0702968193657012,
0.),.UNSPECIFIED.);
#218=B_SPLINE_CURVE_WITH_KNOTS('',2,(#1509,#1510,#1511,#1512),
 .UNSPECIFIED.,.F.,.F.,(3,1,3),(0.,1.,2.),.UNSPECIFIED.);
#219=B_SPLINE_CURVE_WITH_KNOTS('',3,(#1515,#1516,#1517,#1518,#1519,#1520,
#1521),.UNSPECIFIED.,.F.,.F.,(4,3,4),(-0.636844250121395,-0.318422125060697,
0.),.UNSPECIFIED.);
#220=B_SPLINE_CURVE_WITH_KNOTS('',2,(#1530,#1531,#1532,#1533),
 .UNSPECIFIED.,.F.,.F.,(3,1,3),(0.,1.,2.),.UNSPECIFIED.);
#221=B_SPLINE_CURVE_WITH_KNOTS('',3,(#1534,#1535,#1536,#1537,#1538,#1539,
#1540),.UNSPECIFIED.,.F.,.F.,(4,3,4),(-0.418800129279551,-0.209400064639776,
0.),.UNSPECIFIED.);
#222=B_SPLINE_CURVE_WITH_KNOTS('',2,(#1550,#1551,#1552,#1553),
 .UNSPECIFIED.,.F.,.F.,(3,1,3),(0.,1.,2.),.UNSPECIFIED.);
#223=B_SPLINE_CURVE_WITH_KNOTS('',3,(#1556,#1557,#1558,#1559,#1560,#1561,
#1562),.UNSPECIFIED.,.F.,.F.,(4,3,4),(-0.135493731282601,-0.0677468656413005,
0.),.UNSPECIFIED.);
#224=B_SPLINE_CURVE_WITH_KNOTS('',2,(#1572,#1573,#1574,#1575),
 .UNSPECIFIED.,.F.,.F.,(3,1,3),(0.,1.,2.),.UNSPECIFIED.);
#225=B_SPLINE_CURVE_WITH_KNOTS('',3,(#1578,#1579,#1580,#1581,#1582,#1583,
#1584),.UNSPECIFIED.,.F.,.F.,(4,3,4),(-0.0782045281724053,-0.0391022640862027,
0.),.UNSPECIFIED.);
#226=B_SPLINE_CURVE_WITH_KNOTS('',2,(#1594,#1595,#1596,#1597),
 .UNSPECIFIED.,.F.,.F.,(3,1,3),(0.,1.,2.),.UNSPECIFIED.);
#227=B_SPLINE_CURVE_WITH_KNOTS('',3,(#1600,#1601,#1602,#1603,#1604,#1605,
#1606),.UNSPECIFIED.,.F.,.F.,(4,3,4),(-0.296596948680068,-0.148298474340034,
0.),.UNSPECIFIED.);
#228=B_SPLINE_CURVE_WITH_KNOTS('',2,(#1615,#1616,#1617,#1618),
 .UNSPECIFIED.,.F.,.F.,(3,1,3),(0.,1.,2.),.UNSPECIFIED.);
#229=B_SPLINE_CURVE_WITH_KNOTS('',3,(#1619,#1620,#1621,#1622,#1623,#1624,
#1625),.UNSPECIFIED.,.F.,.F.,(4,3,4),(-0.448845105558985,-0.224422552779492,
0.),.UNSPECIFIED.);
#230=LINE('',#1081,#280);
#231=LINE('',#1083,#281);
#232=LINE('',#1085,#282);
#233=LINE('',#1087,#283);
#234=LINE('',#1129,#284);
#235=LINE('',#1131,#285);
#236=LINE('',#1193,#286);
#237=LINE('',#1194,#287);
#238=LINE('',#1208,#288);
#239=LINE('',#1222,#289);
#240=LINE('',#1236,#290);
#241=LINE('',#1250,#291);
#242=LINE('',#1253,#292);
#243=LINE('',#1254,#293);
#244=LINE('',#1257,#294);
#245=LINE('',#1258,#295);
#246=LINE('',#1261,#296);
#247=LINE('',#1262,#297);
#248=LINE('',#1265,#298);
#249=LINE('',#1266,#299);
#250=LINE('',#1280,#300);
#251=LINE('',#1294,#301);
#252=LINE('',#1308,#302);
#253=LINE('',#1322,#303);
#254=LINE('',#1336,#304);
#255=LINE('',#1350,#305);
#256=LINE('',#1353,#306);
#257=LINE('',#1354,#307);
#258=LINE('',#1356,#308);
#259=LINE('',#1372,#309);
#260=LINE('',#1386,#310);
#261=LINE('',#1401,#311);
#262=LINE('',#1424,#312);
#263=LINE('',#1433,#313);
#264=LINE('',#1455,#314);
#265=LINE('',#1477,#315);
#266=LINE('',#1499,#316);
#267=LINE('',#1514,#317);
#268=LINE('',#1555,#318);
#269=LINE('',#1577,#319);
#270=LINE('',#1599,#320);
#271=LINE('',#1653,#321);
#272=LINE('',#1659,#322);
#273=LINE('',#1677,#323);
#274=LINE('',#1679,#324);
#275=LINE('',#1681,#325);
#276=LINE('',#1683,#326);
#277=LINE('',#1685,#327);
#278=LINE('',#1687,#328);
#279=LINE('',#1689,#329);
#280=VECTOR('',#939,10.);
#281=VECTOR('',#940,10.);
#282=VECTOR('',#941,10.);
#283=VECTOR('',#942,10.);
#284=VECTOR('',#943,10.);
#285=VECTOR('',#944,10.);
#286=VECTOR('',#945,10.);
#287=VECTOR('',#946,10.);
#288=VECTOR('',#947,10.);
#289=VECTOR('',#948,10.);
#290=VECTOR('',#949,10.);
#291=VECTOR('',#950,10.);
#292=VECTOR('',#953,10.);
#293=VECTOR('',#954,10.);
#294=VECTOR('',#957,10.);
#295=VECTOR('',#958,10.);
#296=VECTOR('',#961,10.);
#297=VECTOR('',#962,10.);
#298=VECTOR('',#965,10.);
#299=VECTOR('',#966,10.);
#300=VECTOR('',#967,10.);
#301=VECTOR('',#968,10.);
#302=VECTOR('',#969,10.);
#303=VECTOR('',#970,10.);
#304=VECTOR('',#971,10.);
#305=VECTOR('',#972,10.);
#306=VECTOR('',#975,10.);
#307=VECTOR('',#976,10.);
#308=VECTOR('',#979,10.);
#309=VECTOR('',#980,10.);
#310=VECTOR('',#981,10.);
#311=VECTOR('',#982,10.);
#312=VECTOR('',#983,10.);
#313=VECTOR('',#984,10.);
#314=VECTOR('',#985,10.);
#315=VECTOR('',#986,10.);
#316=VECTOR('',#987,10.);
#317=VECTOR('',#988,10.);
#318=VECTOR('',#989,10.);
#319=VECTOR('',#990,10.);
#320=VECTOR('',#991,10.);
#321=VECTOR('',#1028,43.25);
#322=VECTOR('',#1035,43.5);
#323=VECTOR('',#1056,10.);
#324=VECTOR('',#1059,10.);
#325=VECTOR('',#1062,10.);
#326=VECTOR('',#1065,10.);
#327=VECTOR('',#1068,10.);
#328=VECTOR('',#1071,10.);
#329=VECTOR('',#1074,10.);
#330=VERTEX_POINT('',#1079);
#331=VERTEX_POINT('',#1080);
#332=VERTEX_POINT('',#1082);
#333=VERTEX_POINT('',#1084);
#334=VERTEX_POINT('',#1086);
#335=VERTEX_POINT('',#1088);
#336=VERTEX_POINT('',#1096);
#337=VERTEX_POINT('',#1104);
#338=VERTEX_POINT('',#1112);
#339=VERTEX_POINT('',#1120);
#340=VERTEX_POINT('',#1128);
#341=VERTEX_POINT('',#1130);
#342=VERTEX_POINT('',#1132);
#343=VERTEX_POINT('',#1140);
#344=VERTEX_POINT('',#1148);
#345=VERTEX_POINT('',#1156);
#346=VERTEX_POINT('',#1164);
#347=VERTEX_POINT('',#1187);
#348=VERTEX_POINT('',#1188);
#349=VERTEX_POINT('',#1203);
#350=VERTEX_POINT('',#1217);
#351=VERTEX_POINT('',#1231);
#352=VERTEX_POINT('',#1245);
#353=VERTEX_POINT('',#1252);
#354=VERTEX_POINT('',#1256);
#355=VERTEX_POINT('',#1260);
#356=VERTEX_POINT('',#1264);
#357=VERTEX_POINT('',#1275);
#358=VERTEX_POINT('',#1289);
#359=VERTEX_POINT('',#1303);
#360=VERTEX_POINT('',#1317);
#361=VERTEX_POINT('',#1331);
#362=VERTEX_POINT('',#1345);
#363=VERTEX_POINT('',#1352);
#364=VERTEX_POINT('',#1365);
#365=VERTEX_POINT('',#1366);
#366=VERTEX_POINT('',#1371);
#367=VERTEX_POINT('',#1373);
#368=VERTEX_POINT('',#1395);
#369=VERTEX_POINT('',#1400);
#370=VERTEX_POINT('',#1417);
#371=VERTEX_POINT('',#1418);
#372=VERTEX_POINT('',#1423);
#373=VERTEX_POINT('',#1425);
#374=VERTEX_POINT('',#1442);
#375=VERTEX_POINT('',#1447);
#376=VERTEX_POINT('',#1464);
#377=VERTEX_POINT('',#1469);
#378=VERTEX_POINT('',#1486);
#379=VERTEX_POINT('',#1491);
#380=VERTEX_POINT('',#1508);
#381=VERTEX_POINT('',#1513);
#382=VERTEX_POINT('',#1549);
#383=VERTEX_POINT('',#1554);
#384=VERTEX_POINT('',#1571);
#385=VERTEX_POINT('',#1576);
#386=VERTEX_POINT('',#1593);
#387=VERTEX_POINT('',#1598);
#388=VERTEX_POINT('',#1629);
#389=VERTEX_POINT('',#1632);
#390=VERTEX_POINT('',#1635);
#391=VERTEX_POINT('',#1638);
#392=VERTEX_POINT('',#1641);
#393=VERTEX_POINT('',#1644);
#394=VERTEX_POINT('',#1647);
#395=VERTEX_POINT('',#1650);
#396=VERTEX_POINT('',#1652);
#397=VERTEX_POINT('',#1654);
#398=VERTEX_POINT('',#1658);
#399=VERTEX_POINT('',#1662);
#400=VERTEX_POINT('',#1664);
#401=VERTEX_POINT('',#1666);
#402=VERTEX_POINT('',#1668);
#403=VERTEX_POINT('',#1670);
#404=VERTEX_POINT('',#1672);
#405=VERTEX_POINT('',#1674);
#406=EDGE_CURVE('',#330,#331,#230,.T.);
#407=EDGE_CURVE('',#332,#330,#231,.T.);
#408=EDGE_CURVE('',#333,#332,#232,.T.);
#409=EDGE_CURVE('',#334,#333,#233,.T.);
#410=EDGE_CURVE('',#335,#334,#184,.T.);
#411=EDGE_CURVE('',#336,#335,#185,.T.);
#412=EDGE_CURVE('',#337,#336,#186,.T.);
#413=EDGE_CURVE('',#338,#337,#187,.T.);
#414=EDGE_CURVE('',#339,#338,#188,.T.);
#415=EDGE_CURVE('',#340,#339,#234,.T.);
#416=EDGE_CURVE('',#341,#340,#235,.T.);
#417=EDGE_CURVE('',#342,#341,#189,.T.);
#418=EDGE_CURVE('',#343,#342,#190,.T.);
#419=EDGE_CURVE('',#344,#343,#191,.T.);
#420=EDGE_CURVE('',#345,#344,#192,.T.);
#421=EDGE_CURVE('',#346,#345,#193,.T.);
#422=EDGE_CURVE('',#331,#346,#194,.T.);
#423=EDGE_CURVE('',#347,#348,#195,.T.);
#424=EDGE_CURVE('',#339,#347,#236,.T.);
#425=EDGE_CURVE('',#338,#348,#237,.T.);
#426=EDGE_CURVE('',#348,#349,#196,.T.);
#427=EDGE_CURVE('',#337,#349,#238,.T.);
#428=EDGE_CURVE('',#349,#350,#197,.T.);
#429=EDGE_CURVE('',#336,#350,#239,.T.);
#430=EDGE_CURVE('',#350,#351,#198,.T.);
#431=EDGE_CURVE('',#335,#351,#240,.T.);
#432=EDGE_CURVE('',#351,#352,#199,.T.);
#433=EDGE_CURVE('',#334,#352,#241,.T.);
#434=EDGE_CURVE('',#352,#353,#242,.T.);
#435=EDGE_CURVE('',#333,#353,#243,.T.);
#436=EDGE_CURVE('',#353,#354,#244,.T.);
#437=EDGE_CURVE('',#332,#354,#245,.T.);
#438=EDGE_CURVE('',#354,#355,#246,.T.);
#439=EDGE_CURVE('',#330,#355,#247,.T.);
#440=EDGE_CURVE('',#355,#356,#248,.T.);
#441=EDGE_CURVE('',#331,#356,#249,.T.);
#442=EDGE_CURVE('',#356,#357,#200,.T.);
#443=EDGE_CURVE('',#346,#357,#250,.T.);
#444=EDGE_CURVE('',#357,#358,#201,.T.);
#445=EDGE_CURVE('',#345,#358,#251,.T.);
#446=EDGE_CURVE('',#358,#359,#202,.T.);
#447=EDGE_CURVE('',#344,#359,#252,.T.);
#448=EDGE_CURVE('',#359,#360,#203,.T.);
#449=EDGE_CURVE('',#343,#360,#253,.T.);
#450=EDGE_CURVE('',#360,#361,#204,.T.);
#451=EDGE_CURVE('',#342,#361,#254,.T.);
#452=EDGE_CURVE('',#361,#362,#205,.T.);
#453=EDGE_CURVE('',#341,#362,#255,.T.);
#454=EDGE_CURVE('',#362,#363,#256,.T.);
#455=EDGE_CURVE('',#340,#363,#257,.T.);
#456=EDGE_CURVE('',#363,#347,#258,.T.);
#457=EDGE_CURVE('',#364,#365,#206,.T.);
#458=EDGE_CURVE('',#366,#364,#259,.T.);
#459=EDGE_CURVE('',#366,#367,#207,.T.);
#460=EDGE_CURVE('',#367,#365,#260,.T.);
#461=EDGE_CURVE('',#368,#364,#208,.T.);
#462=EDGE_CURVE('',#369,#368,#261,.T.);
#463=EDGE_CURVE('',#369,#366,#209,.T.);
#464=EDGE_CURVE('',#370,#371,#210,.T.);
#465=EDGE_CURVE('',#372,#370,#262,.T.);
#466=EDGE_CURVE('',#372,#373,#211,.T.);
#467=EDGE_CURVE('',#373,#371,#263,.T.);
#468=EDGE_CURVE('',#371,#374,#212,.T.);
#469=EDGE_CURVE('',#373,#375,#213,.T.);
#470=EDGE_CURVE('',#375,#374,#264,.T.);
#471=EDGE_CURVE('',#374,#376,#214,.T.);
#472=EDGE_CURVE('',#375,#377,#215,.T.);
#473=EDGE_CURVE('',#377,#376,#265,.T.);
#474=EDGE_CURVE('',#376,#378,#216,.T.);
#475=EDGE_CURVE('',#377,#379,#217,.T.);
#476=EDGE_CURVE('',#379,#378,#266,.T.);
#477=EDGE_CURVE('',#380,#368,#218,.T.);
#478=EDGE_CURVE('',#381,#380,#267,.T.);
#479=EDGE_CURVE('',#381,#369,#219,.T.);
#480=EDGE_CURVE('',#365,#380,#220,.T.);
#481=EDGE_CURVE('',#367,#381,#221,.T.);
#482=EDGE_CURVE('',#382,#370,#222,.T.);
#483=EDGE_CURVE('',#383,#382,#268,.T.);
#484=EDGE_CURVE('',#383,#372,#223,.T.);
#485=EDGE_CURVE('',#384,#382,#224,.T.);
#486=EDGE_CURVE('',#385,#384,#269,.T.);
#487=EDGE_CURVE('',#385,#383,#225,.T.);
#488=EDGE_CURVE('',#386,#384,#226,.T.);
#489=EDGE_CURVE('',#387,#386,#270,.T.);
#490=EDGE_CURVE('',#387,#385,#227,.T.);
#491=EDGE_CURVE('',#378,#386,#228,.T.);
#492=EDGE_CURVE('',#379,#387,#229,.T.);
#493=EDGE_CURVE('',#388,#388,#23,.T.);
#494=EDGE_CURVE('',#389,#389,#24,.T.);
#495=EDGE_CURVE('',#390,#390,#25,.T.);
#496=EDGE_CURVE('',#391,#391,#26,.T.);
#497=EDGE_CURVE('',#392,#392,#27,.T.);
#498=EDGE_CURVE('',#393,#393,#28,.T.);
#499=EDGE_CURVE('',#394,#394,#29,.T.);
#500=EDGE_CURVE('',#395,#395,#30,.T.);
#501=EDGE_CURVE('',#395,#396,#271,.T.);
#502=EDGE_CURVE('',#396,#397,#31,.T.);
#503=EDGE_CURVE('',#397,#396,#32,.T.);
#504=EDGE_CURVE('',#397,#398,#272,.T.);
#505=EDGE_CURVE('',#398,#398,#33,.T.);
#506=EDGE_CURVE('',#399,#399,#34,.T.);
#507=EDGE_CURVE('',#400,#400,#35,.T.);
#508=EDGE_CURVE('',#401,#401,#36,.T.);
#509=EDGE_CURVE('',#402,#402,#37,.T.);
#510=EDGE_CURVE('',#403,#403,#38,.T.);
#511=EDGE_CURVE('',#404,#404,#39,.T.);
#512=EDGE_CURVE('',#405,#405,#40,.T.);
#513=EDGE_CURVE('',#399,#388,#273,.T.);
#514=EDGE_CURVE('',#400,#390,#274,.T.);
#515=EDGE_CURVE('',#401,#389,#275,.T.);
#516=EDGE_CURVE('',#402,#394,#276,.T.);
#517=EDGE_CURVE('',#403,#393,#277,.T.);
#518=EDGE_CURVE('',#404,#392,#278,.T.);
#519=EDGE_CURVE('',#405,#391,#279,.T.);
#520=ORIENTED_EDGE('',*,*,#406,.F.);
#521=ORIENTED_EDGE('',*,*,#407,.F.);
#522=ORIENTED_EDGE('',*,*,#408,.F.);
#523=ORIENTED_EDGE('',*,*,#409,.F.);
#524=ORIENTED_EDGE('',*,*,#410,.F.);
#525=ORIENTED_EDGE('',*,*,#411,.F.);
#526=ORIENTED_EDGE('',*,*,#412,.F.);
#527=ORIENTED_EDGE('',*,*,#413,.F.);
#528=ORIENTED_EDGE('',*,*,#414,.F.);
#529=ORIENTED_EDGE('',*,*,#415,.F.);
#530=ORIENTED_EDGE('',*,*,#416,.F.);
#531=ORIENTED_EDGE('',*,*,#417,.F.);
#532=ORIENTED_EDGE('',*,*,#418,.F.);
#533=ORIENTED_EDGE('',*,*,#419,.F.);
#534=ORIENTED_EDGE('',*,*,#420,.F.);
#535=ORIENTED_EDGE('',*,*,#421,.F.);
#536=ORIENTED_EDGE('',*,*,#422,.F.);
#537=ORIENTED_EDGE('',*,*,#423,.F.);
#538=ORIENTED_EDGE('',*,*,#424,.F.);
#539=ORIENTED_EDGE('',*,*,#414,.T.);
#540=ORIENTED_EDGE('',*,*,#425,.T.);
#541=ORIENTED_EDGE('',*,*,#426,.F.);
#542=ORIENTED_EDGE('',*,*,#425,.F.);
#543=ORIENTED_EDGE('',*,*,#413,.T.);
#544=ORIENTED_EDGE('',*,*,#427,.T.);
#545=ORIENTED_EDGE('',*,*,#428,.F.);
#546=ORIENTED_EDGE('',*,*,#427,.F.);
#547=ORIENTED_EDGE('',*,*,#412,.T.);
#548=ORIENTED_EDGE('',*,*,#429,.T.);
#549=ORIENTED_EDGE('',*,*,#430,.F.);
#550=ORIENTED_EDGE('',*,*,#429,.F.);
#551=ORIENTED_EDGE('',*,*,#411,.T.);
#552=ORIENTED_EDGE('',*,*,#431,.T.);
#553=ORIENTED_EDGE('',*,*,#432,.F.);
#554=ORIENTED_EDGE('',*,*,#431,.F.);
#555=ORIENTED_EDGE('',*,*,#410,.T.);
#556=ORIENTED_EDGE('',*,*,#433,.T.);
#557=ORIENTED_EDGE('',*,*,#434,.F.);
#558=ORIENTED_EDGE('',*,*,#433,.F.);
#559=ORIENTED_EDGE('',*,*,#409,.T.);
#560=ORIENTED_EDGE('',*,*,#435,.T.);
#561=ORIENTED_EDGE('',*,*,#436,.F.);
#562=ORIENTED_EDGE('',*,*,#435,.F.);
#563=ORIENTED_EDGE('',*,*,#408,.T.);
#564=ORIENTED_EDGE('',*,*,#437,.T.);
#565=ORIENTED_EDGE('',*,*,#438,.F.);
#566=ORIENTED_EDGE('',*,*,#437,.F.);
#567=ORIENTED_EDGE('',*,*,#407,.T.);
#568=ORIENTED_EDGE('',*,*,#439,.T.);
#569=ORIENTED_EDGE('',*,*,#440,.F.);
#570=ORIENTED_EDGE('',*,*,#439,.F.);
#571=ORIENTED_EDGE('',*,*,#406,.T.);
#572=ORIENTED_EDGE('',*,*,#441,.T.);
#573=ORIENTED_EDGE('',*,*,#442,.F.);
#574=ORIENTED_EDGE('',*,*,#441,.F.);
#575=ORIENTED_EDGE('',*,*,#422,.T.);
#576=ORIENTED_EDGE('',*,*,#443,.T.);
#577=ORIENTED_EDGE('',*,*,#444,.F.);
#578=ORIENTED_EDGE('',*,*,#443,.F.);
#579=ORIENTED_EDGE('',*,*,#421,.T.);
#580=ORIENTED_EDGE('',*,*,#445,.T.);
#581=ORIENTED_EDGE('',*,*,#446,.F.);
#582=ORIENTED_EDGE('',*,*,#445,.F.);
#583=ORIENTED_EDGE('',*,*,#420,.T.);
#584=ORIENTED_EDGE('',*,*,#447,.T.);
#585=ORIENTED_EDGE('',*,*,#448,.F.);
#586=ORIENTED_EDGE('',*,*,#447,.F.);
#587=ORIENTED_EDGE('',*,*,#419,.T.);
#588=ORIENTED_EDGE('',*,*,#449,.T.);
#589=ORIENTED_EDGE('',*,*,#450,.F.);
#590=ORIENTED_EDGE('',*,*,#449,.F.);
#591=ORIENTED_EDGE('',*,*,#418,.T.);
#592=ORIENTED_EDGE('',*,*,#451,.T.);
#593=ORIENTED_EDGE('',*,*,#452,.F.);
#594=ORIENTED_EDGE('',*,*,#451,.F.);
#595=ORIENTED_EDGE('',*,*,#417,.T.);
#596=ORIENTED_EDGE('',*,*,#453,.T.);
#597=ORIENTED_EDGE('',*,*,#454,.F.);
#598=ORIENTED_EDGE('',*,*,#453,.F.);
#599=ORIENTED_EDGE('',*,*,#416,.T.);
#600=ORIENTED_EDGE('',*,*,#455,.T.);
#601=ORIENTED_EDGE('',*,*,#456,.F.);
#602=ORIENTED_EDGE('',*,*,#455,.F.);
#603=ORIENTED_EDGE('',*,*,#415,.T.);
#604=ORIENTED_EDGE('',*,*,#424,.T.);
#605=ORIENTED_EDGE('',*,*,#457,.F.);
#606=ORIENTED_EDGE('',*,*,#458,.F.);
#607=ORIENTED_EDGE('',*,*,#459,.T.);
#608=ORIENTED_EDGE('',*,*,#460,.T.);
#609=ORIENTED_EDGE('',*,*,#461,.F.);
#610=ORIENTED_EDGE('',*,*,#462,.F.);
#611=ORIENTED_EDGE('',*,*,#463,.T.);
#612=ORIENTED_EDGE('',*,*,#458,.T.);
#613=ORIENTED_EDGE('',*,*,#464,.F.);
#614=ORIENTED_EDGE('',*,*,#465,.F.);
#615=ORIENTED_EDGE('',*,*,#466,.T.);
#616=ORIENTED_EDGE('',*,*,#467,.T.);
#617=ORIENTED_EDGE('',*,*,#468,.F.);
#618=ORIENTED_EDGE('',*,*,#467,.F.);
#619=ORIENTED_EDGE('',*,*,#469,.T.);
#620=ORIENTED_EDGE('',*,*,#470,.T.);
#621=ORIENTED_EDGE('',*,*,#471,.F.);
#622=ORIENTED_EDGE('',*,*,#470,.F.);
#623=ORIENTED_EDGE('',*,*,#472,.T.);
#624=ORIENTED_EDGE('',*,*,#473,.T.);
#625=ORIENTED_EDGE('',*,*,#474,.F.);
#626=ORIENTED_EDGE('',*,*,#473,.F.);
#627=ORIENTED_EDGE('',*,*,#475,.T.);
#628=ORIENTED_EDGE('',*,*,#476,.T.);
#629=ORIENTED_EDGE('',*,*,#477,.F.);
#630=ORIENTED_EDGE('',*,*,#478,.F.);
#631=ORIENTED_EDGE('',*,*,#479,.T.);
#632=ORIENTED_EDGE('',*,*,#462,.T.);
#633=ORIENTED_EDGE('',*,*,#480,.F.);
#634=ORIENTED_EDGE('',*,*,#460,.F.);
#635=ORIENTED_EDGE('',*,*,#481,.T.);
#636=ORIENTED_EDGE('',*,*,#478,.T.);
#637=ORIENTED_EDGE('',*,*,#482,.F.);
#638=ORIENTED_EDGE('',*,*,#483,.F.);
#639=ORIENTED_EDGE('',*,*,#484,.T.);
#640=ORIENTED_EDGE('',*,*,#465,.T.);
#641=ORIENTED_EDGE('',*,*,#485,.F.);
#642=ORIENTED_EDGE('',*,*,#486,.F.);
#643=ORIENTED_EDGE('',*,*,#487,.T.);
#644=ORIENTED_EDGE('',*,*,#483,.T.);
#645=ORIENTED_EDGE('',*,*,#488,.F.);
#646=ORIENTED_EDGE('',*,*,#489,.F.);
#647=ORIENTED_EDGE('',*,*,#490,.T.);
#648=ORIENTED_EDGE('',*,*,#486,.T.);
#649=ORIENTED_EDGE('',*,*,#491,.F.);
#650=ORIENTED_EDGE('',*,*,#476,.F.);
#651=ORIENTED_EDGE('',*,*,#492,.T.);
#652=ORIENTED_EDGE('',*,*,#489,.T.);
#653=ORIENTED_EDGE('',*,*,#479,.F.);
#654=ORIENTED_EDGE('',*,*,#481,.F.);
#655=ORIENTED_EDGE('',*,*,#459,.F.);
#656=ORIENTED_EDGE('',*,*,#463,.F.);
#657=ORIENTED_EDGE('',*,*,#484,.F.);
#658=ORIENTED_EDGE('',*,*,#487,.F.);
#659=ORIENTED_EDGE('',*,*,#490,.F.);
#660=ORIENTED_EDGE('',*,*,#492,.F.);
#661=ORIENTED_EDGE('',*,*,#475,.F.);
#662=ORIENTED_EDGE('',*,*,#472,.F.);
#663=ORIENTED_EDGE('',*,*,#469,.F.);
#664=ORIENTED_EDGE('',*,*,#466,.F.);
#665=ORIENTED_EDGE('',*,*,#464,.T.);
#666=ORIENTED_EDGE('',*,*,#468,.T.);
#667=ORIENTED_EDGE('',*,*,#471,.T.);
#668=ORIENTED_EDGE('',*,*,#474,.T.);
#669=ORIENTED_EDGE('',*,*,#491,.T.);
#670=ORIENTED_EDGE('',*,*,#488,.T.);
#671=ORIENTED_EDGE('',*,*,#485,.T.);
#672=ORIENTED_EDGE('',*,*,#482,.T.);
#673=ORIENTED_EDGE('',*,*,#493,.F.);
#674=ORIENTED_EDGE('',*,*,#494,.F.);
#675=ORIENTED_EDGE('',*,*,#495,.F.);
#676=ORIENTED_EDGE('',*,*,#496,.F.);
#677=ORIENTED_EDGE('',*,*,#497,.F.);
#678=ORIENTED_EDGE('',*,*,#498,.F.);
#679=ORIENTED_EDGE('',*,*,#499,.F.);
#680=ORIENTED_EDGE('',*,*,#500,.T.);
#681=ORIENTED_EDGE('',*,*,#501,.T.);
#682=ORIENTED_EDGE('',*,*,#502,.T.);
#683=ORIENTED_EDGE('',*,*,#503,.T.);
#684=ORIENTED_EDGE('',*,*,#501,.F.);
#685=ORIENTED_EDGE('',*,*,#502,.F.);
#686=ORIENTED_EDGE('',*,*,#503,.F.);
#687=ORIENTED_EDGE('',*,*,#504,.T.);
#688=ORIENTED_EDGE('',*,*,#505,.T.);
#689=ORIENTED_EDGE('',*,*,#504,.F.);
#690=ORIENTED_EDGE('',*,*,#500,.F.);
#691=ORIENTED_EDGE('',*,*,#423,.T.);
#692=ORIENTED_EDGE('',*,*,#426,.T.);
#693=ORIENTED_EDGE('',*,*,#428,.T.);
#694=ORIENTED_EDGE('',*,*,#430,.T.);
#695=ORIENTED_EDGE('',*,*,#432,.T.);
#696=ORIENTED_EDGE('',*,*,#434,.T.);
#697=ORIENTED_EDGE('',*,*,#436,.T.);
#698=ORIENTED_EDGE('',*,*,#438,.T.);
#699=ORIENTED_EDGE('',*,*,#440,.T.);
#700=ORIENTED_EDGE('',*,*,#442,.T.);
#701=ORIENTED_EDGE('',*,*,#444,.T.);
#702=ORIENTED_EDGE('',*,*,#446,.T.);
#703=ORIENTED_EDGE('',*,*,#448,.T.);
#704=ORIENTED_EDGE('',*,*,#450,.T.);
#705=ORIENTED_EDGE('',*,*,#452,.T.);
#706=ORIENTED_EDGE('',*,*,#454,.T.);
#707=ORIENTED_EDGE('',*,*,#456,.T.);
#708=ORIENTED_EDGE('',*,*,#457,.T.);
#709=ORIENTED_EDGE('',*,*,#480,.T.);
#710=ORIENTED_EDGE('',*,*,#477,.T.);
#711=ORIENTED_EDGE('',*,*,#461,.T.);
#712=ORIENTED_EDGE('',*,*,#506,.T.);
#713=ORIENTED_EDGE('',*,*,#507,.T.);
#714=ORIENTED_EDGE('',*,*,#508,.T.);
#715=ORIENTED_EDGE('',*,*,#509,.T.);
#716=ORIENTED_EDGE('',*,*,#510,.T.);
#717=ORIENTED_EDGE('',*,*,#511,.T.);
#718=ORIENTED_EDGE('',*,*,#512,.T.);
#719=ORIENTED_EDGE('',*,*,#506,.F.);
#720=ORIENTED_EDGE('',*,*,#513,.T.);
#721=ORIENTED_EDGE('',*,*,#493,.T.);
#722=ORIENTED_EDGE('',*,*,#513,.F.);
#723=ORIENTED_EDGE('',*,*,#507,.F.);
#724=ORIENTED_EDGE('',*,*,#514,.T.);
#725=ORIENTED_EDGE('',*,*,#495,.T.);
#726=ORIENTED_EDGE('',*,*,#514,.F.);
#727=ORIENTED_EDGE('',*,*,#508,.F.);
#728=ORIENTED_EDGE('',*,*,#515,.T.);
#729=ORIENTED_EDGE('',*,*,#494,.T.);
#730=ORIENTED_EDGE('',*,*,#515,.F.);
#731=ORIENTED_EDGE('',*,*,#509,.F.);
#732=ORIENTED_EDGE('',*,*,#516,.T.);
#733=ORIENTED_EDGE('',*,*,#499,.T.);
#734=ORIENTED_EDGE('',*,*,#516,.F.);
#735=ORIENTED_EDGE('',*,*,#510,.F.);
#736=ORIENTED_EDGE('',*,*,#517,.T.);
#737=ORIENTED_EDGE('',*,*,#498,.T.);
#738=ORIENTED_EDGE('',*,*,#517,.F.);
#739=ORIENTED_EDGE('',*,*,#511,.F.);
#740=ORIENTED_EDGE('',*,*,#518,.T.);
#741=ORIENTED_EDGE('',*,*,#497,.T.);
#742=ORIENTED_EDGE('',*,*,#518,.F.);
#743=ORIENTED_EDGE('',*,*,#512,.F.);
#744=ORIENTED_EDGE('',*,*,#519,.T.);
#745=ORIENTED_EDGE('',*,*,#496,.T.);
#746=ORIENTED_EDGE('',*,*,#519,.F.);
#747=ORIENTED_EDGE('',*,*,#505,.F.);
#748=PLANE('',#890);
#749=PLANE('',#891);
#750=PLANE('',#892);
#751=PLANE('',#893);
#752=PLANE('',#894);
#753=PLANE('',#895);
#754=PLANE('',#896);
#755=PLANE('',#897);
#756=PLANE('',#898);
#757=PLANE('',#899);
#758=PLANE('',#901);
#759=PLANE('',#903);
#760=PLANE('',#905);
#761=PLANE('',#907);
#762=PLANE('',#909);
#763=PLANE('',#911);
#764=PLANE('',#919);
#765=PLANE('',#934);
#766=STYLED_ITEM('',(#1711),#817);
#767=STYLED_ITEM('',(#1711),#818);
#768=STYLED_ITEM('',(#1711),#819);
#769=STYLED_ITEM('',(#1711),#820);
#770=STYLED_ITEM('',(#1711),#821);
#771=STYLED_ITEM('',(#1711),#822);
#772=STYLED_ITEM('',(#1711),#823);
#773=STYLED_ITEM('',(#1711),#824);
#774=STYLED_ITEM('',(#1711),#825);
#775=STYLED_ITEM('',(#1711),#826);
#776=STYLED_ITEM('',(#1711),#827);
#777=STYLED_ITEM('',(#1711),#828);
#778=STYLED_ITEM('',(#1711),#829);
#779=STYLED_ITEM('',(#1711),#830);
#780=STYLED_ITEM('',(#1711),#831);
#781=STYLED_ITEM('',(#1711),#832);
#782=STYLED_ITEM('',(#1711),#833);
#783=STYLED_ITEM('',(#1711),#834);
#784=STYLED_ITEM('',(#1711),#835);
#785=STYLED_ITEM('',(#1711),#836);
#786=STYLED_ITEM('',(#1711),#837);
#787=STYLED_ITEM('',(#1711),#838);
#788=STYLED_ITEM('',(#1711),#839);
#789=STYLED_ITEM('',(#1711),#840);
#790=STYLED_ITEM('',(#1711),#841);
#791=STYLED_ITEM('',(#1711),#842);
#792=STYLED_ITEM('',(#1711),#843);
#793=STYLED_ITEM('',(#1711),#844);
#794=STYLED_ITEM('',(#1711),#845);
#795=STYLED_ITEM('',(#1711),#846);
#796=STYLED_ITEM('',(#1711),#847);
#797=STYLED_ITEM('',(#1711),#848);
#798=STYLED_ITEM('',(#1711),#849);
#799=STYLED_ITEM('',(#1711),#850);
#800=STYLED_ITEM('',(#1711),#851);
#801=STYLED_ITEM('',(#1711),#852);
#802=STYLED_ITEM('',(#1711),#853);
#803=STYLED_ITEM('',(#1711),#854);
#804=STYLED_ITEM('',(#1711),#855);
#805=STYLED_ITEM('',(#1711),#856);
#806=STYLED_ITEM('',(#1711),#857);
#807=STYLED_ITEM('',(#1711),#858);
#808=STYLED_ITEM('',(#1711),#859);
#809=STYLED_ITEM('',(#1711),#860);
#810=STYLED_ITEM('',(#1711),#861);
#811=STYLED_ITEM('',(#1711),#862);
#812=STYLED_ITEM('',(#1711),#863);
#813=STYLED_ITEM('',(#1711),#864);
#814=STYLED_ITEM('',(#1711),#865);
#815=STYLED_ITEM('',(#1711),#866);
#816=STYLED_ITEM('',(#1710),#13);
#817=ADVANCED_FACE('',(#74),#748,.T.);
#818=ADVANCED_FACE('',(#75),#51,.F.);
#819=ADVANCED_FACE('',(#76),#52,.F.);
#820=ADVANCED_FACE('',(#77),#53,.F.);
#821=ADVANCED_FACE('',(#78),#54,.F.);
#822=ADVANCED_FACE('',(#79),#55,.F.);
#823=ADVANCED_FACE('',(#80),#749,.F.);
#824=ADVANCED_FACE('',(#81),#750,.F.);
#825=ADVANCED_FACE('',(#82),#751,.F.);
#826=ADVANCED_FACE('',(#83),#752,.F.);
#827=ADVANCED_FACE('',(#84),#56,.F.);
#828=ADVANCED_FACE('',(#85),#57,.F.);
#829=ADVANCED_FACE('',(#86),#58,.F.);
#830=ADVANCED_FACE('',(#87),#59,.F.);
#831=ADVANCED_FACE('',(#88),#60,.F.);
#832=ADVANCED_FACE('',(#89),#61,.F.);
#833=ADVANCED_FACE('',(#90),#753,.F.);
#834=ADVANCED_FACE('',(#91),#754,.F.);
#835=ADVANCED_FACE('',(#92),#62,.F.);
#836=ADVANCED_FACE('',(#93),#63,.F.);
#837=ADVANCED_FACE('',(#94),#64,.T.);
#838=ADVANCED_FACE('',(#95),#65,.T.);
#839=ADVANCED_FACE('',(#96),#66,.T.);
#840=ADVANCED_FACE('',(#97),#67,.T.);
#841=ADVANCED_FACE('',(#98),#68,.F.);
#842=ADVANCED_FACE('',(#99),#69,.F.);
#843=ADVANCED_FACE('',(#100),#70,.T.);
#844=ADVANCED_FACE('',(#101),#71,.T.);
#845=ADVANCED_FACE('',(#102),#72,.T.);
#846=ADVANCED_FACE('',(#103),#73,.T.);
#847=ADVANCED_FACE('',(#104,#41),#755,.T.);
#848=ADVANCED_FACE('',(#105),#756,.T.);
#849=ADVANCED_FACE('',(#106),#757,.T.);
#850=ADVANCED_FACE('',(#107),#758,.T.);
#851=ADVANCED_FACE('',(#108),#759,.T.);
#852=ADVANCED_FACE('',(#109),#760,.T.);
#853=ADVANCED_FACE('',(#110),#761,.T.);
#854=ADVANCED_FACE('',(#111),#762,.T.);
#855=ADVANCED_FACE('',(#112),#763,.T.);
#856=ADVANCED_FACE('',(#113),#22,.T.);
#857=ADVANCED_FACE('',(#114),#14,.T.);
#858=ADVANCED_FACE('',(#115,#42,#43,#44,#45,#46,#47,#48,#49,#50),#764,.T.);
#859=ADVANCED_FACE('',(#116),#15,.F.);
#860=ADVANCED_FACE('',(#117),#16,.F.);
#861=ADVANCED_FACE('',(#118),#17,.F.);
#862=ADVANCED_FACE('',(#119),#18,.F.);
#863=ADVANCED_FACE('',(#120),#19,.F.);
#864=ADVANCED_FACE('',(#121),#20,.F.);
#865=ADVANCED_FACE('',(#122),#21,.F.);
#866=ADVANCED_FACE('',(#123),#765,.F.);
#867=CLOSED_SHELL('',(#817,#818,#819,#820,#821,#822,#823,#824,#825,#826,
#827,#828,#829,#830,#831,#832,#833,#834,#835,#836,#837,#838,#839,#840,#841,
#842,#843,#844,#845,#846,#847,#848,#849,#850,#851,#852,#853,#854,#855,#856,
#857,#858,#859,#860,#861,#862,#863,#864,#865,#866));
#868=DERIVED_UNIT_ELEMENT(#871,1.);
#869=DERIVED_UNIT_ELEMENT(#1696,-3.);
#870=DIMENSIONAL_EXPONENTS(0.,1.,0.,0.,0.,0.,0.);
#871=(
CONVERSION_BASED_UNIT('gram',#873)
MASS_UNIT()
NAMED_UNIT(#870)
);
#872=(
MASS_UNIT()
NAMED_UNIT(*)
SI_UNIT(.KILO.,.GRAM.)
);
#873=MASS_MEASURE_WITH_UNIT(MASS_MEASURE(0.001),#872);
#874=DERIVED_UNIT((#868,#869));
#875=MEASURE_REPRESENTATION_ITEM('density measure',
POSITIVE_RATIO_MEASURE(0.899),#874);
#876=PROPERTY_DEFINITION_REPRESENTATION(#881,#878);
#877=PROPERTY_DEFINITION_REPRESENTATION(#882,#879);
#878=REPRESENTATION('material name',(#880),#1693);
#879=REPRESENTATION('density',(#875),#1693);
#880=DESCRIPTIVE_REPRESENTATION_ITEM('Polypropylene','Polypropylene');
#881=PROPERTY_DEFINITION('material property','material name',#1703);
#882=PROPERTY_DEFINITION('material property','density of part',#1703);
#883=DATE_TIME_ROLE('creation_date');
#884=APPLIED_DATE_AND_TIME_ASSIGNMENT(#885,#883,(#1703));
#885=DATE_AND_TIME(#886,#887);
#886=CALENDAR_DATE(2023,28,9);
#887=LOCAL_TIME(0,0,0.,#888);
#888=COORDINATED_UNIVERSAL_TIME_OFFSET(0,0,.BEHIND.);
#889=AXIS2_PLACEMENT_3D('',#1077,#935,#936);
#890=AXIS2_PLACEMENT_3D('',#1078,#937,#938);
#891=AXIS2_PLACEMENT_3D('',#1251,#951,#952);
#892=AXIS2_PLACEMENT_3D('',#1255,#955,#956);
#893=AXIS2_PLACEMENT_3D('',#1259,#959,#960);
#894=AXIS2_PLACEMENT_3D('',#1263,#963,#964);
#895=AXIS2_PLACEMENT_3D('',#1351,#973,#974);
#896=AXIS2_PLACEMENT_3D('',#1355,#977,#978);
#897=AXIS2_PLACEMENT_3D('',#1626,#992,#993);
#898=AXIS2_PLACEMENT_3D('',#1627,#994,#995);
#899=AXIS2_PLACEMENT_3D('',#1628,#996,#997);
#900=AXIS2_PLACEMENT_3D('',#1630,#998,#999);
#901=AXIS2_PLACEMENT_3D('',#1631,#1000,#1001);
#902=AXIS2_PLACEMENT_3D('',#1633,#1002,#1003);
#903=AXIS2_PLACEMENT_3D('',#1634,#1004,#1005);
#904=AXIS2_PLACEMENT_3D('',#1636,#1006,#1007);
#905=AXIS2_PLACEMENT_3D('',#1637,#1008,#1009);
#906=AXIS2_PLACEMENT_3D('',#1639,#1010,#1011);
#907=AXIS2_PLACEMENT_3D('',#1640,#1012,#1013);
#908=AXIS2_PLACEMENT_3D('',#1642,#1014,#1015);
#909=AXIS2_PLACEMENT_3D('',#1643,#1016,#1017);
#910=AXIS2_PLACEMENT_3D('',#1645,#1018,#1019);
#911=AXIS2_PLACEMENT_3D('',#1646,#1020,#1021);
#912=AXIS2_PLACEMENT_3D('',#1648,#1022,#1023);
#913=AXIS2_PLACEMENT_3D('',#1649,#1024,#1025);
#914=AXIS2_PLACEMENT_3D('',#1651,#1026,#1027);
#915=AXIS2_PLACEMENT_3D('',#1655,#1029,#1030);
#916=AXIS2_PLACEMENT_3D('',#1656,#1031,#1032);
#917=AXIS2_PLACEMENT_3D('',#1657,#1033,#1034);
#918=AXIS2_PLACEMENT_3D('',#1660,#1036,#1037);
#919=AXIS2_PLACEMENT_3D('',#1661,#1038,#1039);
#920=AXIS2_PLACEMENT_3D('',#1663,#1040,#1041);
#921=AXIS2_PLACEMENT_3D('',#1665,#1042,#1043);
#922=AXIS2_PLACEMENT_3D('',#1667,#1044,#1045);
#923=AXIS2_PLACEMENT_3D('',#1669,#1046,#1047);
#924=AXIS2_PLACEMENT_3D('',#1671,#1048,#1049);
#925=AXIS2_PLACEMENT_3D('',#1673,#1050,#1051);
#926=AXIS2_PLACEMENT_3D('',#1675,#1052,#1053);
#927=AXIS2_PLACEMENT_3D('',#1676,#1054,#1055);
#928=AXIS2_PLACEMENT_3D('',#1678,#1057,#1058);
#929=AXIS2_PLACEMENT_3D('',#1680,#1060,#1061);
#930=AXIS2_PLACEMENT_3D('',#1682,#1063,#1064);
#931=AXIS2_PLACEMENT_3D('',#1684,#1066,#1067);
#932=AXIS2_PLACEMENT_3D('',#1686,#1069,#1070);
#933=AXIS2_PLACEMENT_3D('',#1688,#1072,#1073);
#934=AXIS2_PLACEMENT_3D('',#1690,#1075,#1076);
#935=DIRECTION('axis',(0.,0.,1.));
#936=DIRECTION('refdir',(1.,0.,0.));
#937=DIRECTION('center_axis',(0.,0.,1.));
#938=DIRECTION('ref_axis',(1.,0.,0.));
#939=DIRECTION('',(0.,1.,0.));
#940=DIRECTION('',(-1.,0.,0.));
#941=DIRECTION('',(0.,-1.,0.));
#942=DIRECTION('',(1.,0.,0.));
#943=DIRECTION('',(0.,1.,0.));
#944=DIRECTION('',(-1.,0.,0.));
#945=DIRECTION('',(0.,0.,1.));
#946=DIRECTION('',(0.,0.,1.));
#947=DIRECTION('',(0.,0.,1.));
#948=DIRECTION('',(0.,0.,1.));
#949=DIRECTION('',(0.,0.,1.));
#950=DIRECTION('',(0.,0.,1.));
#951=DIRECTION('center_axis',(0.,1.,0.));
#952=DIRECTION('ref_axis',(0.,0.,1.));
#953=DIRECTION('',(1.,0.,0.));
#954=DIRECTION('',(0.,0.,1.));
#955=DIRECTION('center_axis',(1.,0.,0.));
#956=DIRECTION('ref_axis',(0.,0.,-1.));
#957=DIRECTION('',(0.,-1.,0.));
#958=DIRECTION('',(0.,0.,1.));
#959=DIRECTION('center_axis',(0.,-1.,0.));
#960=DIRECTION('ref_axis',(0.,0.,-1.));
#961=DIRECTION('',(-1.,0.,0.));
#962=DIRECTION('',(0.,0.,1.));
#963=DIRECTION('center_axis',(-1.,0.,0.));
#964=DIRECTION('ref_axis',(0.,0.,1.));
#965=DIRECTION('',(0.,1.,0.));
#966=DIRECTION('',(0.,0.,1.));
#967=DIRECTION('',(0.,0.,1.));
#968=DIRECTION('',(0.,0.,1.));
#969=DIRECTION('',(0.,0.,1.));
#970=DIRECTION('',(0.,0.,1.));
#971=DIRECTION('',(0.,0.,1.));
#972=DIRECTION('',(0.,0.,1.));
#973=DIRECTION('center_axis',(0.,-1.,0.));
#974=DIRECTION('ref_axis',(0.,0.,-1.));
#975=DIRECTION('',(-1.,0.,0.));
#976=DIRECTION('',(0.,0.,1.));
#977=DIRECTION('center_axis',(-1.,0.,0.));
#978=DIRECTION('ref_axis',(0.,0.,1.));
#979=DIRECTION('',(0.,1.,0.));
#980=DIRECTION('',(0.,0.,1.));
#981=DIRECTION('',(0.,0.,1.));
#982=DIRECTION('',(0.,0.,1.));
#983=DIRECTION('',(0.,0.,1.));
#984=DIRECTION('',(0.,0.,1.));
#985=DIRECTION('',(0.,0.,1.));
#986=DIRECTION('',(0.,0.,1.));
#987=DIRECTION('',(0.,0.,1.));
#988=DIRECTION('',(0.,0.,1.));
#989=DIRECTION('',(0.,0.,1.));
#990=DIRECTION('',(0.,0.,1.));
#991=DIRECTION('',(0.,0.,1.));
#992=DIRECTION('center_axis',(0.,0.,1.));
#993=DIRECTION('ref_axis',(1.,0.,0.));
#994=DIRECTION('center_axis',(0.,0.,1.));
#995=DIRECTION('ref_axis',(1.,0.,0.));
#996=DIRECTION('center_axis',(0.,0.,1.));
#997=DIRECTION('ref_axis',(1.,0.,0.));
#998=DIRECTION('center_axis',(0.,0.,-1.));
#999=DIRECTION('ref_axis',(-1.,0.,0.));
#1000=DIRECTION('center_axis',(0.,0.,1.));
#1001=DIRECTION('ref_axis',(1.,0.,0.));
#1002=DIRECTION('center_axis',(0.,0.,-1.));
#1003=DIRECTION('ref_axis',(-1.,0.,0.));
#1004=DIRECTION('center_axis',(0.,0.,1.));
#1005=DIRECTION('ref_axis',(1.,0.,0.));
#1006=DIRECTION('center_axis',(0.,0.,-1.));
#1007=DIRECTION('ref_axis',(-1.,0.,0.));
#1008=DIRECTION('center_axis',(0.,0.,1.));
#1009=DIRECTION('ref_axis',(1.,0.,0.));
#1010=DIRECTION('center_axis',(0.,0.,-1.));
#1011=DIRECTION('ref_axis',(-1.,0.,0.));
#1012=DIRECTION('center_axis',(0.,0.,1.));
#1013=DIRECTION('ref_axis',(1.,0.,0.));
#1014=DIRECTION('center_axis',(0.,0.,-1.));
#1015=DIRECTION('ref_axis',(-1.,0.,0.));
#1016=DIRECTION('center_axis',(0.,0.,1.));
#1017=DIRECTION('ref_axis',(1.,0.,0.));
#1018=DIRECTION('center_axis',(0.,0.,-1.));
#1019=DIRECTION('ref_axis',(-1.,0.,0.));
#1020=DIRECTION('center_axis',(0.,0.,1.));
#1021=DIRECTION('ref_axis',(1.,0.,0.));
#1022=DIRECTION('center_axis',(0.,0.,-1.));
#1023=DIRECTION('ref_axis',(-1.,0.,0.));
#1024=DIRECTION('center_axis',(0.,0.,-1.));
#1025=DIRECTION('ref_axis',(-1.,0.,0.));
#1026=DIRECTION('center_axis',(0.,0.,-1.));
#1027=DIRECTION('ref_axis',(-1.,0.,0.));
#1028=DIRECTION('',(0.707106781186546,8.65956056235492E-17,-0.707106781186549));
#1029=DIRECTION('center_axis',(0.,0.,1.));
#1030=DIRECTION('ref_axis',(-1.,0.,0.));
#1031=DIRECTION('center_axis',(0.,0.,1.));
#1032=DIRECTION('ref_axis',(-1.,0.,0.));
#1033=DIRECTION('center_axis',(0.,0.,1.));
#1034=DIRECTION('ref_axis',(1.,0.,0.));
#1035=DIRECTION('',(0.,0.,-1.));
#1036=DIRECTION('center_axis',(0.,0.,1.));
#1037=DIRECTION('ref_axis',(1.,0.,0.));
#1038=DIRECTION('center_axis',(0.,0.,1.));
#1039=DIRECTION('ref_axis',(1.,0.,0.));
#1040=DIRECTION('center_axis',(0.,0.,-1.));
#1041=DIRECTION('ref_axis',(-1.,0.,0.));
#1042=DIRECTION('center_axis',(0.,0.,-1.));
#1043=DIRECTION('ref_axis',(-1.,0.,0.));
#1044=DIRECTION('center_axis',(0.,0.,-1.));
#1045=DIRECTION('ref_axis',(-1.,0.,0.));
#1046=DIRECTION('center_axis',(0.,0.,-1.));
#1047=DIRECTION('ref_axis',(-1.,0.,0.));
#1048=DIRECTION('center_axis',(0.,0.,-1.));
#1049=DIRECTION('ref_axis',(-1.,0.,0.));
#1050=DIRECTION('center_axis',(0.,0.,-1.));
#1051=DIRECTION('ref_axis',(-1.,0.,0.));
#1052=DIRECTION('center_axis',(0.,0.,-1.));
#1053=DIRECTION('ref_axis',(-1.,0.,0.));
#1054=DIRECTION('center_axis',(0.,0.,1.));
#1055=DIRECTION('ref_axis',(-1.,0.,0.));
#1056=DIRECTION('',(0.,0.,-1.));
#1057=DIRECTION('center_axis',(0.,0.,1.));
#1058=DIRECTION('ref_axis',(-1.,0.,0.));
#1059=DIRECTION('',(0.,0.,-1.));
#1060=DIRECTION('center_axis',(0.,0.,1.));
#1061=DIRECTION('ref_axis',(-1.,0.,0.));
#1062=DIRECTION('',(0.,0.,-1.));
#1063=DIRECTION('center_axis',(0.,0.,1.));
#1064=DIRECTION('ref_axis',(-1.,0.,0.));
#1065=DIRECTION('',(0.,0.,-1.));
#1066=DIRECTION('center_axis',(0.,0.,1.));
#1067=DIRECTION('ref_axis',(-1.,0.,0.));
#1068=DIRECTION('',(0.,0.,-1.));
#1069=DIRECTION('center_axis',(0.,0.,1.));
#1070=DIRECTION('ref_axis',(-1.,0.,0.));
#1071=DIRECTION('',(0.,0.,-1.));
#1072=DIRECTION('center_axis',(0.,0.,1.));
#1073=DIRECTION('ref_axis',(-1.,0.,0.));
#1074=DIRECTION('',(0.,0.,-1.));
#1075=DIRECTION('center_axis',(0.,0.,1.));
#1076=DIRECTION('ref_axis',(1.,0.,0.));
#1077=CARTESIAN_POINT('',(0.,0.,0.));
#1078=CARTESIAN_POINT('Origin',(0.,0.,11.4));
#1079=CARTESIAN_POINT('',(-18.219155239579,-27.1411108952056,11.4));
#1080=CARTESIAN_POINT('',(-18.219155239579,-26.4320347201651,11.4));
#1081=CARTESIAN_POINT('',(-18.219155239579,-13.5705554476028,11.4));
#1082=CARTESIAN_POINT('',(-15.1356868441171,-27.1411108952056,11.4));
#1083=CARTESIAN_POINT('',(-7.56784342205856,-27.1411108952056,11.4));
#1084=CARTESIAN_POINT('',(-15.1356868441171,-26.5616943636011,11.4));
#1085=CARTESIAN_POINT('',(-15.1356868441171,-13.2808471818005,11.4));
#1086=CARTESIAN_POINT('',(-17.591116341686,-26.5616943636011,11.4));
#1087=CARTESIAN_POINT('',(-8.795558170843,-26.5616943636011,11.4));
#1088=CARTESIAN_POINT('',(-16.2702087241819,-25.2650979292413,11.4));
#1089=CARTESIAN_POINT('Ctrl Pts',(-16.2702087241819,-25.2650979292413,11.4));
#1090=CARTESIAN_POINT('Ctrl Pts',(-16.4809056447654,-25.4947035478258,11.4));
#1091=CARTESIAN_POINT('Ctrl Pts',(-16.7152384378502,-25.7324128941251,11.4));
#1092=CARTESIAN_POINT('Ctrl Pts',(-16.9732071034364,-25.9782259681392,11.4));
#1093=CARTESIAN_POINT('Ctrl Pts',(-17.2311757690226,-26.2240390421532,11.4));
#1094=CARTESIAN_POINT('Ctrl Pts',(-17.4371455151058,-26.4185285073072,11.4));
#1095=CARTESIAN_POINT('Ctrl Pts',(-17.591116341686,-26.5616943636011,11.4));
#1096=CARTESIAN_POINT('',(-15.6016511877152,-24.4101546553353,11.4));
#1097=CARTESIAN_POINT('Ctrl Pts',(-15.6016511877152,-24.4101546553353,11.4));
#1098=CARTESIAN_POINT('Ctrl Pts',(-15.6826884648627,-24.5560217542008,11.4));
#1099=CARTESIAN_POINT('Ctrl Pts',(-15.7819591293683,-24.7005382317804,11.4));
#1100=CARTESIAN_POINT('Ctrl Pts',(-15.8994631812322,-24.8437040880743,11.4));
#1101=CARTESIAN_POINT('Ctrl Pts',(-16.0169672330961,-24.9868699443682,11.4));
#1102=CARTESIAN_POINT('Ctrl Pts',(-16.140549080746,-25.1273345580905,11.4));
#1103=CARTESIAN_POINT('Ctrl Pts',(-16.2702087241819,-25.2650979292413,11.4));
#1104=CARTESIAN_POINT('',(-15.3423319008432,-23.4093442825638,11.4));
#1105=CARTESIAN_POINT('Ctrl Pts',(-15.3423319008432,-23.4093442825638,11.4));
#1106=CARTESIAN_POINT('Ctrl Pts',(-15.3423319008432,-23.6065349902894,11.4));
#1107=CARTESIAN_POINT('Ctrl Pts',(-15.3652924627017,-23.7875182425854,11.4));
#1108=CARTESIAN_POINT('Ctrl Pts',(-15.4112135864186,-23.952294039452,11.4));
#1109=CARTESIAN_POINT('Ctrl Pts',(-15.4571347101355,-24.1170698363185,11.4));
#1110=CARTESIAN_POINT('Ctrl Pts',(-15.5206139105677,-24.269690041613,11.4));
#1111=CARTESIAN_POINT('Ctrl Pts',(-15.6016511877152,-24.4101546553353,11.4));
#1112=CARTESIAN_POINT('',(-16.833417800357,-22.0357624349139,11.4));
#1113=CARTESIAN_POINT('Ctrl Pts',(-16.833417800357,-22.0357624349139,11.4));
#1114=CARTESIAN_POINT('Ctrl Pts',(-16.3661028354731,-22.0357624349139,11.4));
#1115=CARTESIAN_POINT('Ctrl Pts',(-16.0007597776666,-22.1593442825638,11.4));
#1116=CARTESIAN_POINT('Ctrl Pts',(-15.7373886269372,-22.4065079778636,11.4));
#1117=CARTESIAN_POINT('Ctrl Pts',(-15.4740174762079,-22.6536716731635,11.4));
#1118=CARTESIAN_POINT('Ctrl Pts',(-15.3423319008432,-22.9879504413969,11.4));
#1119=CARTESIAN_POINT('Ctrl Pts',(-15.3423319008432,-23.4093442825638,11.4));
#1120=CARTESIAN_POINT('',(-18.1138067792873,-22.3356003603596,11.4));
#1121=CARTESIAN_POINT('Ctrl Pts',(-18.1138067792873,-22.3356003603596,11.4));
#1122=CARTESIAN_POINT('Ctrl Pts',(-17.9760434081366,-22.26806929607,11.4));
#1123=CARTESIAN_POINT('Ctrl Pts',(-17.7835798749113,-22.2012135424233,11.4));
#1124=CARTESIAN_POINT('Ctrl Pts',(-17.5364161796114,-22.1350330994196,11.4));
#1125=CARTESIAN_POINT('Ctrl Pts',(-17.2892524843116,-22.0688526564158,11.4));
#1126=CARTESIAN_POINT('Ctrl Pts',(-17.0549196912268,-22.0357624349139,11.4));
#1127=CARTESIAN_POINT('Ctrl Pts',(-16.833417800357,-22.0357624349139,11.4));
#1128=CARTESIAN_POINT('',(-18.1138067792873,-23.0487283992575,11.4));
#1129=CARTESIAN_POINT('',(-18.1138067792873,-11.5243641996287,11.4));
#1130=CARTESIAN_POINT('',(-18.0773400045709,-23.0487283992575,11.4));
#1131=CARTESIAN_POINT('',(-9.03867000228546,-23.0487283992575,11.4));
#1132=CARTESIAN_POINT('',(-17.591116341686,-22.773201656956,11.4));
#1133=CARTESIAN_POINT('Ctrl Pts',(-17.591116341686,-22.773201656956,11.4));
#1134=CARTESIAN_POINT('Ctrl Pts',(-17.6856598316914,-22.8110190529582,11.4));
#1135=CARTESIAN_POINT('Ctrl Pts',(-17.7768267684823,-22.8569401766751,11.4));
#1136=CARTESIAN_POINT('Ctrl Pts',(-17.8646171520588,-22.9109650281068,11.4));
#1137=CARTESIAN_POINT('Ctrl Pts',(-17.9524075356352,-22.9649898795384,11.4));
#1138=CARTESIAN_POINT('Ctrl Pts',(-18.0233151531393,-23.0109110032553,11.4));
#1139=CARTESIAN_POINT('Ctrl Pts',(-18.0773400045709,-23.0487283992575,11.4));
#1140=CARTESIAN_POINT('',(-16.8820401666455,-22.6151789665184,11.4));
#1141=CARTESIAN_POINT('Ctrl Pts',(-16.8820401666455,-22.6151789665184,11.4));
#1142=CARTESIAN_POINT('Ctrl Pts',(-17.0008948397951,-22.6151789665184,11.4));
#1143=CARTESIAN_POINT('Ctrl Pts',(-17.1211001342306,-22.6300358006621,11.4));
#1144=CARTESIAN_POINT('Ctrl Pts',(-17.2426560499518,-22.6597494689495,11.4));
#1145=CARTESIAN_POINT('Ctrl Pts',(-17.364211965673,-22.689463137237,11.4));
#1146=CARTESIAN_POINT('Ctrl Pts',(-17.4803653962511,-22.7272805332391,11.4));
#1147=CARTESIAN_POINT('Ctrl Pts',(-17.591116341686,-22.773201656956,11.4));
#1148=CARTESIAN_POINT('',(-16.2702087241819,-22.8177721593871,11.4));
#1149=CARTESIAN_POINT('Ctrl Pts',(-16.2702087241819,-22.8177721593871,11.4));
#1150=CARTESIAN_POINT('Ctrl Pts',(-16.3485447587579,-22.7502410950976,11.4));
#1151=CARTESIAN_POINT('Ctrl Pts',(-16.4390363849059,-22.6995927968804,11.4));
#1152=CARTESIAN_POINT('Ctrl Pts',(-16.541683602626,-22.6658272647356,11.4));
#1153=CARTESIAN_POINT('Ctrl Pts',(-16.6443308203462,-22.6320617325908,11.4));
#1154=CARTESIAN_POINT('Ctrl Pts',(-16.7577830083527,-22.6151789665184,11.4));
#1155=CARTESIAN_POINT('Ctrl Pts',(-16.8820401666455,-22.6151789665184,11.4));
#1156=CARTESIAN_POINT('',(-16.0230450288821,-23.4458110572802,11.4));
#1157=CARTESIAN_POINT('Ctrl Pts',(-16.0230450288821,-23.4458110572802,11.4));
#1158=CARTESIAN_POINT('Ctrl Pts',(-16.0230450288821,-23.3053464435579,11.4));
#1159=CARTESIAN_POINT('Ctrl Pts',(-16.0446549694548,-23.1824399065508,11.4));
#1160=CARTESIAN_POINT('Ctrl Pts',(-16.0878748506001,-23.0770914462591,11.4));
#1161=CARTESIAN_POINT('Ctrl Pts',(-16.1310947317454,-22.9717429859674,11.4));
#1162=CARTESIAN_POINT('Ctrl Pts',(-16.191872689606,-22.8853032236767,11.4));
#1163=CARTESIAN_POINT('Ctrl Pts',(-16.2702087241819,-22.8177721593871,11.4));
#1164=CARTESIAN_POINT('',(-17.0116998100815,-25.2286311545249,11.4));
#1165=CARTESIAN_POINT('Ctrl Pts',(-17.0116998100815,-25.2286311545249,11.4));
#1166=CARTESIAN_POINT('Ctrl Pts',(-16.6308246074883,-24.8099385559295,11.4));
#1167=CARTESIAN_POINT('Ctrl Pts',(-16.3708300099734,-24.4749844770533,11.4));
#1168=CARTESIAN_POINT('Ctrl Pts',(-16.2317160175369,-24.2237689178961,11.4));
#1169=CARTESIAN_POINT('Ctrl Pts',(-16.0926020251004,-23.9725533587388,11.4));
#1170=CARTESIAN_POINT('Ctrl Pts',(-16.0230450288821,-23.7132340718669,11.4));
#1171=CARTESIAN_POINT('Ctrl Pts',(-16.0230450288821,-23.4458110572802,11.4));
#1172=CARTESIAN_POINT('Ctrl Pts',(-18.219155239579,-26.4320347201651,11.4));
#1173=CARTESIAN_POINT('Ctrl Pts',(-17.9976533487092,-26.2240390421532,11.4));
#1174=CARTESIAN_POINT('Ctrl Pts',(-17.7883070494116,-26.0234717812132,11.4));
#1175=CARTESIAN_POINT('Ctrl Pts',(-17.591116341686,-25.830332937345,11.4));
#1176=CARTESIAN_POINT('Ctrl Pts',(-17.3939256339604,-25.6371940934768,11.4));
#1177=CARTESIAN_POINT('Ctrl Pts',(-17.2007867900923,-25.4366268325368,11.4));
#1178=CARTESIAN_POINT('Ctrl Pts',(-17.0116998100815,-25.2286311545249,11.4));
#1179=CARTESIAN_POINT('Ctrl Pts',(-16.833417800357,-22.0357624349139,-111.620386668219));
#1180=CARTESIAN_POINT('Ctrl Pts',(-16.833417800357,-22.0357624349139,135.620386668219));
#1181=CARTESIAN_POINT('Ctrl Pts',(-17.1656706366617,-22.0357624349139,-111.620386668219));
#1182=CARTESIAN_POINT('Ctrl Pts',(-17.1656706366617,-22.0357624349139,135.620386668219));
#1183=CARTESIAN_POINT('Ctrl Pts',(-17.9071617225612,-22.2343037639252,-111.620386668219));
#1184=CARTESIAN_POINT('Ctrl Pts',(-17.9071617225612,-22.2343037639252,135.620386668219));
#1185=CARTESIAN_POINT('Ctrl Pts',(-18.1138067792873,-22.3356003603596,-111.620386668219));
#1186=CARTESIAN_POINT('Ctrl Pts',(-18.1138067792873,-22.3356003603596,135.620386668219));
#1187=CARTESIAN_POINT('',(-18.1138067792873,-22.3356003603596,12.));
#1188=CARTESIAN_POINT('',(-16.833417800357,-22.0357624349139,12.));
#1189=CARTESIAN_POINT('Ctrl Pts',(-18.1138067792873,-22.3356003603596,12.));
#1190=CARTESIAN_POINT('Ctrl Pts',(-17.9071617225612,-22.2343037639252,12.));
#1191=CARTESIAN_POINT('Ctrl Pts',(-17.1656706366617,-22.0357624349139,12.));
#1192=CARTESIAN_POINT('Ctrl Pts',(-16.833417800357,-22.0357624349139,12.));
#1193=CARTESIAN_POINT('',(-18.1138067792873,-22.3356003603596,-111.620386668219));
#1194=CARTESIAN_POINT('',(-16.833417800357,-22.0357624349139,-111.620386668219));
#1195=CARTESIAN_POINT('Ctrl Pts',(-15.3423319008432,-23.4093442825638,-111.620386668219));
#1196=CARTESIAN_POINT('Ctrl Pts',(-15.3423319008432,-23.4093442825638,135.620386668219));
#1197=CARTESIAN_POINT('Ctrl Pts',(-15.3423319008432,-22.7772535208134,-111.620386668219));
#1198=CARTESIAN_POINT('Ctrl Pts',(-15.3423319008432,-22.7772535208134,135.620386668219));
#1199=CARTESIAN_POINT('Ctrl Pts',(-16.1324453530312,-22.0357624349139,-111.620386668219));
#1200=CARTESIAN_POINT('Ctrl Pts',(-16.1324453530312,-22.0357624349139,135.620386668219));
#1201=CARTESIAN_POINT('Ctrl Pts',(-16.833417800357,-22.0357624349139,-111.620386668219));
#1202=CARTESIAN_POINT('Ctrl Pts',(-16.833417800357,-22.0357624349139,135.620386668219));
#1203=CARTESIAN_POINT('',(-15.3423319008432,-23.4093442825638,12.));
#1204=CARTESIAN_POINT('Ctrl Pts',(-16.833417800357,-22.0357624349139,12.));
#1205=CARTESIAN_POINT('Ctrl Pts',(-16.1324453530312,-22.0357624349139,12.));
#1206=CARTESIAN_POINT('Ctrl Pts',(-15.3423319008432,-22.7772535208134,12.));
#1207=CARTESIAN_POINT('Ctrl Pts',(-15.3423319008432,-23.4093442825638,12.));
#1208=CARTESIAN_POINT('',(-15.3423319008432,-23.4093442825638,-111.620386668219));
#1209=CARTESIAN_POINT('Ctrl Pts',(-15.6016511877152,-24.4101546553353,-111.620386668219));
#1210=CARTESIAN_POINT('Ctrl Pts',(-15.6016511877152,-24.4101546553353,135.620386668219));
#1211=CARTESIAN_POINT('Ctrl Pts',(-15.4800952719939,-24.1994577347518,-111.620386668219));
#1212=CARTESIAN_POINT('Ctrl Pts',(-15.4800952719939,-24.1994577347518,135.620386668219));
#1213=CARTESIAN_POINT('Ctrl Pts',(-15.3423319008432,-23.7051303441521,-111.620386668219));
#1214=CARTESIAN_POINT('Ctrl Pts',(-15.3423319008432,-23.7051303441521,135.620386668219));
#1215=CARTESIAN_POINT('Ctrl Pts',(-15.3423319008432,-23.4093442825638,-111.620386668219));
#1216=CARTESIAN_POINT('Ctrl Pts',(-15.3423319008432,-23.4093442825638,135.620386668219));
#1217=CARTESIAN_POINT('',(-15.6016511877152,-24.4101546553353,12.));
#1218=CARTESIAN_POINT('Ctrl Pts',(-15.3423319008432,-23.4093442825638,12.));
#1219=CARTESIAN_POINT('Ctrl Pts',(-15.3423319008432,-23.7051303441521,12.));
#1220=CARTESIAN_POINT('Ctrl Pts',(-15.4800952719939,-24.1994577347518,12.));
#1221=CARTESIAN_POINT('Ctrl Pts',(-15.6016511877152,-24.4101546553353,12.));
#1222=CARTESIAN_POINT('',(-15.6016511877152,-24.4101546553353,-111.620386668219));
#1223=CARTESIAN_POINT('Ctrl Pts',(-16.2702087241819,-25.2650979292413,-111.620386668219));
#1224=CARTESIAN_POINT('Ctrl Pts',(-16.2702087241819,-25.2650979292413,135.620386668219));
#1225=CARTESIAN_POINT('Ctrl Pts',(-16.075719259028,-25.0584528725152,-111.620386668219));
#1226=CARTESIAN_POINT('Ctrl Pts',(-16.075719259028,-25.0584528725152,135.620386668219));
#1227=CARTESIAN_POINT('Ctrl Pts',(-15.7232071034364,-24.6289553036335,-111.620386668219));
#1228=CARTESIAN_POINT('Ctrl Pts',(-15.7232071034364,-24.6289553036335,135.620386668219));
#1229=CARTESIAN_POINT('Ctrl Pts',(-15.6016511877152,-24.4101546553353,-111.620386668219));
#1230=CARTESIAN_POINT('Ctrl Pts',(-15.6016511877152,-24.4101546553353,135.620386668219));
#1231=CARTESIAN_POINT('',(-16.2702087241819,-25.2650979292413,12.));
#1232=CARTESIAN_POINT('Ctrl Pts',(-15.6016511877152,-24.4101546553353,12.));
#1233=CARTESIAN_POINT('Ctrl Pts',(-15.7232071034364,-24.6289553036335,12.));
#1234=CARTESIAN_POINT('Ctrl Pts',(-16.075719259028,-25.0584528725152,12.));
#1235=CARTESIAN_POINT('Ctrl Pts',(-16.2702087241819,-25.2650979292413,12.));
#1236=CARTESIAN_POINT('',(-16.2702087241819,-25.2650979292413,-111.620386668219));
#1237=CARTESIAN_POINT('Ctrl Pts',(-17.591116341686,-26.5616943636011,-111.620386668219));
#1238=CARTESIAN_POINT('Ctrl Pts',(-17.591116341686,-26.5616943636011,135.620386668219));
#1239=CARTESIAN_POINT('Ctrl Pts',(-17.3601601018157,-26.3469455791602,-111.620386668219));
#1240=CARTESIAN_POINT('Ctrl Pts',(-17.3601601018157,-26.3469455791602,135.620386668219));
#1241=CARTESIAN_POINT('Ctrl Pts',(-16.5862541050572,-25.6095063571181,-111.620386668219));
#1242=CARTESIAN_POINT('Ctrl Pts',(-16.5862541050572,-25.6095063571181,135.620386668219));
#1243=CARTESIAN_POINT('Ctrl Pts',(-16.2702087241819,-25.2650979292413,-111.620386668219));
#1244=CARTESIAN_POINT('Ctrl Pts',(-16.2702087241819,-25.2650979292413,135.620386668219));
#1245=CARTESIAN_POINT('',(-17.591116341686,-26.5616943636011,12.));
#1246=CARTESIAN_POINT('Ctrl Pts',(-16.2702087241819,-25.2650979292413,12.));
#1247=CARTESIAN_POINT('Ctrl Pts',(-16.5862541050572,-25.6095063571181,12.));
#1248=CARTESIAN_POINT('Ctrl Pts',(-17.3601601018157,-26.3469455791602,12.));
#1249=CARTESIAN_POINT('Ctrl Pts',(-17.591116341686,-26.5616943636011,12.));
#1250=CARTESIAN_POINT('',(-17.591116341686,-26.5616943636011,-111.620386668219));
#1251=CARTESIAN_POINT('Origin',(-17.591116341686,-26.5616943636011,-111.620386668219));
#1252=CARTESIAN_POINT('',(-15.1356868441171,-26.5616943636011,12.));
#1253=CARTESIAN_POINT('',(-8.795558170843,-26.5616943636011,12.));
#1254=CARTESIAN_POINT('',(-15.1356868441171,-26.5616943636011,-111.620386668219));
#1255=CARTESIAN_POINT('Origin',(-15.1356868441171,-26.5616943636011,-111.620386668219));
#1256=CARTESIAN_POINT('',(-15.1356868441171,-27.1411108952056,12.));
#1257=CARTESIAN_POINT('',(-15.1356868441171,-13.2808471818005,12.));
#1258=CARTESIAN_POINT('',(-15.1356868441171,-27.1411108952056,-111.620386668219));
#1259=CARTESIAN_POINT('Origin',(-15.1356868441171,-27.1411108952056,-111.620386668219));
#1260=CARTESIAN_POINT('',(-18.219155239579,-27.1411108952056,12.));
#1261=CARTESIAN_POINT('',(-7.56784342205856,-27.1411108952056,12.));
#1262=CARTESIAN_POINT('',(-18.219155239579,-27.1411108952056,-111.620386668219));
#1263=CARTESIAN_POINT('Origin',(-18.219155239579,-27.1411108952056,-111.620386668219));
#1264=CARTESIAN_POINT('',(-18.219155239579,-26.4320347201651,12.));
#1265=CARTESIAN_POINT('',(-18.219155239579,-13.5705554476028,12.));
#1266=CARTESIAN_POINT('',(-18.219155239579,-26.4320347201651,-111.620386668219));
#1267=CARTESIAN_POINT('Ctrl Pts',(-17.0116998100815,-25.2286311545249,-111.620386668219));
#1268=CARTESIAN_POINT('Ctrl Pts',(-17.0116998100815,-25.2286311545249,135.620386668219));
#1269=CARTESIAN_POINT('Ctrl Pts',(-17.2953302800977,-25.5406246715427,-111.620386668219));
#1270=CARTESIAN_POINT('Ctrl Pts',(-17.2953302800977,-25.5406246715427,135.620386668219));
#1271=CARTESIAN_POINT('Ctrl Pts',(-17.8869024032743,-26.1200412031473,-111.620386668219));
#1272=CARTESIAN_POINT('Ctrl Pts',(-17.8869024032743,-26.1200412031473,135.620386668219));
#1273=CARTESIAN_POINT('Ctrl Pts',(-18.219155239579,-26.4320347201651,-111.620386668219));
#1274=CARTESIAN_POINT('Ctrl Pts',(-18.219155239579,-26.4320347201651,135.620386668219));
#1275=CARTESIAN_POINT('',(-17.0116998100815,-25.2286311545249,12.));
#1276=CARTESIAN_POINT('Ctrl Pts',(-18.219155239579,-26.4320347201651,12.));
#1277=CARTESIAN_POINT('Ctrl Pts',(-17.8869024032743,-26.1200412031473,12.));
#1278=CARTESIAN_POINT('Ctrl Pts',(-17.2953302800977,-25.5406246715427,12.));
#1279=CARTESIAN_POINT('Ctrl Pts',(-17.0116998100815,-25.2286311545249,12.));
#1280=CARTESIAN_POINT('',(-17.0116998100815,-25.2286311545249,-111.620386668219));
#1281=CARTESIAN_POINT('Ctrl Pts',(-16.0230450288821,-23.4458110572802,-111.620386668219));
#1282=CARTESIAN_POINT('Ctrl Pts',(-16.0230450288821,-23.4458110572802,135.620386668219));
#1283=CARTESIAN_POINT('Ctrl Pts',(-16.0230450288821,-23.8469455791602,-111.620386668219));
#1284=CARTESIAN_POINT('Ctrl Pts',(-16.0230450288821,-23.8469455791602,135.620386668219));
#1285=CARTESIAN_POINT('Ctrl Pts',(-16.4403870061917,-24.6005922566319,-111.620386668219));
#1286=CARTESIAN_POINT('Ctrl Pts',(-16.4403870061917,-24.6005922566319,135.620386668219));
#1287=CARTESIAN_POINT('Ctrl Pts',(-17.0116998100815,-25.2286311545249,-111.620386668219));
#1288=CARTESIAN_POINT('Ctrl Pts',(-17.0116998100815,-25.2286311545249,135.620386668219));
#1289=CARTESIAN_POINT('',(-16.0230450288821,-23.4458110572802,12.));
#1290=CARTESIAN_POINT('Ctrl Pts',(-17.0116998100815,-25.2286311545249,12.));
#1291=CARTESIAN_POINT('Ctrl Pts',(-16.4403870061917,-24.6005922566319,12.));
#1292=CARTESIAN_POINT('Ctrl Pts',(-16.0230450288821,-23.8469455791602,12.));
#1293=CARTESIAN_POINT('Ctrl Pts',(-16.0230450288821,-23.4458110572802,12.));
#1294=CARTESIAN_POINT('',(-16.0230450288821,-23.4458110572802,-111.620386668219));
#1295=CARTESIAN_POINT('Ctrl Pts',(-16.2702087241819,-22.8177721593871,-111.620386668219));
#1296=CARTESIAN_POINT('Ctrl Pts',(-16.2702087241819,-22.8177721593871,135.620386668219));
#1297=CARTESIAN_POINT('Ctrl Pts',(-16.1527046723181,-22.9190687558215,-111.620386668219));
#1298=CARTESIAN_POINT('Ctrl Pts',(-16.1527046723181,-22.9190687558215,135.620386668219));
#1299=CARTESIAN_POINT('Ctrl Pts',(-16.0230450288821,-23.2351141366967,-111.620386668219));
#1300=CARTESIAN_POINT('Ctrl Pts',(-16.0230450288821,-23.2351141366967,135.620386668219));
#1301=CARTESIAN_POINT('Ctrl Pts',(-16.0230450288821,-23.4458110572802,-111.620386668219));
#1302=CARTESIAN_POINT('Ctrl Pts',(-16.0230450288821,-23.4458110572802,135.620386668219));
#1303=CARTESIAN_POINT('',(-16.2702087241819,-22.8177721593871,12.));
#1304=CARTESIAN_POINT('Ctrl Pts',(-16.0230450288821,-23.4458110572802,12.));
#1305=CARTESIAN_POINT('Ctrl Pts',(-16.0230450288821,-23.2351141366967,12.));
#1306=CARTESIAN_POINT('Ctrl Pts',(-16.1527046723181,-22.9190687558215,12.));
#1307=CARTESIAN_POINT('Ctrl Pts',(-16.2702087241819,-22.8177721593871,12.));
#1308=CARTESIAN_POINT('',(-16.2702087241819,-22.8177721593871,-111.620386668219));
#1309=CARTESIAN_POINT('Ctrl Pts',(-16.8820401666455,-22.6151789665184,-111.620386668219));
#1310=CARTESIAN_POINT('Ctrl Pts',(-16.8820401666455,-22.6151789665184,135.620386668219));
#1311=CARTESIAN_POINT('Ctrl Pts',(-16.6956544292063,-22.6151789665184,-111.620386668219));
#1312=CARTESIAN_POINT('Ctrl Pts',(-16.6956544292063,-22.6151789665184,135.620386668219));
#1313=CARTESIAN_POINT('Ctrl Pts',(-16.3877127760458,-22.7164755629528,-111.620386668219));
#1314=CARTESIAN_POINT('Ctrl Pts',(-16.3877127760458,-22.7164755629528,135.620386668219));
#1315=CARTESIAN_POINT('Ctrl Pts',(-16.2702087241819,-22.8177721593871,-111.620386668219));
#1316=CARTESIAN_POINT('Ctrl Pts',(-16.2702087241819,-22.8177721593871,135.620386668219));
#1317=CARTESIAN_POINT('',(-16.8820401666455,-22.6151789665184,12.));
#1318=CARTESIAN_POINT('Ctrl Pts',(-16.2702087241819,-22.8177721593871,12.));
#1319=CARTESIAN_POINT('Ctrl Pts',(-16.3877127760458,-22.7164755629528,12.));
#1320=CARTESIAN_POINT('Ctrl Pts',(-16.6956544292063,-22.6151789665184,12.));
#1321=CARTESIAN_POINT('Ctrl Pts',(-16.8820401666455,-22.6151789665184,12.));
#1322=CARTESIAN_POINT('',(-16.8820401666455,-22.6151789665184,-111.620386668219));
#1323=CARTESIAN_POINT('Ctrl Pts',(-17.591116341686,-22.773201656956,-111.620386668219));
#1324=CARTESIAN_POINT('Ctrl Pts',(-17.591116341686,-22.773201656956,135.620386668219));
#1325=CARTESIAN_POINT('Ctrl Pts',(-17.4249899235336,-22.7043199713807,-111.620386668219));
#1326=CARTESIAN_POINT('Ctrl Pts',(-17.4249899235336,-22.7043199713807,135.620386668219));
#1327=CARTESIAN_POINT('Ctrl Pts',(-17.06032217637,-22.6151789665184,-111.620386668219));
#1328=CARTESIAN_POINT('Ctrl Pts',(-17.06032217637,-22.6151789665184,135.620386668219));
#1329=CARTESIAN_POINT('Ctrl Pts',(-16.8820401666455,-22.6151789665184,-111.620386668219));
#1330=CARTESIAN_POINT('Ctrl Pts',(-16.8820401666455,-22.6151789665184,135.620386668219));
#1331=CARTESIAN_POINT('',(-17.591116341686,-22.773201656956,12.));
#1332=CARTESIAN_POINT('Ctrl Pts',(-16.8820401666455,-22.6151789665184,12.));
#1333=CARTESIAN_POINT('Ctrl Pts',(-17.06032217637,-22.6151789665184,12.));
#1334=CARTESIAN_POINT('Ctrl Pts',(-17.4249899235336,-22.7043199713807,12.));
#1335=CARTESIAN_POINT('Ctrl Pts',(-17.591116341686,-22.773201656956,12.));
#1336=CARTESIAN_POINT('',(-17.591116341686,-22.773201656956,-111.620386668219));
#1337=CARTESIAN_POINT('Ctrl Pts',(-18.0773400045709,-23.0487283992575,-111.620386668219));
#1338=CARTESIAN_POINT('Ctrl Pts',(-18.0773400045709,-23.0487283992575,135.620386668219));
#1339=CARTESIAN_POINT('Ctrl Pts',(-17.9963027274234,-22.9920023052542,-111.620386668219));
#1340=CARTESIAN_POINT('Ctrl Pts',(-17.9963027274234,-22.9920023052542,135.620386668219));
#1341=CARTESIAN_POINT('Ctrl Pts',(-17.7329315766941,-22.8299277509593,-111.620386668219));
#1342=CARTESIAN_POINT('Ctrl Pts',(-17.7329315766941,-22.8299277509593,135.620386668219));
#1343=CARTESIAN_POINT('Ctrl Pts',(-17.591116341686,-22.773201656956,-111.620386668219));
#1344=CARTESIAN_POINT('Ctrl Pts',(-17.591116341686,-22.773201656956,135.620386668219));
#1345=CARTESIAN_POINT('',(-18.0773400045709,-23.0487283992575,12.));
#1346=CARTESIAN_POINT('Ctrl Pts',(-17.591116341686,-22.773201656956,12.));
#1347=CARTESIAN_POINT('Ctrl Pts',(-17.7329315766941,-22.8299277509593,12.));
#1348=CARTESIAN_POINT('Ctrl Pts',(-17.9963027274234,-22.9920023052542,12.));
#1349=CARTESIAN_POINT('Ctrl Pts',(-18.0773400045709,-23.0487283992575,12.));
#1350=CARTESIAN_POINT('',(-18.0773400045709,-23.0487283992575,-111.620386668219));
#1351=CARTESIAN_POINT('Origin',(-18.0773400045709,-23.0487283992575,-111.620386668219));
#1352=CARTESIAN_POINT('',(-18.1138067792873,-23.0487283992575,12.));
#1353=CARTESIAN_POINT('',(-9.03867000228546,-23.0487283992575,12.));
#1354=CARTESIAN_POINT('',(-18.1138067792873,-23.0487283992575,-111.620386668219));
#1355=CARTESIAN_POINT('Origin',(-18.1138067792873,-23.0487283992575,-111.620386668219));
#1356=CARTESIAN_POINT('',(-18.1138067792873,-11.5243641996287,12.));
#1357=CARTESIAN_POINT('Ctrl Pts',(-11.3552978651868,-24.6411108952056,-111.620386668219));
#1358=CARTESIAN_POINT('Ctrl Pts',(-11.3552978651868,-24.6411108952056,135.620386668219));
#1359=CARTESIAN_POINT('Ctrl Pts',(-11.3552978651868,-23.3364107331311,-111.620386668219));
#1360=CARTESIAN_POINT('Ctrl Pts',(-11.3552978651868,-23.3364107331311,135.620386668219));
#1361=CARTESIAN_POINT('Ctrl Pts',(-12.1292038619453,-22.0398142987713,-111.620386668219));
#1362=CARTESIAN_POINT('Ctrl Pts',(-12.1292038619453,-22.0398142987713,135.620386668219));
#1363=CARTESIAN_POINT('Ctrl Pts',(-12.9517322249923,-22.0398142987713,-111.620386668219));
#1364=CARTESIAN_POINT('Ctrl Pts',(-12.9517322249923,-22.0398142987713,135.620386668219));
#1365=CARTESIAN_POINT('',(-12.9517322249923,-22.0398142987713,12.));
#1366=CARTESIAN_POINT('',(-11.3552978651868,-24.6411108952056,12.));
#1367=CARTESIAN_POINT('Ctrl Pts',(-12.9517322249923,-22.0398142987713,12.));
#1368=CARTESIAN_POINT('Ctrl Pts',(-12.1292038619453,-22.0398142987713,12.));
#1369=CARTESIAN_POINT('Ctrl Pts',(-11.3552978651868,-23.3364107331311,12.));
#1370=CARTESIAN_POINT('Ctrl Pts',(-11.3552978651868,-24.6411108952056,12.));
#1371=CARTESIAN_POINT('',(-12.9517322249923,-22.0398142987713,11.4));
#1372=CARTESIAN_POINT('',(-12.9517322249923,-22.0398142987713,-111.620386668219));
#1373=CARTESIAN_POINT('',(-11.3552978651868,-24.6411108952056,11.4));
#1374=CARTESIAN_POINT('Ctrl Pts',(-12.9517322249923,-22.0398142987713,11.4));
#1375=CARTESIAN_POINT('Ctrl Pts',(-12.8270252272662,-22.0398142987713,11.4));
#1376=CARTESIAN_POINT('Ctrl Pts',(-12.7019961474791,-22.0509910600056,11.4));
#1377=CARTESIAN_POINT('Ctrl Pts',(-12.4685443714802,-22.1018961592222,11.4));
#1378=CARTESIAN_POINT('Ctrl Pts',(-12.3609738763777,-22.1388397100242,11.4));
#1379=CARTESIAN_POINT('Ctrl Pts',(-12.112901802209,-22.2655964387205,11.4));
#1380=CARTESIAN_POINT('Ctrl Pts',(-11.9874578299511,-22.367012873353,11.4));
#1381=CARTESIAN_POINT('Ctrl Pts',(-11.7993192476224,-22.5892640943273,11.4));
#1382=CARTESIAN_POINT('Ctrl Pts',(-11.6728668170712,-22.7646543290897,11.4));
#1383=CARTESIAN_POINT('Ctrl Pts',(-11.4065977852938,-23.5329618636373,11.4));
#1384=CARTESIAN_POINT('Ctrl Pts',(-11.3552978651868,-24.0906363360854,11.4));
#1385=CARTESIAN_POINT('Ctrl Pts',(-11.3552978651868,-24.6411108952056,11.4));
#1386=CARTESIAN_POINT('',(-11.3552978651868,-24.6411108952056,-111.620386668219));
#1387=CARTESIAN_POINT('Ctrl Pts',(-12.9517322249923,-22.0398142987713,-111.620386668219));
#1388=CARTESIAN_POINT('Ctrl Pts',(-12.9517322249923,-22.0398142987713,135.620386668219));
#1389=CARTESIAN_POINT('Ctrl Pts',(-13.7702087241819,-22.0398142987713,-111.620386668219));
#1390=CARTESIAN_POINT('Ctrl Pts',(-13.7702087241819,-22.0398142987713,135.620386668219));
#1391=CARTESIAN_POINT('Ctrl Pts',(-14.5522184486552,-23.2918402306999,-111.620386668219));
#1392=CARTESIAN_POINT('Ctrl Pts',(-14.5522184486552,-23.2918402306999,135.620386668219));
#1393=CARTESIAN_POINT('Ctrl Pts',(-14.5522184486552,-24.645162759063,-111.620386668219));
#1394=CARTESIAN_POINT('Ctrl Pts',(-14.5522184486552,-24.645162759063,135.620386668219));
#1395=CARTESIAN_POINT('',(-14.5522184486552,-24.645162759063,12.));
#1396=CARTESIAN_POINT('Ctrl Pts',(-14.5522184486552,-24.645162759063,12.));
#1397=CARTESIAN_POINT('Ctrl Pts',(-14.5522184486552,-23.2918402306999,12.));
#1398=CARTESIAN_POINT('Ctrl Pts',(-13.7702087241819,-22.0398142987713,12.));
#1399=CARTESIAN_POINT('Ctrl Pts',(-12.9517322249923,-22.0398142987713,12.));
#1400=CARTESIAN_POINT('',(-14.5522184486552,-24.645162759063,11.4));
#1401=CARTESIAN_POINT('',(-14.5522184486552,-24.645162759063,-111.620386668219));
#1402=CARTESIAN_POINT('Ctrl Pts',(-14.5522184486552,-24.645162759063,11.4));
#1403=CARTESIAN_POINT('Ctrl Pts',(-14.5522184486552,-23.7429477401543,11.4));
#1404=CARTESIAN_POINT('Ctrl Pts',(-14.4218834945763,-23.0831692420452,11.4));
#1405=CARTESIAN_POINT('Ctrl Pts',(-14.1612135864186,-22.6658272647356,11.4));
#1406=CARTESIAN_POINT('Ctrl Pts',(-13.9005436782608,-22.248485287426,11.4));
#1407=CARTESIAN_POINT('Ctrl Pts',(-13.4973832244521,-22.0398142987713,11.4));
#1408=CARTESIAN_POINT('Ctrl Pts',(-12.9517322249923,-22.0398142987713,11.4));
#1409=CARTESIAN_POINT('Ctrl Pts',(-12.2142930029502,-26.1646117055784,-111.620386668219));
#1410=CARTESIAN_POINT('Ctrl Pts',(-12.2142930029502,-26.1646117055784,135.620386668219));
#1411=CARTESIAN_POINT('Ctrl Pts',(-12.1170482703732,-25.9174480102785,-111.620386668219));
#1412=CARTESIAN_POINT('Ctrl Pts',(-12.1170482703732,-25.9174480102785,135.620386668219));
#1413=CARTESIAN_POINT('Ctrl Pts',(-12.0360109932257,-25.1556976050922,-111.620386668219));
#1414=CARTESIAN_POINT('Ctrl Pts',(-12.0360109932257,-25.1556976050922,135.620386668219));
#1415=CARTESIAN_POINT('Ctrl Pts',(-12.0360109932257,-24.6411108952056,-111.620386668219));
#1416=CARTESIAN_POINT('Ctrl Pts',(-12.0360109932257,-24.6411108952056,135.620386668219));
#1417=CARTESIAN_POINT('',(-12.2142930029502,-26.1646117055784,12.));
#1418=CARTESIAN_POINT('',(-12.0360109932257,-24.6411108952056,12.));
#1419=CARTESIAN_POINT('Ctrl Pts',(-12.2142930029502,-26.1646117055784,12.));
#1420=CARTESIAN_POINT('Ctrl Pts',(-12.1170482703732,-25.9174480102785,12.));
#1421=CARTESIAN_POINT('Ctrl Pts',(-12.0360109932257,-25.1556976050922,12.));
#1422=CARTESIAN_POINT('Ctrl Pts',(-12.0360109932257,-24.6411108952056,12.));
#1423=CARTESIAN_POINT('',(-12.2142930029502,-26.1646117055784,11.4));
#1424=CARTESIAN_POINT('',(-12.2142930029502,-26.1646117055784,-111.620386668219));
#1425=CARTESIAN_POINT('',(-12.0360109932257,-24.6411108952056,11.4));
#1426=CARTESIAN_POINT('Ctrl Pts',(-12.2142930029502,-26.1646117055784,11.4));
#1427=CARTESIAN_POINT('Ctrl Pts',(-12.1494631812322,-25.9998359087118,11.4));
#1428=CARTESIAN_POINT('Ctrl Pts',(-12.1035420575153,-25.7904896094142,11.4));
#1429=CARTESIAN_POINT('Ctrl Pts',(-12.0765296317995,-25.5365728076854,11.4));
#1430=CARTESIAN_POINT('Ctrl Pts',(-12.0495172060836,-25.2826560059566,11.4));
#1431=CARTESIAN_POINT('Ctrl Pts',(-12.0360109932257,-24.9841687017966,11.4));
#1432=CARTESIAN_POINT('Ctrl Pts',(-12.0360109932257,-24.6411108952056,11.4));
#1433=CARTESIAN_POINT('',(-12.0360109932257,-24.6411108952056,-111.620386668219));
#1434=CARTESIAN_POINT('Ctrl Pts',(-12.0360109932257,-24.6411108952056,-111.620386668219));
#1435=CARTESIAN_POINT('Ctrl Pts',(-12.0360109932257,-24.6411108952056,135.620386668219));
#1436=CARTESIAN_POINT('Ctrl Pts',(-12.0360109932257,-24.1265241853191,-111.620386668219));
#1437=CARTESIAN_POINT('Ctrl Pts',(-12.0360109932257,-24.1265241853191,135.620386668219));
#1438=CARTESIAN_POINT('Ctrl Pts',(-12.1170482703732,-23.3688256439901,-111.620386668219));
#1439=CARTESIAN_POINT('Ctrl Pts',(-12.1170482703732,-23.3688256439901,135.620386668219));
#1440=CARTESIAN_POINT('Ctrl Pts',(-12.2183448668076,-23.1135582209755,-111.620386668219));
#1441=CARTESIAN_POINT('Ctrl Pts',(-12.2183448668076,-23.1135582209755,135.620386668219));
#1442=CARTESIAN_POINT('',(-12.2183448668076,-23.1135582209755,12.));
#1443=CARTESIAN_POINT('Ctrl Pts',(-12.0360109932257,-24.6411108952056,12.));
#1444=CARTESIAN_POINT('Ctrl Pts',(-12.0360109932257,-24.1265241853191,12.));
#1445=CARTESIAN_POINT('Ctrl Pts',(-12.1170482703732,-23.3688256439901,12.));
#1446=CARTESIAN_POINT('Ctrl Pts',(-12.2183448668076,-23.1135582209755,12.));
#1447=CARTESIAN_POINT('',(-12.2183448668076,-23.1135582209755,11.4));
#1448=CARTESIAN_POINT('Ctrl Pts',(-12.0360109932257,-24.6411108952056,11.4));
#1449=CARTESIAN_POINT('Ctrl Pts',(-12.0360109932257,-24.2980530886146,11.4));
#1450=CARTESIAN_POINT('Ctrl Pts',(-12.0495172060836,-24.0002410950976,11.4));
#1451=CARTESIAN_POINT('Ctrl Pts',(-12.0765296317995,-23.7476749146546,11.4));
#1452=CARTESIAN_POINT('Ctrl Pts',(-12.1035420575153,-23.4951087342116,11.4));
#1453=CARTESIAN_POINT('Ctrl Pts',(-12.150813802518,-23.2837365029852,11.4));
#1454=CARTESIAN_POINT('Ctrl Pts',(-12.2183448668076,-23.1135582209755,11.4));
#1455=CARTESIAN_POINT('',(-12.2183448668076,-23.1135582209755,-111.620386668219));
#1456=CARTESIAN_POINT('Ctrl Pts',(-12.2183448668076,-23.1135582209755,-111.620386668219));
#1457=CARTESIAN_POINT('Ctrl Pts',(-12.2183448668076,-23.1135582209755,135.620386668219));
#1458=CARTESIAN_POINT('Ctrl Pts',(-12.3196414632419,-22.8582907979609,-111.620386668219));
#1459=CARTESIAN_POINT('Ctrl Pts',(-12.3196414632419,-22.8582907979609,135.620386668219));
#1460=CARTESIAN_POINT('Ctrl Pts',(-12.6721536188335,-22.5949196472315,-111.620386668219));
#1461=CARTESIAN_POINT('Ctrl Pts',(-12.6721536188335,-22.5949196472315,135.620386668219));
#1462=CARTESIAN_POINT('Ctrl Pts',(-12.9517322249923,-22.5949196472315,-111.620386668219));
#1463=CARTESIAN_POINT('Ctrl Pts',(-12.9517322249923,-22.5949196472315,135.620386668219));
#1464=CARTESIAN_POINT('',(-12.9517322249923,-22.5949196472315,12.));
#1465=CARTESIAN_POINT('Ctrl Pts',(-12.2183448668076,-23.1135582209755,12.));
#1466=CARTESIAN_POINT('Ctrl Pts',(-12.3196414632419,-22.8582907979609,12.));
#1467=CARTESIAN_POINT('Ctrl Pts',(-12.6721536188335,-22.5949196472315,12.));
#1468=CARTESIAN_POINT('Ctrl Pts',(-12.9517322249923,-22.5949196472315,12.));
#1469=CARTESIAN_POINT('',(-12.9517322249923,-22.5949196472315,11.4));
#1470=CARTESIAN_POINT('Ctrl Pts',(-12.2183448668076,-23.1135582209755,11.4));
#1471=CARTESIAN_POINT('Ctrl Pts',(-12.2858759310971,-22.9433799389657,11.4));
#1472=CARTESIAN_POINT('Ctrl Pts',(-12.3783934891738,-22.8143956061727,11.4));
#1473=CARTESIAN_POINT('Ctrl Pts',(-12.4958975410377,-22.7266052225962,11.4));
#1474=CARTESIAN_POINT('Ctrl Pts',(-12.6134015929016,-22.6388148390198,11.4));
#1475=CARTESIAN_POINT('Ctrl Pts',(-12.7653464875531,-22.5949196472315,11.4));
#1476=CARTESIAN_POINT('Ctrl Pts',(-12.9517322249923,-22.5949196472315,11.4));
#1477=CARTESIAN_POINT('',(-12.9517322249923,-22.5949196472315,-111.620386668219));
#1478=CARTESIAN_POINT('Ctrl Pts',(-12.9517322249923,-22.5949196472315,-111.620386668219));
#1479=CARTESIAN_POINT('Ctrl Pts',(-12.9517322249923,-22.5949196472315,135.620386668219));
#1480=CARTESIAN_POINT('Ctrl Pts',(-13.2313108311512,-22.5949196472315,-111.620386668219));
#1481=CARTESIAN_POINT('Ctrl Pts',(-13.2313108311512,-22.5949196472315,135.620386668219));
#1482=CARTESIAN_POINT('Ctrl Pts',(-13.5919267144575,-22.8582907979609,-111.620386668219));
#1483=CARTESIAN_POINT('Ctrl Pts',(-13.5919267144575,-22.8582907979609,135.620386668219));
#1484=CARTESIAN_POINT('Ctrl Pts',(-13.6972751747492,-23.1216619486902,-111.620386668219));
#1485=CARTESIAN_POINT('Ctrl Pts',(-13.6972751747492,-23.1216619486902,135.620386668219));
#1486=CARTESIAN_POINT('',(-13.6972751747492,-23.1216619486902,12.));
#1487=CARTESIAN_POINT('Ctrl Pts',(-12.9517322249923,-22.5949196472315,12.));
#1488=CARTESIAN_POINT('Ctrl Pts',(-13.2313108311512,-22.5949196472315,12.));
#1489=CARTESIAN_POINT('Ctrl Pts',(-13.5919267144575,-22.8582907979609,12.));
#1490=CARTESIAN_POINT('Ctrl Pts',(-13.6972751747492,-23.1216619486902,12.));
#1491=CARTESIAN_POINT('',(-13.6972751747492,-23.1216619486902,11.4));
#1492=CARTESIAN_POINT('Ctrl Pts',(-12.9517322249923,-22.5949196472315,11.4));
#1493=CARTESIAN_POINT('Ctrl Pts',(-13.1381179624315,-22.5949196472315,11.4));
#1494=CARTESIAN_POINT('Ctrl Pts',(-13.2914134783689,-22.6388148390198,11.4));
#1495=CARTESIAN_POINT('Ctrl Pts',(-13.4116187728043,-22.7266052225962,11.4));
#1496=CARTESIAN_POINT('Ctrl Pts',(-13.5318240672398,-22.8143956061727,11.4));
#1497=CARTESIAN_POINT('Ctrl Pts',(-13.6270428678881,-22.9460811815373,11.4));
#1498=CARTESIAN_POINT('Ctrl Pts',(-13.6972751747492,-23.1216619486902,11.4));
#1499=CARTESIAN_POINT('',(-13.6972751747492,-23.1216619486902,-111.620386668219));
#1500=CARTESIAN_POINT('Ctrl Pts',(-14.5522184486552,-24.645162759063,-111.620386668219));
#1501=CARTESIAN_POINT('Ctrl Pts',(-14.5522184486552,-24.645162759063,135.620386668219));
#1502=CARTESIAN_POINT('Ctrl Pts',(-14.5522184486552,-25.9620185127097,-111.620386668219));
#1503=CARTESIAN_POINT('Ctrl Pts',(-14.5522184486552,-25.9620185127097,135.620386668219));
#1504=CARTESIAN_POINT('Ctrl Pts',(-13.7783124518967,-27.2464593554973,-111.620386668219));
#1505=CARTESIAN_POINT('Ctrl Pts',(-13.7783124518967,-27.2464593554973,135.620386668219));
#1506=CARTESIAN_POINT('Ctrl Pts',(-12.9517322249923,-27.2464593554973,-111.620386668219));
#1507=CARTESIAN_POINT('Ctrl Pts',(-12.9517322249923,-27.2464593554973,135.620386668219));
#1508=CARTESIAN_POINT('',(-12.9517322249923,-27.2464593554973,12.));
#1509=CARTESIAN_POINT('Ctrl Pts',(-12.9517322249923,-27.2464593554973,12.));
#1510=CARTESIAN_POINT('Ctrl Pts',(-13.7783124518967,-27.2464593554973,12.));
#1511=CARTESIAN_POINT('Ctrl Pts',(-14.5522184486552,-25.9620185127097,12.));
#1512=CARTESIAN_POINT('Ctrl Pts',(-14.5522184486552,-24.645162759063,12.));
#1513=CARTESIAN_POINT('',(-12.9517322249923,-27.2464593554973,11.4));
#1514=CARTESIAN_POINT('',(-12.9517322249923,-27.2464593554973,-111.620386668219));
#1515=CARTESIAN_POINT('Ctrl Pts',(-12.9517322249923,-27.2464593554973,11.4));
#1516=CARTESIAN_POINT('Ctrl Pts',(-13.5027857095952,-27.2464593554973,11.4));
#1517=CARTESIAN_POINT('Ctrl Pts',(-13.9072967846898,-27.0323858816994,11.4));
#1518=CARTESIAN_POINT('Ctrl Pts',(-14.165265450276,-26.6042389341035,11.4));
#1519=CARTESIAN_POINT('Ctrl Pts',(-14.4232341158621,-26.1760919865076,11.4));
#1520=CARTESIAN_POINT('Ctrl Pts',(-14.5522184486552,-25.5230665948274,11.4));
#1521=CARTESIAN_POINT('Ctrl Pts',(-14.5522184486552,-24.645162759063,11.4));
#1522=CARTESIAN_POINT('Ctrl Pts',(-12.9517322249923,-27.2464593554973,-111.620386668219));
#1523=CARTESIAN_POINT('Ctrl Pts',(-12.9517322249923,-27.2464593554973,135.620386668219));
#1524=CARTESIAN_POINT('Ctrl Pts',(-12.1373075896601,-27.2464593554973,-111.620386668219));
#1525=CARTESIAN_POINT('Ctrl Pts',(-12.1373075896601,-27.2464593554973,135.620386668219));
#1526=CARTESIAN_POINT('Ctrl Pts',(-11.3552978651868,-25.9863296958539,-111.620386668219));
#1527=CARTESIAN_POINT('Ctrl Pts',(-11.3552978651868,-25.9863296958539,135.620386668219));
#1528=CARTESIAN_POINT('Ctrl Pts',(-11.3552978651868,-24.6411108952056,-111.620386668219));
#1529=CARTESIAN_POINT('Ctrl Pts',(-11.3552978651868,-24.6411108952056,135.620386668219));
#1530=CARTESIAN_POINT('Ctrl Pts',(-11.3552978651868,-24.6411108952056,12.));
#1531=CARTESIAN_POINT('Ctrl Pts',(-11.3552978651868,-25.9863296958539,12.));
#1532=CARTESIAN_POINT('Ctrl Pts',(-12.1373075896601,-27.2464593554973,12.));
#1533=CARTESIAN_POINT('Ctrl Pts',(-12.9517322249923,-27.2464593554973,12.));
#1534=CARTESIAN_POINT('Ctrl Pts',(-11.3552978651868,-24.6411108952056,11.4));
#1535=CARTESIAN_POINT('Ctrl Pts',(-11.3552978651868,-25.5379234289711,11.4));
#1536=CARTESIAN_POINT('Ctrl Pts',(-11.4856328192657,-26.1963513057945,11.4));
#1537=CARTESIAN_POINT('Ctrl Pts',(-11.7463027274234,-26.6163945256756,11.4));
#1538=CARTESIAN_POINT('Ctrl Pts',(-12.0069726355812,-27.0364377455568,11.4));
#1539=CARTESIAN_POINT('Ctrl Pts',(-12.4087824681042,-27.2464593554973,11.4));
#1540=CARTESIAN_POINT('Ctrl Pts',(-12.9517322249923,-27.2464593554973,11.4));
#1541=CARTESIAN_POINT('Ctrl Pts',(-12.9517322249923,-26.6913540070371,-111.620386668219));
#1542=CARTESIAN_POINT('Ctrl Pts',(-12.9517322249923,-26.6913540070371,135.620386668219));
#1543=CARTESIAN_POINT('Ctrl Pts',(-12.6762054826909,-26.6913540070371,-111.620386668219));
#1544=CARTESIAN_POINT('Ctrl Pts',(-12.6762054826909,-26.6913540070371,135.620386668219));
#1545=CARTESIAN_POINT('Ctrl Pts',(-12.3155895993845,-26.4279828563077,-111.620386668219));
#1546=CARTESIAN_POINT('Ctrl Pts',(-12.3155895993845,-26.4279828563077,135.620386668219));
#1547=CARTESIAN_POINT('Ctrl Pts',(-12.2142930029502,-26.1646117055784,-111.620386668219));
#1548=CARTESIAN_POINT('Ctrl Pts',(-12.2142930029502,-26.1646117055784,135.620386668219));
#1549=CARTESIAN_POINT('',(-12.9517322249923,-26.6913540070371,12.));
#1550=CARTESIAN_POINT('Ctrl Pts',(-12.9517322249923,-26.6913540070371,12.));
#1551=CARTESIAN_POINT('Ctrl Pts',(-12.6762054826909,-26.6913540070371,12.));
#1552=CARTESIAN_POINT('Ctrl Pts',(-12.3155895993845,-26.4279828563077,12.));
#1553=CARTESIAN_POINT('Ctrl Pts',(-12.2142930029502,-26.1646117055784,12.));
#1554=CARTESIAN_POINT('',(-12.9517322249923,-26.6913540070371,11.4));
#1555=CARTESIAN_POINT('',(-12.9517322249923,-26.6913540070371,-111.620386668219));
#1556=CARTESIAN_POINT('Ctrl Pts',(-12.9517322249923,-26.6913540070371,11.4));
#1557=CARTESIAN_POINT('Ctrl Pts',(-12.7680477301247,-26.6913540070371,11.4));
#1558=CARTESIAN_POINT('Ctrl Pts',(-12.6161028354731,-26.6474588152488,11.4));
#1559=CARTESIAN_POINT('Ctrl Pts',(-12.4958975410377,-26.5596684316724,11.4));
#1560=CARTESIAN_POINT('Ctrl Pts',(-12.3756922466023,-26.4718780480959,11.4));
#1561=CARTESIAN_POINT('Ctrl Pts',(-12.2818240672398,-26.3401924727313,11.4));
#1562=CARTESIAN_POINT('Ctrl Pts',(-12.2142930029502,-26.1646117055784,11.4));
#1563=CARTESIAN_POINT('Ctrl Pts',(-13.7013270386066,-26.1524561140063,-111.620386668219));
#1564=CARTESIAN_POINT('Ctrl Pts',(-13.7013270386066,-26.1524561140063,135.620386668219));
#1565=CARTESIAN_POINT('Ctrl Pts',(-13.6040823060296,-26.4117754008782,-111.620386668219));
#1566=CARTESIAN_POINT('Ctrl Pts',(-13.6040823060296,-26.4117754008782,135.620386668219));
#1567=CARTESIAN_POINT('Ctrl Pts',(-13.2434664227233,-26.6913540070371,-111.620386668219));
#1568=CARTESIAN_POINT('Ctrl Pts',(-13.2434664227233,-26.6913540070371,135.620386668219));
#1569=CARTESIAN_POINT('Ctrl Pts',(-12.9517322249923,-26.6913540070371,-111.620386668219));
#1570=CARTESIAN_POINT('Ctrl Pts',(-12.9517322249923,-26.6913540070371,135.620386668219));
#1571=CARTESIAN_POINT('',(-13.7013270386066,-26.1524561140063,12.));
#1572=CARTESIAN_POINT('Ctrl Pts',(-13.7013270386066,-26.1524561140063,12.));
#1573=CARTESIAN_POINT('Ctrl Pts',(-13.6040823060296,-26.4117754008782,12.));
#1574=CARTESIAN_POINT('Ctrl Pts',(-13.2434664227233,-26.6913540070371,12.));
#1575=CARTESIAN_POINT('Ctrl Pts',(-12.9517322249923,-26.6913540070371,12.));
#1576=CARTESIAN_POINT('',(-13.7013270386066,-26.1524561140063,11.4));
#1577=CARTESIAN_POINT('',(-13.7013270386066,-26.1524561140063,-111.620386668219));
#1578=CARTESIAN_POINT('Ctrl Pts',(-13.7013270386066,-26.1524561140063,11.4));
#1579=CARTESIAN_POINT('Ctrl Pts',(-13.6364972168886,-26.3253356385876,11.4));
#1580=CARTESIAN_POINT('Ctrl Pts',(-13.5439796588119,-26.458371835238,11.4));
#1581=CARTESIAN_POINT('Ctrl Pts',(-13.4237743643764,-26.5515647039576,11.4));
#1582=CARTESIAN_POINT('Ctrl Pts',(-13.303569069941,-26.6447575726773,11.4));
#1583=CARTESIAN_POINT('Ctrl Pts',(-13.1462216901463,-26.6913540070371,11.4));
#1584=CARTESIAN_POINT('Ctrl Pts',(-12.9517322249923,-26.6913540070371,11.4));
#1585=CARTESIAN_POINT('Ctrl Pts',(-13.8715053206163,-24.645162759063,-111.620386668219));
#1586=CARTESIAN_POINT('Ctrl Pts',(-13.8715053206163,-24.645162759063,135.620386668219));
#1587=CARTESIAN_POINT('Ctrl Pts',(-13.8715053206163,-25.1719050605217,-111.620386668219));
#1588=CARTESIAN_POINT('Ctrl Pts',(-13.8715053206163,-25.1719050605217,135.620386668219));
#1589=CARTESIAN_POINT('Ctrl Pts',(-13.8066754988983,-25.8769293717048,-111.620386668219));
#1590=CARTESIAN_POINT('Ctrl Pts',(-13.8066754988983,-25.8769293717048,135.620386668219));
#1591=CARTESIAN_POINT('Ctrl Pts',(-13.7013270386066,-26.1524561140063,-111.620386668219));
#1592=CARTESIAN_POINT('Ctrl Pts',(-13.7013270386066,-26.1524561140063,135.620386668219));
#1593=CARTESIAN_POINT('',(-13.8715053206163,-24.645162759063,12.));
#1594=CARTESIAN_POINT('Ctrl Pts',(-13.8715053206163,-24.645162759063,12.));
#1595=CARTESIAN_POINT('Ctrl Pts',(-13.8715053206163,-25.1719050605217,12.));
#1596=CARTESIAN_POINT('Ctrl Pts',(-13.8066754988983,-25.8769293717048,12.));
#1597=CARTESIAN_POINT('Ctrl Pts',(-13.7013270386066,-26.1524561140063,12.));
#1598=CARTESIAN_POINT('',(-13.8715053206163,-24.645162759063,11.4));
#1599=CARTESIAN_POINT('',(-13.8715053206163,-24.645162759063,-111.620386668219));
#1600=CARTESIAN_POINT('Ctrl Pts',(-13.8715053206163,-24.645162759063,11.4));
#1601=CARTESIAN_POINT('Ctrl Pts',(-13.8715053206163,-24.9963242933688,11.4));
#1602=CARTESIAN_POINT('Ctrl Pts',(-13.86070035033,-25.2894091123855,11.4));
#1603=CARTESIAN_POINT('Ctrl Pts',(-13.8390904097573,-25.5244172161132,11.4));
#1604=CARTESIAN_POINT('Ctrl Pts',(-13.8174804691846,-25.759425319841,11.4));
#1605=CARTESIAN_POINT('Ctrl Pts',(-13.7715593454677,-25.9687716191386,11.4));
#1606=CARTESIAN_POINT('Ctrl Pts',(-13.7013270386066,-26.1524561140063,11.4));
#1607=CARTESIAN_POINT('Ctrl Pts',(-13.6972751747492,-23.1216619486902,-111.620386668219));
#1608=CARTESIAN_POINT('Ctrl Pts',(-13.6972751747492,-23.1216619486902,135.620386668219));
#1609=CARTESIAN_POINT('Ctrl Pts',(-13.7985717711836,-23.3769293717048,-111.620386668219));
#1610=CARTESIAN_POINT('Ctrl Pts',(-13.7985717711836,-23.3769293717048,135.620386668219));
#1611=CARTESIAN_POINT('Ctrl Pts',(-13.8715053206163,-24.1548872323207,-111.620386668219));
#1612=CARTESIAN_POINT('Ctrl Pts',(-13.8715053206163,-24.1548872323207,135.620386668219));
#1613=CARTESIAN_POINT('Ctrl Pts',(-13.8715053206163,-24.645162759063,-111.620386668219));
#1614=CARTESIAN_POINT('Ctrl Pts',(-13.8715053206163,-24.645162759063,135.620386668219));
#1615=CARTESIAN_POINT('Ctrl Pts',(-13.6972751747492,-23.1216619486902,12.));
#1616=CARTESIAN_POINT('Ctrl Pts',(-13.7985717711836,-23.3769293717048,12.));
#1617=CARTESIAN_POINT('Ctrl Pts',(-13.8715053206163,-24.1548872323207,12.));
#1618=CARTESIAN_POINT('Ctrl Pts',(-13.8715053206163,-24.645162759063,12.));
#1619=CARTESIAN_POINT('Ctrl Pts',(-13.6972751747492,-23.1216619486902,11.4));
#1620=CARTESIAN_POINT('Ctrl Pts',(-13.7648062390388,-23.2918402306999,11.4));
#1621=CARTESIAN_POINT('Ctrl Pts',(-13.8107273627557,-23.5065890151408,11.4));
#1622=CARTESIAN_POINT('Ctrl Pts',(-13.8350385458999,-23.7659083020127,11.4));
#1623=CARTESIAN_POINT('Ctrl Pts',(-13.8593497290442,-24.0252275888847,11.4));
#1624=CARTESIAN_POINT('Ctrl Pts',(-13.8715053206163,-24.3183124079015,11.4));
#1625=CARTESIAN_POINT('Ctrl Pts',(-13.8715053206163,-24.645162759063,11.4));
#1626=CARTESIAN_POINT('Origin',(0.,0.,11.4));
#1627=CARTESIAN_POINT('Origin',(0.,0.,12.));
#1628=CARTESIAN_POINT('Origin',(0.,0.,8.));
#1629=CARTESIAN_POINT('',(10.,0.,8.));
#1630=CARTESIAN_POINT('Origin',(0.,0.,8.));
#1631=CARTESIAN_POINT('Origin',(-19.0525588832577,11.,7.));
#1632=CARTESIAN_POINT('',(-9.05255888325765,11.,7.));
#1633=CARTESIAN_POINT('Origin',(-19.0525588832576,11.,7.));
#1634=CARTESIAN_POINT('Origin',(0.,22.,6.));
#1635=CARTESIAN_POINT('',(10.,22.,6.));
#1636=CARTESIAN_POINT('Origin',(0.,22.,6.));
#1637=CARTESIAN_POINT('Origin',(19.0525588832577,11.,5.));
#1638=CARTESIAN_POINT('',(29.0525588832577,11.,5.));
#1639=CARTESIAN_POINT('Origin',(19.0525588832577,11.,5.));
#1640=CARTESIAN_POINT('Origin',(19.0525588832576,-11.,4.));
#1641=CARTESIAN_POINT('',(29.0525588832576,-11.,4.));
#1642=CARTESIAN_POINT('Origin',(19.0525588832576,-11.,4.));
#1643=CARTESIAN_POINT('Origin',(-8.88178419700125E-15,-22.,3.));
#1644=CARTESIAN_POINT('',(9.99999999999999,-22.,3.));
#1645=CARTESIAN_POINT('Origin',(-8.88178419700125E-15,-22.,3.));
#1646=CARTESIAN_POINT('Origin',(-19.0525588832577,-11.,2.));
#1647=CARTESIAN_POINT('',(-9.05255888325765,-11.,2.));
#1648=CARTESIAN_POINT('Origin',(-19.0525588832577,-11.,2.));
#1649=CARTESIAN_POINT('Origin',(0.,0.,11.75));
#1650=CARTESIAN_POINT('',(43.,-5.26598123633362E-15,12.));
#1651=CARTESIAN_POINT('Origin',(0.,0.,12.));
#1652=CARTESIAN_POINT('',(43.5,5.32721357629099E-15,11.5));
#1653=CARTESIAN_POINT('',(43.25,5.2965974063123E-15,11.75));
#1654=CARTESIAN_POINT('',(-43.5,-5.32721357629099E-15,11.5));
#1655=CARTESIAN_POINT('Origin',(0.,0.,11.5));
#1656=CARTESIAN_POINT('Origin',(0.,0.,11.5));
#1657=CARTESIAN_POINT('Origin',(0.,0.,0.));
#1658=CARTESIAN_POINT('',(-43.5,-5.32721357629099E-15,0.));
#1659=CARTESIAN_POINT('',(-43.5,-5.32721357629099E-15,0.));
#1660=CARTESIAN_POINT('Origin',(0.,0.,0.));
#1661=CARTESIAN_POINT('Origin',(0.,0.,12.));
#1662=CARTESIAN_POINT('',(10.,1.22464679914735E-15,12.));
#1663=CARTESIAN_POINT('Origin',(0.,0.,12.));
#1664=CARTESIAN_POINT('',(10.,22.,12.));
#1665=CARTESIAN_POINT('Origin',(0.,22.,12.));
#1666=CARTESIAN_POINT('',(-9.05255888325765,11.,12.));
#1667=CARTESIAN_POINT('Origin',(-19.0525588832576,11.,12.));
#1668=CARTESIAN_POINT('',(-9.05255888325765,-11.,12.));
#1669=CARTESIAN_POINT('Origin',(-19.0525588832577,-11.,12.));
#1670=CARTESIAN_POINT('',(9.99999999999999,-22.,12.));
#1671=CARTESIAN_POINT('Origin',(-8.88178419700125E-15,-22.,12.));
#1672=CARTESIAN_POINT('',(29.0525588832576,-11.,12.));
#1673=CARTESIAN_POINT('Origin',(19.0525588832576,-11.,12.));
#1674=CARTESIAN_POINT('',(29.0525588832577,11.,12.));
#1675=CARTESIAN_POINT('Origin',(19.0525588832577,11.,12.));
#1676=CARTESIAN_POINT('Origin',(0.,0.,0.));
#1677=CARTESIAN_POINT('',(10.,1.22464679914735E-15,0.));
#1678=CARTESIAN_POINT('Origin',(0.,22.,0.));
#1679=CARTESIAN_POINT('',(10.,22.,0.));
#1680=CARTESIAN_POINT('Origin',(-19.0525588832576,11.,0.));
#1681=CARTESIAN_POINT('',(-9.05255888325765,11.,0.));
#1682=CARTESIAN_POINT('Origin',(-19.0525588832577,-11.,0.));
#1683=CARTESIAN_POINT('',(-9.05255888325765,-11.,0.));
#1684=CARTESIAN_POINT('Origin',(-8.88178419700125E-15,-22.,0.));
#1685=CARTESIAN_POINT('',(9.99999999999999,-22.,0.));
#1686=CARTESIAN_POINT('Origin',(19.0525588832576,-11.,0.));
#1687=CARTESIAN_POINT('',(29.0525588832576,-11.,0.));
#1688=CARTESIAN_POINT('Origin',(19.0525588832577,11.,0.));
#1689=CARTESIAN_POINT('',(29.0525588832577,11.,0.));
#1690=CARTESIAN_POINT('Origin',(0.,0.,0.));
#1691=UNCERTAINTY_MEASURE_WITH_UNIT(LENGTH_MEASURE(0.01),#1695,
'DISTANCE_ACCURACY_VALUE',
'Maximum model space distance between geometric entities at asserted c
onnectivities');
#1692=UNCERTAINTY_MEASURE_WITH_UNIT(LENGTH_MEASURE(0.01),#1695,
'DISTANCE_ACCURACY_VALUE',
'Maximum model space distance between geometric entities at asserted c
onnectivities');
#1693=(
GEOMETRIC_REPRESENTATION_CONTEXT(3)
GLOBAL_UNCERTAINTY_ASSIGNED_CONTEXT((#1691))
GLOBAL_UNIT_ASSIGNED_CONTEXT((#1695,#1697,#1698))
REPRESENTATION_CONTEXT('','3D')
);
#1694=(
GEOMETRIC_REPRESENTATION_CONTEXT(3)
GLOBAL_UNCERTAINTY_ASSIGNED_CONTEXT((#1692))
GLOBAL_UNIT_ASSIGNED_CONTEXT((#1695,#1697,#1698))
REPRESENTATION_CONTEXT('','3D')
);
#1695=(
LENGTH_UNIT()
NAMED_UNIT(*)
SI_UNIT(.MILLI.,.METRE.)
);
#1696=(
LENGTH_UNIT()
NAMED_UNIT(*)
SI_UNIT(.CENTI.,.METRE.)
);
#1697=(
NAMED_UNIT(*)
PLANE_ANGLE_UNIT()
SI_UNIT($,.RADIAN.)
);
#1698=(
NAMED_UNIT(*)
SI_UNIT($,.STERADIAN.)
SOLID_ANGLE_UNIT()
);
#1699=SHAPE_DEFINITION_REPRESENTATION(#1700,#1701);
#1700=PRODUCT_DEFINITION_SHAPE('',$,#1703);
#1701=SHAPE_REPRESENTATION('',(#889),#1693);
#1702=PRODUCT_DEFINITION_CONTEXT('part definition',#1707,'design');
#1703=PRODUCT_DEFINITION('Diameter_20mm','Diameter_20mm',#1704,#1702);
#1704=PRODUCT_DEFINITION_FORMATION('',$,#1709);
#1705=PRODUCT_RELATED_PRODUCT_CATEGORY('Diameter_20mm','Diameter_20mm',
(#1709));
#1706=APPLICATION_PROTOCOL_DEFINITION('international standard',
'automotive_design',2009,#1707);
#1707=APPLICATION_CONTEXT(
'Core Data for Automotive Mechanical Design Process');
#1708=PRODUCT_CONTEXT('part definition',#1707,'mechanical');
#1709=PRODUCT('Diameter_20mm','Diameter_20mm',$,(#1708));
#1710=PRESENTATION_STYLE_ASSIGNMENT((#1712));
#1711=PRESENTATION_STYLE_ASSIGNMENT((#1713));
#1712=SURFACE_STYLE_USAGE(.BOTH.,#1718);
#1713=SURFACE_STYLE_USAGE(.BOTH.,#1719);
#1714=SURFACE_STYLE_RENDERING_WITH_PROPERTIES($,#1726,(#1716));
#1715=SURFACE_STYLE_RENDERING_WITH_PROPERTIES($,#1727,(#1717));
#1716=SURFACE_STYLE_TRANSPARENT(0.);
#1717=SURFACE_STYLE_TRANSPARENT(0.);
#1718=SURFACE_SIDE_STYLE('',(#1720,#1714));
#1719=SURFACE_SIDE_STYLE('',(#1721,#1715));
#1720=SURFACE_STYLE_FILL_AREA(#1722);
#1721=SURFACE_STYLE_FILL_AREA(#1723);
#1722=FILL_AREA_STYLE('',(#1724));
#1723=FILL_AREA_STYLE('',(#1725));
#1724=FILL_AREA_STYLE_COLOUR('',#1726);
#1725=FILL_AREA_STYLE_COLOUR('',#1727);
#1726=COLOUR_RGB('',0.772549019607843,0.76078431372549,0.580392156862745);
#1727=COLOUR_RGB('',0.92156862745098,0.92156862745098,0.92156862745098);
ENDSEC;
END-ISO-10303-21;
