ISO-10303-21;
HEADER;
/* Generated by software containing ST-Developer
 * from STEP Tools, Inc. (www.steptools.com) 
 */

FILE_DESCRIPTION(
/* description */ (''),
/* implementation_level */ '2;1');

FILE_NAME(
/* name */ 'Diameter_14mm.step',
/* time_stamp */ '2026-06-18T09:58:13+02:00',
/* author */ ('neuhau0004'),
/* organization */ (''),
/* preprocessor_version */ 'ST-DEVELOPER v20.1',
/* originating_system */ 'Autodesk Inventor 2026',
/* authorisation */ '');

FILE_SCHEMA (('AUTOMOTIVE_DESIGN { 1 0 10303 214 3 1 1 }'));
ENDSEC;

DATA;
#10=MECHANICAL_DESIGN_GEOMETRIC_PRESENTATION_REPRESENTATION('',(#16,#17,
#18),#591);
#11=GEOMETRICALLY_BOUNDED_WIREFRAME_SHAPE_REPRESENTATION('',(#12),#590);
#12=GEOMETRIC_CURVE_SET('Sketch1',(#147,#148,#149,#150,#151,#152,#153,#154,
#155,#156,#587));
#13=SHAPE_REPRESENTATION_RELATIONSHIP('SRR','None',#598,#15);
#14=SHAPE_REPRESENTATION_RELATIONSHIP('SRR','None',#598,#11);
#15=ADVANCED_BREP_SHAPE_REPRESENTATION('',(#19),#590);
#16=STYLED_ITEM('',(#607),#19);
#17=STYLED_ITEM('',(#609),#147);
#18=STYLED_ITEM('',(#609),#148);
#19=MANIFOLD_SOLID_BREP('Solid1',#301);
#20=FACE_BOUND('',#75,.T.);
#21=FACE_BOUND('',#76,.T.);
#22=FACE_BOUND('',#77,.T.);
#23=FACE_BOUND('',#78,.T.);
#24=FACE_BOUND('',#79,.T.);
#25=FACE_BOUND('',#80,.T.);
#26=FACE_BOUND('',#81,.T.);
#27=FACE_BOUND('',#82,.T.);
#28=FACE_BOUND('',#83,.T.);
#29=PLANE('',#330);
#30=PLANE('',#340);
#31=PLANE('',#342);
#32=PLANE('',#344);
#33=PLANE('',#346);
#34=PLANE('',#348);
#35=PLANE('',#350);
#36=PLANE('',#352);
#37=PLANE('',#354);
#38=PLANE('',#356);
#39=PLANE('',#367);
#40=CYLINDRICAL_SURFACE('',#328,43.);
#41=CYLINDRICAL_SURFACE('',#358,7.);
#42=CYLINDRICAL_SURFACE('',#359,7.);
#43=CYLINDRICAL_SURFACE('',#360,7.);
#44=CYLINDRICAL_SURFACE('',#361,7.);
#45=CYLINDRICAL_SURFACE('',#362,7.);
#46=CYLINDRICAL_SURFACE('',#363,7.);
#47=CYLINDRICAL_SURFACE('',#364,7.);
#48=CYLINDRICAL_SURFACE('',#365,7.);
#49=CYLINDRICAL_SURFACE('',#366,7.);
#50=FACE_OUTER_BOUND('',#72,.T.);
#51=FACE_OUTER_BOUND('',#73,.T.);
#52=FACE_OUTER_BOUND('',#74,.T.);
#53=FACE_OUTER_BOUND('',#84,.T.);
#54=FACE_OUTER_BOUND('',#85,.T.);
#55=FACE_OUTER_BOUND('',#86,.T.);
#56=FACE_OUTER_BOUND('',#87,.T.);
#57=FACE_OUTER_BOUND('',#88,.T.);
#58=FACE_OUTER_BOUND('',#89,.T.);
#59=FACE_OUTER_BOUND('',#90,.T.);
#60=FACE_OUTER_BOUND('',#91,.T.);
#61=FACE_OUTER_BOUND('',#92,.T.);
#62=FACE_OUTER_BOUND('',#93,.T.);
#63=FACE_OUTER_BOUND('',#94,.T.);
#64=FACE_OUTER_BOUND('',#95,.T.);
#65=FACE_OUTER_BOUND('',#96,.T.);
#66=FACE_OUTER_BOUND('',#97,.T.);
#67=FACE_OUTER_BOUND('',#98,.T.);
#68=FACE_OUTER_BOUND('',#99,.T.);
#69=FACE_OUTER_BOUND('',#100,.T.);
#70=FACE_OUTER_BOUND('',#101,.T.);
#71=FACE_OUTER_BOUND('',#102,.T.);
#72=EDGE_LOOP('',(#212,#213,#214,#215,#216));
#73=EDGE_LOOP('',(#217,#218,#219,#220,#221));
#74=EDGE_LOOP('',(#222));
#75=EDGE_LOOP('',(#223));
#76=EDGE_LOOP('',(#224));
#77=EDGE_LOOP('',(#225));
#78=EDGE_LOOP('',(#226));
#79=EDGE_LOOP('',(#227));
#80=EDGE_LOOP('',(#228));
#81=EDGE_LOOP('',(#229));
#82=EDGE_LOOP('',(#230));
#83=EDGE_LOOP('',(#231));
#84=EDGE_LOOP('',(#232));
#85=EDGE_LOOP('',(#233));
#86=EDGE_LOOP('',(#234));
#87=EDGE_LOOP('',(#235));
#88=EDGE_LOOP('',(#236));
#89=EDGE_LOOP('',(#237));
#90=EDGE_LOOP('',(#238));
#91=EDGE_LOOP('',(#239));
#92=EDGE_LOOP('',(#240));
#93=EDGE_LOOP('',(#241,#242,#243,#244));
#94=EDGE_LOOP('',(#245,#246,#247,#248));
#95=EDGE_LOOP('',(#249,#250,#251,#252));
#96=EDGE_LOOP('',(#253,#254,#255,#256));
#97=EDGE_LOOP('',(#257,#258,#259,#260));
#98=EDGE_LOOP('',(#261,#262,#263,#264));
#99=EDGE_LOOP('',(#265,#266,#267,#268));
#100=EDGE_LOOP('',(#269,#270,#271,#272));
#101=EDGE_LOOP('',(#273,#274,#275,#276));
#102=EDGE_LOOP('',(#277));
#103=LINE('',#504,#114);
#104=LINE('',#510,#115);
#105=LINE('',#559,#116);
#106=LINE('',#561,#117);
#107=LINE('',#563,#118);
#108=LINE('',#565,#119);
#109=LINE('',#567,#120);
#110=LINE('',#569,#121);
#111=LINE('',#571,#122);
#112=LINE('',#573,#123);
#113=LINE('',#575,#124);
#114=VECTOR('',#384,42.5);
#115=VECTOR('',#391,43.);
#116=VECTOR('',#452,7.);
#117=VECTOR('',#455,7.);
#118=VECTOR('',#458,7.);
#119=VECTOR('',#461,7.);
#120=VECTOR('',#464,7.);
#121=VECTOR('',#467,7.);
#122=VECTOR('',#470,7.);
#123=VECTOR('',#473,7.);
#124=VECTOR('',#476,7.);
#125=CIRCLE('',#325,42.);
#126=CIRCLE('',#326,43.);
#127=CIRCLE('',#327,43.);
#128=CIRCLE('',#329,43.);
#129=CIRCLE('',#331,7.);
#130=CIRCLE('',#332,7.);
#131=CIRCLE('',#333,7.);
#132=CIRCLE('',#334,7.);
#133=CIRCLE('',#335,7.);
#134=CIRCLE('',#336,7.);
#135=CIRCLE('',#337,7.);
#136=CIRCLE('',#338,7.);
#137=CIRCLE('',#339,7.);
#138=CIRCLE('',#341,7.);
#139=CIRCLE('',#343,7.);
#140=CIRCLE('',#345,7.);
#141=CIRCLE('',#347,7.);
#142=CIRCLE('',#349,7.);
#143=CIRCLE('',#351,7.);
#144=CIRCLE('',#353,7.);
#145=CIRCLE('',#355,7.);
#146=CIRCLE('',#357,7.);
#147=CIRCLE('',#368,43.);
#148=CIRCLE('',#369,7.);
#149=CIRCLE('',#370,7.);
#150=CIRCLE('',#371,7.);
#151=CIRCLE('',#372,7.);
#152=CIRCLE('',#373,7.);
#153=CIRCLE('',#374,7.);
#154=CIRCLE('',#375,7.);
#155=CIRCLE('',#376,7.);
#156=CIRCLE('',#377,7.);
#157=VERTEX_POINT('',#501);
#158=VERTEX_POINT('',#503);
#159=VERTEX_POINT('',#505);
#160=VERTEX_POINT('',#509);
#161=VERTEX_POINT('',#513);
#162=VERTEX_POINT('',#515);
#163=VERTEX_POINT('',#517);
#164=VERTEX_POINT('',#519);
#165=VERTEX_POINT('',#521);
#166=VERTEX_POINT('',#523);
#167=VERTEX_POINT('',#525);
#168=VERTEX_POINT('',#527);
#169=VERTEX_POINT('',#529);
#170=VERTEX_POINT('',#532);
#171=VERTEX_POINT('',#535);
#172=VERTEX_POINT('',#538);
#173=VERTEX_POINT('',#541);
#174=VERTEX_POINT('',#544);
#175=VERTEX_POINT('',#547);
#176=VERTEX_POINT('',#550);
#177=VERTEX_POINT('',#553);
#178=VERTEX_POINT('',#556);
#179=EDGE_CURVE('',#157,#157,#125,.T.);
#180=EDGE_CURVE('',#157,#158,#103,.T.);
#181=EDGE_CURVE('',#158,#159,#126,.T.);
#182=EDGE_CURVE('',#159,#158,#127,.T.);
#183=EDGE_CURVE('',#159,#160,#104,.T.);
#184=EDGE_CURVE('',#160,#160,#128,.T.);
#185=EDGE_CURVE('',#161,#161,#129,.T.);
#186=EDGE_CURVE('',#162,#162,#130,.T.);
#187=EDGE_CURVE('',#163,#163,#131,.T.);
#188=EDGE_CURVE('',#164,#164,#132,.T.);
#189=EDGE_CURVE('',#165,#165,#133,.T.);
#190=EDGE_CURVE('',#166,#166,#134,.T.);
#191=EDGE_CURVE('',#167,#167,#135,.T.);
#192=EDGE_CURVE('',#168,#168,#136,.T.);
#193=EDGE_CURVE('',#169,#169,#137,.T.);
#194=EDGE_CURVE('',#170,#170,#138,.T.);
#195=EDGE_CURVE('',#171,#171,#139,.T.);
#196=EDGE_CURVE('',#172,#172,#140,.T.);
#197=EDGE_CURVE('',#173,#173,#141,.T.);
#198=EDGE_CURVE('',#174,#174,#142,.T.);
#199=EDGE_CURVE('',#175,#175,#143,.T.);
#200=EDGE_CURVE('',#176,#176,#144,.T.);
#201=EDGE_CURVE('',#177,#177,#145,.T.);
#202=EDGE_CURVE('',#178,#178,#146,.T.);
#203=EDGE_CURVE('',#161,#170,#105,.T.);
#204=EDGE_CURVE('',#162,#178,#106,.T.);
#205=EDGE_CURVE('',#163,#171,#107,.T.);
#206=EDGE_CURVE('',#164,#172,#108,.T.);
#207=EDGE_CURVE('',#165,#173,#109,.T.);
#208=EDGE_CURVE('',#166,#174,#110,.T.);
#209=EDGE_CURVE('',#167,#175,#111,.T.);
#210=EDGE_CURVE('',#168,#176,#112,.T.);
#211=EDGE_CURVE('',#169,#177,#113,.T.);
#212=ORIENTED_EDGE('',*,*,#179,.T.);
#213=ORIENTED_EDGE('',*,*,#180,.T.);
#214=ORIENTED_EDGE('',*,*,#181,.T.);
#215=ORIENTED_EDGE('',*,*,#182,.T.);
#216=ORIENTED_EDGE('',*,*,#180,.F.);
#217=ORIENTED_EDGE('',*,*,#181,.F.);
#218=ORIENTED_EDGE('',*,*,#182,.F.);
#219=ORIENTED_EDGE('',*,*,#183,.T.);
#220=ORIENTED_EDGE('',*,*,#184,.T.);
#221=ORIENTED_EDGE('',*,*,#183,.F.);
#222=ORIENTED_EDGE('',*,*,#179,.F.);
#223=ORIENTED_EDGE('',*,*,#185,.T.);
#224=ORIENTED_EDGE('',*,*,#186,.T.);
#225=ORIENTED_EDGE('',*,*,#187,.T.);
#226=ORIENTED_EDGE('',*,*,#188,.T.);
#227=ORIENTED_EDGE('',*,*,#189,.T.);
#228=ORIENTED_EDGE('',*,*,#190,.T.);
#229=ORIENTED_EDGE('',*,*,#191,.T.);
#230=ORIENTED_EDGE('',*,*,#192,.T.);
#231=ORIENTED_EDGE('',*,*,#193,.T.);
#232=ORIENTED_EDGE('',*,*,#194,.F.);
#233=ORIENTED_EDGE('',*,*,#195,.F.);
#234=ORIENTED_EDGE('',*,*,#196,.F.);
#235=ORIENTED_EDGE('',*,*,#197,.F.);
#236=ORIENTED_EDGE('',*,*,#198,.F.);
#237=ORIENTED_EDGE('',*,*,#199,.F.);
#238=ORIENTED_EDGE('',*,*,#200,.F.);
#239=ORIENTED_EDGE('',*,*,#201,.F.);
#240=ORIENTED_EDGE('',*,*,#202,.F.);
#241=ORIENTED_EDGE('',*,*,#185,.F.);
#242=ORIENTED_EDGE('',*,*,#203,.T.);
#243=ORIENTED_EDGE('',*,*,#194,.T.);
#244=ORIENTED_EDGE('',*,*,#203,.F.);
#245=ORIENTED_EDGE('',*,*,#186,.F.);
#246=ORIENTED_EDGE('',*,*,#204,.T.);
#247=ORIENTED_EDGE('',*,*,#202,.T.);
#248=ORIENTED_EDGE('',*,*,#204,.F.);
#249=ORIENTED_EDGE('',*,*,#187,.F.);
#250=ORIENTED_EDGE('',*,*,#205,.T.);
#251=ORIENTED_EDGE('',*,*,#195,.T.);
#252=ORIENTED_EDGE('',*,*,#205,.F.);
#253=ORIENTED_EDGE('',*,*,#188,.F.);
#254=ORIENTED_EDGE('',*,*,#206,.T.);
#255=ORIENTED_EDGE('',*,*,#196,.T.);
#256=ORIENTED_EDGE('',*,*,#206,.F.);
#257=ORIENTED_EDGE('',*,*,#189,.F.);
#258=ORIENTED_EDGE('',*,*,#207,.T.);
#259=ORIENTED_EDGE('',*,*,#197,.T.);
#260=ORIENTED_EDGE('',*,*,#207,.F.);
#261=ORIENTED_EDGE('',*,*,#190,.F.);
#262=ORIENTED_EDGE('',*,*,#208,.T.);
#263=ORIENTED_EDGE('',*,*,#198,.T.);
#264=ORIENTED_EDGE('',*,*,#208,.F.);
#265=ORIENTED_EDGE('',*,*,#191,.F.);
#266=ORIENTED_EDGE('',*,*,#209,.T.);
#267=ORIENTED_EDGE('',*,*,#199,.T.);
#268=ORIENTED_EDGE('',*,*,#209,.F.);
#269=ORIENTED_EDGE('',*,*,#192,.F.);
#270=ORIENTED_EDGE('',*,*,#210,.T.);
#271=ORIENTED_EDGE('',*,*,#200,.T.);
#272=ORIENTED_EDGE('',*,*,#210,.F.);
#273=ORIENTED_EDGE('',*,*,#193,.F.);
#274=ORIENTED_EDGE('',*,*,#211,.T.);
#275=ORIENTED_EDGE('',*,*,#201,.T.);
#276=ORIENTED_EDGE('',*,*,#211,.F.);
#277=ORIENTED_EDGE('',*,*,#184,.F.);
#278=CONICAL_SURFACE('',#324,42.5,0.785398163397446);
#279=ADVANCED_FACE('',(#50),#278,.T.);
#280=ADVANCED_FACE('',(#51),#40,.T.);
#281=ADVANCED_FACE('',(#52,#20,#21,#22,#23,#24,#25,#26,#27,#28),#29,.T.);
#282=ADVANCED_FACE('',(#53),#30,.T.);
#283=ADVANCED_FACE('',(#54),#31,.T.);
#284=ADVANCED_FACE('',(#55),#32,.T.);
#285=ADVANCED_FACE('',(#56),#33,.T.);
#286=ADVANCED_FACE('',(#57),#34,.T.);
#287=ADVANCED_FACE('',(#58),#35,.T.);
#288=ADVANCED_FACE('',(#59),#36,.T.);
#289=ADVANCED_FACE('',(#60),#37,.T.);
#290=ADVANCED_FACE('',(#61),#38,.T.);
#291=ADVANCED_FACE('',(#62),#41,.F.);
#292=ADVANCED_FACE('',(#63),#42,.F.);
#293=ADVANCED_FACE('',(#64),#43,.F.);
#294=ADVANCED_FACE('',(#65),#44,.F.);
#295=ADVANCED_FACE('',(#66),#45,.F.);
#296=ADVANCED_FACE('',(#67),#46,.F.);
#297=ADVANCED_FACE('',(#68),#47,.F.);
#298=ADVANCED_FACE('',(#69),#48,.F.);
#299=ADVANCED_FACE('',(#70),#49,.F.);
#300=ADVANCED_FACE('',(#71),#39,.F.);
#301=CLOSED_SHELL('',(#279,#280,#281,#282,#283,#284,#285,#286,#287,#288,
#289,#290,#291,#292,#293,#294,#295,#296,#297,#298,#299,#300));
#302=DERIVED_UNIT_ELEMENT(#305,1.);
#303=DERIVED_UNIT_ELEMENT(#593,-3.);
#304=DIMENSIONAL_EXPONENTS(0.,1.,0.,0.,0.,0.,0.);
#305=(
CONVERSION_BASED_UNIT('gram',#307)
MASS_UNIT()
NAMED_UNIT(#304)
);
#306=(
MASS_UNIT()
NAMED_UNIT(*)
SI_UNIT(.KILO.,.GRAM.)
);
#307=MASS_MEASURE_WITH_UNIT(MASS_MEASURE(0.001),#306);
#308=DERIVED_UNIT((#302,#303));
#309=MEASURE_REPRESENTATION_ITEM('density measure',
POSITIVE_RATIO_MEASURE(1.),#308);
#310=PROPERTY_DEFINITION_REPRESENTATION(#315,#312);
#311=PROPERTY_DEFINITION_REPRESENTATION(#316,#313);
#312=REPRESENTATION('material name',(#314),#590);
#313=REPRESENTATION('density',(#309),#590);
#314=DESCRIPTIVE_REPRESENTATION_ITEM('Generic','Generic');
#315=PROPERTY_DEFINITION('material property','material name',#600);
#316=PROPERTY_DEFINITION('material property','density of part',#600);
#317=DATE_TIME_ROLE('creation_date');
#318=APPLIED_DATE_AND_TIME_ASSIGNMENT(#319,#317,(#600));
#319=DATE_AND_TIME(#320,#321);
#320=CALENDAR_DATE(2023,28,9);
#321=LOCAL_TIME(0,0,0.,#322);
#322=COORDINATED_UNIVERSAL_TIME_OFFSET(0,0,.BEHIND.);
#323=AXIS2_PLACEMENT_3D('',#499,#378,#379);
#324=AXIS2_PLACEMENT_3D('',#500,#380,#381);
#325=AXIS2_PLACEMENT_3D('',#502,#382,#383);
#326=AXIS2_PLACEMENT_3D('',#506,#385,#386);
#327=AXIS2_PLACEMENT_3D('',#507,#387,#388);
#328=AXIS2_PLACEMENT_3D('',#508,#389,#390);
#329=AXIS2_PLACEMENT_3D('',#511,#392,#393);
#330=AXIS2_PLACEMENT_3D('',#512,#394,#395);
#331=AXIS2_PLACEMENT_3D('',#514,#396,#397);
#332=AXIS2_PLACEMENT_3D('',#516,#398,#399);
#333=AXIS2_PLACEMENT_3D('',#518,#400,#401);
#334=AXIS2_PLACEMENT_3D('',#520,#402,#403);
#335=AXIS2_PLACEMENT_3D('',#522,#404,#405);
#336=AXIS2_PLACEMENT_3D('',#524,#406,#407);
#337=AXIS2_PLACEMENT_3D('',#526,#408,#409);
#338=AXIS2_PLACEMENT_3D('',#528,#410,#411);
#339=AXIS2_PLACEMENT_3D('',#530,#412,#413);
#340=AXIS2_PLACEMENT_3D('',#531,#414,#415);
#341=AXIS2_PLACEMENT_3D('',#533,#416,#417);
#342=AXIS2_PLACEMENT_3D('',#534,#418,#419);
#343=AXIS2_PLACEMENT_3D('',#536,#420,#421);
#344=AXIS2_PLACEMENT_3D('',#537,#422,#423);
#345=AXIS2_PLACEMENT_3D('',#539,#424,#425);
#346=AXIS2_PLACEMENT_3D('',#540,#426,#427);
#347=AXIS2_PLACEMENT_3D('',#542,#428,#429);
#348=AXIS2_PLACEMENT_3D('',#543,#430,#431);
#349=AXIS2_PLACEMENT_3D('',#545,#432,#433);
#350=AXIS2_PLACEMENT_3D('',#546,#434,#435);
#351=AXIS2_PLACEMENT_3D('',#548,#436,#437);
#352=AXIS2_PLACEMENT_3D('',#549,#438,#439);
#353=AXIS2_PLACEMENT_3D('',#551,#440,#441);
#354=AXIS2_PLACEMENT_3D('',#552,#442,#443);
#355=AXIS2_PLACEMENT_3D('',#554,#444,#445);
#356=AXIS2_PLACEMENT_3D('',#555,#446,#447);
#357=AXIS2_PLACEMENT_3D('',#557,#448,#449);
#358=AXIS2_PLACEMENT_3D('',#558,#450,#451);
#359=AXIS2_PLACEMENT_3D('',#560,#453,#454);
#360=AXIS2_PLACEMENT_3D('',#562,#456,#457);
#361=AXIS2_PLACEMENT_3D('',#564,#459,#460);
#362=AXIS2_PLACEMENT_3D('',#566,#462,#463);
#363=AXIS2_PLACEMENT_3D('',#568,#465,#466);
#364=AXIS2_PLACEMENT_3D('',#570,#468,#469);
#365=AXIS2_PLACEMENT_3D('',#572,#471,#472);
#366=AXIS2_PLACEMENT_3D('',#574,#474,#475);
#367=AXIS2_PLACEMENT_3D('',#576,#477,#478);
#368=AXIS2_PLACEMENT_3D('',#577,#479,#480);
#369=AXIS2_PLACEMENT_3D('',#578,#481,#482);
#370=AXIS2_PLACEMENT_3D('',#579,#483,#484);
#371=AXIS2_PLACEMENT_3D('',#580,#485,#486);
#372=AXIS2_PLACEMENT_3D('',#581,#487,#488);
#373=AXIS2_PLACEMENT_3D('',#582,#489,#490);
#374=AXIS2_PLACEMENT_3D('',#583,#491,#492);
#375=AXIS2_PLACEMENT_3D('',#584,#493,#494);
#376=AXIS2_PLACEMENT_3D('',#585,#495,#496);
#377=AXIS2_PLACEMENT_3D('',#586,#497,#498);
#378=DIRECTION('axis',(0.,0.,1.));
#379=DIRECTION('refdir',(1.,0.,0.));
#380=DIRECTION('center_axis',(0.,0.,-1.));
#381=DIRECTION('ref_axis',(-1.,0.,0.));
#382=DIRECTION('center_axis',(0.,0.,-1.));
#383=DIRECTION('ref_axis',(-1.,0.,0.));
#384=DIRECTION('',(0.707106781186546,8.65956056235491E-17,-0.707106781186549));
#385=DIRECTION('center_axis',(0.,0.,1.));
#386=DIRECTION('ref_axis',(-1.,0.,0.));
#387=DIRECTION('center_axis',(0.,0.,1.));
#388=DIRECTION('ref_axis',(-1.,0.,0.));
#389=DIRECTION('center_axis',(0.,0.,1.));
#390=DIRECTION('ref_axis',(1.,0.,0.));
#391=DIRECTION('',(0.,0.,-1.));
#392=DIRECTION('center_axis',(0.,0.,1.));
#393=DIRECTION('ref_axis',(1.,0.,0.));
#394=DIRECTION('center_axis',(0.,0.,1.));
#395=DIRECTION('ref_axis',(1.,0.,0.));
#396=DIRECTION('center_axis',(0.,0.,-1.));
#397=DIRECTION('ref_axis',(-1.,0.,0.));
#398=DIRECTION('center_axis',(0.,0.,-1.));
#399=DIRECTION('ref_axis',(-1.,0.,0.));
#400=DIRECTION('center_axis',(0.,0.,-1.));
#401=DIRECTION('ref_axis',(-1.,0.,0.));
#402=DIRECTION('center_axis',(0.,0.,-1.));
#403=DIRECTION('ref_axis',(-1.,0.,0.));
#404=DIRECTION('center_axis',(0.,0.,-1.));
#405=DIRECTION('ref_axis',(-1.,0.,0.));
#406=DIRECTION('center_axis',(0.,0.,-1.));
#407=DIRECTION('ref_axis',(-1.,0.,0.));
#408=DIRECTION('center_axis',(0.,0.,-1.));
#409=DIRECTION('ref_axis',(-1.,0.,0.));
#410=DIRECTION('center_axis',(0.,0.,-1.));
#411=DIRECTION('ref_axis',(-1.,0.,0.));
#412=DIRECTION('center_axis',(0.,0.,-1.));
#413=DIRECTION('ref_axis',(-1.,0.,0.));
#414=DIRECTION('center_axis',(0.,0.,1.));
#415=DIRECTION('ref_axis',(1.,0.,0.));
#416=DIRECTION('center_axis',(0.,0.,-1.));
#417=DIRECTION('ref_axis',(-1.,0.,0.));
#418=DIRECTION('center_axis',(0.,0.,1.));
#419=DIRECTION('ref_axis',(1.,0.,0.));
#420=DIRECTION('center_axis',(0.,0.,-1.));
#421=DIRECTION('ref_axis',(-1.,0.,0.));
#422=DIRECTION('center_axis',(0.,0.,1.));
#423=DIRECTION('ref_axis',(1.,0.,0.));
#424=DIRECTION('center_axis',(0.,0.,-1.));
#425=DIRECTION('ref_axis',(-1.,0.,0.));
#426=DIRECTION('center_axis',(0.,0.,1.));
#427=DIRECTION('ref_axis',(1.,0.,0.));
#428=DIRECTION('center_axis',(0.,0.,-1.));
#429=DIRECTION('ref_axis',(-1.,0.,0.));
#430=DIRECTION('center_axis',(0.,0.,1.));
#431=DIRECTION('ref_axis',(1.,0.,0.));
#432=DIRECTION('center_axis',(0.,0.,-1.));
#433=DIRECTION('ref_axis',(-1.,0.,0.));
#434=DIRECTION('center_axis',(0.,0.,1.));
#435=DIRECTION('ref_axis',(1.,0.,0.));
#436=DIRECTION('center_axis',(0.,0.,-1.));
#437=DIRECTION('ref_axis',(-1.,0.,0.));
#438=DIRECTION('center_axis',(0.,0.,1.));
#439=DIRECTION('ref_axis',(1.,0.,0.));
#440=DIRECTION('center_axis',(0.,0.,-1.));
#441=DIRECTION('ref_axis',(-1.,0.,0.));
#442=DIRECTION('center_axis',(0.,0.,1.));
#443=DIRECTION('ref_axis',(1.,0.,0.));
#444=DIRECTION('center_axis',(0.,0.,-1.));
#445=DIRECTION('ref_axis',(-1.,0.,0.));
#446=DIRECTION('center_axis',(0.,0.,1.));
#447=DIRECTION('ref_axis',(1.,0.,0.));
#448=DIRECTION('center_axis',(0.,0.,-1.));
#449=DIRECTION('ref_axis',(-1.,0.,0.));
#450=DIRECTION('center_axis',(0.,0.,1.));
#451=DIRECTION('ref_axis',(-1.,0.,0.));
#452=DIRECTION('',(0.,0.,-1.));
#453=DIRECTION('center_axis',(0.,0.,1.));
#454=DIRECTION('ref_axis',(-1.,0.,0.));
#455=DIRECTION('',(0.,0.,-1.));
#456=DIRECTION('center_axis',(0.,0.,1.));
#457=DIRECTION('ref_axis',(-1.,0.,0.));
#458=DIRECTION('',(0.,0.,-1.));
#459=DIRECTION('center_axis',(0.,0.,1.));
#460=DIRECTION('ref_axis',(-1.,0.,0.));
#461=DIRECTION('',(0.,0.,-1.));
#462=DIRECTION('center_axis',(0.,0.,1.));
#463=DIRECTION('ref_axis',(-1.,0.,0.));
#464=DIRECTION('',(0.,0.,-1.));
#465=DIRECTION('center_axis',(0.,0.,1.));
#466=DIRECTION('ref_axis',(-1.,0.,0.));
#467=DIRECTION('',(0.,0.,-1.));
#468=DIRECTION('center_axis',(0.,0.,1.));
#469=DIRECTION('ref_axis',(-1.,0.,0.));
#470=DIRECTION('',(0.,0.,-1.));
#471=DIRECTION('center_axis',(0.,0.,1.));
#472=DIRECTION('ref_axis',(-1.,0.,0.));
#473=DIRECTION('',(0.,0.,-1.));
#474=DIRECTION('center_axis',(0.,0.,1.));
#475=DIRECTION('ref_axis',(-1.,0.,0.));
#476=DIRECTION('',(0.,0.,-1.));
#477=DIRECTION('center_axis',(0.,0.,1.));
#478=DIRECTION('ref_axis',(1.,0.,0.));
#479=DIRECTION('center_axis',(0.,0.,1.));
#480=DIRECTION('ref_axis',(1.,0.,0.));
#481=DIRECTION('center_axis',(0.,0.,1.));
#482=DIRECTION('ref_axis',(1.,0.,0.));
#483=DIRECTION('center_axis',(0.,0.,1.));
#484=DIRECTION('ref_axis',(1.,0.,0.));
#485=DIRECTION('center_axis',(0.,0.,1.));
#486=DIRECTION('ref_axis',(1.,0.,0.));
#487=DIRECTION('center_axis',(0.,0.,1.));
#488=DIRECTION('ref_axis',(1.,0.,0.));
#489=DIRECTION('center_axis',(0.,0.,1.));
#490=DIRECTION('ref_axis',(1.,0.,0.));
#491=DIRECTION('center_axis',(0.,0.,1.));
#492=DIRECTION('ref_axis',(1.,0.,0.));
#493=DIRECTION('center_axis',(0.,0.,1.));
#494=DIRECTION('ref_axis',(1.,0.,0.));
#495=DIRECTION('center_axis',(0.,0.,1.));
#496=DIRECTION('ref_axis',(1.,0.,0.));
#497=DIRECTION('center_axis',(0.,0.,1.));
#498=DIRECTION('ref_axis',(1.,0.,0.));
#499=CARTESIAN_POINT('',(0.,0.,0.));
#500=CARTESIAN_POINT('Origin',(0.,0.,11.5));
#501=CARTESIAN_POINT('',(42.,-5.14351655641888E-15,12.));
#502=CARTESIAN_POINT('Origin',(0.,0.,12.));
#503=CARTESIAN_POINT('',(43.,5.26598123633362E-15,11.));
#504=CARTESIAN_POINT('',(42.5,5.20474889637625E-15,11.5));
#505=CARTESIAN_POINT('',(-43.,-5.26598123633362E-15,11.));
#506=CARTESIAN_POINT('Origin',(0.,0.,11.));
#507=CARTESIAN_POINT('Origin',(0.,0.,11.));
#508=CARTESIAN_POINT('Origin',(0.,0.,0.));
#509=CARTESIAN_POINT('',(-43.,-5.26598123633362E-15,0.));
#510=CARTESIAN_POINT('',(-43.,-5.26598123633362E-15,0.));
#511=CARTESIAN_POINT('Origin',(0.,0.,0.));
#512=CARTESIAN_POINT('Origin',(0.,0.,12.));
#513=CARTESIAN_POINT('',(7.,8.57252759403147E-16,12.));
#514=CARTESIAN_POINT('Origin',(0.,0.,12.));
#515=CARTESIAN_POINT('',(7.,25.,12.));
#516=CARTESIAN_POINT('Origin',(0.,25.,12.));
#517=CARTESIAN_POINT('',(-10.6776695296637,17.6776695296637,12.));
#518=CARTESIAN_POINT('Origin',(-17.6776695296637,17.6776695296637,12.));
#519=CARTESIAN_POINT('',(-18.,2.38806125833734E-15,12.));
#520=CARTESIAN_POINT('Origin',(-25.,1.53080849893419E-15,12.));
#521=CARTESIAN_POINT('',(-10.6776695296637,-17.6776695296637,12.));
#522=CARTESIAN_POINT('Origin',(-17.6776695296637,-17.6776695296637,12.));
#523=CARTESIAN_POINT('',(7.,-25.,12.));
#524=CARTESIAN_POINT('Origin',(-3.06161699786838E-15,-25.,12.));
#525=CARTESIAN_POINT('',(24.6776695296637,-17.6776695296637,12.));
#526=CARTESIAN_POINT('Origin',(17.6776695296637,-17.6776695296637,12.));
#527=CARTESIAN_POINT('',(32.,-3.73517273739943E-15,12.));
#528=CARTESIAN_POINT('Origin',(25.,-4.59242549680257E-15,12.));
#529=CARTESIAN_POINT('',(24.6776695296637,17.6776695296637,12.));
#530=CARTESIAN_POINT('Origin',(17.6776695296637,17.6776695296637,12.));
#531=CARTESIAN_POINT('Origin',(0.,0.,10.));
#532=CARTESIAN_POINT('',(7.,0.,10.));
#533=CARTESIAN_POINT('Origin',(0.,0.,10.));
#534=CARTESIAN_POINT('Origin',(-17.6776695296637,17.6776695296637,9.));
#535=CARTESIAN_POINT('',(-10.6776695296637,17.6776695296637,9.));
#536=CARTESIAN_POINT('Origin',(-17.6776695296637,17.6776695296637,9.));
#537=CARTESIAN_POINT('Origin',(-25.,1.11022302462516E-15,8.));
#538=CARTESIAN_POINT('',(-18.,1.53080849893419E-15,8.));
#539=CARTESIAN_POINT('Origin',(-25.,1.53080849893419E-15,8.));
#540=CARTESIAN_POINT('Origin',(-17.6776695296637,-17.6776695296637,7.));
#541=CARTESIAN_POINT('',(-10.6776695296637,-17.6776695296637,7.));
#542=CARTESIAN_POINT('Origin',(-17.6776695296637,-17.6776695296637,7.));
#543=CARTESIAN_POINT('Origin',(-3.33066907387547E-15,-25.,6.));
#544=CARTESIAN_POINT('',(7.,-25.,6.));
#545=CARTESIAN_POINT('Origin',(-3.06161699786838E-15,-25.,6.));
#546=CARTESIAN_POINT('Origin',(17.6776695296637,-17.6776695296637,5.));
#547=CARTESIAN_POINT('',(24.6776695296637,-17.6776695296637,5.));
#548=CARTESIAN_POINT('Origin',(17.6776695296637,-17.6776695296637,5.));
#549=CARTESIAN_POINT('Origin',(25.,-4.44089209850063E-15,4.));
#550=CARTESIAN_POINT('',(32.,-4.59242549680257E-15,4.));
#551=CARTESIAN_POINT('Origin',(25.,-4.59242549680257E-15,4.));
#552=CARTESIAN_POINT('Origin',(17.6776695296637,17.6776695296637,3.));
#553=CARTESIAN_POINT('',(24.6776695296637,17.6776695296637,3.));
#554=CARTESIAN_POINT('Origin',(17.6776695296637,17.6776695296637,3.));
#555=CARTESIAN_POINT('Origin',(0.,25.,2.));
#556=CARTESIAN_POINT('',(7.,25.,2.));
#557=CARTESIAN_POINT('Origin',(0.,25.,2.));
#558=CARTESIAN_POINT('Origin',(0.,0.,0.));
#559=CARTESIAN_POINT('',(7.,8.57252759403147E-16,0.));
#560=CARTESIAN_POINT('Origin',(0.,25.,0.));
#561=CARTESIAN_POINT('',(7.,25.,0.));
#562=CARTESIAN_POINT('Origin',(-17.6776695296637,17.6776695296637,0.));
#563=CARTESIAN_POINT('',(-10.6776695296637,17.6776695296637,0.));
#564=CARTESIAN_POINT('Origin',(-25.,1.53080849893419E-15,0.));
#565=CARTESIAN_POINT('',(-18.,2.38806125833734E-15,0.));
#566=CARTESIAN_POINT('Origin',(-17.6776695296637,-17.6776695296637,0.));
#567=CARTESIAN_POINT('',(-10.6776695296637,-17.6776695296637,0.));
#568=CARTESIAN_POINT('Origin',(-3.06161699786838E-15,-25.,0.));
#569=CARTESIAN_POINT('',(7.,-25.,0.));
#570=CARTESIAN_POINT('Origin',(17.6776695296637,-17.6776695296637,0.));
#571=CARTESIAN_POINT('',(24.6776695296637,-17.6776695296637,0.));
#572=CARTESIAN_POINT('Origin',(25.,-4.59242549680257E-15,0.));
#573=CARTESIAN_POINT('',(32.,-3.73517273739943E-15,0.));
#574=CARTESIAN_POINT('Origin',(17.6776695296637,17.6776695296637,0.));
#575=CARTESIAN_POINT('',(24.6776695296637,17.6776695296637,0.));
#576=CARTESIAN_POINT('Origin',(0.,0.,0.));
#577=CARTESIAN_POINT('Origin',(0.,0.,0.));
#578=CARTESIAN_POINT('Origin',(0.,0.,0.));
#579=CARTESIAN_POINT('Origin',(0.,25.,0.));
#580=CARTESIAN_POINT('Origin',(-17.6776695296637,17.6776695296637,0.));
#581=CARTESIAN_POINT('Origin',(-25.,1.53080849893419E-15,0.));
#582=CARTESIAN_POINT('Origin',(-17.6776695296637,-17.6776695296637,0.));
#583=CARTESIAN_POINT('Origin',(-3.06161699786838E-15,-25.,0.));
#584=CARTESIAN_POINT('Origin',(17.6776695296637,-17.6776695296637,0.));
#585=CARTESIAN_POINT('Origin',(25.,-4.59242549680257E-15,0.));
#586=CARTESIAN_POINT('Origin',(17.6776695296637,17.6776695296637,0.));
#587=CARTESIAN_POINT('',(0.,0.,0.));
#588=UNCERTAINTY_MEASURE_WITH_UNIT(LENGTH_MEASURE(0.01),#592,
'DISTANCE_ACCURACY_VALUE',
'Maximum model space distance between geometric entities at asserted c
onnectivities');
#589=UNCERTAINTY_MEASURE_WITH_UNIT(LENGTH_MEASURE(0.01),#592,
'DISTANCE_ACCURACY_VALUE',
'Maximum model space distance between geometric entities at asserted c
onnectivities');
#590=(
GEOMETRIC_REPRESENTATION_CONTEXT(3)
GLOBAL_UNCERTAINTY_ASSIGNED_CONTEXT((#588))
GLOBAL_UNIT_ASSIGNED_CONTEXT((#592,#594,#595))
REPRESENTATION_CONTEXT('','3D')
);
#591=(
GEOMETRIC_REPRESENTATION_CONTEXT(3)
GLOBAL_UNCERTAINTY_ASSIGNED_CONTEXT((#589))
GLOBAL_UNIT_ASSIGNED_CONTEXT((#592,#594,#595))
REPRESENTATION_CONTEXT('','3D')
);
#592=(
LENGTH_UNIT()
NAMED_UNIT(*)
SI_UNIT(.MILLI.,.METRE.)
);
#593=(
LENGTH_UNIT()
NAMED_UNIT(*)
SI_UNIT(.CENTI.,.METRE.)
);
#594=(
NAMED_UNIT(*)
PLANE_ANGLE_UNIT()
SI_UNIT($,.RADIAN.)
);
#595=(
NAMED_UNIT(*)
SI_UNIT($,.STERADIAN.)
SOLID_ANGLE_UNIT()
);
#596=SHAPE_DEFINITION_REPRESENTATION(#597,#598);
#597=PRODUCT_DEFINITION_SHAPE('',$,#600);
#598=SHAPE_REPRESENTATION('',(#323),#590);
#599=PRODUCT_DEFINITION_CONTEXT('part definition',#604,'design');
#600=PRODUCT_DEFINITION('Diameter_14mm','Diameter_14mm',#601,#599);
#601=PRODUCT_DEFINITION_FORMATION('',$,#606);
#602=PRODUCT_RELATED_PRODUCT_CATEGORY('Diameter_14mm','Diameter_14mm',(#606));
#603=APPLICATION_PROTOCOL_DEFINITION('international standard',
'automotive_design',2009,#604);
#604=APPLICATION_CONTEXT(
'Core Data for Automotive Mechanical Design Process');
#605=PRODUCT_CONTEXT('part definition',#604,'mechanical');
#606=PRODUCT('Diameter_14mm','Diameter_14mm',$,(#605));
#607=PRESENTATION_STYLE_ASSIGNMENT((#610));
#608=PRESENTATION_STYLE_ASSIGNMENT((#611));
#609=PRESENTATION_STYLE_ASSIGNMENT((#612));
#610=SURFACE_STYLE_USAGE(.BOTH.,#615);
#611=SURFACE_STYLE_USAGE(.BOTH.,#616);
#612=SURFACE_STYLE_USAGE(.BOTH.,#617);
#613=SURFACE_STYLE_RENDERING_WITH_PROPERTIES($,#627,(#614));
#614=SURFACE_STYLE_TRANSPARENT(0.);
#615=SURFACE_SIDE_STYLE('',(#618,#613));
#616=SURFACE_SIDE_STYLE('',(#619));
#617=SURFACE_SIDE_STYLE('',(#620));
#618=SURFACE_STYLE_FILL_AREA(#621);
#619=SURFACE_STYLE_FILL_AREA(#622);
#620=SURFACE_STYLE_FILL_AREA(#623);
#621=FILL_AREA_STYLE('',(#624));
#622=FILL_AREA_STYLE('',(#625));
#623=FILL_AREA_STYLE('',(#626));
#624=FILL_AREA_STYLE_COLOUR('',#627);
#625=FILL_AREA_STYLE_COLOUR('',#628);
#626=FILL_AREA_STYLE_COLOUR('',#629);
#627=COLOUR_RGB('',0.749019607843137,0.749019607843137,0.749019607843137);
#628=COLOUR_RGB('',0.913725490196078,0.913725490196078,0.);
#629=COLOUR_RGB('',1.,1.,1.);
ENDSEC;
END-ISO-10303-21;
