ISO-10303-21;
HEADER;
/* Generated by software containing ST-Developer
 * from STEP Tools, Inc. (www.steptools.com) 
 */

FILE_DESCRIPTION(
/* description */ (''),
/* implementation_level */ '2;1');

FILE_NAME(
/* name */ 'Diameter_18mm.step',
/* time_stamp */ '2026-06-18T09:58:37+02:00',
/* author */ ('neuhau0004'),
/* organization */ (''),
/* preprocessor_version */ 'ST-DEVELOPER v20.1',
/* originating_system */ 'Autodesk Inventor 2026',
/* authorisation */ '');

FILE_SCHEMA (('AUTOMOTIVE_DESIGN { 1 0 10303 214 3 1 1 }'));
ENDSEC;

DATA;
#10=MECHANICAL_DESIGN_GEOMETRIC_PRESENTATION_REPRESENTATION('',(#13),#1721);
#11=SHAPE_REPRESENTATION_RELATIONSHIP('SRR','None',#1728,#12);
#12=ADVANCED_BREP_SHAPE_REPRESENTATION('',(#14),#1720);
#13=STYLED_ITEM('',(#1737),#14);
#14=MANIFOLD_SOLID_BREP('Solid1',#892);
#15=CYLINDRICAL_SURFACE('',#956,43.5);
#16=CYLINDRICAL_SURFACE('',#959,9.);
#17=CYLINDRICAL_SURFACE('',#960,9.);
#18=CYLINDRICAL_SURFACE('',#961,9.);
#19=CYLINDRICAL_SURFACE('',#962,9.);
#20=CYLINDRICAL_SURFACE('',#963,9.);
#21=CYLINDRICAL_SURFACE('',#964,9.);
#22=CYLINDRICAL_SURFACE('',#965,9.);
#23=CONICAL_SURFACE('',#953,43.25,0.785398163397446);
#24=CIRCLE('',#930,43.);
#25=CIRCLE('',#931,9.);
#26=CIRCLE('',#932,9.);
#27=CIRCLE('',#933,9.);
#28=CIRCLE('',#934,9.);
#29=CIRCLE('',#935,9.);
#30=CIRCLE('',#936,9.);
#31=CIRCLE('',#937,9.);
#32=CIRCLE('',#940,9.);
#33=CIRCLE('',#942,9.);
#34=CIRCLE('',#944,9.);
#35=CIRCLE('',#946,9.);
#36=CIRCLE('',#948,9.);
#37=CIRCLE('',#950,9.);
#38=CIRCLE('',#952,9.);
#39=CIRCLE('',#954,43.5);
#40=CIRCLE('',#955,43.5);
#41=CIRCLE('',#957,43.5);
#42=B_SPLINE_SURFACE_WITH_KNOTS('',2,1,((#1296,#1297),(#1298,#1299),(#1300,
#1301),(#1302,#1303)),.UNSPECIFIED.,.F.,.F.,.F.,(3,1,3),(2,2),(0.,1.,2.),
(0.,24.7240773336438),.UNSPECIFIED.);
#43=B_SPLINE_SURFACE_WITH_KNOTS('',2,1,((#1312,#1313),(#1314,#1315),(#1316,
#1317),(#1318,#1319)),.UNSPECIFIED.,.F.,.F.,.F.,(3,1,3),(2,2),(0.,1.,2.),
(0.,24.7240773336438),.UNSPECIFIED.);
#44=B_SPLINE_SURFACE_WITH_KNOTS('',2,1,((#1326,#1327),(#1328,#1329),(#1330,
#1331),(#1332,#1333)),.UNSPECIFIED.,.F.,.F.,.F.,(3,1,3),(2,2),(0.,1.,2.),
(0.,24.7240773336438),.UNSPECIFIED.);
#45=B_SPLINE_SURFACE_WITH_KNOTS('',2,1,((#1340,#1341),(#1342,#1343),(#1344,
#1345),(#1346,#1347)),.UNSPECIFIED.,.F.,.F.,.F.,(3,1,3),(2,2),(0.,1.,2.),
(0.,24.7240773336438),.UNSPECIFIED.);
#46=B_SPLINE_SURFACE_WITH_KNOTS('',2,1,((#1356,#1357),(#1358,#1359),(#1360,
#1361),(#1362,#1363)),.UNSPECIFIED.,.F.,.F.,.F.,(3,1,3),(2,2),(0.,1.,2.),
(0.,24.7240773336438),.UNSPECIFIED.);
#47=B_SPLINE_SURFACE_WITH_KNOTS('',2,1,((#1370,#1371),(#1372,#1373),(#1374,
#1375),(#1376,#1377)),.UNSPECIFIED.,.F.,.F.,.F.,(3,1,3),(2,2),(0.,1.,2.),
(0.,24.7240773336438),.UNSPECIFIED.);
#48=B_SPLINE_SURFACE_WITH_KNOTS('',2,1,((#1384,#1385),(#1386,#1387),(#1388,
#1389),(#1390,#1391)),.UNSPECIFIED.,.F.,.F.,.F.,(3,1,3),(2,2),(-2.,-1.,
0.),(0.,24.7240773336438),.UNSPECIFIED.);
#49=B_SPLINE_SURFACE_WITH_KNOTS('',2,1,((#1404,#1405),(#1406,#1407),(#1408,
#1409),(#1410,#1411)),.UNSPECIFIED.,.F.,.F.,.F.,(3,1,3),(2,2),(-2.,-1.,
0.),(0.,24.7240773336438),.UNSPECIFIED.);
#50=B_SPLINE_SURFACE_WITH_KNOTS('',2,1,((#1418,#1419),(#1420,#1421),(#1422,
#1423),(#1424,#1425)),.UNSPECIFIED.,.F.,.F.,.F.,(3,1,3),(2,2),(-2.,-1.,
0.),(0.,24.7240773336438),.UNSPECIFIED.);
#51=B_SPLINE_SURFACE_WITH_KNOTS('',2,1,((#1432,#1433),(#1434,#1435),(#1436,
#1437),(#1438,#1439)),.UNSPECIFIED.,.F.,.F.,.F.,(3,1,3),(2,2),(-2.,-1.,
0.),(0.,24.7240773336438),.UNSPECIFIED.);
#52=B_SPLINE_SURFACE_WITH_KNOTS('',2,1,((#1446,#1447),(#1448,#1449),(#1450,
#1451),(#1452,#1453)),.UNSPECIFIED.,.F.,.F.,.F.,(3,1,3),(2,2),(-2.,-1.,
0.),(0.,24.7240773336438),.UNSPECIFIED.);
#53=B_SPLINE_SURFACE_WITH_KNOTS('',2,1,((#1460,#1461),(#1462,#1463),(#1464,
#1465),(#1466,#1467)),.UNSPECIFIED.,.F.,.F.,.F.,(3,1,3),(2,2),(0.,1.,2.),
(0.,24.7240773336438),.UNSPECIFIED.);
#54=B_SPLINE_SURFACE_WITH_KNOTS('',2,1,((#1474,#1475),(#1476,#1477),(#1478,
#1479),(#1480,#1481)),.UNSPECIFIED.,.F.,.F.,.F.,(3,1,3),(2,2),(0.,1.,2.),
(0.,24.7240773336438),.UNSPECIFIED.);
#55=B_SPLINE_SURFACE_WITH_KNOTS('',2,1,((#1486,#1487),(#1488,#1489),(#1490,
#1491),(#1492,#1493)),.UNSPECIFIED.,.F.,.F.,.F.,(3,1,3),(2,2),(0.,1.,2.),
(0.,24.7240773336438),.UNSPECIFIED.);
#56=B_SPLINE_SURFACE_WITH_KNOTS('',2,1,((#1500,#1501),(#1502,#1503),(#1504,
#1505),(#1506,#1507)),.UNSPECIFIED.,.F.,.F.,.F.,(3,1,3),(2,2),(0.,1.,2.),
(0.,24.7240773336438),.UNSPECIFIED.);
#57=B_SPLINE_SURFACE_WITH_KNOTS('',2,1,((#1512,#1513),(#1514,#1515),(#1516,
#1517),(#1518,#1519)),.UNSPECIFIED.,.F.,.F.,.F.,(3,1,3),(2,2),(-2.,-1.,
0.),(0.,24.7240773336438),.UNSPECIFIED.);
#58=B_SPLINE_SURFACE_WITH_KNOTS('',2,1,((#1530,#1531),(#1532,#1533),(#1534,
#1535),(#1536,#1537)),.UNSPECIFIED.,.F.,.F.,.F.,(3,1,3),(2,2),(-2.,-1.,
0.),(0.,24.7240773336438),.UNSPECIFIED.);
#59=B_SPLINE_SURFACE_WITH_KNOTS('',2,1,((#1544,#1545),(#1546,#1547),(#1548,
#1549),(#1550,#1551)),.UNSPECIFIED.,.F.,.F.,.F.,(3,1,3),(2,2),(-2.,-1.,
0.),(0.,24.7240773336438),.UNSPECIFIED.);
#60=B_SPLINE_SURFACE_WITH_KNOTS('',2,1,((#1558,#1559),(#1560,#1561),(#1562,
#1563),(#1564,#1565)),.UNSPECIFIED.,.F.,.F.,.F.,(3,1,3),(2,2),(-2.,-1.,
0.),(0.,24.7240773336438),.UNSPECIFIED.);
#61=B_SPLINE_SURFACE_WITH_KNOTS('',2,1,((#1570,#1571),(#1572,#1573),(#1574,
#1575),(#1576,#1577)),.UNSPECIFIED.,.F.,.F.,.F.,(3,1,3),(2,2),(-2.,-1.,
0.),(0.,24.7240773336438),.UNSPECIFIED.);
#62=FACE_BOUND('',#128,.T.);
#63=FACE_BOUND('',#129,.T.);
#64=FACE_BOUND('',#164,.T.);
#65=FACE_BOUND('',#165,.T.);
#66=FACE_BOUND('',#166,.T.);
#67=FACE_BOUND('',#167,.T.);
#68=FACE_BOUND('',#168,.T.);
#69=FACE_BOUND('',#169,.T.);
#70=FACE_BOUND('',#170,.T.);
#71=FACE_BOUND('',#171,.T.);
#72=FACE_BOUND('',#172,.T.);
#73=FACE_OUTER_BOUND('',#127,.T.);
#74=FACE_OUTER_BOUND('',#130,.T.);
#75=FACE_OUTER_BOUND('',#131,.T.);
#76=FACE_OUTER_BOUND('',#132,.T.);
#77=FACE_OUTER_BOUND('',#133,.T.);
#78=FACE_OUTER_BOUND('',#134,.T.);
#79=FACE_OUTER_BOUND('',#135,.T.);
#80=FACE_OUTER_BOUND('',#136,.T.);
#81=FACE_OUTER_BOUND('',#137,.T.);
#82=FACE_OUTER_BOUND('',#138,.T.);
#83=FACE_OUTER_BOUND('',#139,.T.);
#84=FACE_OUTER_BOUND('',#140,.T.);
#85=FACE_OUTER_BOUND('',#141,.T.);
#86=FACE_OUTER_BOUND('',#142,.T.);
#87=FACE_OUTER_BOUND('',#143,.T.);
#88=FACE_OUTER_BOUND('',#144,.T.);
#89=FACE_OUTER_BOUND('',#145,.T.);
#90=FACE_OUTER_BOUND('',#146,.T.);
#91=FACE_OUTER_BOUND('',#147,.T.);
#92=FACE_OUTER_BOUND('',#148,.T.);
#93=FACE_OUTER_BOUND('',#149,.T.);
#94=FACE_OUTER_BOUND('',#150,.T.);
#95=FACE_OUTER_BOUND('',#151,.T.);
#96=FACE_OUTER_BOUND('',#152,.T.);
#97=FACE_OUTER_BOUND('',#153,.T.);
#98=FACE_OUTER_BOUND('',#154,.T.);
#99=FACE_OUTER_BOUND('',#155,.T.);
#100=FACE_OUTER_BOUND('',#156,.T.);
#101=FACE_OUTER_BOUND('',#157,.T.);
#102=FACE_OUTER_BOUND('',#158,.T.);
#103=FACE_OUTER_BOUND('',#159,.T.);
#104=FACE_OUTER_BOUND('',#160,.T.);
#105=FACE_OUTER_BOUND('',#161,.T.);
#106=FACE_OUTER_BOUND('',#162,.T.);
#107=FACE_OUTER_BOUND('',#163,.T.);
#108=FACE_OUTER_BOUND('',#173,.T.);
#109=FACE_OUTER_BOUND('',#174,.T.);
#110=FACE_OUTER_BOUND('',#175,.T.);
#111=FACE_OUTER_BOUND('',#176,.T.);
#112=FACE_OUTER_BOUND('',#177,.T.);
#113=FACE_OUTER_BOUND('',#178,.T.);
#114=FACE_OUTER_BOUND('',#179,.T.);
#115=FACE_OUTER_BOUND('',#180,.T.);
#116=FACE_OUTER_BOUND('',#181,.T.);
#117=FACE_OUTER_BOUND('',#182,.T.);
#118=FACE_OUTER_BOUND('',#183,.T.);
#119=FACE_OUTER_BOUND('',#184,.T.);
#120=FACE_OUTER_BOUND('',#185,.T.);
#121=FACE_OUTER_BOUND('',#186,.T.);
#122=FACE_OUTER_BOUND('',#187,.T.);
#123=FACE_OUTER_BOUND('',#188,.T.);
#124=FACE_OUTER_BOUND('',#189,.T.);
#125=FACE_OUTER_BOUND('',#190,.T.);
#126=FACE_OUTER_BOUND('',#191,.T.);
#127=EDGE_LOOP('',(#567,#568,#569,#570,#571,#572,#573,#574,#575,#576,#577));
#128=EDGE_LOOP('',(#578,#579,#580,#581,#582));
#129=EDGE_LOOP('',(#583,#584,#585,#586,#587));
#130=EDGE_LOOP('',(#588,#589,#590,#591));
#131=EDGE_LOOP('',(#592,#593,#594,#595));
#132=EDGE_LOOP('',(#596,#597,#598,#599));
#133=EDGE_LOOP('',(#600,#601,#602,#603));
#134=EDGE_LOOP('',(#604,#605,#606,#607));
#135=EDGE_LOOP('',(#608,#609,#610,#611));
#136=EDGE_LOOP('',(#612,#613,#614,#615));
#137=EDGE_LOOP('',(#616,#617,#618,#619));
#138=EDGE_LOOP('',(#620,#621,#622,#623));
#139=EDGE_LOOP('',(#624,#625,#626,#627));
#140=EDGE_LOOP('',(#628,#629,#630,#631));
#141=EDGE_LOOP('',(#632,#633,#634,#635));
#142=EDGE_LOOP('',(#636,#637,#638,#639));
#143=EDGE_LOOP('',(#640,#641,#642,#643));
#144=EDGE_LOOP('',(#644,#645,#646,#647));
#145=EDGE_LOOP('',(#648,#649,#650,#651));
#146=EDGE_LOOP('',(#652,#653,#654,#655));
#147=EDGE_LOOP('',(#656,#657,#658,#659));
#148=EDGE_LOOP('',(#660,#661,#662,#663));
#149=EDGE_LOOP('',(#664,#665,#666,#667));
#150=EDGE_LOOP('',(#668,#669,#670,#671));
#151=EDGE_LOOP('',(#672,#673,#674,#675));
#152=EDGE_LOOP('',(#676,#677,#678,#679));
#153=EDGE_LOOP('',(#680,#681,#682,#683));
#154=EDGE_LOOP('',(#684,#685,#686,#687));
#155=EDGE_LOOP('',(#688,#689,#690,#691));
#156=EDGE_LOOP('',(#692,#693,#694,#695));
#157=EDGE_LOOP('',(#696,#697,#698,#699));
#158=EDGE_LOOP('',(#700,#701,#702,#703));
#159=EDGE_LOOP('',(#704,#705,#706,#707));
#160=EDGE_LOOP('',(#708,#709,#710,#711));
#161=EDGE_LOOP('',(#712,#713,#714,#715));
#162=EDGE_LOOP('',(#716,#717,#718,#719,#720,#721,#722,#723,#724,#725,#726));
#163=EDGE_LOOP('',(#727));
#164=EDGE_LOOP('',(#728,#729,#730,#731,#732,#733,#734,#735,#736,#737,#738));
#165=EDGE_LOOP('',(#739,#740,#741,#742,#743,#744,#745,#746,#747,#748,#749));
#166=EDGE_LOOP('',(#750));
#167=EDGE_LOOP('',(#751));
#168=EDGE_LOOP('',(#752));
#169=EDGE_LOOP('',(#753));
#170=EDGE_LOOP('',(#754));
#171=EDGE_LOOP('',(#755));
#172=EDGE_LOOP('',(#756));
#173=EDGE_LOOP('',(#757,#758,#759,#760,#761));
#174=EDGE_LOOP('',(#762));
#175=EDGE_LOOP('',(#763));
#176=EDGE_LOOP('',(#764));
#177=EDGE_LOOP('',(#765));
#178=EDGE_LOOP('',(#766));
#179=EDGE_LOOP('',(#767));
#180=EDGE_LOOP('',(#768));
#181=EDGE_LOOP('',(#769,#770,#771,#772,#773));
#182=EDGE_LOOP('',(#774,#775,#776,#777,#778));
#183=EDGE_LOOP('',(#779,#780,#781,#782,#783));
#184=EDGE_LOOP('',(#784,#785,#786,#787));
#185=EDGE_LOOP('',(#788,#789,#790,#791));
#186=EDGE_LOOP('',(#792,#793,#794,#795));
#187=EDGE_LOOP('',(#796,#797,#798,#799));
#188=EDGE_LOOP('',(#800,#801,#802,#803));
#189=EDGE_LOOP('',(#804,#805,#806,#807));
#190=EDGE_LOOP('',(#808,#809,#810,#811));
#191=EDGE_LOOP('',(#812));
#192=LINE('',#1174,#257);
#193=LINE('',#1208,#258);
#194=LINE('',#1310,#259);
#195=LINE('',#1311,#260);
#196=LINE('',#1325,#261);
#197=LINE('',#1339,#262);
#198=LINE('',#1354,#263);
#199=LINE('',#1355,#264);
#200=LINE('',#1369,#265);
#201=LINE('',#1383,#266);
#202=LINE('',#1398,#267);
#203=LINE('',#1399,#268);
#204=LINE('',#1402,#269);
#205=LINE('',#1403,#270);
#206=LINE('',#1417,#271);
#207=LINE('',#1431,#272);
#208=LINE('',#1445,#273);
#209=LINE('',#1459,#274);
#210=LINE('',#1473,#275);
#211=LINE('',#1499,#276);
#212=LINE('',#1525,#277);
#213=LINE('',#1528,#278);
#214=LINE('',#1529,#279);
#215=LINE('',#1543,#280);
#216=LINE('',#1557,#281);
#217=LINE('',#1585,#282);
#218=LINE('',#1594,#283);
#219=LINE('',#1597,#284);
#220=LINE('',#1599,#285);
#221=LINE('',#1600,#286);
#222=LINE('',#1603,#287);
#223=LINE('',#1605,#288);
#224=LINE('',#1606,#289);
#225=LINE('',#1609,#290);
#226=LINE('',#1611,#291);
#227=LINE('',#1612,#292);
#228=LINE('',#1615,#293);
#229=LINE('',#1617,#294);
#230=LINE('',#1618,#295);
#231=LINE('',#1621,#296);
#232=LINE('',#1623,#297);
#233=LINE('',#1624,#298);
#234=LINE('',#1627,#299);
#235=LINE('',#1629,#300);
#236=LINE('',#1630,#301);
#237=LINE('',#1633,#302);
#238=LINE('',#1635,#303);
#239=LINE('',#1636,#304);
#240=LINE('',#1639,#305);
#241=LINE('',#1641,#306);
#242=LINE('',#1642,#307);
#243=LINE('',#1645,#308);
#244=LINE('',#1647,#309);
#245=LINE('',#1648,#310);
#246=LINE('',#1650,#311);
#247=LINE('',#1651,#312);
#248=LINE('',#1694,#313);
#249=LINE('',#1700,#314);
#250=LINE('',#1704,#315);
#251=LINE('',#1706,#316);
#252=LINE('',#1708,#317);
#253=LINE('',#1710,#318);
#254=LINE('',#1712,#319);
#255=LINE('',#1714,#320);
#256=LINE('',#1716,#321);
#257=VECTOR('',#971,10.);
#258=VECTOR('',#972,10.);
#259=VECTOR('',#973,10.);
#260=VECTOR('',#974,10.);
#261=VECTOR('',#975,10.);
#262=VECTOR('',#976,10.);
#263=VECTOR('',#977,10.);
#264=VECTOR('',#978,10.);
#265=VECTOR('',#979,10.);
#266=VECTOR('',#980,10.);
#267=VECTOR('',#981,10.);
#268=VECTOR('',#982,10.);
#269=VECTOR('',#985,10.);
#270=VECTOR('',#986,10.);
#271=VECTOR('',#987,10.);
#272=VECTOR('',#988,10.);
#273=VECTOR('',#989,10.);
#274=VECTOR('',#990,10.);
#275=VECTOR('',#991,10.);
#276=VECTOR('',#992,10.);
#277=VECTOR('',#993,10.);
#278=VECTOR('',#996,10.);
#279=VECTOR('',#997,10.);
#280=VECTOR('',#998,10.);
#281=VECTOR('',#999,10.);
#282=VECTOR('',#1000,10.);
#283=VECTOR('',#1001,10.);
#284=VECTOR('',#1004,10.);
#285=VECTOR('',#1005,10.);
#286=VECTOR('',#1006,10.);
#287=VECTOR('',#1009,10.);
#288=VECTOR('',#1010,10.);
#289=VECTOR('',#1011,10.);
#290=VECTOR('',#1014,10.);
#291=VECTOR('',#1015,10.);
#292=VECTOR('',#1016,10.);
#293=VECTOR('',#1019,10.);
#294=VECTOR('',#1020,10.);
#295=VECTOR('',#1021,10.);
#296=VECTOR('',#1024,10.);
#297=VECTOR('',#1025,10.);
#298=VECTOR('',#1026,10.);
#299=VECTOR('',#1029,10.);
#300=VECTOR('',#1030,10.);
#301=VECTOR('',#1031,10.);
#302=VECTOR('',#1034,10.);
#303=VECTOR('',#1035,10.);
#304=VECTOR('',#1036,10.);
#305=VECTOR('',#1039,10.);
#306=VECTOR('',#1040,10.);
#307=VECTOR('',#1041,10.);
#308=VECTOR('',#1044,10.);
#309=VECTOR('',#1045,10.);
#310=VECTOR('',#1046,10.);
#311=VECTOR('',#1049,10.);
#312=VECTOR('',#1050,10.);
#313=VECTOR('',#1103,43.25);
#314=VECTOR('',#1110,43.5);
#315=VECTOR('',#1117,9.);
#316=VECTOR('',#1120,9.);
#317=VECTOR('',#1123,9.);
#318=VECTOR('',#1126,9.);
#319=VECTOR('',#1129,9.);
#320=VECTOR('',#1132,9.);
#321=VECTOR('',#1135,9.);
#322=B_SPLINE_CURVE_WITH_KNOTS('',3,(#1142,#1143,#1144,#1145,#1146,#1147,
#1148),.UNSPECIFIED.,.F.,.F.,(4,3,4),(-0.0968484876474871,-0.0484242438237435,
0.),.UNSPECIFIED.);
#323=B_SPLINE_CURVE_WITH_KNOTS('',3,(#1150,#1151,#1152,#1153,#1154,#1155,
#1156),.UNSPECIFIED.,.F.,.F.,(4,3,4),(-0.131872785086022,-0.0659363925430111,
0.),.UNSPECIFIED.);
#324=B_SPLINE_CURVE_WITH_KNOTS('',3,(#1158,#1159,#1160,#1161,#1162,#1163,
#1164),.UNSPECIFIED.,.F.,.F.,(4,3,4),(-0.294797493263561,-0.14739874663178,
0.),.UNSPECIFIED.);
#325=B_SPLINE_CURVE_WITH_KNOTS('',3,(#1166,#1167,#1168,#1169,#1170,#1171,
#1172),.UNSPECIFIED.,.F.,.F.,(4,3,4),(-0.135662991352464,-0.0678314956762319,
0.),.UNSPECIFIED.);
#326=B_SPLINE_CURVE_WITH_KNOTS('',3,(#1176,#1177,#1178,#1179,#1180,#1181,
#1182),.UNSPECIFIED.,.F.,.F.,(4,3,4),(-0.199421862714151,-0.0997109313570756,
0.),.UNSPECIFIED.);
#327=B_SPLINE_CURVE_WITH_KNOTS('',3,(#1184,#1185,#1186,#1187,#1188,#1189,
#1190),.UNSPECIFIED.,.F.,.F.,(4,3,4),(-0.183027202114413,-0.0915136010572067,
0.),.UNSPECIFIED.);
#328=B_SPLINE_CURVE_WITH_KNOTS('',3,(#1192,#1193,#1194,#1195,#1196,#1197,
#1198),.UNSPECIFIED.,.F.,.F.,(4,3,4),(-0.291412284523494,-0.145706142261747,
0.),.UNSPECIFIED.);
#329=B_SPLINE_CURVE_WITH_KNOTS('',3,(#1200,#1201,#1202,#1203,#1204,#1205,
#1206),.UNSPECIFIED.,.F.,.F.,(4,3,4),(-0.102212941214294,-0.051106470607147,
0.),.UNSPECIFIED.);
#330=B_SPLINE_CURVE_WITH_KNOTS('',3,(#1209,#1210,#1211,#1212,#1213,#1214,
#1215),.UNSPECIFIED.,.F.,.F.,(4,3,4),(-0.242183340989773,-0.121091670494886,
0.),.UNSPECIFIED.);
#331=B_SPLINE_CURVE_WITH_KNOTS('',3,(#1218,#1219,#1220,#1221,#1222,#1223,
#1224),.UNSPECIFIED.,.F.,.F.,(4,3,4),(-0.130148347625661,-0.0650741738128304,
0.),.UNSPECIFIED.);
#332=B_SPLINE_CURVE_WITH_KNOTS('',3,(#1226,#1227,#1228,#1229,#1230,#1231,
#1232),.UNSPECIFIED.,.F.,.F.,(4,3,4),(-0.13613189413486,-0.0680659470674299,
0.),.UNSPECIFIED.);
#333=B_SPLINE_CURVE_WITH_KNOTS('',3,(#1234,#1235,#1236,#1237,#1238,#1239,
#1240),.UNSPECIFIED.,.F.,.F.,(4,3,4),(-0.160015487878134,-0.0800077439390668,
0.),.UNSPECIFIED.);
#334=B_SPLINE_CURVE_WITH_KNOTS('',3,(#1242,#1243,#1244,#1245,#1246,#1247,
#1248),.UNSPECIFIED.,.F.,.F.,(4,3,4),(-0.0775690773535551,-0.0387845386767776,
0.),.UNSPECIFIED.);
#335=B_SPLINE_CURVE_WITH_KNOTS('',3,(#1249,#1250,#1251,#1252,#1253,#1254,
#1255),.UNSPECIFIED.,.F.,.F.,(4,3,4),(-0.108651116838896,-0.0543255584194481,
0.),.UNSPECIFIED.);
#336=B_SPLINE_CURVE_WITH_KNOTS('',3,(#1258,#1259,#1260,#1261,#1262,#1263,
#1264),.UNSPECIFIED.,.F.,.F.,(4,3,4),(-0.0837985038998743,-0.0418992519499372,
0.),.UNSPECIFIED.);
#337=B_SPLINE_CURVE_WITH_KNOTS('',3,(#1266,#1267,#1268,#1269,#1270,#1271,
#1272),.UNSPECIFIED.,.F.,.F.,(4,3,4),(-0.147356737228338,-0.0736783686141689,
0.),.UNSPECIFIED.);
#338=B_SPLINE_CURVE_WITH_KNOTS('',3,(#1274,#1275,#1276,#1277,#1278,#1279,
#1280),.UNSPECIFIED.,.F.,.F.,(4,3,4),(-0.0799856599063837,-0.0399928299531919,
0.),.UNSPECIFIED.);
#339=B_SPLINE_CURVE_WITH_KNOTS('',3,(#1282,#1283,#1284,#1285,#1286,#1287,
#1288),.UNSPECIFIED.,.F.,.F.,(4,3,4),(-0.0877482316209458,-0.0438741158104729,
0.),.UNSPECIFIED.);
#340=B_SPLINE_CURVE_WITH_KNOTS('',3,(#1289,#1290,#1291,#1292,#1293,#1294,
#1295),.UNSPECIFIED.,.F.,.F.,(4,3,4),(-0.103494030905959,-0.0517470154529793,
0.),.UNSPECIFIED.);
#341=B_SPLINE_CURVE_WITH_KNOTS('',2,(#1306,#1307,#1308,#1309),
 .UNSPECIFIED.,.F.,.F.,(3,1,3),(0.,1.,2.),.UNSPECIFIED.);
#342=B_SPLINE_CURVE_WITH_KNOTS('',2,(#1321,#1322,#1323,#1324),
 .UNSPECIFIED.,.F.,.F.,(3,1,3),(0.,1.,2.),.UNSPECIFIED.);
#343=B_SPLINE_CURVE_WITH_KNOTS('',2,(#1335,#1336,#1337,#1338),
 .UNSPECIFIED.,.F.,.F.,(3,1,3),(0.,1.,2.),.UNSPECIFIED.);
#344=B_SPLINE_CURVE_WITH_KNOTS('',2,(#1350,#1351,#1352,#1353),
 .UNSPECIFIED.,.F.,.F.,(3,1,3),(0.,1.,2.),.UNSPECIFIED.);
#345=B_SPLINE_CURVE_WITH_KNOTS('',2,(#1365,#1366,#1367,#1368),
 .UNSPECIFIED.,.F.,.F.,(3,1,3),(0.,1.,2.),.UNSPECIFIED.);
#346=B_SPLINE_CURVE_WITH_KNOTS('',2,(#1379,#1380,#1381,#1382),
 .UNSPECIFIED.,.F.,.F.,(3,1,3),(0.,1.,2.),.UNSPECIFIED.);
#347=B_SPLINE_CURVE_WITH_KNOTS('',2,(#1394,#1395,#1396,#1397),
 .UNSPECIFIED.,.F.,.F.,(3,1,3),(0.,1.,2.),.UNSPECIFIED.);
#348=B_SPLINE_CURVE_WITH_KNOTS('',2,(#1413,#1414,#1415,#1416),
 .UNSPECIFIED.,.F.,.F.,(3,1,3),(0.,1.,2.),.UNSPECIFIED.);
#349=B_SPLINE_CURVE_WITH_KNOTS('',2,(#1427,#1428,#1429,#1430),
 .UNSPECIFIED.,.F.,.F.,(3,1,3),(0.,1.,2.),.UNSPECIFIED.);
#350=B_SPLINE_CURVE_WITH_KNOTS('',2,(#1441,#1442,#1443,#1444),
 .UNSPECIFIED.,.F.,.F.,(3,1,3),(0.,1.,2.),.UNSPECIFIED.);
#351=B_SPLINE_CURVE_WITH_KNOTS('',2,(#1455,#1456,#1457,#1458),
 .UNSPECIFIED.,.F.,.F.,(3,1,3),(0.,1.,2.),.UNSPECIFIED.);
#352=B_SPLINE_CURVE_WITH_KNOTS('',2,(#1469,#1470,#1471,#1472),
 .UNSPECIFIED.,.F.,.F.,(3,1,3),(0.,1.,2.),.UNSPECIFIED.);
#353=B_SPLINE_CURVE_WITH_KNOTS('',2,(#1482,#1483,#1484,#1485),
 .UNSPECIFIED.,.F.,.F.,(3,1,3),(0.,1.,2.),.UNSPECIFIED.);
#354=B_SPLINE_CURVE_WITH_KNOTS('',2,(#1495,#1496,#1497,#1498),
 .UNSPECIFIED.,.F.,.F.,(3,1,3),(0.,1.,2.),.UNSPECIFIED.);
#355=B_SPLINE_CURVE_WITH_KNOTS('',2,(#1508,#1509,#1510,#1511),
 .UNSPECIFIED.,.F.,.F.,(3,1,3),(0.,1.,2.),.UNSPECIFIED.);
#356=B_SPLINE_CURVE_WITH_KNOTS('',2,(#1521,#1522,#1523,#1524),
 .UNSPECIFIED.,.F.,.F.,(3,1,3),(0.,1.,2.),.UNSPECIFIED.);
#357=B_SPLINE_CURVE_WITH_KNOTS('',2,(#1539,#1540,#1541,#1542),
 .UNSPECIFIED.,.F.,.F.,(3,1,3),(0.,1.,2.),.UNSPECIFIED.);
#358=B_SPLINE_CURVE_WITH_KNOTS('',2,(#1553,#1554,#1555,#1556),
 .UNSPECIFIED.,.F.,.F.,(3,1,3),(0.,1.,2.),.UNSPECIFIED.);
#359=B_SPLINE_CURVE_WITH_KNOTS('',2,(#1566,#1567,#1568,#1569),
 .UNSPECIFIED.,.F.,.F.,(3,1,3),(0.,1.,2.),.UNSPECIFIED.);
#360=B_SPLINE_CURVE_WITH_KNOTS('',2,(#1580,#1581,#1582,#1583),
 .UNSPECIFIED.,.F.,.F.,(3,1,3),(0.,1.,2.),.UNSPECIFIED.);
#361=B_SPLINE_CURVE_WITH_KNOTS('',3,(#1587,#1588,#1589,#1590,#1591,#1592,
#1593),.UNSPECIFIED.,.F.,.F.,(4,3,4),(-0.0950966317976477,-0.0475483158988238,
0.),.UNSPECIFIED.);
#362=VERTEX_POINT('',#1140);
#363=VERTEX_POINT('',#1141);
#364=VERTEX_POINT('',#1149);
#365=VERTEX_POINT('',#1157);
#366=VERTEX_POINT('',#1165);
#367=VERTEX_POINT('',#1173);
#368=VERTEX_POINT('',#1175);
#369=VERTEX_POINT('',#1183);
#370=VERTEX_POINT('',#1191);
#371=VERTEX_POINT('',#1199);
#372=VERTEX_POINT('',#1207);
#373=VERTEX_POINT('',#1216);
#374=VERTEX_POINT('',#1217);
#375=VERTEX_POINT('',#1225);
#376=VERTEX_POINT('',#1233);
#377=VERTEX_POINT('',#1241);
#378=VERTEX_POINT('',#1256);
#379=VERTEX_POINT('',#1257);
#380=VERTEX_POINT('',#1265);
#381=VERTEX_POINT('',#1273);
#382=VERTEX_POINT('',#1281);
#383=VERTEX_POINT('',#1304);
#384=VERTEX_POINT('',#1305);
#385=VERTEX_POINT('',#1320);
#386=VERTEX_POINT('',#1334);
#387=VERTEX_POINT('',#1348);
#388=VERTEX_POINT('',#1349);
#389=VERTEX_POINT('',#1364);
#390=VERTEX_POINT('',#1378);
#391=VERTEX_POINT('',#1392);
#392=VERTEX_POINT('',#1393);
#393=VERTEX_POINT('',#1401);
#394=VERTEX_POINT('',#1412);
#395=VERTEX_POINT('',#1426);
#396=VERTEX_POINT('',#1440);
#397=VERTEX_POINT('',#1454);
#398=VERTEX_POINT('',#1468);
#399=VERTEX_POINT('',#1494);
#400=VERTEX_POINT('',#1520);
#401=VERTEX_POINT('',#1527);
#402=VERTEX_POINT('',#1538);
#403=VERTEX_POINT('',#1552);
#404=VERTEX_POINT('',#1578);
#405=VERTEX_POINT('',#1579);
#406=VERTEX_POINT('',#1584);
#407=VERTEX_POINT('',#1586);
#408=VERTEX_POINT('',#1596);
#409=VERTEX_POINT('',#1598);
#410=VERTEX_POINT('',#1602);
#411=VERTEX_POINT('',#1604);
#412=VERTEX_POINT('',#1608);
#413=VERTEX_POINT('',#1610);
#414=VERTEX_POINT('',#1614);
#415=VERTEX_POINT('',#1616);
#416=VERTEX_POINT('',#1620);
#417=VERTEX_POINT('',#1622);
#418=VERTEX_POINT('',#1626);
#419=VERTEX_POINT('',#1628);
#420=VERTEX_POINT('',#1632);
#421=VERTEX_POINT('',#1634);
#422=VERTEX_POINT('',#1638);
#423=VERTEX_POINT('',#1640);
#424=VERTEX_POINT('',#1644);
#425=VERTEX_POINT('',#1646);
#426=VERTEX_POINT('',#1654);
#427=VERTEX_POINT('',#1656);
#428=VERTEX_POINT('',#1658);
#429=VERTEX_POINT('',#1660);
#430=VERTEX_POINT('',#1662);
#431=VERTEX_POINT('',#1664);
#432=VERTEX_POINT('',#1666);
#433=VERTEX_POINT('',#1668);
#434=VERTEX_POINT('',#1672);
#435=VERTEX_POINT('',#1675);
#436=VERTEX_POINT('',#1678);
#437=VERTEX_POINT('',#1681);
#438=VERTEX_POINT('',#1684);
#439=VERTEX_POINT('',#1687);
#440=VERTEX_POINT('',#1690);
#441=VERTEX_POINT('',#1693);
#442=VERTEX_POINT('',#1695);
#443=VERTEX_POINT('',#1699);
#444=EDGE_CURVE('',#362,#363,#322,.T.);
#445=EDGE_CURVE('',#364,#362,#323,.T.);
#446=EDGE_CURVE('',#365,#364,#324,.T.);
#447=EDGE_CURVE('',#366,#365,#325,.T.);
#448=EDGE_CURVE('',#367,#366,#192,.T.);
#449=EDGE_CURVE('',#368,#367,#326,.T.);
#450=EDGE_CURVE('',#369,#368,#327,.T.);
#451=EDGE_CURVE('',#370,#369,#328,.T.);
#452=EDGE_CURVE('',#371,#370,#329,.T.);
#453=EDGE_CURVE('',#372,#371,#193,.T.);
#454=EDGE_CURVE('',#363,#372,#330,.T.);
#455=EDGE_CURVE('',#373,#374,#331,.T.);
#456=EDGE_CURVE('',#375,#373,#332,.T.);
#457=EDGE_CURVE('',#376,#375,#333,.T.);
#458=EDGE_CURVE('',#377,#376,#334,.T.);
#459=EDGE_CURVE('',#374,#377,#335,.T.);
#460=EDGE_CURVE('',#378,#379,#336,.T.);
#461=EDGE_CURVE('',#380,#378,#337,.T.);
#462=EDGE_CURVE('',#381,#380,#338,.T.);
#463=EDGE_CURVE('',#382,#381,#339,.T.);
#464=EDGE_CURVE('',#379,#382,#340,.T.);
#465=EDGE_CURVE('',#383,#384,#341,.T.);
#466=EDGE_CURVE('',#381,#383,#194,.T.);
#467=EDGE_CURVE('',#380,#384,#195,.T.);
#468=EDGE_CURVE('',#384,#385,#342,.T.);
#469=EDGE_CURVE('',#378,#385,#196,.T.);
#470=EDGE_CURVE('',#385,#386,#343,.T.);
#471=EDGE_CURVE('',#379,#386,#197,.T.);
#472=EDGE_CURVE('',#387,#388,#344,.T.);
#473=EDGE_CURVE('',#376,#387,#198,.T.);
#474=EDGE_CURVE('',#375,#388,#199,.T.);
#475=EDGE_CURVE('',#388,#389,#345,.T.);
#476=EDGE_CURVE('',#373,#389,#200,.T.);
#477=EDGE_CURVE('',#389,#390,#346,.T.);
#478=EDGE_CURVE('',#374,#390,#201,.T.);
#479=EDGE_CURVE('',#391,#392,#347,.T.);
#480=EDGE_CURVE('',#368,#391,#202,.T.);
#481=EDGE_CURVE('',#367,#392,#203,.T.);
#482=EDGE_CURVE('',#392,#393,#204,.T.);
#483=EDGE_CURVE('',#366,#393,#205,.T.);
#484=EDGE_CURVE('',#393,#394,#348,.T.);
#485=EDGE_CURVE('',#365,#394,#206,.T.);
#486=EDGE_CURVE('',#394,#395,#349,.T.);
#487=EDGE_CURVE('',#364,#395,#207,.T.);
#488=EDGE_CURVE('',#395,#396,#350,.T.);
#489=EDGE_CURVE('',#362,#396,#208,.T.);
#490=EDGE_CURVE('',#396,#397,#351,.T.);
#491=EDGE_CURVE('',#363,#397,#209,.T.);
#492=EDGE_CURVE('',#398,#383,#352,.T.);
#493=EDGE_CURVE('',#382,#398,#210,.T.);
#494=EDGE_CURVE('',#386,#398,#353,.T.);
#495=EDGE_CURVE('',#399,#387,#354,.T.);
#496=EDGE_CURVE('',#377,#399,#211,.T.);
#497=EDGE_CURVE('',#390,#399,#355,.T.);
#498=EDGE_CURVE('',#397,#400,#356,.T.);
#499=EDGE_CURVE('',#372,#400,#212,.T.);
#500=EDGE_CURVE('',#400,#401,#213,.T.);
#501=EDGE_CURVE('',#371,#401,#214,.T.);
#502=EDGE_CURVE('',#401,#402,#357,.T.);
#503=EDGE_CURVE('',#370,#402,#215,.T.);
#504=EDGE_CURVE('',#402,#403,#358,.T.);
#505=EDGE_CURVE('',#369,#403,#216,.T.);
#506=EDGE_CURVE('',#403,#391,#359,.T.);
#507=EDGE_CURVE('',#404,#405,#360,.T.);
#508=EDGE_CURVE('',#406,#404,#217,.T.);
#509=EDGE_CURVE('',#406,#407,#361,.T.);
#510=EDGE_CURVE('',#407,#405,#218,.T.);
#511=EDGE_CURVE('',#408,#404,#219,.T.);
#512=EDGE_CURVE('',#409,#408,#220,.T.);
#513=EDGE_CURVE('',#409,#406,#221,.T.);
#514=EDGE_CURVE('',#410,#408,#222,.T.);
#515=EDGE_CURVE('',#411,#410,#223,.T.);
#516=EDGE_CURVE('',#411,#409,#224,.T.);
#517=EDGE_CURVE('',#412,#410,#225,.T.);
#518=EDGE_CURVE('',#413,#412,#226,.T.);
#519=EDGE_CURVE('',#413,#411,#227,.T.);
#520=EDGE_CURVE('',#414,#412,#228,.T.);
#521=EDGE_CURVE('',#415,#414,#229,.T.);
#522=EDGE_CURVE('',#415,#413,#230,.T.);
#523=EDGE_CURVE('',#416,#414,#231,.T.);
#524=EDGE_CURVE('',#417,#416,#232,.T.);
#525=EDGE_CURVE('',#417,#415,#233,.T.);
#526=EDGE_CURVE('',#418,#416,#234,.T.);
#527=EDGE_CURVE('',#419,#418,#235,.T.);
#528=EDGE_CURVE('',#419,#417,#236,.T.);
#529=EDGE_CURVE('',#420,#418,#237,.T.);
#530=EDGE_CURVE('',#421,#420,#238,.T.);
#531=EDGE_CURVE('',#421,#419,#239,.T.);
#532=EDGE_CURVE('',#422,#420,#240,.T.);
#533=EDGE_CURVE('',#423,#422,#241,.T.);
#534=EDGE_CURVE('',#423,#421,#242,.T.);
#535=EDGE_CURVE('',#424,#422,#243,.T.);
#536=EDGE_CURVE('',#425,#424,#244,.T.);
#537=EDGE_CURVE('',#425,#423,#245,.T.);
#538=EDGE_CURVE('',#405,#424,#246,.T.);
#539=EDGE_CURVE('',#407,#425,#247,.T.);
#540=EDGE_CURVE('',#426,#426,#24,.T.);
#541=EDGE_CURVE('',#427,#427,#25,.T.);
#542=EDGE_CURVE('',#428,#428,#26,.T.);
#543=EDGE_CURVE('',#429,#429,#27,.T.);
#544=EDGE_CURVE('',#430,#430,#28,.T.);
#545=EDGE_CURVE('',#431,#431,#29,.T.);
#546=EDGE_CURVE('',#432,#432,#30,.T.);
#547=EDGE_CURVE('',#433,#433,#31,.T.);
#548=EDGE_CURVE('',#434,#434,#32,.T.);
#549=EDGE_CURVE('',#435,#435,#33,.T.);
#550=EDGE_CURVE('',#436,#436,#34,.T.);
#551=EDGE_CURVE('',#437,#437,#35,.T.);
#552=EDGE_CURVE('',#438,#438,#36,.T.);
#553=EDGE_CURVE('',#439,#439,#37,.T.);
#554=EDGE_CURVE('',#440,#440,#38,.T.);
#555=EDGE_CURVE('',#426,#441,#248,.T.);
#556=EDGE_CURVE('',#441,#442,#39,.T.);
#557=EDGE_CURVE('',#442,#441,#40,.T.);
#558=EDGE_CURVE('',#442,#443,#249,.T.);
#559=EDGE_CURVE('',#443,#443,#41,.T.);
#560=EDGE_CURVE('',#427,#434,#250,.T.);
#561=EDGE_CURVE('',#428,#436,#251,.T.);
#562=EDGE_CURVE('',#429,#435,#252,.T.);
#563=EDGE_CURVE('',#430,#440,#253,.T.);
#564=EDGE_CURVE('',#431,#439,#254,.T.);
#565=EDGE_CURVE('',#432,#438,#255,.T.);
#566=EDGE_CURVE('',#433,#437,#256,.T.);
#567=ORIENTED_EDGE('',*,*,#444,.F.);
#568=ORIENTED_EDGE('',*,*,#445,.F.);
#569=ORIENTED_EDGE('',*,*,#446,.F.);
#570=ORIENTED_EDGE('',*,*,#447,.F.);
#571=ORIENTED_EDGE('',*,*,#448,.F.);
#572=ORIENTED_EDGE('',*,*,#449,.F.);
#573=ORIENTED_EDGE('',*,*,#450,.F.);
#574=ORIENTED_EDGE('',*,*,#451,.F.);
#575=ORIENTED_EDGE('',*,*,#452,.F.);
#576=ORIENTED_EDGE('',*,*,#453,.F.);
#577=ORIENTED_EDGE('',*,*,#454,.F.);
#578=ORIENTED_EDGE('',*,*,#455,.F.);
#579=ORIENTED_EDGE('',*,*,#456,.F.);
#580=ORIENTED_EDGE('',*,*,#457,.F.);
#581=ORIENTED_EDGE('',*,*,#458,.F.);
#582=ORIENTED_EDGE('',*,*,#459,.F.);
#583=ORIENTED_EDGE('',*,*,#460,.F.);
#584=ORIENTED_EDGE('',*,*,#461,.F.);
#585=ORIENTED_EDGE('',*,*,#462,.F.);
#586=ORIENTED_EDGE('',*,*,#463,.F.);
#587=ORIENTED_EDGE('',*,*,#464,.F.);
#588=ORIENTED_EDGE('',*,*,#465,.F.);
#589=ORIENTED_EDGE('',*,*,#466,.F.);
#590=ORIENTED_EDGE('',*,*,#462,.T.);
#591=ORIENTED_EDGE('',*,*,#467,.T.);
#592=ORIENTED_EDGE('',*,*,#468,.F.);
#593=ORIENTED_EDGE('',*,*,#467,.F.);
#594=ORIENTED_EDGE('',*,*,#461,.T.);
#595=ORIENTED_EDGE('',*,*,#469,.T.);
#596=ORIENTED_EDGE('',*,*,#470,.F.);
#597=ORIENTED_EDGE('',*,*,#469,.F.);
#598=ORIENTED_EDGE('',*,*,#460,.T.);
#599=ORIENTED_EDGE('',*,*,#471,.T.);
#600=ORIENTED_EDGE('',*,*,#472,.F.);
#601=ORIENTED_EDGE('',*,*,#473,.F.);
#602=ORIENTED_EDGE('',*,*,#457,.T.);
#603=ORIENTED_EDGE('',*,*,#474,.T.);
#604=ORIENTED_EDGE('',*,*,#475,.F.);
#605=ORIENTED_EDGE('',*,*,#474,.F.);
#606=ORIENTED_EDGE('',*,*,#456,.T.);
#607=ORIENTED_EDGE('',*,*,#476,.T.);
#608=ORIENTED_EDGE('',*,*,#477,.F.);
#609=ORIENTED_EDGE('',*,*,#476,.F.);
#610=ORIENTED_EDGE('',*,*,#455,.T.);
#611=ORIENTED_EDGE('',*,*,#478,.T.);
#612=ORIENTED_EDGE('',*,*,#479,.F.);
#613=ORIENTED_EDGE('',*,*,#480,.F.);
#614=ORIENTED_EDGE('',*,*,#449,.T.);
#615=ORIENTED_EDGE('',*,*,#481,.T.);
#616=ORIENTED_EDGE('',*,*,#482,.F.);
#617=ORIENTED_EDGE('',*,*,#481,.F.);
#618=ORIENTED_EDGE('',*,*,#448,.T.);
#619=ORIENTED_EDGE('',*,*,#483,.T.);
#620=ORIENTED_EDGE('',*,*,#484,.F.);
#621=ORIENTED_EDGE('',*,*,#483,.F.);
#622=ORIENTED_EDGE('',*,*,#447,.T.);
#623=ORIENTED_EDGE('',*,*,#485,.T.);
#624=ORIENTED_EDGE('',*,*,#486,.F.);
#625=ORIENTED_EDGE('',*,*,#485,.F.);
#626=ORIENTED_EDGE('',*,*,#446,.T.);
#627=ORIENTED_EDGE('',*,*,#487,.T.);
#628=ORIENTED_EDGE('',*,*,#488,.F.);
#629=ORIENTED_EDGE('',*,*,#487,.F.);
#630=ORIENTED_EDGE('',*,*,#445,.T.);
#631=ORIENTED_EDGE('',*,*,#489,.T.);
#632=ORIENTED_EDGE('',*,*,#490,.F.);
#633=ORIENTED_EDGE('',*,*,#489,.F.);
#634=ORIENTED_EDGE('',*,*,#444,.T.);
#635=ORIENTED_EDGE('',*,*,#491,.T.);
#636=ORIENTED_EDGE('',*,*,#492,.F.);
#637=ORIENTED_EDGE('',*,*,#493,.F.);
#638=ORIENTED_EDGE('',*,*,#463,.T.);
#639=ORIENTED_EDGE('',*,*,#466,.T.);
#640=ORIENTED_EDGE('',*,*,#494,.F.);
#641=ORIENTED_EDGE('',*,*,#471,.F.);
#642=ORIENTED_EDGE('',*,*,#464,.T.);
#643=ORIENTED_EDGE('',*,*,#493,.T.);
#644=ORIENTED_EDGE('',*,*,#495,.F.);
#645=ORIENTED_EDGE('',*,*,#496,.F.);
#646=ORIENTED_EDGE('',*,*,#458,.T.);
#647=ORIENTED_EDGE('',*,*,#473,.T.);
#648=ORIENTED_EDGE('',*,*,#497,.F.);
#649=ORIENTED_EDGE('',*,*,#478,.F.);
#650=ORIENTED_EDGE('',*,*,#459,.T.);
#651=ORIENTED_EDGE('',*,*,#496,.T.);
#652=ORIENTED_EDGE('',*,*,#498,.F.);
#653=ORIENTED_EDGE('',*,*,#491,.F.);
#654=ORIENTED_EDGE('',*,*,#454,.T.);
#655=ORIENTED_EDGE('',*,*,#499,.T.);
#656=ORIENTED_EDGE('',*,*,#500,.F.);
#657=ORIENTED_EDGE('',*,*,#499,.F.);
#658=ORIENTED_EDGE('',*,*,#453,.T.);
#659=ORIENTED_EDGE('',*,*,#501,.T.);
#660=ORIENTED_EDGE('',*,*,#502,.F.);
#661=ORIENTED_EDGE('',*,*,#501,.F.);
#662=ORIENTED_EDGE('',*,*,#452,.T.);
#663=ORIENTED_EDGE('',*,*,#503,.T.);
#664=ORIENTED_EDGE('',*,*,#504,.F.);
#665=ORIENTED_EDGE('',*,*,#503,.F.);
#666=ORIENTED_EDGE('',*,*,#451,.T.);
#667=ORIENTED_EDGE('',*,*,#505,.T.);
#668=ORIENTED_EDGE('',*,*,#506,.F.);
#669=ORIENTED_EDGE('',*,*,#505,.F.);
#670=ORIENTED_EDGE('',*,*,#450,.T.);
#671=ORIENTED_EDGE('',*,*,#480,.T.);
#672=ORIENTED_EDGE('',*,*,#507,.F.);
#673=ORIENTED_EDGE('',*,*,#508,.F.);
#674=ORIENTED_EDGE('',*,*,#509,.T.);
#675=ORIENTED_EDGE('',*,*,#510,.T.);
#676=ORIENTED_EDGE('',*,*,#511,.F.);
#677=ORIENTED_EDGE('',*,*,#512,.F.);
#678=ORIENTED_EDGE('',*,*,#513,.T.);
#679=ORIENTED_EDGE('',*,*,#508,.T.);
#680=ORIENTED_EDGE('',*,*,#514,.F.);
#681=ORIENTED_EDGE('',*,*,#515,.F.);
#682=ORIENTED_EDGE('',*,*,#516,.T.);
#683=ORIENTED_EDGE('',*,*,#512,.T.);
#684=ORIENTED_EDGE('',*,*,#517,.F.);
#685=ORIENTED_EDGE('',*,*,#518,.F.);
#686=ORIENTED_EDGE('',*,*,#519,.T.);
#687=ORIENTED_EDGE('',*,*,#515,.T.);
#688=ORIENTED_EDGE('',*,*,#520,.F.);
#689=ORIENTED_EDGE('',*,*,#521,.F.);
#690=ORIENTED_EDGE('',*,*,#522,.T.);
#691=ORIENTED_EDGE('',*,*,#518,.T.);
#692=ORIENTED_EDGE('',*,*,#523,.F.);
#693=ORIENTED_EDGE('',*,*,#524,.F.);
#694=ORIENTED_EDGE('',*,*,#525,.T.);
#695=ORIENTED_EDGE('',*,*,#521,.T.);
#696=ORIENTED_EDGE('',*,*,#526,.F.);
#697=ORIENTED_EDGE('',*,*,#527,.F.);
#698=ORIENTED_EDGE('',*,*,#528,.T.);
#699=ORIENTED_EDGE('',*,*,#524,.T.);
#700=ORIENTED_EDGE('',*,*,#529,.F.);
#701=ORIENTED_EDGE('',*,*,#530,.F.);
#702=ORIENTED_EDGE('',*,*,#531,.T.);
#703=ORIENTED_EDGE('',*,*,#527,.T.);
#704=ORIENTED_EDGE('',*,*,#532,.F.);
#705=ORIENTED_EDGE('',*,*,#533,.F.);
#706=ORIENTED_EDGE('',*,*,#534,.T.);
#707=ORIENTED_EDGE('',*,*,#530,.T.);
#708=ORIENTED_EDGE('',*,*,#535,.F.);
#709=ORIENTED_EDGE('',*,*,#536,.F.);
#710=ORIENTED_EDGE('',*,*,#537,.T.);
#711=ORIENTED_EDGE('',*,*,#533,.T.);
#712=ORIENTED_EDGE('',*,*,#538,.F.);
#713=ORIENTED_EDGE('',*,*,#510,.F.);
#714=ORIENTED_EDGE('',*,*,#539,.T.);
#715=ORIENTED_EDGE('',*,*,#536,.T.);
#716=ORIENTED_EDGE('',*,*,#525,.F.);
#717=ORIENTED_EDGE('',*,*,#528,.F.);
#718=ORIENTED_EDGE('',*,*,#531,.F.);
#719=ORIENTED_EDGE('',*,*,#534,.F.);
#720=ORIENTED_EDGE('',*,*,#537,.F.);
#721=ORIENTED_EDGE('',*,*,#539,.F.);
#722=ORIENTED_EDGE('',*,*,#509,.F.);
#723=ORIENTED_EDGE('',*,*,#513,.F.);
#724=ORIENTED_EDGE('',*,*,#516,.F.);
#725=ORIENTED_EDGE('',*,*,#519,.F.);
#726=ORIENTED_EDGE('',*,*,#522,.F.);
#727=ORIENTED_EDGE('',*,*,#540,.F.);
#728=ORIENTED_EDGE('',*,*,#479,.T.);
#729=ORIENTED_EDGE('',*,*,#482,.T.);
#730=ORIENTED_EDGE('',*,*,#484,.T.);
#731=ORIENTED_EDGE('',*,*,#486,.T.);
#732=ORIENTED_EDGE('',*,*,#488,.T.);
#733=ORIENTED_EDGE('',*,*,#490,.T.);
#734=ORIENTED_EDGE('',*,*,#498,.T.);
#735=ORIENTED_EDGE('',*,*,#500,.T.);
#736=ORIENTED_EDGE('',*,*,#502,.T.);
#737=ORIENTED_EDGE('',*,*,#504,.T.);
#738=ORIENTED_EDGE('',*,*,#506,.T.);
#739=ORIENTED_EDGE('',*,*,#507,.T.);
#740=ORIENTED_EDGE('',*,*,#538,.T.);
#741=ORIENTED_EDGE('',*,*,#535,.T.);
#742=ORIENTED_EDGE('',*,*,#532,.T.);
#743=ORIENTED_EDGE('',*,*,#529,.T.);
#744=ORIENTED_EDGE('',*,*,#526,.T.);
#745=ORIENTED_EDGE('',*,*,#523,.T.);
#746=ORIENTED_EDGE('',*,*,#520,.T.);
#747=ORIENTED_EDGE('',*,*,#517,.T.);
#748=ORIENTED_EDGE('',*,*,#514,.T.);
#749=ORIENTED_EDGE('',*,*,#511,.T.);
#750=ORIENTED_EDGE('',*,*,#541,.T.);
#751=ORIENTED_EDGE('',*,*,#542,.T.);
#752=ORIENTED_EDGE('',*,*,#543,.T.);
#753=ORIENTED_EDGE('',*,*,#544,.T.);
#754=ORIENTED_EDGE('',*,*,#545,.T.);
#755=ORIENTED_EDGE('',*,*,#546,.T.);
#756=ORIENTED_EDGE('',*,*,#547,.T.);
#757=ORIENTED_EDGE('',*,*,#472,.T.);
#758=ORIENTED_EDGE('',*,*,#475,.T.);
#759=ORIENTED_EDGE('',*,*,#477,.T.);
#760=ORIENTED_EDGE('',*,*,#497,.T.);
#761=ORIENTED_EDGE('',*,*,#495,.T.);
#762=ORIENTED_EDGE('',*,*,#548,.F.);
#763=ORIENTED_EDGE('',*,*,#549,.F.);
#764=ORIENTED_EDGE('',*,*,#550,.F.);
#765=ORIENTED_EDGE('',*,*,#551,.F.);
#766=ORIENTED_EDGE('',*,*,#552,.F.);
#767=ORIENTED_EDGE('',*,*,#553,.F.);
#768=ORIENTED_EDGE('',*,*,#554,.F.);
#769=ORIENTED_EDGE('',*,*,#540,.T.);
#770=ORIENTED_EDGE('',*,*,#555,.T.);
#771=ORIENTED_EDGE('',*,*,#556,.T.);
#772=ORIENTED_EDGE('',*,*,#557,.T.);
#773=ORIENTED_EDGE('',*,*,#555,.F.);
#774=ORIENTED_EDGE('',*,*,#556,.F.);
#775=ORIENTED_EDGE('',*,*,#557,.F.);
#776=ORIENTED_EDGE('',*,*,#558,.T.);
#777=ORIENTED_EDGE('',*,*,#559,.T.);
#778=ORIENTED_EDGE('',*,*,#558,.F.);
#779=ORIENTED_EDGE('',*,*,#465,.T.);
#780=ORIENTED_EDGE('',*,*,#468,.T.);
#781=ORIENTED_EDGE('',*,*,#470,.T.);
#782=ORIENTED_EDGE('',*,*,#494,.T.);
#783=ORIENTED_EDGE('',*,*,#492,.T.);
#784=ORIENTED_EDGE('',*,*,#541,.F.);
#785=ORIENTED_EDGE('',*,*,#560,.T.);
#786=ORIENTED_EDGE('',*,*,#548,.T.);
#787=ORIENTED_EDGE('',*,*,#560,.F.);
#788=ORIENTED_EDGE('',*,*,#542,.F.);
#789=ORIENTED_EDGE('',*,*,#561,.T.);
#790=ORIENTED_EDGE('',*,*,#550,.T.);
#791=ORIENTED_EDGE('',*,*,#561,.F.);
#792=ORIENTED_EDGE('',*,*,#543,.F.);
#793=ORIENTED_EDGE('',*,*,#562,.T.);
#794=ORIENTED_EDGE('',*,*,#549,.T.);
#795=ORIENTED_EDGE('',*,*,#562,.F.);
#796=ORIENTED_EDGE('',*,*,#544,.F.);
#797=ORIENTED_EDGE('',*,*,#563,.T.);
#798=ORIENTED_EDGE('',*,*,#554,.T.);
#799=ORIENTED_EDGE('',*,*,#563,.F.);
#800=ORIENTED_EDGE('',*,*,#545,.F.);
#801=ORIENTED_EDGE('',*,*,#564,.T.);
#802=ORIENTED_EDGE('',*,*,#553,.T.);
#803=ORIENTED_EDGE('',*,*,#564,.F.);
#804=ORIENTED_EDGE('',*,*,#546,.F.);
#805=ORIENTED_EDGE('',*,*,#565,.T.);
#806=ORIENTED_EDGE('',*,*,#552,.T.);
#807=ORIENTED_EDGE('',*,*,#565,.F.);
#808=ORIENTED_EDGE('',*,*,#547,.F.);
#809=ORIENTED_EDGE('',*,*,#566,.T.);
#810=ORIENTED_EDGE('',*,*,#551,.T.);
#811=ORIENTED_EDGE('',*,*,#566,.F.);
#812=ORIENTED_EDGE('',*,*,#559,.F.);
#813=PLANE('',#915);
#814=PLANE('',#916);
#815=PLANE('',#917);
#816=PLANE('',#918);
#817=PLANE('',#919);
#818=PLANE('',#920);
#819=PLANE('',#921);
#820=PLANE('',#922);
#821=PLANE('',#923);
#822=PLANE('',#924);
#823=PLANE('',#925);
#824=PLANE('',#926);
#825=PLANE('',#927);
#826=PLANE('',#928);
#827=PLANE('',#929);
#828=PLANE('',#938);
#829=PLANE('',#939);
#830=PLANE('',#941);
#831=PLANE('',#943);
#832=PLANE('',#945);
#833=PLANE('',#947);
#834=PLANE('',#949);
#835=PLANE('',#951);
#836=PLANE('',#958);
#837=PLANE('',#966);
#838=ADVANCED_FACE('',(#73,#62,#63),#813,.T.);
#839=ADVANCED_FACE('',(#74),#42,.T.);
#840=ADVANCED_FACE('',(#75),#43,.T.);
#841=ADVANCED_FACE('',(#76),#44,.T.);
#842=ADVANCED_FACE('',(#77),#45,.T.);
#843=ADVANCED_FACE('',(#78),#46,.T.);
#844=ADVANCED_FACE('',(#79),#47,.T.);
#845=ADVANCED_FACE('',(#80),#48,.F.);
#846=ADVANCED_FACE('',(#81),#814,.F.);
#847=ADVANCED_FACE('',(#82),#49,.F.);
#848=ADVANCED_FACE('',(#83),#50,.F.);
#849=ADVANCED_FACE('',(#84),#51,.F.);
#850=ADVANCED_FACE('',(#85),#52,.F.);
#851=ADVANCED_FACE('',(#86),#53,.T.);
#852=ADVANCED_FACE('',(#87),#54,.T.);
#853=ADVANCED_FACE('',(#88),#55,.T.);
#854=ADVANCED_FACE('',(#89),#56,.T.);
#855=ADVANCED_FACE('',(#90),#57,.F.);
#856=ADVANCED_FACE('',(#91),#815,.F.);
#857=ADVANCED_FACE('',(#92),#58,.F.);
#858=ADVANCED_FACE('',(#93),#59,.F.);
#859=ADVANCED_FACE('',(#94),#60,.F.);
#860=ADVANCED_FACE('',(#95),#61,.F.);
#861=ADVANCED_FACE('',(#96),#816,.F.);
#862=ADVANCED_FACE('',(#97),#817,.F.);
#863=ADVANCED_FACE('',(#98),#818,.F.);
#864=ADVANCED_FACE('',(#99),#819,.F.);
#865=ADVANCED_FACE('',(#100),#820,.F.);
#866=ADVANCED_FACE('',(#101),#821,.F.);
#867=ADVANCED_FACE('',(#102),#822,.F.);
#868=ADVANCED_FACE('',(#103),#823,.F.);
#869=ADVANCED_FACE('',(#104),#824,.F.);
#870=ADVANCED_FACE('',(#105),#825,.F.);
#871=ADVANCED_FACE('',(#106),#826,.T.);
#872=ADVANCED_FACE('',(#107,#64,#65,#66,#67,#68,#69,#70,#71,#72),#827,.T.);
#873=ADVANCED_FACE('',(#108),#828,.T.);
#874=ADVANCED_FACE('',(#109),#829,.T.);
#875=ADVANCED_FACE('',(#110),#830,.T.);
#876=ADVANCED_FACE('',(#111),#831,.T.);
#877=ADVANCED_FACE('',(#112),#832,.T.);
#878=ADVANCED_FACE('',(#113),#833,.T.);
#879=ADVANCED_FACE('',(#114),#834,.T.);
#880=ADVANCED_FACE('',(#115),#835,.T.);
#881=ADVANCED_FACE('',(#116),#23,.T.);
#882=ADVANCED_FACE('',(#117),#15,.T.);
#883=ADVANCED_FACE('',(#118),#836,.T.);
#884=ADVANCED_FACE('',(#119),#16,.F.);
#885=ADVANCED_FACE('',(#120),#17,.F.);
#886=ADVANCED_FACE('',(#121),#18,.F.);
#887=ADVANCED_FACE('',(#122),#19,.F.);
#888=ADVANCED_FACE('',(#123),#20,.F.);
#889=ADVANCED_FACE('',(#124),#21,.F.);
#890=ADVANCED_FACE('',(#125),#22,.F.);
#891=ADVANCED_FACE('',(#126),#837,.F.);
#892=CLOSED_SHELL('',(#838,#839,#840,#841,#842,#843,#844,#845,#846,#847,
#848,#849,#850,#851,#852,#853,#854,#855,#856,#857,#858,#859,#860,#861,#862,
#863,#864,#865,#866,#867,#868,#869,#870,#871,#872,#873,#874,#875,#876,#877,
#878,#879,#880,#881,#882,#883,#884,#885,#886,#887,#888,#889,#890,#891));
#893=DERIVED_UNIT_ELEMENT(#896,1.);
#894=DERIVED_UNIT_ELEMENT(#1723,-3.);
#895=DIMENSIONAL_EXPONENTS(0.,1.,0.,0.,0.,0.,0.);
#896=(
CONVERSION_BASED_UNIT('gram',#898)
MASS_UNIT()
NAMED_UNIT(#895)
);
#897=(
MASS_UNIT()
NAMED_UNIT(*)
SI_UNIT(.KILO.,.GRAM.)
);
#898=MASS_MEASURE_WITH_UNIT(MASS_MEASURE(0.001),#897);
#899=DERIVED_UNIT((#893,#894));
#900=MEASURE_REPRESENTATION_ITEM('density measure',
POSITIVE_RATIO_MEASURE(1.),#899);
#901=PROPERTY_DEFINITION_REPRESENTATION(#906,#903);
#902=PROPERTY_DEFINITION_REPRESENTATION(#907,#904);
#903=REPRESENTATION('material name',(#905),#1720);
#904=REPRESENTATION('density',(#900),#1720);
#905=DESCRIPTIVE_REPRESENTATION_ITEM('Generic','Generic');
#906=PROPERTY_DEFINITION('material property','material name',#1730);
#907=PROPERTY_DEFINITION('material property','density of part',#1730);
#908=DATE_TIME_ROLE('creation_date');
#909=APPLIED_DATE_AND_TIME_ASSIGNMENT(#910,#908,(#1730));
#910=DATE_AND_TIME(#911,#912);
#911=CALENDAR_DATE(2023,28,9);
#912=LOCAL_TIME(0,0,0.,#913);
#913=COORDINATED_UNIVERSAL_TIME_OFFSET(0,0,.BEHIND.);
#914=AXIS2_PLACEMENT_3D('',#1138,#967,#968);
#915=AXIS2_PLACEMENT_3D('',#1139,#969,#970);
#916=AXIS2_PLACEMENT_3D('',#1400,#983,#984);
#917=AXIS2_PLACEMENT_3D('',#1526,#994,#995);
#918=AXIS2_PLACEMENT_3D('',#1595,#1002,#1003);
#919=AXIS2_PLACEMENT_3D('',#1601,#1007,#1008);
#920=AXIS2_PLACEMENT_3D('',#1607,#1012,#1013);
#921=AXIS2_PLACEMENT_3D('',#1613,#1017,#1018);
#922=AXIS2_PLACEMENT_3D('',#1619,#1022,#1023);
#923=AXIS2_PLACEMENT_3D('',#1625,#1027,#1028);
#924=AXIS2_PLACEMENT_3D('',#1631,#1032,#1033);
#925=AXIS2_PLACEMENT_3D('',#1637,#1037,#1038);
#926=AXIS2_PLACEMENT_3D('',#1643,#1042,#1043);
#927=AXIS2_PLACEMENT_3D('',#1649,#1047,#1048);
#928=AXIS2_PLACEMENT_3D('',#1652,#1051,#1052);
#929=AXIS2_PLACEMENT_3D('',#1653,#1053,#1054);
#930=AXIS2_PLACEMENT_3D('',#1655,#1055,#1056);
#931=AXIS2_PLACEMENT_3D('',#1657,#1057,#1058);
#932=AXIS2_PLACEMENT_3D('',#1659,#1059,#1060);
#933=AXIS2_PLACEMENT_3D('',#1661,#1061,#1062);
#934=AXIS2_PLACEMENT_3D('',#1663,#1063,#1064);
#935=AXIS2_PLACEMENT_3D('',#1665,#1065,#1066);
#936=AXIS2_PLACEMENT_3D('',#1667,#1067,#1068);
#937=AXIS2_PLACEMENT_3D('',#1669,#1069,#1070);
#938=AXIS2_PLACEMENT_3D('',#1670,#1071,#1072);
#939=AXIS2_PLACEMENT_3D('',#1671,#1073,#1074);
#940=AXIS2_PLACEMENT_3D('',#1673,#1075,#1076);
#941=AXIS2_PLACEMENT_3D('',#1674,#1077,#1078);
#942=AXIS2_PLACEMENT_3D('',#1676,#1079,#1080);
#943=AXIS2_PLACEMENT_3D('',#1677,#1081,#1082);
#944=AXIS2_PLACEMENT_3D('',#1679,#1083,#1084);
#945=AXIS2_PLACEMENT_3D('',#1680,#1085,#1086);
#946=AXIS2_PLACEMENT_3D('',#1682,#1087,#1088);
#947=AXIS2_PLACEMENT_3D('',#1683,#1089,#1090);
#948=AXIS2_PLACEMENT_3D('',#1685,#1091,#1092);
#949=AXIS2_PLACEMENT_3D('',#1686,#1093,#1094);
#950=AXIS2_PLACEMENT_3D('',#1688,#1095,#1096);
#951=AXIS2_PLACEMENT_3D('',#1689,#1097,#1098);
#952=AXIS2_PLACEMENT_3D('',#1691,#1099,#1100);
#953=AXIS2_PLACEMENT_3D('',#1692,#1101,#1102);
#954=AXIS2_PLACEMENT_3D('',#1696,#1104,#1105);
#955=AXIS2_PLACEMENT_3D('',#1697,#1106,#1107);
#956=AXIS2_PLACEMENT_3D('',#1698,#1108,#1109);
#957=AXIS2_PLACEMENT_3D('',#1701,#1111,#1112);
#958=AXIS2_PLACEMENT_3D('',#1702,#1113,#1114);
#959=AXIS2_PLACEMENT_3D('',#1703,#1115,#1116);
#960=AXIS2_PLACEMENT_3D('',#1705,#1118,#1119);
#961=AXIS2_PLACEMENT_3D('',#1707,#1121,#1122);
#962=AXIS2_PLACEMENT_3D('',#1709,#1124,#1125);
#963=AXIS2_PLACEMENT_3D('',#1711,#1127,#1128);
#964=AXIS2_PLACEMENT_3D('',#1713,#1130,#1131);
#965=AXIS2_PLACEMENT_3D('',#1715,#1133,#1134);
#966=AXIS2_PLACEMENT_3D('',#1717,#1136,#1137);
#967=DIRECTION('axis',(0.,0.,1.));
#968=DIRECTION('refdir',(1.,0.,0.));
#969=DIRECTION('center_axis',(0.,0.,1.));
#970=DIRECTION('ref_axis',(1.,0.,0.));
#971=DIRECTION('',(0.,-1.,0.));
#972=DIRECTION('',(0.,1.,0.));
#973=DIRECTION('',(0.,0.,1.));
#974=DIRECTION('',(0.,0.,1.));
#975=DIRECTION('',(0.,0.,1.));
#976=DIRECTION('',(0.,0.,1.));
#977=DIRECTION('',(0.,0.,1.));
#978=DIRECTION('',(0.,0.,1.));
#979=DIRECTION('',(0.,0.,1.));
#980=DIRECTION('',(0.,0.,1.));
#981=DIRECTION('',(0.,0.,1.));
#982=DIRECTION('',(0.,0.,1.));
#983=DIRECTION('center_axis',(1.,0.,0.));
#984=DIRECTION('ref_axis',(0.,0.,-1.));
#985=DIRECTION('',(0.,-1.,0.));
#986=DIRECTION('',(0.,0.,1.));
#987=DIRECTION('',(0.,0.,1.));
#988=DIRECTION('',(0.,0.,1.));
#989=DIRECTION('',(0.,0.,1.));
#990=DIRECTION('',(0.,0.,1.));
#991=DIRECTION('',(0.,0.,1.));
#992=DIRECTION('',(0.,0.,1.));
#993=DIRECTION('',(0.,0.,1.));
#994=DIRECTION('center_axis',(-1.,0.,0.));
#995=DIRECTION('ref_axis',(0.,0.,1.));
#996=DIRECTION('',(0.,1.,0.));
#997=DIRECTION('',(0.,0.,1.));
#998=DIRECTION('',(0.,0.,1.));
#999=DIRECTION('',(0.,0.,1.));
#1000=DIRECTION('',(0.,0.,1.));
#1001=DIRECTION('',(0.,0.,1.));
#1002=DIRECTION('center_axis',(-1.,0.,0.));
#1003=DIRECTION('ref_axis',(0.,0.,1.));
#1004=DIRECTION('',(0.,1.,0.));
#1005=DIRECTION('',(0.,0.,1.));
#1006=DIRECTION('',(0.,1.,0.));
#1007=DIRECTION('center_axis',(0.,-1.,0.));
#1008=DIRECTION('ref_axis',(0.,0.,-1.));
#1009=DIRECTION('',(-1.,0.,0.));
#1010=DIRECTION('',(0.,0.,1.));
#1011=DIRECTION('',(-1.,0.,0.));
#1012=DIRECTION('center_axis',(-1.,0.,0.));
#1013=DIRECTION('ref_axis',(0.,0.,1.));
#1014=DIRECTION('',(0.,1.,0.));
#1015=DIRECTION('',(0.,0.,1.));
#1016=DIRECTION('',(0.,1.,0.));
#1017=DIRECTION('center_axis',(0.,1.,0.));
#1018=DIRECTION('ref_axis',(0.,0.,1.));
#1019=DIRECTION('',(1.,0.,0.));
#1020=DIRECTION('',(0.,0.,1.));
#1021=DIRECTION('',(1.,0.,0.));
#1022=DIRECTION('center_axis',(-1.,0.,0.));
#1023=DIRECTION('ref_axis',(0.,0.,1.));
#1024=DIRECTION('',(0.,1.,0.));
#1025=DIRECTION('',(0.,0.,1.));
#1026=DIRECTION('',(0.,1.,0.));
#1027=DIRECTION('center_axis',(0.,-1.,0.));
#1028=DIRECTION('ref_axis',(0.,0.,-1.));
#1029=DIRECTION('',(-1.,0.,0.));
#1030=DIRECTION('',(0.,0.,1.));
#1031=DIRECTION('',(-1.,0.,0.));
#1032=DIRECTION('center_axis',(1.,0.,0.));
#1033=DIRECTION('ref_axis',(0.,0.,-1.));
#1034=DIRECTION('',(0.,-1.,0.));
#1035=DIRECTION('',(0.,0.,1.));
#1036=DIRECTION('',(0.,-1.,0.));
#1037=DIRECTION('center_axis',(0.,1.,0.));
#1038=DIRECTION('ref_axis',(0.,0.,1.));
#1039=DIRECTION('',(1.,0.,0.));
#1040=DIRECTION('',(0.,0.,1.));
#1041=DIRECTION('',(1.,0.,0.));
#1042=DIRECTION('center_axis',(1.,0.,0.));
#1043=DIRECTION('ref_axis',(0.,0.,-1.));
#1044=DIRECTION('',(0.,-1.,0.));
#1045=DIRECTION('',(0.,0.,1.));
#1046=DIRECTION('',(0.,-1.,0.));
#1047=DIRECTION('center_axis',(0.,1.,0.));
#1048=DIRECTION('ref_axis',(0.,0.,1.));
#1049=DIRECTION('',(1.,0.,0.));
#1050=DIRECTION('',(1.,0.,0.));
#1051=DIRECTION('center_axis',(0.,0.,1.));
#1052=DIRECTION('ref_axis',(1.,0.,0.));
#1053=DIRECTION('center_axis',(0.,0.,1.));
#1054=DIRECTION('ref_axis',(1.,0.,0.));
#1055=DIRECTION('center_axis',(0.,0.,-1.));
#1056=DIRECTION('ref_axis',(-1.,0.,0.));
#1057=DIRECTION('center_axis',(0.,0.,-1.));
#1058=DIRECTION('ref_axis',(-1.,0.,0.));
#1059=DIRECTION('center_axis',(0.,0.,-1.));
#1060=DIRECTION('ref_axis',(-1.,0.,0.));
#1061=DIRECTION('center_axis',(0.,0.,-1.));
#1062=DIRECTION('ref_axis',(-1.,0.,0.));
#1063=DIRECTION('center_axis',(0.,0.,-1.));
#1064=DIRECTION('ref_axis',(-1.,0.,0.));
#1065=DIRECTION('center_axis',(0.,0.,-1.));
#1066=DIRECTION('ref_axis',(-1.,0.,0.));
#1067=DIRECTION('center_axis',(0.,0.,-1.));
#1068=DIRECTION('ref_axis',(-1.,0.,0.));
#1069=DIRECTION('center_axis',(0.,0.,-1.));
#1070=DIRECTION('ref_axis',(-1.,0.,0.));
#1071=DIRECTION('center_axis',(0.,0.,1.));
#1072=DIRECTION('ref_axis',(1.,0.,0.));
#1073=DIRECTION('center_axis',(0.,0.,1.));
#1074=DIRECTION('ref_axis',(1.,0.,0.));
#1075=DIRECTION('center_axis',(0.,0.,-1.));
#1076=DIRECTION('ref_axis',(-1.,0.,0.));
#1077=DIRECTION('center_axis',(0.,0.,1.));
#1078=DIRECTION('ref_axis',(1.,0.,0.));
#1079=DIRECTION('center_axis',(0.,0.,-1.));
#1080=DIRECTION('ref_axis',(-1.,0.,0.));
#1081=DIRECTION('center_axis',(0.,0.,1.));
#1082=DIRECTION('ref_axis',(1.,0.,0.));
#1083=DIRECTION('center_axis',(0.,0.,-1.));
#1084=DIRECTION('ref_axis',(-1.,0.,0.));
#1085=DIRECTION('center_axis',(0.,0.,1.));
#1086=DIRECTION('ref_axis',(1.,0.,0.));
#1087=DIRECTION('center_axis',(0.,0.,-1.));
#1088=DIRECTION('ref_axis',(-1.,0.,0.));
#1089=DIRECTION('center_axis',(0.,0.,1.));
#1090=DIRECTION('ref_axis',(1.,0.,0.));
#1091=DIRECTION('center_axis',(0.,0.,-1.));
#1092=DIRECTION('ref_axis',(-1.,0.,0.));
#1093=DIRECTION('center_axis',(0.,0.,1.));
#1094=DIRECTION('ref_axis',(1.,0.,0.));
#1095=DIRECTION('center_axis',(0.,0.,-1.));
#1096=DIRECTION('ref_axis',(-1.,0.,0.));
#1097=DIRECTION('center_axis',(0.,0.,1.));
#1098=DIRECTION('ref_axis',(1.,0.,0.));
#1099=DIRECTION('center_axis',(0.,0.,-1.));
#1100=DIRECTION('ref_axis',(-1.,0.,0.));
#1101=DIRECTION('center_axis',(0.,0.,-1.));
#1102=DIRECTION('ref_axis',(-1.,0.,0.));
#1103=DIRECTION('',(0.707106781186546,8.65956056235492E-17,-0.707106781186549));
#1104=DIRECTION('center_axis',(0.,0.,1.));
#1105=DIRECTION('ref_axis',(-1.,0.,0.));
#1106=DIRECTION('center_axis',(0.,0.,1.));
#1107=DIRECTION('ref_axis',(-1.,0.,0.));
#1108=DIRECTION('center_axis',(0.,0.,1.));
#1109=DIRECTION('ref_axis',(1.,0.,0.));
#1110=DIRECTION('',(0.,0.,-1.));
#1111=DIRECTION('center_axis',(0.,0.,1.));
#1112=DIRECTION('ref_axis',(1.,0.,0.));
#1113=DIRECTION('center_axis',(0.,0.,1.));
#1114=DIRECTION('ref_axis',(1.,0.,0.));
#1115=DIRECTION('center_axis',(0.,0.,1.));
#1116=DIRECTION('ref_axis',(-1.,0.,0.));
#1117=DIRECTION('',(0.,0.,-1.));
#1118=DIRECTION('center_axis',(0.,0.,1.));
#1119=DIRECTION('ref_axis',(-1.,0.,0.));
#1120=DIRECTION('',(0.,0.,-1.));
#1121=DIRECTION('center_axis',(0.,0.,1.));
#1122=DIRECTION('ref_axis',(-1.,0.,0.));
#1123=DIRECTION('',(0.,0.,-1.));
#1124=DIRECTION('center_axis',(0.,0.,1.));
#1125=DIRECTION('ref_axis',(-1.,0.,0.));
#1126=DIRECTION('',(0.,0.,-1.));
#1127=DIRECTION('center_axis',(0.,0.,1.));
#1128=DIRECTION('ref_axis',(-1.,0.,0.));
#1129=DIRECTION('',(0.,0.,-1.));
#1130=DIRECTION('center_axis',(0.,0.,1.));
#1131=DIRECTION('ref_axis',(-1.,0.,0.));
#1132=DIRECTION('',(0.,0.,-1.));
#1133=DIRECTION('center_axis',(0.,0.,1.));
#1134=DIRECTION('ref_axis',(-1.,0.,0.));
#1135=DIRECTION('',(0.,0.,-1.));
#1136=DIRECTION('center_axis',(0.,0.,1.));
#1137=DIRECTION('ref_axis',(1.,0.,0.));
#1138=CARTESIAN_POINT('',(0.,0.,0.));
#1139=CARTESIAN_POINT('Origin',(0.,0.,11.4));
#1140=CARTESIAN_POINT('',(-14.1551357906325,-26.8331693618341,11.4));
#1141=CARTESIAN_POINT('',(-14.5846333595142,-25.7675291673446,11.4));
#1142=CARTESIAN_POINT('Ctrl Pts',(-14.1551357906325,-26.8331693618341,11.4));
#1143=CARTESIAN_POINT('Ctrl Pts',(-14.2956004043548,-26.6981072332549,11.4));
#1144=CARTESIAN_POINT('Ctrl Pts',(-14.4022994859324,-26.5387339215315,11.4));
#1145=CARTESIAN_POINT('Ctrl Pts',(-14.4752330353651,-26.3550494266639,11.4));
#1146=CARTESIAN_POINT('Ctrl Pts',(-14.5481665847978,-26.1713649317963,11.4));
#1147=CARTESIAN_POINT('Ctrl Pts',(-14.5846333595142,-25.9755248453565,11.4));
#1148=CARTESIAN_POINT('Ctrl Pts',(-14.5846333595142,-25.7675291673446,11.4));
#1149=CARTESIAN_POINT('',(-12.9557840888497,-27.2626669307158,11.4));
#1150=CARTESIAN_POINT('Ctrl Pts',(-12.9557840888497,-27.2626669307158,11.4));
#1151=CARTESIAN_POINT('Ctrl Pts',(-13.2042984054353,-27.2626669307158,11.4));
#1152=CARTESIAN_POINT('Ctrl Pts',(-13.4305274708054,-27.2255248453565,11.4));
#1153=CARTESIAN_POINT('Ctrl Pts',(-13.6344712849599,-27.151240674638,11.4));
#1154=CARTESIAN_POINT('Ctrl Pts',(-13.8384150991144,-27.0769565039194,11.4));
#1155=CARTESIAN_POINT('Ctrl Pts',(-14.0119699343386,-26.9709327329848,11.4));
#1156=CARTESIAN_POINT('Ctrl Pts',(-14.1551357906325,-26.8331693618341,11.4));
#1157=CARTESIAN_POINT('',(-11.3269348181852,-25.7553735757725,11.4));
#1158=CARTESIAN_POINT('Ctrl Pts',(-11.3269348181852,-25.7553735757725,11.4));
#1159=CARTESIAN_POINT('Ctrl Pts',(-11.3269348181852,-26.1821699020826,11.4));
#1160=CARTESIAN_POINT('Ctrl Pts',(-11.4822562660512,-26.5400845428173,11.4));
#1161=CARTESIAN_POINT('Ctrl Pts',(-11.7928991617832,-26.8291174979767,11.4));
#1162=CARTESIAN_POINT('Ctrl Pts',(-12.1035420575153,-27.1181504531361,11.4));
#1163=CARTESIAN_POINT('Ctrl Pts',(-12.4911703665374,-27.2626669307158,11.4));
#1164=CARTESIAN_POINT('Ctrl Pts',(-12.9557840888497,-27.2626669307158,11.4));
#1165=CARTESIAN_POINT('',(-12.2142930029502,-24.5073995077012,11.4));
#1166=CARTESIAN_POINT('Ctrl Pts',(-12.2142930029502,-24.5073995077012,11.4));
#1167=CARTESIAN_POINT('Ctrl Pts',(-11.9225588052192,-24.6424616362803,11.4));
#1168=CARTESIAN_POINT('Ctrl Pts',(-11.7017322249923,-24.8072374331469,11.4));
#1169=CARTESIAN_POINT('Ctrl Pts',(-11.5518132622695,-25.0017268983008,11.4));
#1170=CARTESIAN_POINT('Ctrl Pts',(-11.4018942995466,-25.1962163634548,11.4));
#1171=CARTESIAN_POINT('Ctrl Pts',(-11.3269348181852,-25.447431922612,11.4));
#1172=CARTESIAN_POINT('Ctrl Pts',(-11.3269348181852,-25.7553735757725,11.4));
#1173=CARTESIAN_POINT('',(-12.2142930029502,-24.4871401884143,11.4));
#1174=CARTESIAN_POINT('',(-12.2142930029502,-12.2435700942072,11.4));
#1175=CARTESIAN_POINT('',(-11.4525425977638,-23.3080478059184,11.4));
#1176=CARTESIAN_POINT('Ctrl Pts',(-11.4525425977638,-23.3080478059184,11.4));
#1177=CARTESIAN_POINT('Ctrl Pts',(-11.4525425977638,-23.5322509393597,11.4));
#1178=CARTESIAN_POINT('Ctrl Pts',(-11.5180477301247,-23.7537528302295,11.4));
#1179=CARTESIAN_POINT('Ctrl Pts',(-11.6490579948465,-23.9725534785278,11.4));
#1180=CARTESIAN_POINT('Ctrl Pts',(-11.7800682595682,-24.191354126826,11.4));
#1181=CARTESIAN_POINT('Ctrl Pts',(-11.9684799289361,-24.3628830301215,11.4));
#1182=CARTESIAN_POINT('Ctrl Pts',(-12.2142930029502,-24.4871401884143,11.4));
#1183=CARTESIAN_POINT('',(-12.9557840888497,-22.0357625547028,11.4));
#1184=CARTESIAN_POINT('Ctrl Pts',(-12.9557840888497,-22.0357625547028,11.4));
#1185=CARTESIAN_POINT('Ctrl Pts',(-12.5019753368238,-22.0357625547028,11.4));
#1186=CARTESIAN_POINT('Ctrl Pts',(-12.137982900303,-22.1546172278524,11.4));
#1187=CARTESIAN_POINT('Ctrl Pts',(-11.8638067792873,-22.3923265741517,11.4));
#1188=CARTESIAN_POINT('Ctrl Pts',(-11.5896306582716,-22.630035920451,11.4));
#1189=CARTESIAN_POINT('Ctrl Pts',(-11.4525425977638,-22.9352763310399,11.4));
#1190=CARTESIAN_POINT('Ctrl Pts',(-11.4525425977638,-23.3080478059184,11.4));
#1191=CARTESIAN_POINT('',(-14.463077443793,-23.3526183083495,11.4));
#1192=CARTESIAN_POINT('Ctrl Pts',(-14.463077443793,-23.3526183083495,11.4));
#1193=CARTESIAN_POINT('Ctrl Pts',(-14.463077443793,-22.9771455908994,11.4));
#1194=CARTESIAN_POINT('Ctrl Pts',(-14.3212622087849,-22.6638014525958,11.4));
#1195=CARTESIAN_POINT('Ctrl Pts',(-14.0376317387687,-22.4125858934386,11.4));
#1196=CARTESIAN_POINT('Ctrl Pts',(-13.7540012687525,-22.1613703342814,11.4));
#1197=CARTESIAN_POINT('Ctrl Pts',(-13.3933853854461,-22.0357625547028,11.4));
#1198=CARTESIAN_POINT('Ctrl Pts',(-12.9557840888497,-22.0357625547028,11.4));
#1199=CARTESIAN_POINT('',(-13.737793813323,-24.4587771414127,11.4));
#1200=CARTESIAN_POINT('Ctrl Pts',(-13.737793813323,-24.4587771414127,11.4));
#1201=CARTESIAN_POINT('Ctrl Pts',(-13.983606887337,-24.3156112851188,11.4));
#1202=CARTESIAN_POINT('Ctrl Pts',(-14.1659407609188,-24.158939215967,11.4));
#1203=CARTESIAN_POINT('Ctrl Pts',(-14.2847954340685,-23.9887609339573,11.4));
#1204=CARTESIAN_POINT('Ctrl Pts',(-14.4036501072181,-23.8185826519475,11.4));
#1205=CARTESIAN_POINT('Ctrl Pts',(-14.463077443793,-23.6065351100783,11.4));
#1206=CARTESIAN_POINT('Ctrl Pts',(-14.463077443793,-23.3526183083495,11.4));
#1207=CARTESIAN_POINT('',(-13.737793813323,-24.4790364606996,11.4));
#1208=CARTESIAN_POINT('',(-13.737793813323,-12.2395182303498,11.4));
#1209=CARTESIAN_POINT('Ctrl Pts',(-14.5846333595142,-25.7675291673446,11.4));
#1210=CARTESIAN_POINT('Ctrl Pts',(-14.5846333595142,-25.4974049101863,11.4));
#1211=CARTESIAN_POINT('Ctrl Pts',(-14.5123751207244,-25.2488905936007,11.4));
#1212=CARTESIAN_POINT('Ctrl Pts',(-14.3678586431447,-25.0219862175877,11.4));
#1213=CARTESIAN_POINT('Ctrl Pts',(-14.223342165565,-24.7950818415748,11.4));
#1214=CARTESIAN_POINT('Ctrl Pts',(-14.0133205556244,-24.6140985892787,11.4));
#1215=CARTESIAN_POINT('Ctrl Pts',(-13.737793813323,-24.4790364606996,11.4));
#1216=CARTESIAN_POINT('',(-12.9476803611349,-26.7642876762587,11.4));
#1217=CARTESIAN_POINT('',(-12.0157516739388,-25.8202033974905,11.4));
#1218=CARTESIAN_POINT('Ctrl Pts',(-12.9476803611349,-26.7642876762587,11.4));
#1219=CARTESIAN_POINT('Ctrl Pts',(-12.6667511336903,-26.7642876762587,11.4));
#1220=CARTESIAN_POINT('Ctrl Pts',(-12.4411973789631,-26.6798738458967,11.4));
#1221=CARTESIAN_POINT('Ctrl Pts',(-12.2710190969534,-26.5110461851728,11.4));
#1222=CARTESIAN_POINT('Ctrl Pts',(-12.1008408149437,-26.3422185244489,11.4));
#1223=CARTESIAN_POINT('Ctrl Pts',(-12.0157516739388,-26.1119375952214,11.4));
#1224=CARTESIAN_POINT('Ctrl Pts',(-12.0157516739388,-25.8202033974905,11.4));
#1225=CARTESIAN_POINT('',(-13.9079720953327,-25.7189068010561,11.4));
#1226=CARTESIAN_POINT('Ctrl Pts',(-13.9079720953327,-25.7189068010561,11.4));
#1227=CARTESIAN_POINT('Ctrl Pts',(-13.9079720953327,-26.0214459690734,11.4));
#1228=CARTESIAN_POINT('Ctrl Pts',(-13.8168051585418,-26.2713109069448,11.4));
#1229=CARTESIAN_POINT('Ctrl Pts',(-13.6344712849599,-26.4685016146704,11.4));
#1230=CARTESIAN_POINT('Ctrl Pts',(-13.4521374113781,-26.6656923223959,11.4));
#1231=CARTESIAN_POINT('Ctrl Pts',(-13.2232071034364,-26.7642876762587,11.4));
#1232=CARTESIAN_POINT('Ctrl Pts',(-12.9476803611349,-26.7642876762587,11.4));
#1233=CARTESIAN_POINT('',(-13.3366592914429,-24.6492147427093,11.4));
#1234=CARTESIAN_POINT('Ctrl Pts',(-13.3366592914429,-24.6492147427093,11.4));
#1235=CARTESIAN_POINT('Ctrl Pts',(-13.5203437863105,-24.7707706584305,11.4));
#1236=CARTESIAN_POINT('Ctrl Pts',(-13.6614837106757,-24.9220402424391,11.4));
#1237=CARTESIAN_POINT('Ctrl Pts',(-13.7600790645385,-25.1030234947352,11.4));
#1238=CARTESIAN_POINT('Ctrl Pts',(-13.8586744184013,-25.2840067470313,11.4));
#1239=CARTESIAN_POINT('Ctrl Pts',(-13.9079720953327,-25.4893011824716,11.4));
#1240=CARTESIAN_POINT('Ctrl Pts',(-13.9079720953327,-25.7189068010561,11.4));
#1241=CARTESIAN_POINT('',(-12.6032719332581,-24.9612082597271,11.4));
#1242=CARTESIAN_POINT('Ctrl Pts',(-12.6032719332581,-24.9612082597271,11.4));
#1243=CARTESIAN_POINT('Ctrl Pts',(-12.6789067252624,-24.9179883785818,11.4));
#1244=CARTESIAN_POINT('Ctrl Pts',(-12.7802033216968,-24.871391944222,11.4));
#1245=CARTESIAN_POINT('Ctrl Pts',(-12.9071617225612,-24.8214189566477,11.4));
#1246=CARTESIAN_POINT('Ctrl Pts',(-13.0341201234256,-24.7714459690734,11.4));
#1247=CARTESIAN_POINT('Ctrl Pts',(-13.1772859797195,-24.7140445644273,11.4));
#1248=CARTESIAN_POINT('Ctrl Pts',(-13.3366592914429,-24.6492147427093,11.4));
#1249=CARTESIAN_POINT('Ctrl Pts',(-12.0157516739388,-25.8202033974905,11.4));
#1250=CARTESIAN_POINT('Ctrl Pts',(-12.0157516739388,-25.6149089620502,11.4));
#1251=CARTESIAN_POINT('Ctrl Pts',(-12.0562703125126,-25.4514837864694,11.4));
#1252=CARTESIAN_POINT('Ctrl Pts',(-12.1373075896601,-25.3299278707482,11.4));
#1253=CARTESIAN_POINT('Ctrl Pts',(-12.2183448668076,-25.2083719550269,11.4));
#1254=CARTESIAN_POINT('Ctrl Pts',(-12.3736663146736,-25.0854654180199,11.4));
#1255=CARTESIAN_POINT('Ctrl Pts',(-12.6032719332581,-24.9612082597271,11.4));
#1256=CARTESIAN_POINT('',(-12.6073237971155,-24.3169619064046,11.4));
#1257=CARTESIAN_POINT('',(-12.1089445426584,-23.3161515336331,11.4));
#1258=CARTESIAN_POINT('Ctrl Pts',(-12.6073237971155,-24.3169619064046,11.4));
#1259=CARTESIAN_POINT('Ctrl Pts',(-12.4128343319615,-24.1683935649675,11.4));
#1260=CARTESIAN_POINT('Ctrl Pts',(-12.2811487565969,-24.0150980490302,11.4));
#1261=CARTESIAN_POINT('Ctrl Pts',(-12.2122670710215,-23.8570753585926,11.4));
#1262=CARTESIAN_POINT('Ctrl Pts',(-12.1433853854461,-23.699052668155,11.4));
#1263=CARTESIAN_POINT('Ctrl Pts',(-12.1089445426584,-23.5187447265018,11.4));
#1264=CARTESIAN_POINT('Ctrl Pts',(-12.1089445426584,-23.3161515336331,11.4));
#1265=CARTESIAN_POINT('',(-13.3123481082986,-24.0049683893868,11.4));
#1266=CARTESIAN_POINT('Ctrl Pts',(-13.3123481082986,-24.0049683893868,11.4));
#1267=CARTESIAN_POINT('Ctrl Pts',(-13.2448170440091,-24.0427857853889,11.4));
#1268=CARTESIAN_POINT('Ctrl Pts',(-13.1394685837173,-24.0947847048919,11.4));
#1269=CARTESIAN_POINT('Ctrl Pts',(-12.9963027274234,-24.1609651478957,11.4));
#1270=CARTESIAN_POINT('Ctrl Pts',(-12.8531368711295,-24.2271455908994,11.4));
#1271=CARTESIAN_POINT('Ctrl Pts',(-12.7234772276936,-24.2791445104024,11.4));
#1272=CARTESIAN_POINT('Ctrl Pts',(-12.6073237971155,-24.3169619064046,11.4));
#1273=CARTESIAN_POINT('',(-13.7904680434688,-23.2756328950594,11.4));
#1274=CARTESIAN_POINT('Ctrl Pts',(-13.7904680434688,-23.2756328950594,11.4));
#1275=CARTESIAN_POINT('Ctrl Pts',(-13.7904680434688,-23.4404086919259,11.4));
#1276=CARTESIAN_POINT('Ctrl Pts',(-13.750624715538,-23.5801979950053,11.4));
#1277=CARTESIAN_POINT('Ctrl Pts',(-13.6709380596763,-23.6950008042976,11.4));
#1278=CARTESIAN_POINT('Ctrl Pts',(-13.5912514038146,-23.8098036135899,11.4));
#1279=CARTESIAN_POINT('Ctrl Pts',(-13.471721420022,-23.9131261419529,11.4));
#1280=CARTESIAN_POINT('Ctrl Pts',(-13.3123481082986,-24.0049683893868,11.4));
#1281=CARTESIAN_POINT('',(-12.9598359527071,-22.5300899453025,11.4));
#1282=CARTESIAN_POINT('Ctrl Pts',(-12.9598359527071,-22.5300899453025,11.4));
#1283=CARTESIAN_POINT('Ctrl Pts',(-13.2029477841495,-22.5300899453025,11.4));
#1284=CARTESIAN_POINT('Ctrl Pts',(-13.4021644238038,-22.5969456989491,11.4));
#1285=CARTESIAN_POINT('Ctrl Pts',(-13.5574858716698,-22.7306572062425,11.4));
#1286=CARTESIAN_POINT('Ctrl Pts',(-13.7128073195358,-22.8643687135359,11.4));
#1287=CARTESIAN_POINT('Ctrl Pts',(-13.7904680434688,-23.0460272764748,11.4));
#1288=CARTESIAN_POINT('Ctrl Pts',(-13.7904680434688,-23.2756328950594,11.4));
#1289=CARTESIAN_POINT('Ctrl Pts',(-12.1089445426584,-23.3161515336331,11.4));
#1290=CARTESIAN_POINT('Ctrl Pts',(-12.1089445426584,-23.0919484001917,11.4));
#1291=CARTESIAN_POINT('Ctrl Pts',(-12.1839040240199,-22.9048873521096,11.4));
#1292=CARTESIAN_POINT('Ctrl Pts',(-12.3338229867427,-22.7549683893868,11.4));
#1293=CARTESIAN_POINT('Ctrl Pts',(-12.4837419494656,-22.6050494266639,11.4));
#1294=CARTESIAN_POINT('Ctrl Pts',(-12.6924129381204,-22.5300899453025,11.4));
#1295=CARTESIAN_POINT('Ctrl Pts',(-12.9598359527071,-22.5300899453025,11.4));
#1296=CARTESIAN_POINT('Ctrl Pts',(-13.7904680434688,-23.2756328950594,-111.620386668219));
#1297=CARTESIAN_POINT('Ctrl Pts',(-13.7904680434688,-23.2756328950594,135.620386668219));
#1298=CARTESIAN_POINT('Ctrl Pts',(-13.7904680434688,-23.5227965903592,-111.620386668219));
#1299=CARTESIAN_POINT('Ctrl Pts',(-13.7904680434688,-23.5227965903592,135.620386668219));
#1300=CARTESIAN_POINT('Ctrl Pts',(-13.5514080758837,-23.867205018236,-111.620386668219));
#1301=CARTESIAN_POINT('Ctrl Pts',(-13.5514080758837,-23.867205018236,135.620386668219));
#1302=CARTESIAN_POINT('Ctrl Pts',(-13.3123481082986,-24.0049683893868,-111.620386668219));
#1303=CARTESIAN_POINT('Ctrl Pts',(-13.3123481082986,-24.0049683893868,135.620386668219));
#1304=CARTESIAN_POINT('',(-13.7904680434688,-23.2756328950594,12.));
#1305=CARTESIAN_POINT('',(-13.3123481082986,-24.0049683893868,12.));
#1306=CARTESIAN_POINT('Ctrl Pts',(-13.7904680434688,-23.2756328950594,12.));
#1307=CARTESIAN_POINT('Ctrl Pts',(-13.7904680434688,-23.5227965903592,12.));
#1308=CARTESIAN_POINT('Ctrl Pts',(-13.5514080758837,-23.867205018236,12.));
#1309=CARTESIAN_POINT('Ctrl Pts',(-13.3123481082986,-24.0049683893868,12.));
#1310=CARTESIAN_POINT('',(-13.7904680434688,-23.2756328950594,-111.620386668219));
#1311=CARTESIAN_POINT('',(-13.3123481082986,-24.0049683893868,-111.620386668219));
#1312=CARTESIAN_POINT('Ctrl Pts',(-13.3123481082986,-24.0049683893868,-111.620386668219));
#1313=CARTESIAN_POINT('Ctrl Pts',(-13.3123481082986,-24.0049683893868,135.620386668219));
#1314=CARTESIAN_POINT('Ctrl Pts',(-13.2110515118643,-24.06169448339,-111.620386668219));
#1315=CARTESIAN_POINT('Ctrl Pts',(-13.2110515118643,-24.06169448339,135.620386668219));
#1316=CARTESIAN_POINT('Ctrl Pts',(-12.7815539429826,-24.2602358124013,-111.620386668219));
#1317=CARTESIAN_POINT('Ctrl Pts',(-12.7815539429826,-24.2602358124013,135.620386668219));
#1318=CARTESIAN_POINT('Ctrl Pts',(-12.6073237971155,-24.3169619064046,-111.620386668219));
#1319=CARTESIAN_POINT('Ctrl Pts',(-12.6073237971155,-24.3169619064046,135.620386668219));
#1320=CARTESIAN_POINT('',(-12.6073237971155,-24.3169619064046,12.));
#1321=CARTESIAN_POINT('Ctrl Pts',(-13.3123481082986,-24.0049683893868,12.));
#1322=CARTESIAN_POINT('Ctrl Pts',(-13.2110515118643,-24.06169448339,12.));
#1323=CARTESIAN_POINT('Ctrl Pts',(-12.7815539429826,-24.2602358124013,12.));
#1324=CARTESIAN_POINT('Ctrl Pts',(-12.6073237971155,-24.3169619064046,12.));
#1325=CARTESIAN_POINT('',(-12.6073237971155,-24.3169619064046,-111.620386668219));
#1326=CARTESIAN_POINT('Ctrl Pts',(-12.6073237971155,-24.3169619064046,-111.620386668219));
#1327=CARTESIAN_POINT('Ctrl Pts',(-12.6073237971155,-24.3169619064046,135.620386668219));
#1328=CARTESIAN_POINT('Ctrl Pts',(-12.3155895993845,-24.094109394249,-111.620386668219));
#1329=CARTESIAN_POINT('Ctrl Pts',(-12.3155895993845,-24.094109394249,135.620386668219));
#1330=CARTESIAN_POINT('Ctrl Pts',(-12.1089445426584,-23.6200413229362,-111.620386668219));
#1331=CARTESIAN_POINT('Ctrl Pts',(-12.1089445426584,-23.6200413229362,135.620386668219));
#1332=CARTESIAN_POINT('Ctrl Pts',(-12.1089445426584,-23.3161515336331,-111.620386668219));
#1333=CARTESIAN_POINT('Ctrl Pts',(-12.1089445426584,-23.3161515336331,135.620386668219));
#1334=CARTESIAN_POINT('',(-12.1089445426584,-23.3161515336331,12.));
#1335=CARTESIAN_POINT('Ctrl Pts',(-12.6073237971155,-24.3169619064046,12.));
#1336=CARTESIAN_POINT('Ctrl Pts',(-12.3155895993845,-24.094109394249,12.));
#1337=CARTESIAN_POINT('Ctrl Pts',(-12.1089445426584,-23.6200413229362,12.));
#1338=CARTESIAN_POINT('Ctrl Pts',(-12.1089445426584,-23.3161515336331,12.));
#1339=CARTESIAN_POINT('',(-12.1089445426584,-23.3161515336331,-111.620386668219));
#1340=CARTESIAN_POINT('Ctrl Pts',(-13.3366592914429,-24.6492147427093,-111.620386668219));
#1341=CARTESIAN_POINT('Ctrl Pts',(-13.3366592914429,-24.6492147427093,135.620386668219));
#1342=CARTESIAN_POINT('Ctrl Pts',(-13.6121860337443,-24.8315486162911,-111.620386668219));
#1343=CARTESIAN_POINT('Ctrl Pts',(-13.6121860337443,-24.8315486162911,135.620386668219));
#1344=CARTESIAN_POINT('Ctrl Pts',(-13.9079720953327,-25.3744983731793,-111.620386668219));
#1345=CARTESIAN_POINT('Ctrl Pts',(-13.9079720953327,-25.3744983731793,135.620386668219));
#1346=CARTESIAN_POINT('Ctrl Pts',(-13.9079720953327,-25.7189068010561,-111.620386668219));
#1347=CARTESIAN_POINT('Ctrl Pts',(-13.9079720953327,-25.7189068010561,135.620386668219));
#1348=CARTESIAN_POINT('',(-13.3366592914429,-24.6492147427093,12.));
#1349=CARTESIAN_POINT('',(-13.9079720953327,-25.7189068010561,12.));
#1350=CARTESIAN_POINT('Ctrl Pts',(-13.3366592914429,-24.6492147427093,12.));
#1351=CARTESIAN_POINT('Ctrl Pts',(-13.6121860337443,-24.8315486162911,12.));
#1352=CARTESIAN_POINT('Ctrl Pts',(-13.9079720953327,-25.3744983731793,12.));
#1353=CARTESIAN_POINT('Ctrl Pts',(-13.9079720953327,-25.7189068010561,12.));
#1354=CARTESIAN_POINT('',(-13.3366592914429,-24.6492147427093,-111.620386668219));
#1355=CARTESIAN_POINT('',(-13.9079720953327,-25.7189068010561,-111.620386668219));
#1356=CARTESIAN_POINT('Ctrl Pts',(-13.9079720953327,-25.7189068010561,-111.620386668219));
#1357=CARTESIAN_POINT('Ctrl Pts',(-13.9079720953327,-25.7189068010561,135.620386668219));
#1358=CARTESIAN_POINT('Ctrl Pts',(-13.9079720953327,-26.172715553082,-111.620386668219));
#1359=CARTESIAN_POINT('Ctrl Pts',(-13.9079720953327,-26.172715553082,135.620386668219));
#1360=CARTESIAN_POINT('Ctrl Pts',(-13.3609704745871,-26.7642876762587,-111.620386668219));
#1361=CARTESIAN_POINT('Ctrl Pts',(-13.3609704745871,-26.7642876762587,135.620386668219));
#1362=CARTESIAN_POINT('Ctrl Pts',(-12.9476803611349,-26.7642876762587,-111.620386668219));
#1363=CARTESIAN_POINT('Ctrl Pts',(-12.9476803611349,-26.7642876762587,135.620386668219));
#1364=CARTESIAN_POINT('',(-12.9476803611349,-26.7642876762587,12.));
#1365=CARTESIAN_POINT('Ctrl Pts',(-13.9079720953327,-25.7189068010561,12.));
#1366=CARTESIAN_POINT('Ctrl Pts',(-13.9079720953327,-26.172715553082,12.));
#1367=CARTESIAN_POINT('Ctrl Pts',(-13.3609704745871,-26.7642876762587,12.));
#1368=CARTESIAN_POINT('Ctrl Pts',(-12.9476803611349,-26.7642876762587,12.));
#1369=CARTESIAN_POINT('',(-12.9476803611349,-26.7642876762587,-111.620386668219));
#1370=CARTESIAN_POINT('Ctrl Pts',(-12.9476803611349,-26.7642876762587,-111.620386668219));
#1371=CARTESIAN_POINT('Ctrl Pts',(-12.9476803611349,-26.7642876762587,135.620386668219));
#1372=CARTESIAN_POINT('Ctrl Pts',(-12.526286519968,-26.7642876762587,-111.620386668219));
#1373=CARTESIAN_POINT('Ctrl Pts',(-12.526286519968,-26.7642876762587,135.620386668219));
#1374=CARTESIAN_POINT('Ctrl Pts',(-12.0157516739388,-26.2578046940869,-111.620386668219));
#1375=CARTESIAN_POINT('Ctrl Pts',(-12.0157516739388,-26.2578046940869,135.620386668219));
#1376=CARTESIAN_POINT('Ctrl Pts',(-12.0157516739388,-25.8202033974905,-111.620386668219));
#1377=CARTESIAN_POINT('Ctrl Pts',(-12.0157516739388,-25.8202033974905,135.620386668219));
#1378=CARTESIAN_POINT('',(-12.0157516739388,-25.8202033974905,12.));
#1379=CARTESIAN_POINT('Ctrl Pts',(-12.9476803611349,-26.7642876762587,12.));
#1380=CARTESIAN_POINT('Ctrl Pts',(-12.526286519968,-26.7642876762587,12.));
#1381=CARTESIAN_POINT('Ctrl Pts',(-12.0157516739388,-26.2578046940869,12.));
#1382=CARTESIAN_POINT('Ctrl Pts',(-12.0157516739388,-25.8202033974905,12.));
#1383=CARTESIAN_POINT('',(-12.0157516739388,-25.8202033974905,-111.620386668219));
#1384=CARTESIAN_POINT('Ctrl Pts',(-12.2142930029502,-24.4871401884143,-111.620386668219));
#1385=CARTESIAN_POINT('Ctrl Pts',(-12.2142930029502,-24.4871401884143,135.620386668219));
#1386=CARTESIAN_POINT('Ctrl Pts',(-11.8455733919291,-24.3007544509751,-111.620386668219));
#1387=CARTESIAN_POINT('Ctrl Pts',(-11.8455733919291,-24.3007544509751,135.620386668219));
#1388=CARTESIAN_POINT('Ctrl Pts',(-11.4525425977638,-23.6443525060804,-111.620386668219));
#1389=CARTESIAN_POINT('Ctrl Pts',(-11.4525425977638,-23.6443525060804,135.620386668219));
#1390=CARTESIAN_POINT('Ctrl Pts',(-11.4525425977638,-23.3080478059184,-111.620386668219));
#1391=CARTESIAN_POINT('Ctrl Pts',(-11.4525425977638,-23.3080478059184,135.620386668219));
#1392=CARTESIAN_POINT('',(-11.4525425977638,-23.3080478059184,12.));
#1393=CARTESIAN_POINT('',(-12.2142930029502,-24.4871401884143,12.));
#1394=CARTESIAN_POINT('Ctrl Pts',(-11.4525425977638,-23.3080478059184,12.));
#1395=CARTESIAN_POINT('Ctrl Pts',(-11.4525425977638,-23.6443525060804,12.));
#1396=CARTESIAN_POINT('Ctrl Pts',(-11.8455733919291,-24.3007544509751,12.));
#1397=CARTESIAN_POINT('Ctrl Pts',(-12.2142930029502,-24.4871401884143,12.));
#1398=CARTESIAN_POINT('',(-11.4525425977638,-23.3080478059184,-111.620386668219));
#1399=CARTESIAN_POINT('',(-12.2142930029502,-24.4871401884143,-111.620386668219));
#1400=CARTESIAN_POINT('Origin',(-12.2142930029502,-24.4871401884143,-111.620386668219));
#1401=CARTESIAN_POINT('',(-12.2142930029502,-24.5073995077012,12.));
#1402=CARTESIAN_POINT('',(-12.2142930029502,-12.2435700942072,12.));
#1403=CARTESIAN_POINT('',(-12.2142930029502,-24.5073995077012,-111.620386668219));
#1404=CARTESIAN_POINT('Ctrl Pts',(-11.3269348181852,-25.7553735757725,-111.620386668219));
#1405=CARTESIAN_POINT('Ctrl Pts',(-11.3269348181852,-25.7553735757725,135.620386668219));
#1406=CARTESIAN_POINT('Ctrl Pts',(-11.3269348181852,-25.2934610960318,-111.620386668219));
#1407=CARTESIAN_POINT('Ctrl Pts',(-11.3269348181852,-25.2934610960318,135.620386668219));
#1408=CARTESIAN_POINT('Ctrl Pts',(-11.7766917063537,-24.7099927005699,-111.620386668219));
#1409=CARTESIAN_POINT('Ctrl Pts',(-11.7766917063537,-24.7099927005699,135.620386668219));
#1410=CARTESIAN_POINT('Ctrl Pts',(-12.2142930029502,-24.5073995077012,-111.620386668219));
#1411=CARTESIAN_POINT('Ctrl Pts',(-12.2142930029502,-24.5073995077012,135.620386668219));
#1412=CARTESIAN_POINT('',(-11.3269348181852,-25.7553735757725,12.));
#1413=CARTESIAN_POINT('Ctrl Pts',(-12.2142930029502,-24.5073995077012,12.));
#1414=CARTESIAN_POINT('Ctrl Pts',(-11.7766917063537,-24.7099927005699,12.));
#1415=CARTESIAN_POINT('Ctrl Pts',(-11.3269348181852,-25.2934610960318,12.));
#1416=CARTESIAN_POINT('Ctrl Pts',(-11.3269348181852,-25.7553735757725,12.));
#1417=CARTESIAN_POINT('',(-11.3269348181852,-25.7553735757725,-111.620386668219));
#1418=CARTESIAN_POINT('Ctrl Pts',(-12.9557840888497,-27.2626669307158,-111.620386668219));
#1419=CARTESIAN_POINT('Ctrl Pts',(-12.9557840888497,-27.2626669307158,135.620386668219));
#1420=CARTESIAN_POINT('Ctrl Pts',(-12.2588635053813,-27.2626669307158,-111.620386668219));
#1421=CARTESIAN_POINT('Ctrl Pts',(-12.2588635053813,-27.2626669307158,135.620386668219));
#1422=CARTESIAN_POINT('Ctrl Pts',(-11.3269348181852,-26.3955680652376,-111.620386668219));
#1423=CARTESIAN_POINT('Ctrl Pts',(-11.3269348181852,-26.3955680652376,135.620386668219));
#1424=CARTESIAN_POINT('Ctrl Pts',(-11.3269348181852,-25.7553735757725,-111.620386668219));
#1425=CARTESIAN_POINT('Ctrl Pts',(-11.3269348181852,-25.7553735757725,135.620386668219));
#1426=CARTESIAN_POINT('',(-12.9557840888497,-27.2626669307158,12.));
#1427=CARTESIAN_POINT('Ctrl Pts',(-11.3269348181852,-25.7553735757725,12.));
#1428=CARTESIAN_POINT('Ctrl Pts',(-11.3269348181852,-26.3955680652376,12.));
#1429=CARTESIAN_POINT('Ctrl Pts',(-12.2588635053813,-27.2626669307158,12.));
#1430=CARTESIAN_POINT('Ctrl Pts',(-12.9557840888497,-27.2626669307158,12.));
#1431=CARTESIAN_POINT('',(-12.9557840888497,-27.2626669307158,-111.620386668219));
#1432=CARTESIAN_POINT('Ctrl Pts',(-14.1551357906325,-26.8331693618341,-111.620386668219));
#1433=CARTESIAN_POINT('Ctrl Pts',(-14.1551357906325,-26.8331693618341,135.620386668219));
#1434=CARTESIAN_POINT('Ctrl Pts',(-13.9403870061917,-27.0398144185602,-111.620386668219));
#1435=CARTESIAN_POINT('Ctrl Pts',(-13.9403870061917,-27.0398144185602,135.620386668219));
#1436=CARTESIAN_POINT('Ctrl Pts',(-13.3285555637281,-27.2626669307158,-111.620386668219));
#1437=CARTESIAN_POINT('Ctrl Pts',(-13.3285555637281,-27.2626669307158,135.620386668219));
#1438=CARTESIAN_POINT('Ctrl Pts',(-12.9557840888497,-27.2626669307158,-111.620386668219));
#1439=CARTESIAN_POINT('Ctrl Pts',(-12.9557840888497,-27.2626669307158,135.620386668219));
#1440=CARTESIAN_POINT('',(-14.1551357906325,-26.8331693618341,12.));
#1441=CARTESIAN_POINT('Ctrl Pts',(-12.9557840888497,-27.2626669307158,12.));
#1442=CARTESIAN_POINT('Ctrl Pts',(-13.3285555637281,-27.2626669307158,12.));
#1443=CARTESIAN_POINT('Ctrl Pts',(-13.9403870061917,-27.0398144185602,12.));
#1444=CARTESIAN_POINT('Ctrl Pts',(-14.1551357906325,-26.8331693618341,12.));
#1445=CARTESIAN_POINT('',(-14.1551357906325,-26.8331693618341,-111.620386668219));
#1446=CARTESIAN_POINT('Ctrl Pts',(-14.5846333595142,-25.7675291673446,-111.620386668219));
#1447=CARTESIAN_POINT('Ctrl Pts',(-14.5846333595142,-25.7675291673446,135.620386668219));
#1448=CARTESIAN_POINT('Ctrl Pts',(-14.5846333595142,-26.0795226843624,-111.620386668219));
#1449=CARTESIAN_POINT('Ctrl Pts',(-14.5846333595142,-26.0795226843624,135.620386668219));
#1450=CARTESIAN_POINT('Ctrl Pts',(-14.365832711216,-26.6305761689654,-111.620386668219));
#1451=CARTESIAN_POINT('Ctrl Pts',(-14.365832711216,-26.6305761689654,135.620386668219));
#1452=CARTESIAN_POINT('Ctrl Pts',(-14.1551357906325,-26.8331693618341,-111.620386668219));
#1453=CARTESIAN_POINT('Ctrl Pts',(-14.1551357906325,-26.8331693618341,135.620386668219));
#1454=CARTESIAN_POINT('',(-14.5846333595142,-25.7675291673446,12.));
#1455=CARTESIAN_POINT('Ctrl Pts',(-14.1551357906325,-26.8331693618341,12.));
#1456=CARTESIAN_POINT('Ctrl Pts',(-14.365832711216,-26.6305761689654,12.));
#1457=CARTESIAN_POINT('Ctrl Pts',(-14.5846333595142,-26.0795226843624,12.));
#1458=CARTESIAN_POINT('Ctrl Pts',(-14.5846333595142,-25.7675291673446,12.));
#1459=CARTESIAN_POINT('',(-14.5846333595142,-25.7675291673446,-111.620386668219));
#1460=CARTESIAN_POINT('Ctrl Pts',(-12.9598359527071,-22.5300899453025,-111.620386668219));
#1461=CARTESIAN_POINT('Ctrl Pts',(-12.9598359527071,-22.5300899453025,135.620386668219));
#1462=CARTESIAN_POINT('Ctrl Pts',(-13.3245036998708,-22.5300899453025,-111.620386668219));
#1463=CARTESIAN_POINT('Ctrl Pts',(-13.3245036998708,-22.5300899453025,135.620386668219));
#1464=CARTESIAN_POINT('Ctrl Pts',(-13.7904680434688,-22.9312244671825,-111.620386668219));
#1465=CARTESIAN_POINT('Ctrl Pts',(-13.7904680434688,-22.9312244671825,135.620386668219));
#1466=CARTESIAN_POINT('Ctrl Pts',(-13.7904680434688,-23.2756328950594,-111.620386668219));
#1467=CARTESIAN_POINT('Ctrl Pts',(-13.7904680434688,-23.2756328950594,135.620386668219));
#1468=CARTESIAN_POINT('',(-12.9598359527071,-22.5300899453025,12.));
#1469=CARTESIAN_POINT('Ctrl Pts',(-12.9598359527071,-22.5300899453025,12.));
#1470=CARTESIAN_POINT('Ctrl Pts',(-13.3245036998708,-22.5300899453025,12.));
#1471=CARTESIAN_POINT('Ctrl Pts',(-13.7904680434688,-22.9312244671825,12.));
#1472=CARTESIAN_POINT('Ctrl Pts',(-13.7904680434688,-23.2756328950594,12.));
#1473=CARTESIAN_POINT('',(-12.9598359527071,-22.5300899453025,-111.620386668219));
#1474=CARTESIAN_POINT('Ctrl Pts',(-12.1089445426584,-23.3161515336331,-111.620386668219));
#1475=CARTESIAN_POINT('Ctrl Pts',(-12.1089445426584,-23.3161515336331,135.620386668219));
#1476=CARTESIAN_POINT('Ctrl Pts',(-12.1089445426584,-22.979846833471,-111.620386668219));
#1477=CARTESIAN_POINT('Ctrl Pts',(-12.1089445426584,-22.979846833471,135.620386668219));
#1478=CARTESIAN_POINT('Ctrl Pts',(-12.558701430827,-22.5300899453025,-111.620386668219));
#1479=CARTESIAN_POINT('Ctrl Pts',(-12.558701430827,-22.5300899453025,135.620386668219));
#1480=CARTESIAN_POINT('Ctrl Pts',(-12.9598359527071,-22.5300899453025,-111.620386668219));
#1481=CARTESIAN_POINT('Ctrl Pts',(-12.9598359527071,-22.5300899453025,135.620386668219));
#1482=CARTESIAN_POINT('Ctrl Pts',(-12.1089445426584,-23.3161515336331,12.));
#1483=CARTESIAN_POINT('Ctrl Pts',(-12.1089445426584,-22.979846833471,12.));
#1484=CARTESIAN_POINT('Ctrl Pts',(-12.558701430827,-22.5300899453025,12.));
#1485=CARTESIAN_POINT('Ctrl Pts',(-12.9598359527071,-22.5300899453025,12.));
#1486=CARTESIAN_POINT('Ctrl Pts',(-12.6032719332581,-24.9612082597271,-111.620386668219));
#1487=CARTESIAN_POINT('Ctrl Pts',(-12.6032719332581,-24.9612082597271,135.620386668219));
#1488=CARTESIAN_POINT('Ctrl Pts',(-12.7167241212646,-24.8963784380091,-111.620386668219));
#1489=CARTESIAN_POINT('Ctrl Pts',(-12.7167241212646,-24.8963784380091,135.620386668219));
#1490=CARTESIAN_POINT('Ctrl Pts',(-13.0975993238578,-24.7464594752863,-111.620386668219));
#1491=CARTESIAN_POINT('Ctrl Pts',(-13.0975993238578,-24.7464594752863,135.620386668219));
#1492=CARTESIAN_POINT('Ctrl Pts',(-13.3366592914429,-24.6492147427093,-111.620386668219));
#1493=CARTESIAN_POINT('Ctrl Pts',(-13.3366592914429,-24.6492147427093,135.620386668219));
#1494=CARTESIAN_POINT('',(-12.6032719332581,-24.9612082597271,12.));
#1495=CARTESIAN_POINT('Ctrl Pts',(-12.6032719332581,-24.9612082597271,12.));
#1496=CARTESIAN_POINT('Ctrl Pts',(-12.7167241212646,-24.8963784380091,12.));
#1497=CARTESIAN_POINT('Ctrl Pts',(-13.0975993238578,-24.7464594752863,12.));
#1498=CARTESIAN_POINT('Ctrl Pts',(-13.3366592914429,-24.6492147427093,12.));
#1499=CARTESIAN_POINT('',(-12.6032719332581,-24.9612082597271,-111.620386668219));
#1500=CARTESIAN_POINT('Ctrl Pts',(-12.0157516739388,-25.8202033974905,-111.620386668219));
#1501=CARTESIAN_POINT('Ctrl Pts',(-12.0157516739388,-25.8202033974905,135.620386668219));
#1502=CARTESIAN_POINT('Ctrl Pts',(-12.0157516739388,-25.51226174433,-111.620386668219));
#1503=CARTESIAN_POINT('Ctrl Pts',(-12.0157516739388,-25.51226174433,135.620386668219));
#1504=CARTESIAN_POINT('Ctrl Pts',(-12.2588635053813,-25.1475939971663,-111.620386668219));
#1505=CARTESIAN_POINT('Ctrl Pts',(-12.2588635053813,-25.1475939971663,135.620386668219));
#1506=CARTESIAN_POINT('Ctrl Pts',(-12.6032719332581,-24.9612082597271,-111.620386668219));
#1507=CARTESIAN_POINT('Ctrl Pts',(-12.6032719332581,-24.9612082597271,135.620386668219));
#1508=CARTESIAN_POINT('Ctrl Pts',(-12.0157516739388,-25.8202033974905,12.));
#1509=CARTESIAN_POINT('Ctrl Pts',(-12.0157516739388,-25.51226174433,12.));
#1510=CARTESIAN_POINT('Ctrl Pts',(-12.2588635053813,-25.1475939971663,12.));
#1511=CARTESIAN_POINT('Ctrl Pts',(-12.6032719332581,-24.9612082597271,12.));
#1512=CARTESIAN_POINT('Ctrl Pts',(-13.737793813323,-24.4790364606996,-111.620386668219));
#1513=CARTESIAN_POINT('Ctrl Pts',(-13.737793813323,-24.4790364606996,135.620386668219));
#1514=CARTESIAN_POINT('Ctrl Pts',(-14.1510839267751,-24.6816296535683,-111.620386668219));
#1515=CARTESIAN_POINT('Ctrl Pts',(-14.1510839267751,-24.6816296535683,135.620386668219));
#1516=CARTESIAN_POINT('Ctrl Pts',(-14.5846333595142,-25.3623427816072,-111.620386668219));
#1517=CARTESIAN_POINT('Ctrl Pts',(-14.5846333595142,-25.3623427816072,135.620386668219));
#1518=CARTESIAN_POINT('Ctrl Pts',(-14.5846333595142,-25.7675291673446,-111.620386668219));
#1519=CARTESIAN_POINT('Ctrl Pts',(-14.5846333595142,-25.7675291673446,135.620386668219));
#1520=CARTESIAN_POINT('',(-13.737793813323,-24.4790364606996,12.));
#1521=CARTESIAN_POINT('Ctrl Pts',(-14.5846333595142,-25.7675291673446,12.));
#1522=CARTESIAN_POINT('Ctrl Pts',(-14.5846333595142,-25.3623427816072,12.));
#1523=CARTESIAN_POINT('Ctrl Pts',(-14.1510839267751,-24.6816296535683,12.));
#1524=CARTESIAN_POINT('Ctrl Pts',(-13.737793813323,-24.4790364606996,12.));
#1525=CARTESIAN_POINT('',(-13.737793813323,-24.4790364606996,-111.620386668219));
#1526=CARTESIAN_POINT('Origin',(-13.737793813323,-24.4790364606996,-111.620386668219));
#1527=CARTESIAN_POINT('',(-13.737793813323,-24.4587771414127,12.));
#1528=CARTESIAN_POINT('',(-13.737793813323,-12.2395182303498,12.));
#1529=CARTESIAN_POINT('',(-13.737793813323,-24.4587771414127,-111.620386668219));
#1530=CARTESIAN_POINT('Ctrl Pts',(-14.463077443793,-23.3526183083495,-111.620386668219));
#1531=CARTESIAN_POINT('Ctrl Pts',(-14.463077443793,-23.3526183083495,135.620386668219));
#1532=CARTESIAN_POINT('Ctrl Pts',(-14.463077443793,-23.7334935109427,-111.620386668219));
#1533=CARTESIAN_POINT('Ctrl Pts',(-14.463077443793,-23.7334935109427,135.620386668219));
#1534=CARTESIAN_POINT('Ctrl Pts',(-14.106513424344,-24.2440283569718,-111.620386668219));
#1535=CARTESIAN_POINT('Ctrl Pts',(-14.106513424344,-24.2440283569718,135.620386668219));
#1536=CARTESIAN_POINT('Ctrl Pts',(-13.737793813323,-24.4587771414127,-111.620386668219));
#1537=CARTESIAN_POINT('Ctrl Pts',(-13.737793813323,-24.4587771414127,135.620386668219));
#1538=CARTESIAN_POINT('',(-14.463077443793,-23.3526183083495,12.));
#1539=CARTESIAN_POINT('Ctrl Pts',(-13.737793813323,-24.4587771414127,12.));
#1540=CARTESIAN_POINT('Ctrl Pts',(-14.106513424344,-24.2440283569718,12.));
#1541=CARTESIAN_POINT('Ctrl Pts',(-14.463077443793,-23.7334935109427,12.));
#1542=CARTESIAN_POINT('Ctrl Pts',(-14.463077443793,-23.3526183083495,12.));
#1543=CARTESIAN_POINT('',(-14.463077443793,-23.3526183083495,-111.620386668219));
#1544=CARTESIAN_POINT('Ctrl Pts',(-12.9557840888497,-22.0357625547028,-111.620386668219));
#1545=CARTESIAN_POINT('Ctrl Pts',(-12.9557840888497,-22.0357625547028,135.620386668219));
#1546=CARTESIAN_POINT('Ctrl Pts',(-13.6121860337443,-22.0357625547028,-111.620386668219));
#1547=CARTESIAN_POINT('Ctrl Pts',(-13.6121860337443,-22.0357625547028,135.620386668219));
#1548=CARTESIAN_POINT('Ctrl Pts',(-14.463077443793,-22.7894092321744,-111.620386668219));
#1549=CARTESIAN_POINT('Ctrl Pts',(-14.463077443793,-22.7894092321744,135.620386668219));
#1550=CARTESIAN_POINT('Ctrl Pts',(-14.463077443793,-23.3526183083495,-111.620386668219));
#1551=CARTESIAN_POINT('Ctrl Pts',(-14.463077443793,-23.3526183083495,135.620386668219));
#1552=CARTESIAN_POINT('',(-12.9557840888497,-22.0357625547028,12.));
#1553=CARTESIAN_POINT('Ctrl Pts',(-14.463077443793,-23.3526183083495,12.));
#1554=CARTESIAN_POINT('Ctrl Pts',(-14.463077443793,-22.7894092321744,12.));
#1555=CARTESIAN_POINT('Ctrl Pts',(-13.6121860337443,-22.0357625547028,12.));
#1556=CARTESIAN_POINT('Ctrl Pts',(-12.9557840888497,-22.0357625547028,12.));
#1557=CARTESIAN_POINT('',(-12.9557840888497,-22.0357625547028,-111.620386668219));
#1558=CARTESIAN_POINT('Ctrl Pts',(-11.4525425977638,-23.3080478059184,-111.620386668219));
#1559=CARTESIAN_POINT('Ctrl Pts',(-11.4525425977638,-23.3080478059184,135.620386668219));
#1560=CARTESIAN_POINT('Ctrl Pts',(-11.4525425977638,-22.7488905936007,-111.620386668219));
#1561=CARTESIAN_POINT('Ctrl Pts',(-11.4525425977638,-22.7488905936007,135.620386668219));
#1562=CARTESIAN_POINT('Ctrl Pts',(-12.2750709608108,-22.0357625547028,-111.620386668219));
#1563=CARTESIAN_POINT('Ctrl Pts',(-12.2750709608108,-22.0357625547028,135.620386668219));
#1564=CARTESIAN_POINT('Ctrl Pts',(-12.9557840888497,-22.0357625547028,-111.620386668219));
#1565=CARTESIAN_POINT('Ctrl Pts',(-12.9557840888497,-22.0357625547028,135.620386668219));
#1566=CARTESIAN_POINT('Ctrl Pts',(-12.9557840888497,-22.0357625547028,12.));
#1567=CARTESIAN_POINT('Ctrl Pts',(-12.2750709608108,-22.0357625547028,12.));
#1568=CARTESIAN_POINT('Ctrl Pts',(-11.4525425977638,-22.7488905936007,12.));
#1569=CARTESIAN_POINT('Ctrl Pts',(-11.4525425977638,-23.3080478059184,12.));
#1570=CARTESIAN_POINT('Ctrl Pts',(-16.7928991617832,-22.1330072872798,-111.620386668219));
#1571=CARTESIAN_POINT('Ctrl Pts',(-16.7928991617832,-22.1330072872798,135.620386668219));
#1572=CARTESIAN_POINT('Ctrl Pts',(-16.8253140726422,-22.5381936730172,-111.620386668219));
#1573=CARTESIAN_POINT('Ctrl Pts',(-16.8253140726422,-22.5381936730172,135.620386668219));
#1574=CARTESIAN_POINT('Ctrl Pts',(-17.3115377355272,-22.8299278707482,-111.620386668219));
#1575=CARTESIAN_POINT('Ctrl Pts',(-17.3115377355272,-22.8299278707482,135.620386668219));
#1576=CARTESIAN_POINT('Ctrl Pts',(-17.8261244454137,-22.8299278707482,-111.620386668219));
#1577=CARTESIAN_POINT('Ctrl Pts',(-17.8261244454137,-22.8299278707482,135.620386668219));
#1578=CARTESIAN_POINT('',(-17.8261244454137,-22.8299278707482,12.));
#1579=CARTESIAN_POINT('',(-16.7928991617832,-22.1330072872798,12.));
#1580=CARTESIAN_POINT('Ctrl Pts',(-17.8261244454137,-22.8299278707482,12.));
#1581=CARTESIAN_POINT('Ctrl Pts',(-17.3115377355272,-22.8299278707482,12.));
#1582=CARTESIAN_POINT('Ctrl Pts',(-16.8253140726422,-22.5381936730172,12.));
#1583=CARTESIAN_POINT('Ctrl Pts',(-16.7928991617832,-22.1330072872798,12.));
#1584=CARTESIAN_POINT('',(-17.8261244454137,-22.8299278707482,11.4));
#1585=CARTESIAN_POINT('',(-17.8261244454137,-22.8299278707482,-111.620386668219));
#1586=CARTESIAN_POINT('',(-16.7928991617832,-22.1330072872798,11.4));
#1587=CARTESIAN_POINT('Ctrl Pts',(-17.8261244454137,-22.8299278707482,11.4));
#1588=CARTESIAN_POINT('Ctrl Pts',(-17.4830666388227,-22.8299278707482,11.4));
#1589=CARTESIAN_POINT('Ctrl Pts',(-17.2305004583797,-22.7813055044597,11.4));
#1590=CARTESIAN_POINT('Ctrl Pts',(-17.0684259040847,-22.6840607718827,11.4));
#1591=CARTESIAN_POINT('Ctrl Pts',(-16.9063513497897,-22.5868160393057,11.4));
#1592=CARTESIAN_POINT('Ctrl Pts',(-16.8145091023559,-22.4031315444381,11.4));
#1593=CARTESIAN_POINT('Ctrl Pts',(-16.7928991617832,-22.1330072872798,11.4));
#1594=CARTESIAN_POINT('',(-16.7928991617832,-22.1330072872798,-111.620386668219));
#1595=CARTESIAN_POINT('Origin',(-17.8261244454137,-23.2877884866315,-111.620386668219));
#1596=CARTESIAN_POINT('',(-17.8261244454137,-23.2877884866315,12.));
#1597=CARTESIAN_POINT('',(-17.8261244454137,-11.6438942433157,12.));
#1598=CARTESIAN_POINT('',(-17.8261244454137,-23.2877884866315,11.4));
#1599=CARTESIAN_POINT('',(-17.8261244454137,-23.2877884866315,-111.620386668219));
#1600=CARTESIAN_POINT('',(-17.8261244454137,-11.6438942433157,11.4));
#1601=CARTESIAN_POINT('Origin',(-16.9185069413619,-23.2877884866315,-111.620386668219));
#1602=CARTESIAN_POINT('',(-16.9185069413619,-23.2877884866315,12.));
#1603=CARTESIAN_POINT('',(-8.45925347068093,-23.2877884866315,12.));
#1604=CARTESIAN_POINT('',(-16.9185069413619,-23.2877884866315,11.4));
#1605=CARTESIAN_POINT('',(-16.9185069413619,-23.2877884866315,-111.620386668219));
#1606=CARTESIAN_POINT('',(-8.45925347068093,-23.2877884866315,11.4));
#1607=CARTESIAN_POINT('Origin',(-16.9185069413619,-26.6386798966801,-111.620386668219));
#1608=CARTESIAN_POINT('',(-16.9185069413619,-26.6386798966801,12.));
#1609=CARTESIAN_POINT('',(-16.9185069413619,-13.3193399483401,12.));
#1610=CARTESIAN_POINT('',(-16.9185069413619,-26.6386798966801,11.4));
#1611=CARTESIAN_POINT('',(-16.9185069413619,-26.6386798966801,-111.620386668219));
#1612=CARTESIAN_POINT('',(-16.9185069413619,-13.3193399483401,11.4));
#1613=CARTESIAN_POINT('Origin',(-17.8261244454137,-26.6386798966801,-111.620386668219));
#1614=CARTESIAN_POINT('',(-17.8261244454137,-26.6386798966801,12.));
#1615=CARTESIAN_POINT('',(-8.91306222270686,-26.6386798966801,12.));
#1616=CARTESIAN_POINT('',(-17.8261244454137,-26.6386798966801,11.4));
#1617=CARTESIAN_POINT('',(-17.8261244454137,-26.6386798966801,-111.620386668219));
#1618=CARTESIAN_POINT('',(-8.91306222270686,-26.6386798966801,11.4));
#1619=CARTESIAN_POINT('Origin',(-17.8261244454137,-27.1492147427093,-111.620386668219));
#1620=CARTESIAN_POINT('',(-17.8261244454137,-27.1492147427093,12.));
#1621=CARTESIAN_POINT('',(-17.8261244454137,-13.5746073713546,12.));
#1622=CARTESIAN_POINT('',(-17.8261244454137,-27.1492147427093,11.4));
#1623=CARTESIAN_POINT('',(-17.8261244454137,-27.1492147427093,-111.620386668219));
#1624=CARTESIAN_POINT('',(-17.8261244454137,-13.5746073713546,11.4));
#1625=CARTESIAN_POINT('Origin',(-15.3869024032743,-27.1492147427093,-111.620386668219));
#1626=CARTESIAN_POINT('',(-15.3869024032743,-27.1492147427093,12.));
#1627=CARTESIAN_POINT('',(-7.69345120163717,-27.1492147427093,12.));
#1628=CARTESIAN_POINT('',(-15.3869024032743,-27.1492147427093,11.4));
#1629=CARTESIAN_POINT('',(-15.3869024032743,-27.1492147427093,-111.620386668219));
#1630=CARTESIAN_POINT('',(-7.69345120163717,-27.1492147427093,11.4));
#1631=CARTESIAN_POINT('Origin',(-15.3869024032743,-26.6386798966801,-111.620386668219));
#1632=CARTESIAN_POINT('',(-15.3869024032743,-26.6386798966801,12.));
#1633=CARTESIAN_POINT('',(-15.3869024032743,-13.3193399483401,12.));
#1634=CARTESIAN_POINT('',(-15.3869024032743,-26.6386798966801,11.4));
#1635=CARTESIAN_POINT('',(-15.3869024032743,-26.6386798966801,-111.620386668219));
#1636=CARTESIAN_POINT('',(-15.3869024032743,-13.3193399483401,11.4));
#1637=CARTESIAN_POINT('Origin',(-16.2742605880393,-26.6386798966801,-111.620386668219));
#1638=CARTESIAN_POINT('',(-16.2742605880393,-26.6386798966801,12.));
#1639=CARTESIAN_POINT('',(-8.13713029401966,-26.6386798966801,12.));
#1640=CARTESIAN_POINT('',(-16.2742605880393,-26.6386798966801,11.4));
#1641=CARTESIAN_POINT('',(-16.2742605880393,-26.6386798966801,-111.620386668219));
#1642=CARTESIAN_POINT('',(-8.13713029401966,-26.6386798966801,11.4));
#1643=CARTESIAN_POINT('Origin',(-16.2742605880393,-22.1330072872798,-111.620386668219));
#1644=CARTESIAN_POINT('',(-16.2742605880393,-22.1330072872798,12.));
#1645=CARTESIAN_POINT('',(-16.2742605880393,-11.0665036436399,12.));
#1646=CARTESIAN_POINT('',(-16.2742605880393,-22.1330072872798,11.4));
#1647=CARTESIAN_POINT('',(-16.2742605880393,-22.1330072872798,-111.620386668219));
#1648=CARTESIAN_POINT('',(-16.2742605880393,-11.0665036436399,11.4));
#1649=CARTESIAN_POINT('Origin',(-16.7928991617832,-22.1330072872798,-111.620386668219));
#1650=CARTESIAN_POINT('',(-8.39644958089162,-22.1330072872798,12.));
#1651=CARTESIAN_POINT('',(-8.39644958089162,-22.1330072872798,11.4));
#1652=CARTESIAN_POINT('Origin',(0.,0.,11.4));
#1653=CARTESIAN_POINT('Origin',(0.,0.,12.));
#1654=CARTESIAN_POINT('',(43.,-5.26598123633362E-15,12.));
#1655=CARTESIAN_POINT('Origin',(0.,0.,12.));
#1656=CARTESIAN_POINT('',(9.,1.10218211923262E-15,12.));
#1657=CARTESIAN_POINT('Origin',(0.,0.,12.));
#1658=CARTESIAN_POINT('',(9.,22.,12.));
#1659=CARTESIAN_POINT('Origin',(0.,22.,12.));
#1660=CARTESIAN_POINT('',(-10.0525588832576,11.,12.));
#1661=CARTESIAN_POINT('Origin',(-19.0525588832576,11.,12.));
#1662=CARTESIAN_POINT('',(-10.0525588832577,-11.,12.));
#1663=CARTESIAN_POINT('Origin',(-19.0525588832577,-11.,12.));
#1664=CARTESIAN_POINT('',(8.99999999999999,-22.,12.));
#1665=CARTESIAN_POINT('Origin',(-8.88178419700125E-15,-22.,12.));
#1666=CARTESIAN_POINT('',(28.0525588832576,-11.,12.));
#1667=CARTESIAN_POINT('Origin',(19.0525588832576,-11.,12.));
#1668=CARTESIAN_POINT('',(28.0525588832577,11.,12.));
#1669=CARTESIAN_POINT('Origin',(19.0525588832577,11.,12.));
#1670=CARTESIAN_POINT('Origin',(0.,0.,12.));
#1671=CARTESIAN_POINT('Origin',(0.,0.,8.));
#1672=CARTESIAN_POINT('',(9.,0.,8.));
#1673=CARTESIAN_POINT('Origin',(0.,0.,8.));
#1674=CARTESIAN_POINT('Origin',(-19.0525588832576,11.,7.));
#1675=CARTESIAN_POINT('',(-10.0525588832576,11.,7.));
#1676=CARTESIAN_POINT('Origin',(-19.0525588832576,11.,7.));
#1677=CARTESIAN_POINT('Origin',(0.,22.,6.));
#1678=CARTESIAN_POINT('',(9.,22.,6.));
#1679=CARTESIAN_POINT('Origin',(0.,22.,6.));
#1680=CARTESIAN_POINT('Origin',(19.0525588832577,11.,5.));
#1681=CARTESIAN_POINT('',(28.0525588832577,11.,5.));
#1682=CARTESIAN_POINT('Origin',(19.0525588832577,11.,5.));
#1683=CARTESIAN_POINT('Origin',(19.0525588832576,-11.,4.));
#1684=CARTESIAN_POINT('',(28.0525588832576,-11.,4.));
#1685=CARTESIAN_POINT('Origin',(19.0525588832576,-11.,4.));
#1686=CARTESIAN_POINT('Origin',(-8.88178419700125E-15,-22.,3.));
#1687=CARTESIAN_POINT('',(8.99999999999999,-22.,3.));
#1688=CARTESIAN_POINT('Origin',(-8.88178419700125E-15,-22.,3.));
#1689=CARTESIAN_POINT('Origin',(-19.0525588832577,-11.,2.));
#1690=CARTESIAN_POINT('',(-10.0525588832577,-11.,2.));
#1691=CARTESIAN_POINT('Origin',(-19.0525588832577,-11.,2.));
#1692=CARTESIAN_POINT('Origin',(0.,0.,11.75));
#1693=CARTESIAN_POINT('',(43.5,5.32721357629099E-15,11.5));
#1694=CARTESIAN_POINT('',(43.25,5.2965974063123E-15,11.75));
#1695=CARTESIAN_POINT('',(-43.5,-5.32721357629099E-15,11.5));
#1696=CARTESIAN_POINT('Origin',(0.,0.,11.5));
#1697=CARTESIAN_POINT('Origin',(0.,0.,11.5));
#1698=CARTESIAN_POINT('Origin',(0.,0.,0.));
#1699=CARTESIAN_POINT('',(-43.5,-5.32721357629099E-15,0.));
#1700=CARTESIAN_POINT('',(-43.5,-5.32721357629099E-15,0.));
#1701=CARTESIAN_POINT('Origin',(0.,0.,0.));
#1702=CARTESIAN_POINT('Origin',(0.,0.,12.));
#1703=CARTESIAN_POINT('Origin',(0.,0.,0.));
#1704=CARTESIAN_POINT('',(9.,1.10218211923262E-15,0.));
#1705=CARTESIAN_POINT('Origin',(0.,22.,0.));
#1706=CARTESIAN_POINT('',(9.,22.,0.));
#1707=CARTESIAN_POINT('Origin',(-19.0525588832576,11.,0.));
#1708=CARTESIAN_POINT('',(-10.0525588832576,11.,0.));
#1709=CARTESIAN_POINT('Origin',(-19.0525588832577,-11.,0.));
#1710=CARTESIAN_POINT('',(-10.0525588832577,-11.,0.));
#1711=CARTESIAN_POINT('Origin',(-8.88178419700125E-15,-22.,0.));
#1712=CARTESIAN_POINT('',(8.99999999999999,-22.,0.));
#1713=CARTESIAN_POINT('Origin',(19.0525588832576,-11.,0.));
#1714=CARTESIAN_POINT('',(28.0525588832576,-11.,0.));
#1715=CARTESIAN_POINT('Origin',(19.0525588832577,11.,0.));
#1716=CARTESIAN_POINT('',(28.0525588832577,11.,0.));
#1717=CARTESIAN_POINT('Origin',(0.,0.,0.));
#1718=UNCERTAINTY_MEASURE_WITH_UNIT(LENGTH_MEASURE(0.01),#1722,
'DISTANCE_ACCURACY_VALUE',
'Maximum model space distance between geometric entities at asserted c
onnectivities');
#1719=UNCERTAINTY_MEASURE_WITH_UNIT(LENGTH_MEASURE(0.01),#1722,
'DISTANCE_ACCURACY_VALUE',
'Maximum model space distance between geometric entities at asserted c
onnectivities');
#1720=(
GEOMETRIC_REPRESENTATION_CONTEXT(3)
GLOBAL_UNCERTAINTY_ASSIGNED_CONTEXT((#1718))
GLOBAL_UNIT_ASSIGNED_CONTEXT((#1722,#1724,#1725))
REPRESENTATION_CONTEXT('','3D')
);
#1721=(
GEOMETRIC_REPRESENTATION_CONTEXT(3)
GLOBAL_UNCERTAINTY_ASSIGNED_CONTEXT((#1719))
GLOBAL_UNIT_ASSIGNED_CONTEXT((#1722,#1724,#1725))
REPRESENTATION_CONTEXT('','3D')
);
#1722=(
LENGTH_UNIT()
NAMED_UNIT(*)
SI_UNIT(.MILLI.,.METRE.)
);
#1723=(
LENGTH_UNIT()
NAMED_UNIT(*)
SI_UNIT(.CENTI.,.METRE.)
);
#1724=(
NAMED_UNIT(*)
PLANE_ANGLE_UNIT()
SI_UNIT($,.RADIAN.)
);
#1725=(
NAMED_UNIT(*)
SI_UNIT($,.STERADIAN.)
SOLID_ANGLE_UNIT()
);
#1726=SHAPE_DEFINITION_REPRESENTATION(#1727,#1728);
#1727=PRODUCT_DEFINITION_SHAPE('',$,#1730);
#1728=SHAPE_REPRESENTATION('',(#914),#1720);
#1729=PRODUCT_DEFINITION_CONTEXT('part definition',#1734,'design');
#1730=PRODUCT_DEFINITION('Diameter_18mm','Diameter_18mm',#1731,#1729);
#1731=PRODUCT_DEFINITION_FORMATION('',$,#1736);
#1732=PRODUCT_RELATED_PRODUCT_CATEGORY('Diameter_18mm','Diameter_18mm',
(#1736));
#1733=APPLICATION_PROTOCOL_DEFINITION('international standard',
'automotive_design',2009,#1734);
#1734=APPLICATION_CONTEXT(
'Core Data for Automotive Mechanical Design Process');
#1735=PRODUCT_CONTEXT('part definition',#1734,'mechanical');
#1736=PRODUCT('Diameter_18mm','Diameter_18mm',$,(#1735));
#1737=PRESENTATION_STYLE_ASSIGNMENT((#1738));
#1738=SURFACE_STYLE_USAGE(.BOTH.,#1741);
#1739=SURFACE_STYLE_RENDERING_WITH_PROPERTIES($,#1745,(#1740));
#1740=SURFACE_STYLE_TRANSPARENT(0.);
#1741=SURFACE_SIDE_STYLE('',(#1742,#1739));
#1742=SURFACE_STYLE_FILL_AREA(#1743);
#1743=FILL_AREA_STYLE('',(#1744));
#1744=FILL_AREA_STYLE_COLOUR('',#1745);
#1745=COLOUR_RGB('',0.749019607843137,0.749019607843137,0.749019607843137);
ENDSEC;
END-ISO-10303-21;
