ISO-10303-21;
HEADER;
/* Generated by software containing ST-Developer
 * from STEP Tools, Inc. (www.steptools.com) 
 */

FILE_DESCRIPTION(
/* description */ (''),
/* implementation_level */ '2;1');

FILE_NAME(
/* name */ 'stage_insert_foil_holder_top.step',
/* time_stamp */ '2026-06-19T15:09:46+02:00',
/* author */ ('neuhau0004'),
/* organization */ (''),
/* preprocessor_version */ 'ST-DEVELOPER v20.1',
/* originating_system */ 'Autodesk Inventor 2026',
/* authorisation */ '');

FILE_SCHEMA (('AUTOMOTIVE_DESIGN { 1 0 10303 214 3 1 1 }'));
ENDSEC;

DATA;
#10=MECHANICAL_DESIGN_GEOMETRIC_PRESENTATION_REPRESENTATION('',(#13),#919);
#11=SHAPE_REPRESENTATION_RELATIONSHIP('SRR','None',#926,#12);
#12=ADVANCED_BREP_SHAPE_REPRESENTATION('',(#14),#918);
#13=STYLED_ITEM('',(#935),#14);
#14=MANIFOLD_SOLID_BREP('Volumenk\X\F6rper1',#530);
#15=FACE_BOUND('',#92,.T.);
#16=FACE_BOUND('',#93,.T.);
#17=FACE_BOUND('',#94,.T.);
#18=FACE_BOUND('',#95,.T.);
#19=FACE_BOUND('',#96,.T.);
#20=FACE_BOUND('',#109,.T.);
#21=FACE_BOUND('',#110,.T.);
#22=FACE_BOUND('',#111,.T.);
#23=FACE_BOUND('',#112,.T.);
#24=FACE_BOUND('',#113,.T.);
#25=CYLINDRICAL_SURFACE('',#570,10.);
#26=CYLINDRICAL_SURFACE('',#573,10.);
#27=CYLINDRICAL_SURFACE('',#596,10.);
#28=CYLINDRICAL_SURFACE('',#604,25.);
#29=CYLINDRICAL_SURFACE('',#605,1.9);
#30=CYLINDRICAL_SURFACE('',#606,1.9);
#31=CYLINDRICAL_SURFACE('',#607,1.9);
#32=CYLINDRICAL_SURFACE('',#608,1.9);
#33=CYLINDRICAL_SURFACE('',#609,10.);
#34=PLANE('',#556);
#35=PLANE('',#560);
#36=PLANE('',#564);
#37=PLANE('',#568);
#38=PLANE('',#569);
#39=PLANE('',#572);
#40=PLANE('',#575);
#41=PLANE('',#583);
#42=PLANE('',#586);
#43=PLANE('',#590);
#44=PLANE('',#594);
#45=PLANE('',#595);
#46=PLANE('',#597);
#47=PLANE('',#598);
#48=FACE_OUTER_BOUND('',#79,.T.);
#49=FACE_OUTER_BOUND('',#80,.T.);
#50=FACE_OUTER_BOUND('',#81,.T.);
#51=FACE_OUTER_BOUND('',#82,.T.);
#52=FACE_OUTER_BOUND('',#83,.T.);
#53=FACE_OUTER_BOUND('',#84,.T.);
#54=FACE_OUTER_BOUND('',#85,.T.);
#55=FACE_OUTER_BOUND('',#86,.T.);
#56=FACE_OUTER_BOUND('',#87,.T.);
#57=FACE_OUTER_BOUND('',#88,.T.);
#58=FACE_OUTER_BOUND('',#89,.T.);
#59=FACE_OUTER_BOUND('',#90,.T.);
#60=FACE_OUTER_BOUND('',#91,.T.);
#61=FACE_OUTER_BOUND('',#97,.T.);
#62=FACE_OUTER_BOUND('',#98,.T.);
#63=FACE_OUTER_BOUND('',#99,.T.);
#64=FACE_OUTER_BOUND('',#100,.T.);
#65=FACE_OUTER_BOUND('',#101,.T.);
#66=FACE_OUTER_BOUND('',#102,.T.);
#67=FACE_OUTER_BOUND('',#103,.T.);
#68=FACE_OUTER_BOUND('',#104,.T.);
#69=FACE_OUTER_BOUND('',#105,.T.);
#70=FACE_OUTER_BOUND('',#106,.T.);
#71=FACE_OUTER_BOUND('',#107,.T.);
#72=FACE_OUTER_BOUND('',#108,.T.);
#73=FACE_OUTER_BOUND('',#114,.T.);
#74=FACE_OUTER_BOUND('',#115,.T.);
#75=FACE_OUTER_BOUND('',#116,.T.);
#76=FACE_OUTER_BOUND('',#117,.T.);
#77=FACE_OUTER_BOUND('',#118,.T.);
#78=FACE_OUTER_BOUND('',#119,.T.);
#79=EDGE_LOOP('',(#349,#350,#351,#352));
#80=EDGE_LOOP('',(#353,#354,#355,#356));
#81=EDGE_LOOP('',(#357,#358,#359,#360));
#82=EDGE_LOOP('',(#361,#362,#363,#364));
#83=EDGE_LOOP('',(#365,#366,#367,#368));
#84=EDGE_LOOP('',(#369,#370,#371,#372));
#85=EDGE_LOOP('',(#373,#374,#375,#376));
#86=EDGE_LOOP('',(#377,#378,#379,#380));
#87=EDGE_LOOP('',(#381,#382,#383,#384));
#88=EDGE_LOOP('',(#385,#386,#387,#388));
#89=EDGE_LOOP('',(#389,#390,#391,#392));
#90=EDGE_LOOP('',(#393,#394,#395,#396));
#91=EDGE_LOOP('',(#397,#398,#399,#400,#401,#402,#403,#404));
#92=EDGE_LOOP('',(#405));
#93=EDGE_LOOP('',(#406));
#94=EDGE_LOOP('',(#407));
#95=EDGE_LOOP('',(#408));
#96=EDGE_LOOP('',(#409));
#97=EDGE_LOOP('',(#410,#411,#412,#413));
#98=EDGE_LOOP('',(#414,#415,#416,#417));
#99=EDGE_LOOP('',(#418,#419,#420,#421));
#100=EDGE_LOOP('',(#422,#423,#424,#425));
#101=EDGE_LOOP('',(#426,#427,#428,#429));
#102=EDGE_LOOP('',(#430,#431,#432,#433));
#103=EDGE_LOOP('',(#434,#435,#436,#437));
#104=EDGE_LOOP('',(#438,#439,#440,#441));
#105=EDGE_LOOP('',(#442,#443,#444,#445));
#106=EDGE_LOOP('',(#446,#447,#448,#449));
#107=EDGE_LOOP('',(#450,#451,#452,#453));
#108=EDGE_LOOP('',(#454,#455,#456,#457,#458,#459,#460,#461));
#109=EDGE_LOOP('',(#462));
#110=EDGE_LOOP('',(#463));
#111=EDGE_LOOP('',(#464));
#112=EDGE_LOOP('',(#465));
#113=EDGE_LOOP('',(#466));
#114=EDGE_LOOP('',(#467,#468,#469,#470));
#115=EDGE_LOOP('',(#471,#472,#473,#474));
#116=EDGE_LOOP('',(#475,#476,#477,#478));
#117=EDGE_LOOP('',(#479,#480,#481,#482));
#118=EDGE_LOOP('',(#483,#484,#485,#486));
#119=EDGE_LOOP('',(#487,#488,#489,#490));
#120=CIRCLE('',#554,9.5);
#121=CIRCLE('',#555,10.);
#122=CIRCLE('',#558,9.5);
#123=CIRCLE('',#559,10.);
#124=CIRCLE('',#562,9.5);
#125=CIRCLE('',#563,10.);
#126=CIRCLE('',#566,9.5);
#127=CIRCLE('',#567,10.);
#128=CIRCLE('',#571,10.);
#129=CIRCLE('',#574,10.);
#130=CIRCLE('',#576,25.);
#131=CIRCLE('',#577,1.9);
#132=CIRCLE('',#578,1.9);
#133=CIRCLE('',#579,1.9);
#134=CIRCLE('',#580,1.9);
#135=CIRCLE('',#582,9.5);
#136=CIRCLE('',#585,9.5);
#137=CIRCLE('',#588,10.);
#138=CIRCLE('',#589,9.5);
#139=CIRCLE('',#592,10.);
#140=CIRCLE('',#593,9.5);
#141=CIRCLE('',#599,25.);
#142=CIRCLE('',#600,1.9);
#143=CIRCLE('',#601,1.9);
#144=CIRCLE('',#602,1.9);
#145=CIRCLE('',#603,1.9);
#146=LINE('',#775,#191);
#147=LINE('',#779,#192);
#148=LINE('',#784,#193);
#149=LINE('',#785,#194);
#150=LINE('',#786,#195);
#151=LINE('',#790,#196);
#152=LINE('',#796,#197);
#153=LINE('',#797,#198);
#154=LINE('',#798,#199);
#155=LINE('',#802,#200);
#156=LINE('',#808,#201);
#157=LINE('',#809,#202);
#158=LINE('',#810,#203);
#159=LINE('',#814,#204);
#160=LINE('',#818,#205);
#161=LINE('',#819,#206);
#162=LINE('',#822,#207);
#163=LINE('',#824,#208);
#164=LINE('',#825,#209);
#165=LINE('',#828,#210);
#166=LINE('',#832,#211);
#167=LINE('',#833,#212);
#168=LINE('',#836,#213);
#169=LINE('',#851,#214);
#170=LINE('',#853,#215);
#171=LINE('',#857,#216);
#172=LINE('',#858,#217);
#173=LINE('',#861,#218);
#174=LINE('',#865,#219);
#175=LINE('',#866,#220);
#176=LINE('',#870,#221);
#177=LINE('',#876,#222);
#178=LINE('',#877,#223);
#179=LINE('',#878,#224);
#180=LINE('',#882,#225);
#181=LINE('',#886,#226);
#182=LINE('',#887,#227);
#183=LINE('',#889,#228);
#184=LINE('',#890,#229);
#185=LINE('',#892,#230);
#186=LINE('',#906,#231);
#187=LINE('',#908,#232);
#188=LINE('',#910,#233);
#189=LINE('',#912,#234);
#190=LINE('',#914,#235);
#191=VECTOR('',#614,10.);
#192=VECTOR('',#617,10.);
#193=VECTOR('',#622,10.);
#194=VECTOR('',#623,10.);
#195=VECTOR('',#624,10.);
#196=VECTOR('',#627,10.);
#197=VECTOR('',#634,10.);
#198=VECTOR('',#635,10.);
#199=VECTOR('',#636,10.);
#200=VECTOR('',#639,10.);
#201=VECTOR('',#646,10.);
#202=VECTOR('',#647,10.);
#203=VECTOR('',#648,10.);
#204=VECTOR('',#651,10.);
#205=VECTOR('',#658,10.);
#206=VECTOR('',#659,10.);
#207=VECTOR('',#662,10.);
#208=VECTOR('',#663,10.);
#209=VECTOR('',#664,10.);
#210=VECTOR('',#667,10.);
#211=VECTOR('',#672,10.);
#212=VECTOR('',#673,10.);
#213=VECTOR('',#676,10.);
#214=VECTOR('',#693,10.);
#215=VECTOR('',#694,10.);
#216=VECTOR('',#699,10.);
#217=VECTOR('',#700,10.);
#218=VECTOR('',#703,10.);
#219=VECTOR('',#708,10.);
#220=VECTOR('',#709,10.);
#221=VECTOR('',#712,10.);
#222=VECTOR('',#719,10.);
#223=VECTOR('',#720,10.);
#224=VECTOR('',#721,10.);
#225=VECTOR('',#724,10.);
#226=VECTOR('',#731,10.);
#227=VECTOR('',#732,10.);
#228=VECTOR('',#735,10.);
#229=VECTOR('',#736,10.);
#230=VECTOR('',#739,10.);
#231=VECTOR('',#756,25.);
#232=VECTOR('',#759,1.9);
#233=VECTOR('',#762,1.9);
#234=VECTOR('',#765,1.9);
#235=VECTOR('',#768,1.9);
#236=VERTEX_POINT('',#773);
#237=VERTEX_POINT('',#774);
#238=VERTEX_POINT('',#776);
#239=VERTEX_POINT('',#778);
#240=VERTEX_POINT('',#782);
#241=VERTEX_POINT('',#783);
#242=VERTEX_POINT('',#788);
#243=VERTEX_POINT('',#789);
#244=VERTEX_POINT('',#794);
#245=VERTEX_POINT('',#795);
#246=VERTEX_POINT('',#800);
#247=VERTEX_POINT('',#801);
#248=VERTEX_POINT('',#806);
#249=VERTEX_POINT('',#807);
#250=VERTEX_POINT('',#812);
#251=VERTEX_POINT('',#813);
#252=VERTEX_POINT('',#821);
#253=VERTEX_POINT('',#823);
#254=VERTEX_POINT('',#827);
#255=VERTEX_POINT('',#831);
#256=VERTEX_POINT('',#835);
#257=VERTEX_POINT('',#839);
#258=VERTEX_POINT('',#841);
#259=VERTEX_POINT('',#843);
#260=VERTEX_POINT('',#845);
#261=VERTEX_POINT('',#847);
#262=VERTEX_POINT('',#850);
#263=VERTEX_POINT('',#852);
#264=VERTEX_POINT('',#856);
#265=VERTEX_POINT('',#860);
#266=VERTEX_POINT('',#864);
#267=VERTEX_POINT('',#868);
#268=VERTEX_POINT('',#869);
#269=VERTEX_POINT('',#874);
#270=VERTEX_POINT('',#875);
#271=VERTEX_POINT('',#880);
#272=VERTEX_POINT('',#881);
#273=VERTEX_POINT('',#895);
#274=VERTEX_POINT('',#897);
#275=VERTEX_POINT('',#899);
#276=VERTEX_POINT('',#901);
#277=VERTEX_POINT('',#903);
#278=EDGE_CURVE('',#236,#237,#146,.T.);
#279=EDGE_CURVE('',#237,#238,#120,.T.);
#280=EDGE_CURVE('',#238,#239,#147,.T.);
#281=EDGE_CURVE('',#239,#236,#121,.T.);
#282=EDGE_CURVE('',#240,#241,#148,.T.);
#283=EDGE_CURVE('',#241,#237,#149,.T.);
#284=EDGE_CURVE('',#236,#240,#150,.T.);
#285=EDGE_CURVE('',#242,#243,#151,.T.);
#286=EDGE_CURVE('',#243,#241,#122,.T.);
#287=EDGE_CURVE('',#240,#242,#123,.T.);
#288=EDGE_CURVE('',#244,#245,#152,.T.);
#289=EDGE_CURVE('',#245,#243,#153,.T.);
#290=EDGE_CURVE('',#242,#244,#154,.T.);
#291=EDGE_CURVE('',#246,#247,#155,.T.);
#292=EDGE_CURVE('',#247,#245,#124,.T.);
#293=EDGE_CURVE('',#244,#246,#125,.T.);
#294=EDGE_CURVE('',#248,#249,#156,.T.);
#295=EDGE_CURVE('',#249,#247,#157,.T.);
#296=EDGE_CURVE('',#246,#248,#158,.T.);
#297=EDGE_CURVE('',#250,#251,#159,.T.);
#298=EDGE_CURVE('',#251,#249,#126,.T.);
#299=EDGE_CURVE('',#248,#250,#127,.T.);
#300=EDGE_CURVE('',#238,#251,#160,.T.);
#301=EDGE_CURVE('',#250,#239,#161,.T.);
#302=EDGE_CURVE('',#252,#242,#162,.T.);
#303=EDGE_CURVE('',#253,#252,#163,.T.);
#304=EDGE_CURVE('',#253,#244,#164,.T.);
#305=EDGE_CURVE('',#254,#240,#165,.T.);
#306=EDGE_CURVE('',#252,#254,#128,.T.);
#307=EDGE_CURVE('',#255,#236,#166,.T.);
#308=EDGE_CURVE('',#254,#255,#167,.T.);
#309=EDGE_CURVE('',#256,#239,#168,.T.);
#310=EDGE_CURVE('',#255,#256,#129,.T.);
#311=EDGE_CURVE('',#257,#257,#130,.T.);
#312=EDGE_CURVE('',#258,#258,#131,.T.);
#313=EDGE_CURVE('',#259,#259,#132,.T.);
#314=EDGE_CURVE('',#260,#260,#133,.T.);
#315=EDGE_CURVE('',#261,#261,#134,.T.);
#316=EDGE_CURVE('',#262,#255,#169,.T.);
#317=EDGE_CURVE('',#256,#263,#170,.T.);
#318=EDGE_CURVE('',#263,#262,#135,.T.);
#319=EDGE_CURVE('',#264,#254,#171,.T.);
#320=EDGE_CURVE('',#262,#264,#172,.T.);
#321=EDGE_CURVE('',#265,#252,#173,.T.);
#322=EDGE_CURVE('',#264,#265,#136,.T.);
#323=EDGE_CURVE('',#266,#253,#174,.T.);
#324=EDGE_CURVE('',#265,#266,#175,.T.);
#325=EDGE_CURVE('',#267,#268,#176,.T.);
#326=EDGE_CURVE('',#268,#253,#137,.T.);
#327=EDGE_CURVE('',#266,#267,#138,.T.);
#328=EDGE_CURVE('',#269,#270,#177,.T.);
#329=EDGE_CURVE('',#270,#268,#178,.T.);
#330=EDGE_CURVE('',#267,#269,#179,.T.);
#331=EDGE_CURVE('',#271,#272,#180,.T.);
#332=EDGE_CURVE('',#272,#270,#139,.T.);
#333=EDGE_CURVE('',#269,#271,#140,.T.);
#334=EDGE_CURVE('',#256,#272,#181,.T.);
#335=EDGE_CURVE('',#271,#263,#182,.T.);
#336=EDGE_CURVE('',#268,#246,#183,.T.);
#337=EDGE_CURVE('',#270,#248,#184,.T.);
#338=EDGE_CURVE('',#272,#250,#185,.T.);
#339=EDGE_CURVE('',#273,#273,#141,.T.);
#340=EDGE_CURVE('',#274,#274,#142,.T.);
#341=EDGE_CURVE('',#275,#275,#143,.T.);
#342=EDGE_CURVE('',#276,#276,#144,.T.);
#343=EDGE_CURVE('',#277,#277,#145,.T.);
#344=EDGE_CURVE('',#257,#273,#186,.T.);
#345=EDGE_CURVE('',#258,#274,#187,.T.);
#346=EDGE_CURVE('',#259,#275,#188,.T.);
#347=EDGE_CURVE('',#260,#276,#189,.T.);
#348=EDGE_CURVE('',#261,#277,#190,.T.);
#349=ORIENTED_EDGE('',*,*,#278,.T.);
#350=ORIENTED_EDGE('',*,*,#279,.T.);
#351=ORIENTED_EDGE('',*,*,#280,.T.);
#352=ORIENTED_EDGE('',*,*,#281,.T.);
#353=ORIENTED_EDGE('',*,*,#282,.T.);
#354=ORIENTED_EDGE('',*,*,#283,.T.);
#355=ORIENTED_EDGE('',*,*,#278,.F.);
#356=ORIENTED_EDGE('',*,*,#284,.T.);
#357=ORIENTED_EDGE('',*,*,#285,.T.);
#358=ORIENTED_EDGE('',*,*,#286,.T.);
#359=ORIENTED_EDGE('',*,*,#282,.F.);
#360=ORIENTED_EDGE('',*,*,#287,.T.);
#361=ORIENTED_EDGE('',*,*,#288,.T.);
#362=ORIENTED_EDGE('',*,*,#289,.T.);
#363=ORIENTED_EDGE('',*,*,#285,.F.);
#364=ORIENTED_EDGE('',*,*,#290,.T.);
#365=ORIENTED_EDGE('',*,*,#291,.T.);
#366=ORIENTED_EDGE('',*,*,#292,.T.);
#367=ORIENTED_EDGE('',*,*,#288,.F.);
#368=ORIENTED_EDGE('',*,*,#293,.T.);
#369=ORIENTED_EDGE('',*,*,#294,.T.);
#370=ORIENTED_EDGE('',*,*,#295,.T.);
#371=ORIENTED_EDGE('',*,*,#291,.F.);
#372=ORIENTED_EDGE('',*,*,#296,.T.);
#373=ORIENTED_EDGE('',*,*,#297,.T.);
#374=ORIENTED_EDGE('',*,*,#298,.T.);
#375=ORIENTED_EDGE('',*,*,#294,.F.);
#376=ORIENTED_EDGE('',*,*,#299,.T.);
#377=ORIENTED_EDGE('',*,*,#280,.F.);
#378=ORIENTED_EDGE('',*,*,#300,.T.);
#379=ORIENTED_EDGE('',*,*,#297,.F.);
#380=ORIENTED_EDGE('',*,*,#301,.T.);
#381=ORIENTED_EDGE('',*,*,#290,.F.);
#382=ORIENTED_EDGE('',*,*,#302,.F.);
#383=ORIENTED_EDGE('',*,*,#303,.F.);
#384=ORIENTED_EDGE('',*,*,#304,.T.);
#385=ORIENTED_EDGE('',*,*,#287,.F.);
#386=ORIENTED_EDGE('',*,*,#305,.F.);
#387=ORIENTED_EDGE('',*,*,#306,.F.);
#388=ORIENTED_EDGE('',*,*,#302,.T.);
#389=ORIENTED_EDGE('',*,*,#284,.F.);
#390=ORIENTED_EDGE('',*,*,#307,.F.);
#391=ORIENTED_EDGE('',*,*,#308,.F.);
#392=ORIENTED_EDGE('',*,*,#305,.T.);
#393=ORIENTED_EDGE('',*,*,#281,.F.);
#394=ORIENTED_EDGE('',*,*,#309,.F.);
#395=ORIENTED_EDGE('',*,*,#310,.F.);
#396=ORIENTED_EDGE('',*,*,#307,.T.);
#397=ORIENTED_EDGE('',*,*,#279,.F.);
#398=ORIENTED_EDGE('',*,*,#283,.F.);
#399=ORIENTED_EDGE('',*,*,#286,.F.);
#400=ORIENTED_EDGE('',*,*,#289,.F.);
#401=ORIENTED_EDGE('',*,*,#292,.F.);
#402=ORIENTED_EDGE('',*,*,#295,.F.);
#403=ORIENTED_EDGE('',*,*,#298,.F.);
#404=ORIENTED_EDGE('',*,*,#300,.F.);
#405=ORIENTED_EDGE('',*,*,#311,.T.);
#406=ORIENTED_EDGE('',*,*,#312,.T.);
#407=ORIENTED_EDGE('',*,*,#313,.T.);
#408=ORIENTED_EDGE('',*,*,#314,.T.);
#409=ORIENTED_EDGE('',*,*,#315,.T.);
#410=ORIENTED_EDGE('',*,*,#316,.T.);
#411=ORIENTED_EDGE('',*,*,#310,.T.);
#412=ORIENTED_EDGE('',*,*,#317,.T.);
#413=ORIENTED_EDGE('',*,*,#318,.T.);
#414=ORIENTED_EDGE('',*,*,#319,.T.);
#415=ORIENTED_EDGE('',*,*,#308,.T.);
#416=ORIENTED_EDGE('',*,*,#316,.F.);
#417=ORIENTED_EDGE('',*,*,#320,.T.);
#418=ORIENTED_EDGE('',*,*,#321,.T.);
#419=ORIENTED_EDGE('',*,*,#306,.T.);
#420=ORIENTED_EDGE('',*,*,#319,.F.);
#421=ORIENTED_EDGE('',*,*,#322,.T.);
#422=ORIENTED_EDGE('',*,*,#323,.T.);
#423=ORIENTED_EDGE('',*,*,#303,.T.);
#424=ORIENTED_EDGE('',*,*,#321,.F.);
#425=ORIENTED_EDGE('',*,*,#324,.T.);
#426=ORIENTED_EDGE('',*,*,#325,.T.);
#427=ORIENTED_EDGE('',*,*,#326,.T.);
#428=ORIENTED_EDGE('',*,*,#323,.F.);
#429=ORIENTED_EDGE('',*,*,#327,.T.);
#430=ORIENTED_EDGE('',*,*,#328,.T.);
#431=ORIENTED_EDGE('',*,*,#329,.T.);
#432=ORIENTED_EDGE('',*,*,#325,.F.);
#433=ORIENTED_EDGE('',*,*,#330,.T.);
#434=ORIENTED_EDGE('',*,*,#331,.T.);
#435=ORIENTED_EDGE('',*,*,#332,.T.);
#436=ORIENTED_EDGE('',*,*,#328,.F.);
#437=ORIENTED_EDGE('',*,*,#333,.T.);
#438=ORIENTED_EDGE('',*,*,#317,.F.);
#439=ORIENTED_EDGE('',*,*,#334,.T.);
#440=ORIENTED_EDGE('',*,*,#331,.F.);
#441=ORIENTED_EDGE('',*,*,#335,.T.);
#442=ORIENTED_EDGE('',*,*,#296,.F.);
#443=ORIENTED_EDGE('',*,*,#336,.F.);
#444=ORIENTED_EDGE('',*,*,#329,.F.);
#445=ORIENTED_EDGE('',*,*,#337,.T.);
#446=ORIENTED_EDGE('',*,*,#299,.F.);
#447=ORIENTED_EDGE('',*,*,#337,.F.);
#448=ORIENTED_EDGE('',*,*,#332,.F.);
#449=ORIENTED_EDGE('',*,*,#338,.T.);
#450=ORIENTED_EDGE('',*,*,#301,.F.);
#451=ORIENTED_EDGE('',*,*,#338,.F.);
#452=ORIENTED_EDGE('',*,*,#334,.F.);
#453=ORIENTED_EDGE('',*,*,#309,.T.);
#454=ORIENTED_EDGE('',*,*,#318,.F.);
#455=ORIENTED_EDGE('',*,*,#335,.F.);
#456=ORIENTED_EDGE('',*,*,#333,.F.);
#457=ORIENTED_EDGE('',*,*,#330,.F.);
#458=ORIENTED_EDGE('',*,*,#327,.F.);
#459=ORIENTED_EDGE('',*,*,#324,.F.);
#460=ORIENTED_EDGE('',*,*,#322,.F.);
#461=ORIENTED_EDGE('',*,*,#320,.F.);
#462=ORIENTED_EDGE('',*,*,#339,.F.);
#463=ORIENTED_EDGE('',*,*,#340,.F.);
#464=ORIENTED_EDGE('',*,*,#341,.F.);
#465=ORIENTED_EDGE('',*,*,#342,.F.);
#466=ORIENTED_EDGE('',*,*,#343,.F.);
#467=ORIENTED_EDGE('',*,*,#311,.F.);
#468=ORIENTED_EDGE('',*,*,#344,.T.);
#469=ORIENTED_EDGE('',*,*,#339,.T.);
#470=ORIENTED_EDGE('',*,*,#344,.F.);
#471=ORIENTED_EDGE('',*,*,#312,.F.);
#472=ORIENTED_EDGE('',*,*,#345,.T.);
#473=ORIENTED_EDGE('',*,*,#340,.T.);
#474=ORIENTED_EDGE('',*,*,#345,.F.);
#475=ORIENTED_EDGE('',*,*,#313,.F.);
#476=ORIENTED_EDGE('',*,*,#346,.T.);
#477=ORIENTED_EDGE('',*,*,#341,.T.);
#478=ORIENTED_EDGE('',*,*,#346,.F.);
#479=ORIENTED_EDGE('',*,*,#314,.F.);
#480=ORIENTED_EDGE('',*,*,#347,.T.);
#481=ORIENTED_EDGE('',*,*,#342,.T.);
#482=ORIENTED_EDGE('',*,*,#347,.F.);
#483=ORIENTED_EDGE('',*,*,#315,.F.);
#484=ORIENTED_EDGE('',*,*,#348,.T.);
#485=ORIENTED_EDGE('',*,*,#343,.T.);
#486=ORIENTED_EDGE('',*,*,#348,.F.);
#487=ORIENTED_EDGE('',*,*,#293,.F.);
#488=ORIENTED_EDGE('',*,*,#304,.F.);
#489=ORIENTED_EDGE('',*,*,#326,.F.);
#490=ORIENTED_EDGE('',*,*,#336,.T.);
#491=CONICAL_SURFACE('',#553,9.75,0.785398163397447);
#492=CONICAL_SURFACE('',#557,9.75,0.785398163397447);
#493=CONICAL_SURFACE('',#561,9.75,0.785398163397447);
#494=CONICAL_SURFACE('',#565,9.75,0.785398163397447);
#495=CONICAL_SURFACE('',#581,9.75,0.785398163397448);
#496=CONICAL_SURFACE('',#584,9.75,0.785398163397448);
#497=CONICAL_SURFACE('',#587,9.75,0.785398163397448);
#498=CONICAL_SURFACE('',#591,9.75,0.785398163397448);
#499=ADVANCED_FACE('',(#48),#491,.T.);
#500=ADVANCED_FACE('',(#49),#34,.T.);
#501=ADVANCED_FACE('',(#50),#492,.T.);
#502=ADVANCED_FACE('',(#51),#35,.T.);
#503=ADVANCED_FACE('',(#52),#493,.T.);
#504=ADVANCED_FACE('',(#53),#36,.T.);
#505=ADVANCED_FACE('',(#54),#494,.T.);
#506=ADVANCED_FACE('',(#55),#37,.T.);
#507=ADVANCED_FACE('',(#56),#38,.T.);
#508=ADVANCED_FACE('',(#57),#25,.T.);
#509=ADVANCED_FACE('',(#58),#39,.T.);
#510=ADVANCED_FACE('',(#59),#26,.T.);
#511=ADVANCED_FACE('',(#60,#15,#16,#17,#18,#19),#40,.T.);
#512=ADVANCED_FACE('',(#61),#495,.T.);
#513=ADVANCED_FACE('',(#62),#41,.T.);
#514=ADVANCED_FACE('',(#63),#496,.T.);
#515=ADVANCED_FACE('',(#64),#42,.T.);
#516=ADVANCED_FACE('',(#65),#497,.T.);
#517=ADVANCED_FACE('',(#66),#43,.T.);
#518=ADVANCED_FACE('',(#67),#498,.T.);
#519=ADVANCED_FACE('',(#68),#44,.T.);
#520=ADVANCED_FACE('',(#69),#45,.T.);
#521=ADVANCED_FACE('',(#70),#27,.T.);
#522=ADVANCED_FACE('',(#71),#46,.T.);
#523=ADVANCED_FACE('',(#72,#20,#21,#22,#23,#24),#47,.F.);
#524=ADVANCED_FACE('',(#73),#28,.F.);
#525=ADVANCED_FACE('',(#74),#29,.F.);
#526=ADVANCED_FACE('',(#75),#30,.F.);
#527=ADVANCED_FACE('',(#76),#31,.F.);
#528=ADVANCED_FACE('',(#77),#32,.F.);
#529=ADVANCED_FACE('',(#78),#33,.T.);
#530=CLOSED_SHELL('',(#499,#500,#501,#502,#503,#504,#505,#506,#507,#508,
#509,#510,#511,#512,#513,#514,#515,#516,#517,#518,#519,#520,#521,#522,#523,
#524,#525,#526,#527,#528,#529));
#531=DERIVED_UNIT_ELEMENT(#534,1.);
#532=DERIVED_UNIT_ELEMENT(#921,-3.);
#533=DIMENSIONAL_EXPONENTS(0.,1.,0.,0.,0.,0.,0.);
#534=(
CONVERSION_BASED_UNIT('gram',#536)
MASS_UNIT()
NAMED_UNIT(#533)
);
#535=(
MASS_UNIT()
NAMED_UNIT(*)
SI_UNIT(.KILO.,.GRAM.)
);
#536=MASS_MEASURE_WITH_UNIT(MASS_MEASURE(0.001),#535);
#537=DERIVED_UNIT((#531,#532));
#538=MEASURE_REPRESENTATION_ITEM('density measure',
POSITIVE_RATIO_MEASURE(1.),#537);
#539=PROPERTY_DEFINITION_REPRESENTATION(#544,#541);
#540=PROPERTY_DEFINITION_REPRESENTATION(#545,#542);
#541=REPRESENTATION('material name',(#543),#918);
#542=REPRESENTATION('density',(#538),#918);
#543=DESCRIPTIVE_REPRESENTATION_ITEM('Generic','Generic');
#544=PROPERTY_DEFINITION('material property','material name',#928);
#545=PROPERTY_DEFINITION('material property','density of part',#928);
#546=DATE_TIME_ROLE('creation_date');
#547=APPLIED_DATE_AND_TIME_ASSIGNMENT(#548,#546,(#928));
#548=DATE_AND_TIME(#549,#550);
#549=CALENDAR_DATE(2024,14,11);
#550=LOCAL_TIME(0,0,0.,#551);
#551=COORDINATED_UNIVERSAL_TIME_OFFSET(0,0,.BEHIND.);
#552=AXIS2_PLACEMENT_3D('',#771,#610,#611);
#553=AXIS2_PLACEMENT_3D('',#772,#612,#613);
#554=AXIS2_PLACEMENT_3D('',#777,#615,#616);
#555=AXIS2_PLACEMENT_3D('',#780,#618,#619);
#556=AXIS2_PLACEMENT_3D('',#781,#620,#621);
#557=AXIS2_PLACEMENT_3D('',#787,#625,#626);
#558=AXIS2_PLACEMENT_3D('',#791,#628,#629);
#559=AXIS2_PLACEMENT_3D('',#792,#630,#631);
#560=AXIS2_PLACEMENT_3D('',#793,#632,#633);
#561=AXIS2_PLACEMENT_3D('',#799,#637,#638);
#562=AXIS2_PLACEMENT_3D('',#803,#640,#641);
#563=AXIS2_PLACEMENT_3D('',#804,#642,#643);
#564=AXIS2_PLACEMENT_3D('',#805,#644,#645);
#565=AXIS2_PLACEMENT_3D('',#811,#649,#650);
#566=AXIS2_PLACEMENT_3D('',#815,#652,#653);
#567=AXIS2_PLACEMENT_3D('',#816,#654,#655);
#568=AXIS2_PLACEMENT_3D('',#817,#656,#657);
#569=AXIS2_PLACEMENT_3D('',#820,#660,#661);
#570=AXIS2_PLACEMENT_3D('',#826,#665,#666);
#571=AXIS2_PLACEMENT_3D('',#829,#668,#669);
#572=AXIS2_PLACEMENT_3D('',#830,#670,#671);
#573=AXIS2_PLACEMENT_3D('',#834,#674,#675);
#574=AXIS2_PLACEMENT_3D('',#837,#677,#678);
#575=AXIS2_PLACEMENT_3D('',#838,#679,#680);
#576=AXIS2_PLACEMENT_3D('',#840,#681,#682);
#577=AXIS2_PLACEMENT_3D('',#842,#683,#684);
#578=AXIS2_PLACEMENT_3D('',#844,#685,#686);
#579=AXIS2_PLACEMENT_3D('',#846,#687,#688);
#580=AXIS2_PLACEMENT_3D('',#848,#689,#690);
#581=AXIS2_PLACEMENT_3D('',#849,#691,#692);
#582=AXIS2_PLACEMENT_3D('',#854,#695,#696);
#583=AXIS2_PLACEMENT_3D('',#855,#697,#698);
#584=AXIS2_PLACEMENT_3D('',#859,#701,#702);
#585=AXIS2_PLACEMENT_3D('',#862,#704,#705);
#586=AXIS2_PLACEMENT_3D('',#863,#706,#707);
#587=AXIS2_PLACEMENT_3D('',#867,#710,#711);
#588=AXIS2_PLACEMENT_3D('',#871,#713,#714);
#589=AXIS2_PLACEMENT_3D('',#872,#715,#716);
#590=AXIS2_PLACEMENT_3D('',#873,#717,#718);
#591=AXIS2_PLACEMENT_3D('',#879,#722,#723);
#592=AXIS2_PLACEMENT_3D('',#883,#725,#726);
#593=AXIS2_PLACEMENT_3D('',#884,#727,#728);
#594=AXIS2_PLACEMENT_3D('',#885,#729,#730);
#595=AXIS2_PLACEMENT_3D('',#888,#733,#734);
#596=AXIS2_PLACEMENT_3D('',#891,#737,#738);
#597=AXIS2_PLACEMENT_3D('',#893,#740,#741);
#598=AXIS2_PLACEMENT_3D('',#894,#742,#743);
#599=AXIS2_PLACEMENT_3D('',#896,#744,#745);
#600=AXIS2_PLACEMENT_3D('',#898,#746,#747);
#601=AXIS2_PLACEMENT_3D('',#900,#748,#749);
#602=AXIS2_PLACEMENT_3D('',#902,#750,#751);
#603=AXIS2_PLACEMENT_3D('',#904,#752,#753);
#604=AXIS2_PLACEMENT_3D('',#905,#754,#755);
#605=AXIS2_PLACEMENT_3D('',#907,#757,#758);
#606=AXIS2_PLACEMENT_3D('',#909,#760,#761);
#607=AXIS2_PLACEMENT_3D('',#911,#763,#764);
#608=AXIS2_PLACEMENT_3D('',#913,#766,#767);
#609=AXIS2_PLACEMENT_3D('',#915,#769,#770);
#610=DIRECTION('axis',(0.,0.,1.));
#611=DIRECTION('refdir',(1.,0.,0.));
#612=DIRECTION('center_axis',(0.,0.,-1.));
#613=DIRECTION('ref_axis',(1.,0.,0.));
#614=DIRECTION('',(0.,-0.707106781186546,0.707106781186549));
#615=DIRECTION('center_axis',(0.,0.,-1.));
#616=DIRECTION('ref_axis',(1.,0.,0.));
#617=DIRECTION('',(0.707106781186546,0.,-0.707106781186549));
#618=DIRECTION('center_axis',(0.,0.,1.));
#619=DIRECTION('ref_axis',(1.,0.,0.));
#620=DIRECTION('center_axis',(0.,0.707106781186549,0.707106781186546));
#621=DIRECTION('ref_axis',(1.,0.,0.));
#622=DIRECTION('',(0.,-0.707106781186546,0.707106781186549));
#623=DIRECTION('',(1.,0.,0.));
#624=DIRECTION('',(-1.,0.,0.));
#625=DIRECTION('center_axis',(0.,0.,-1.));
#626=DIRECTION('ref_axis',(0.,1.,0.));
#627=DIRECTION('',(0.707106781186546,0.,0.707106781186549));
#628=DIRECTION('center_axis',(0.,0.,-1.));
#629=DIRECTION('ref_axis',(0.,1.,0.));
#630=DIRECTION('center_axis',(0.,0.,1.));
#631=DIRECTION('ref_axis',(0.,1.,0.));
#632=DIRECTION('center_axis',(-0.707106781186549,0.,0.707106781186546));
#633=DIRECTION('ref_axis',(0.707106781186546,0.,0.707106781186549));
#634=DIRECTION('',(0.707106781186546,0.,0.707106781186549));
#635=DIRECTION('',(0.,1.,0.));
#636=DIRECTION('',(0.,-1.,0.));
#637=DIRECTION('center_axis',(0.,0.,-1.));
#638=DIRECTION('ref_axis',(-1.,0.,0.));
#639=DIRECTION('',(0.,0.707106781186546,0.707106781186549));
#640=DIRECTION('center_axis',(0.,0.,-1.));
#641=DIRECTION('ref_axis',(-1.,0.,0.));
#642=DIRECTION('center_axis',(0.,0.,1.));
#643=DIRECTION('ref_axis',(-1.,0.,0.));
#644=DIRECTION('center_axis',(0.,-0.707106781186549,0.707106781186546));
#645=DIRECTION('ref_axis',(1.,0.,0.));
#646=DIRECTION('',(0.,0.707106781186546,0.707106781186549));
#647=DIRECTION('',(-1.,0.,0.));
#648=DIRECTION('',(1.,0.,0.));
#649=DIRECTION('center_axis',(0.,0.,-1.));
#650=DIRECTION('ref_axis',(0.,-1.,0.));
#651=DIRECTION('',(-0.707106781186546,0.,0.707106781186549));
#652=DIRECTION('center_axis',(0.,0.,-1.));
#653=DIRECTION('ref_axis',(0.,-1.,0.));
#654=DIRECTION('center_axis',(0.,0.,1.));
#655=DIRECTION('ref_axis',(0.,-1.,0.));
#656=DIRECTION('center_axis',(0.707106781186549,0.,0.707106781186546));
#657=DIRECTION('ref_axis',(0.707106781186546,0.,-0.707106781186549));
#658=DIRECTION('',(0.,-1.,0.));
#659=DIRECTION('',(0.,1.,0.));
#660=DIRECTION('center_axis',(-1.,0.,0.));
#661=DIRECTION('ref_axis',(0.,-1.,0.));
#662=DIRECTION('',(0.,0.,1.));
#663=DIRECTION('',(0.,1.,0.));
#664=DIRECTION('',(0.,0.,1.));
#665=DIRECTION('center_axis',(0.,0.,1.));
#666=DIRECTION('ref_axis',(0.,1.,0.));
#667=DIRECTION('',(0.,0.,1.));
#668=DIRECTION('center_axis',(0.,0.,-1.));
#669=DIRECTION('ref_axis',(0.,1.,0.));
#670=DIRECTION('center_axis',(0.,1.,0.));
#671=DIRECTION('ref_axis',(-1.,0.,0.));
#672=DIRECTION('',(0.,0.,1.));
#673=DIRECTION('',(1.,0.,0.));
#674=DIRECTION('center_axis',(0.,0.,1.));
#675=DIRECTION('ref_axis',(1.,0.,0.));
#676=DIRECTION('',(0.,0.,1.));
#677=DIRECTION('center_axis',(0.,0.,-1.));
#678=DIRECTION('ref_axis',(1.,0.,0.));
#679=DIRECTION('center_axis',(0.,0.,1.));
#680=DIRECTION('ref_axis',(1.,0.,0.));
#681=DIRECTION('center_axis',(0.,0.,-1.));
#682=DIRECTION('ref_axis',(-1.,0.,0.));
#683=DIRECTION('center_axis',(0.,0.,-1.));
#684=DIRECTION('ref_axis',(-1.,0.,0.));
#685=DIRECTION('center_axis',(0.,0.,-1.));
#686=DIRECTION('ref_axis',(-1.,0.,0.));
#687=DIRECTION('center_axis',(0.,0.,-1.));
#688=DIRECTION('ref_axis',(-1.,0.,0.));
#689=DIRECTION('center_axis',(0.,0.,-1.));
#690=DIRECTION('ref_axis',(-1.,0.,0.));
#691=DIRECTION('center_axis',(0.,0.,1.));
#692=DIRECTION('ref_axis',(1.,0.,0.));
#693=DIRECTION('',(0.,0.707106781186546,0.707106781186549));
#694=DIRECTION('',(-0.707106781186546,0.,-0.707106781186549));
#695=DIRECTION('center_axis',(0.,0.,1.));
#696=DIRECTION('ref_axis',(1.,0.,0.));
#697=DIRECTION('center_axis',(0.,0.707106781186549,-0.707106781186546));
#698=DIRECTION('ref_axis',(-1.,0.,0.));
#699=DIRECTION('',(0.,0.707106781186546,0.707106781186549));
#700=DIRECTION('',(-1.,0.,0.));
#701=DIRECTION('center_axis',(0.,0.,1.));
#702=DIRECTION('ref_axis',(0.,1.,0.));
#703=DIRECTION('',(-0.707106781186546,0.,0.707106781186549));
#704=DIRECTION('center_axis',(0.,0.,1.));
#705=DIRECTION('ref_axis',(0.,1.,0.));
#706=DIRECTION('center_axis',(-0.707106781186549,0.,-0.707106781186546));
#707=DIRECTION('ref_axis',(-0.707106781186546,0.,0.707106781186549));
#708=DIRECTION('',(-0.707106781186546,0.,0.707106781186549));
#709=DIRECTION('',(0.,-1.,0.));
#710=DIRECTION('center_axis',(0.,0.,1.));
#711=DIRECTION('ref_axis',(-1.,0.,0.));
#712=DIRECTION('',(0.,-0.707106781186546,0.707106781186549));
#713=DIRECTION('center_axis',(0.,0.,-1.));
#714=DIRECTION('ref_axis',(-1.,0.,0.));
#715=DIRECTION('center_axis',(0.,0.,1.));
#716=DIRECTION('ref_axis',(-1.,0.,0.));
#717=DIRECTION('center_axis',(0.,-0.707106781186549,-0.707106781186546));
#718=DIRECTION('ref_axis',(-1.,0.,0.));
#719=DIRECTION('',(0.,-0.707106781186546,0.707106781186549));
#720=DIRECTION('',(-1.,0.,0.));
#721=DIRECTION('',(1.,0.,0.));
#722=DIRECTION('center_axis',(0.,0.,1.));
#723=DIRECTION('ref_axis',(0.,-1.,0.));
#724=DIRECTION('',(0.707106781186546,0.,0.707106781186549));
#725=DIRECTION('center_axis',(0.,0.,-1.));
#726=DIRECTION('ref_axis',(0.,-1.,0.));
#727=DIRECTION('center_axis',(0.,0.,1.));
#728=DIRECTION('ref_axis',(0.,-1.,0.));
#729=DIRECTION('center_axis',(0.707106781186549,0.,-0.707106781186546));
#730=DIRECTION('ref_axis',(-0.707106781186546,0.,-0.707106781186549));
#731=DIRECTION('',(0.,-1.,0.));
#732=DIRECTION('',(0.,1.,0.));
#733=DIRECTION('center_axis',(0.,-1.,0.));
#734=DIRECTION('ref_axis',(1.,0.,0.));
#735=DIRECTION('',(0.,0.,1.));
#736=DIRECTION('',(0.,0.,1.));
#737=DIRECTION('center_axis',(0.,0.,1.));
#738=DIRECTION('ref_axis',(0.,-1.,0.));
#739=DIRECTION('',(0.,0.,1.));
#740=DIRECTION('center_axis',(1.,0.,0.));
#741=DIRECTION('ref_axis',(0.,1.,0.));
#742=DIRECTION('center_axis',(0.,0.,1.));
#743=DIRECTION('ref_axis',(1.,0.,0.));
#744=DIRECTION('center_axis',(0.,0.,-1.));
#745=DIRECTION('ref_axis',(-1.,0.,0.));
#746=DIRECTION('center_axis',(0.,0.,-1.));
#747=DIRECTION('ref_axis',(-1.,0.,0.));
#748=DIRECTION('center_axis',(0.,0.,-1.));
#749=DIRECTION('ref_axis',(-1.,0.,0.));
#750=DIRECTION('center_axis',(0.,0.,-1.));
#751=DIRECTION('ref_axis',(-1.,0.,0.));
#752=DIRECTION('center_axis',(0.,0.,-1.));
#753=DIRECTION('ref_axis',(-1.,0.,0.));
#754=DIRECTION('center_axis',(0.,0.,1.));
#755=DIRECTION('ref_axis',(-1.,0.,0.));
#756=DIRECTION('',(0.,0.,-1.));
#757=DIRECTION('center_axis',(0.,0.,1.));
#758=DIRECTION('ref_axis',(-1.,0.,0.));
#759=DIRECTION('',(0.,0.,-1.));
#760=DIRECTION('center_axis',(0.,0.,1.));
#761=DIRECTION('ref_axis',(-1.,0.,0.));
#762=DIRECTION('',(0.,0.,-1.));
#763=DIRECTION('center_axis',(0.,0.,1.));
#764=DIRECTION('ref_axis',(-1.,0.,0.));
#765=DIRECTION('',(0.,0.,-1.));
#766=DIRECTION('center_axis',(0.,0.,1.));
#767=DIRECTION('ref_axis',(-1.,0.,0.));
#768=DIRECTION('',(0.,0.,-1.));
#769=DIRECTION('center_axis',(0.,0.,1.));
#770=DIRECTION('ref_axis',(-1.,0.,0.));
#771=CARTESIAN_POINT('',(0.,0.,0.));
#772=CARTESIAN_POINT('Origin',(22.5,22.5,5.75));
#773=CARTESIAN_POINT('',(22.5,32.5,5.5));
#774=CARTESIAN_POINT('',(22.5,32.,6.));
#775=CARTESIAN_POINT('',(22.5,32.5,5.5));
#776=CARTESIAN_POINT('',(32.,22.5,6.));
#777=CARTESIAN_POINT('Origin',(22.5,22.5,6.));
#778=CARTESIAN_POINT('',(32.5,22.5,5.5));
#779=CARTESIAN_POINT('',(32.,22.5,6.));
#780=CARTESIAN_POINT('Origin',(22.5,22.5,5.5));
#781=CARTESIAN_POINT('Origin',(11.25,32.25,5.75));
#782=CARTESIAN_POINT('',(-22.5,32.5,5.5));
#783=CARTESIAN_POINT('',(-22.5,32.,6.));
#784=CARTESIAN_POINT('',(-22.5,32.5,5.5));
#785=CARTESIAN_POINT('',(11.25,32.,6.));
#786=CARTESIAN_POINT('',(11.25,32.5,5.5));
#787=CARTESIAN_POINT('Origin',(-22.5,22.5,5.75));
#788=CARTESIAN_POINT('',(-32.5,22.5,5.5));
#789=CARTESIAN_POINT('',(-32.,22.5,6.));
#790=CARTESIAN_POINT('',(-32.5,22.5,5.5));
#791=CARTESIAN_POINT('Origin',(-22.5,22.5,6.));
#792=CARTESIAN_POINT('Origin',(-22.5,22.5,5.5));
#793=CARTESIAN_POINT('Origin',(-32.25,11.25,5.75));
#794=CARTESIAN_POINT('',(-32.5,-22.5,5.5));
#795=CARTESIAN_POINT('',(-32.,-22.5,6.));
#796=CARTESIAN_POINT('',(-32.5,-22.5,5.5));
#797=CARTESIAN_POINT('',(-32.,11.25,6.));
#798=CARTESIAN_POINT('',(-32.5,11.25,5.5));
#799=CARTESIAN_POINT('Origin',(-22.5,-22.5,5.75));
#800=CARTESIAN_POINT('',(-22.5,-32.5,5.5));
#801=CARTESIAN_POINT('',(-22.5,-32.,6.));
#802=CARTESIAN_POINT('',(-22.5,-32.5,5.5));
#803=CARTESIAN_POINT('Origin',(-22.5,-22.5,6.));
#804=CARTESIAN_POINT('Origin',(-22.5,-22.5,5.5));
#805=CARTESIAN_POINT('Origin',(-11.25,-32.25,5.75));
#806=CARTESIAN_POINT('',(22.5,-32.5,5.5));
#807=CARTESIAN_POINT('',(22.5,-32.,6.));
#808=CARTESIAN_POINT('',(22.5,-32.5,5.5));
#809=CARTESIAN_POINT('',(-11.25,-32.,6.));
#810=CARTESIAN_POINT('',(-11.25,-32.5,5.5));
#811=CARTESIAN_POINT('Origin',(22.5,-22.5,5.75));
#812=CARTESIAN_POINT('',(32.5,-22.5,5.5));
#813=CARTESIAN_POINT('',(32.,-22.5,6.));
#814=CARTESIAN_POINT('',(32.5,-22.5,5.5));
#815=CARTESIAN_POINT('Origin',(22.5,-22.5,6.));
#816=CARTESIAN_POINT('Origin',(22.5,-22.5,5.5));
#817=CARTESIAN_POINT('Origin',(32.25,-11.25,5.75));
#818=CARTESIAN_POINT('',(32.,-11.25,6.));
#819=CARTESIAN_POINT('',(32.5,-11.25,5.5));
#820=CARTESIAN_POINT('Origin',(-32.5,22.5,0.));
#821=CARTESIAN_POINT('',(-32.5,22.5,0.5));
#822=CARTESIAN_POINT('',(-32.5,22.5,0.));
#823=CARTESIAN_POINT('',(-32.5,-22.5,0.5));
#824=CARTESIAN_POINT('',(-32.5,11.25,0.5));
#825=CARTESIAN_POINT('',(-32.5,-22.5,0.));
#826=CARTESIAN_POINT('Origin',(-22.5,22.5,0.));
#827=CARTESIAN_POINT('',(-22.5,32.5,0.5));
#828=CARTESIAN_POINT('',(-22.5,32.5,0.));
#829=CARTESIAN_POINT('Origin',(-22.5,22.5,0.5));
#830=CARTESIAN_POINT('Origin',(22.5,32.5,0.));
#831=CARTESIAN_POINT('',(22.5,32.5,0.5));
#832=CARTESIAN_POINT('',(22.5,32.5,0.));
#833=CARTESIAN_POINT('',(11.25,32.5,0.5));
#834=CARTESIAN_POINT('Origin',(22.5,22.5,0.));
#835=CARTESIAN_POINT('',(32.5,22.5,0.5));
#836=CARTESIAN_POINT('',(32.5,22.5,0.));
#837=CARTESIAN_POINT('Origin',(22.5,22.5,0.5));
#838=CARTESIAN_POINT('Origin',(0.,0.,6.));
#839=CARTESIAN_POINT('',(25.,4.44089209850063E-15,6.));
#840=CARTESIAN_POINT('Origin',(0.,0.,6.));
#841=CARTESIAN_POINT('',(-23.1,25.,6.));
#842=CARTESIAN_POINT('Origin',(-25.,25.,6.));
#843=CARTESIAN_POINT('',(26.9,25.,6.));
#844=CARTESIAN_POINT('Origin',(25.,25.,6.));
#845=CARTESIAN_POINT('',(-23.1,-25.,6.));
#846=CARTESIAN_POINT('Origin',(-25.,-25.,6.));
#847=CARTESIAN_POINT('',(26.9,-25.,6.));
#848=CARTESIAN_POINT('Origin',(25.,-25.,6.));
#849=CARTESIAN_POINT('Origin',(22.5,22.5,0.25));
#850=CARTESIAN_POINT('',(22.5,32.,0.));
#851=CARTESIAN_POINT('',(22.5,32.,0.));
#852=CARTESIAN_POINT('',(32.,22.5,0.));
#853=CARTESIAN_POINT('',(32.5,22.5,0.5));
#854=CARTESIAN_POINT('Origin',(22.5,22.5,0.));
#855=CARTESIAN_POINT('Origin',(11.25,32.25,0.25));
#856=CARTESIAN_POINT('',(-22.5,32.,0.));
#857=CARTESIAN_POINT('',(-22.5,32.,0.));
#858=CARTESIAN_POINT('',(11.25,32.,0.));
#859=CARTESIAN_POINT('Origin',(-22.5,22.5,0.25));
#860=CARTESIAN_POINT('',(-32.,22.5,0.));
#861=CARTESIAN_POINT('',(-32.,22.5,0.));
#862=CARTESIAN_POINT('Origin',(-22.5,22.5,0.));
#863=CARTESIAN_POINT('Origin',(-32.25,11.25,0.25));
#864=CARTESIAN_POINT('',(-32.,-22.5,0.));
#865=CARTESIAN_POINT('',(-32.,-22.5,0.));
#866=CARTESIAN_POINT('',(-32.,11.25,0.));
#867=CARTESIAN_POINT('Origin',(-22.5,-22.5,0.25));
#868=CARTESIAN_POINT('',(-22.5,-32.,0.));
#869=CARTESIAN_POINT('',(-22.5,-32.5,0.5));
#870=CARTESIAN_POINT('',(-22.5,-32.,0.));
#871=CARTESIAN_POINT('Origin',(-22.5,-22.5,0.5));
#872=CARTESIAN_POINT('Origin',(-22.5,-22.5,0.));
#873=CARTESIAN_POINT('Origin',(-11.25,-32.25,0.25));
#874=CARTESIAN_POINT('',(22.5,-32.,0.));
#875=CARTESIAN_POINT('',(22.5,-32.5,0.5));
#876=CARTESIAN_POINT('',(22.5,-32.,0.));
#877=CARTESIAN_POINT('',(-11.25,-32.5,0.5));
#878=CARTESIAN_POINT('',(-11.25,-32.,0.));
#879=CARTESIAN_POINT('Origin',(22.5,-22.5,0.25));
#880=CARTESIAN_POINT('',(32.,-22.5,0.));
#881=CARTESIAN_POINT('',(32.5,-22.5,0.5));
#882=CARTESIAN_POINT('',(32.,-22.5,0.));
#883=CARTESIAN_POINT('Origin',(22.5,-22.5,0.5));
#884=CARTESIAN_POINT('Origin',(22.5,-22.5,0.));
#885=CARTESIAN_POINT('Origin',(32.25,-11.25,0.25));
#886=CARTESIAN_POINT('',(32.5,-11.25,0.5));
#887=CARTESIAN_POINT('',(32.,-11.25,0.));
#888=CARTESIAN_POINT('Origin',(-22.5,-32.5,0.));
#889=CARTESIAN_POINT('',(-22.5,-32.5,0.));
#890=CARTESIAN_POINT('',(22.5,-32.5,0.));
#891=CARTESIAN_POINT('Origin',(22.5,-22.5,0.));
#892=CARTESIAN_POINT('',(32.5,-22.5,0.));
#893=CARTESIAN_POINT('Origin',(32.5,-22.5,0.));
#894=CARTESIAN_POINT('Origin',(0.,0.,0.));
#895=CARTESIAN_POINT('',(25.,3.06161699786838E-15,0.));
#896=CARTESIAN_POINT('Origin',(0.,0.,0.));
#897=CARTESIAN_POINT('',(-23.1,25.,0.));
#898=CARTESIAN_POINT('Origin',(-25.,25.,0.));
#899=CARTESIAN_POINT('',(26.9,25.,0.));
#900=CARTESIAN_POINT('Origin',(25.,25.,0.));
#901=CARTESIAN_POINT('',(-23.1,-25.,0.));
#902=CARTESIAN_POINT('Origin',(-25.,-25.,0.));
#903=CARTESIAN_POINT('',(26.9,-25.,0.));
#904=CARTESIAN_POINT('Origin',(25.,-25.,0.));
#905=CARTESIAN_POINT('Origin',(0.,0.,0.));
#906=CARTESIAN_POINT('',(25.,3.06161699786838E-15,0.));
#907=CARTESIAN_POINT('Origin',(-25.,25.,0.));
#908=CARTESIAN_POINT('',(-23.1,25.,0.));
#909=CARTESIAN_POINT('Origin',(25.,25.,0.));
#910=CARTESIAN_POINT('',(26.9,25.,0.));
#911=CARTESIAN_POINT('Origin',(-25.,-25.,0.));
#912=CARTESIAN_POINT('',(-23.1,-25.,0.));
#913=CARTESIAN_POINT('Origin',(25.,-25.,0.));
#914=CARTESIAN_POINT('',(26.9,-25.,0.));
#915=CARTESIAN_POINT('Origin',(-22.5,-22.5,0.));
#916=UNCERTAINTY_MEASURE_WITH_UNIT(LENGTH_MEASURE(0.01),#920,
'DISTANCE_ACCURACY_VALUE',
'Maximum model space distance between geometric entities at asserted c
onnectivities');
#917=UNCERTAINTY_MEASURE_WITH_UNIT(LENGTH_MEASURE(0.01),#920,
'DISTANCE_ACCURACY_VALUE',
'Maximum model space distance between geometric entities at asserted c
onnectivities');
#918=(
GEOMETRIC_REPRESENTATION_CONTEXT(3)
GLOBAL_UNCERTAINTY_ASSIGNED_CONTEXT((#916))
GLOBAL_UNIT_ASSIGNED_CONTEXT((#920,#922,#923))
REPRESENTATION_CONTEXT('','3D')
);
#919=(
GEOMETRIC_REPRESENTATION_CONTEXT(3)
GLOBAL_UNCERTAINTY_ASSIGNED_CONTEXT((#917))
GLOBAL_UNIT_ASSIGNED_CONTEXT((#920,#922,#923))
REPRESENTATION_CONTEXT('','3D')
);
#920=(
LENGTH_UNIT()
NAMED_UNIT(*)
SI_UNIT(.MILLI.,.METRE.)
);
#921=(
LENGTH_UNIT()
NAMED_UNIT(*)
SI_UNIT(.CENTI.,.METRE.)
);
#922=(
NAMED_UNIT(*)
PLANE_ANGLE_UNIT()
SI_UNIT($,.RADIAN.)
);
#923=(
NAMED_UNIT(*)
SI_UNIT($,.STERADIAN.)
SOLID_ANGLE_UNIT()
);
#924=SHAPE_DEFINITION_REPRESENTATION(#925,#926);
#925=PRODUCT_DEFINITION_SHAPE('',$,#928);
#926=SHAPE_REPRESENTATION('',(#552),#918);
#927=PRODUCT_DEFINITION_CONTEXT('part definition',#932,'design');
#928=PRODUCT_DEFINITION('StageInsert_FoilHolder_Part2',
'stage_insert_foil_holder_top',#929,#927);
#929=PRODUCT_DEFINITION_FORMATION('',$,#934);
#930=PRODUCT_RELATED_PRODUCT_CATEGORY('stage_insert_foil_holder_top',
'stage_insert_foil_holder_top',(#934));
#931=APPLICATION_PROTOCOL_DEFINITION('international standard',
'automotive_design',2009,#932);
#932=APPLICATION_CONTEXT(
'Core Data for Automotive Mechanical Design Process');
#933=PRODUCT_CONTEXT('part definition',#932,'mechanical');
#934=PRODUCT('StageInsert_FoilHolder_Part2',
'stage_insert_foil_holder_top',$,(#933));
#935=PRESENTATION_STYLE_ASSIGNMENT((#936));
#936=SURFACE_STYLE_USAGE(.BOTH.,#939);
#937=SURFACE_STYLE_RENDERING_WITH_PROPERTIES($,#943,(#938));
#938=SURFACE_STYLE_TRANSPARENT(0.);
#939=SURFACE_SIDE_STYLE('',(#940,#937));
#940=SURFACE_STYLE_FILL_AREA(#941);
#941=FILL_AREA_STYLE('',(#942));
#942=FILL_AREA_STYLE_COLOUR('',#943);
#943=COLOUR_RGB('',0.749019607843137,0.749019607843137,0.749019607843137);
ENDSEC;
END-ISO-10303-21;
