ISO-10303-21;
HEADER;
/* Generated by software containing ST-Developer
 * from STEP Tools, Inc. (www.steptools.com) 
 */

FILE_DESCRIPTION(
/* description */ (''),
/* implementation_level */ '2;1');

FILE_NAME(
/* name */ 'stage_insert_foil_holder_bottom.step',
/* time_stamp */ '2026-06-19T15:09:30+02:00',
/* author */ ('neuhau0004'),
/* organization */ (''),
/* preprocessor_version */ 'ST-DEVELOPER v20.1',
/* originating_system */ 'Autodesk Inventor 2026',
/* authorisation */ '');

FILE_SCHEMA (('AUTOMOTIVE_DESIGN { 1 0 10303 214 3 1 1 }'));
ENDSEC;

DATA;
#10=MECHANICAL_DESIGN_GEOMETRIC_PRESENTATION_REPRESENTATION('',(#13),#1124);
#11=SHAPE_REPRESENTATION_RELATIONSHIP('SRR','None',#1131,#12);
#12=ADVANCED_BREP_SHAPE_REPRESENTATION('',(#14),#1123);
#13=STYLED_ITEM('',(#1140),#14);
#14=MANIFOLD_SOLID_BREP('Volumenk\X\F6rper1',#644);
#15=FACE_BOUND('',#139,.T.);
#16=FACE_BOUND('',#140,.T.);
#17=FACE_BOUND('',#141,.T.);
#18=FACE_BOUND('',#142,.T.);
#19=FACE_BOUND('',#143,.T.);
#20=FACE_BOUND('',#154,.T.);
#21=FACE_BOUND('',#155,.T.);
#22=FACE_BOUND('',#156,.T.);
#23=FACE_BOUND('',#157,.T.);
#24=FACE_BOUND('',#158,.T.);
#25=FACE_BOUND('',#163,.T.);
#26=FACE_BOUND('',#166,.T.);
#27=FACE_BOUND('',#169,.T.);
#28=FACE_BOUND('',#172,.T.);
#29=CYLINDRICAL_SURFACE('',#683,10.);
#30=CYLINDRICAL_SURFACE('',#686,10.);
#31=CYLINDRICAL_SURFACE('',#718,25.);
#32=CYLINDRICAL_SURFACE('',#719,3.525);
#33=CYLINDRICAL_SURFACE('',#723,3.525);
#34=CYLINDRICAL_SURFACE('',#727,3.525);
#35=CYLINDRICAL_SURFACE('',#731,3.525);
#36=CYLINDRICAL_SURFACE('',#735,2.1);
#37=CYLINDRICAL_SURFACE('',#736,2.1);
#38=CYLINDRICAL_SURFACE('',#737,2.1);
#39=CYLINDRICAL_SURFACE('',#738,2.1);
#40=CYLINDRICAL_SURFACE('',#739,10.);
#41=CYLINDRICAL_SURFACE('',#741,10.);
#42=CIRCLE('',#669,10.);
#43=CIRCLE('',#670,9.5);
#44=CIRCLE('',#673,10.);
#45=CIRCLE('',#674,9.5);
#46=CIRCLE('',#677,10.);
#47=CIRCLE('',#678,9.5);
#48=CIRCLE('',#681,10.);
#49=CIRCLE('',#682,9.5);
#50=CIRCLE('',#684,10.);
#51=CIRCLE('',#687,10.);
#52=CIRCLE('',#690,25.);
#53=CIRCLE('',#691,2.1);
#54=CIRCLE('',#692,2.1);
#55=CIRCLE('',#693,2.1);
#56=CIRCLE('',#694,2.1);
#57=CIRCLE('',#697,9.);
#58=CIRCLE('',#700,9.);
#59=CIRCLE('',#703,9.);
#60=CIRCLE('',#704,10.);
#61=CIRCLE('',#707,9.);
#62=CIRCLE('',#708,10.);
#63=CIRCLE('',#711,26.);
#64=CIRCLE('',#712,3.525);
#65=CIRCLE('',#713,3.525);
#66=CIRCLE('',#714,3.525);
#67=CIRCLE('',#715,3.525);
#68=CIRCLE('',#717,25.);
#69=CIRCLE('',#720,3.525);
#70=CIRCLE('',#722,2.1);
#71=CIRCLE('',#724,3.525);
#72=CIRCLE('',#726,2.1);
#73=CIRCLE('',#728,3.525);
#74=CIRCLE('',#730,2.1);
#75=CIRCLE('',#732,3.525);
#76=CIRCLE('',#734,2.1);
#77=CONICAL_SURFACE('',#668,9.75,0.785398163397448);
#78=CONICAL_SURFACE('',#672,9.75,0.785398163397448);
#79=CONICAL_SURFACE('',#676,9.75,0.785398163397448);
#80=CONICAL_SURFACE('',#680,9.75,0.785398163397448);
#81=CONICAL_SURFACE('',#696,9.5,0.785398163397447);
#82=CONICAL_SURFACE('',#699,9.5,0.785398163397447);
#83=CONICAL_SURFACE('',#702,9.5,0.785398163397447);
#84=CONICAL_SURFACE('',#706,9.5,0.785398163397447);
#85=CONICAL_SURFACE('',#716,25.5,0.785398163397449);
#86=FACE_OUTER_BOUND('',#126,.T.);
#87=FACE_OUTER_BOUND('',#127,.T.);
#88=FACE_OUTER_BOUND('',#128,.T.);
#89=FACE_OUTER_BOUND('',#129,.T.);
#90=FACE_OUTER_BOUND('',#130,.T.);
#91=FACE_OUTER_BOUND('',#131,.T.);
#92=FACE_OUTER_BOUND('',#132,.T.);
#93=FACE_OUTER_BOUND('',#133,.T.);
#94=FACE_OUTER_BOUND('',#134,.T.);
#95=FACE_OUTER_BOUND('',#135,.T.);
#96=FACE_OUTER_BOUND('',#136,.T.);
#97=FACE_OUTER_BOUND('',#137,.T.);
#98=FACE_OUTER_BOUND('',#138,.T.);
#99=FACE_OUTER_BOUND('',#144,.T.);
#100=FACE_OUTER_BOUND('',#145,.T.);
#101=FACE_OUTER_BOUND('',#146,.T.);
#102=FACE_OUTER_BOUND('',#147,.T.);
#103=FACE_OUTER_BOUND('',#148,.T.);
#104=FACE_OUTER_BOUND('',#149,.T.);
#105=FACE_OUTER_BOUND('',#150,.T.);
#106=FACE_OUTER_BOUND('',#151,.T.);
#107=FACE_OUTER_BOUND('',#152,.T.);
#108=FACE_OUTER_BOUND('',#153,.T.);
#109=FACE_OUTER_BOUND('',#159,.T.);
#110=FACE_OUTER_BOUND('',#160,.T.);
#111=FACE_OUTER_BOUND('',#161,.T.);
#112=FACE_OUTER_BOUND('',#162,.T.);
#113=FACE_OUTER_BOUND('',#164,.T.);
#114=FACE_OUTER_BOUND('',#165,.T.);
#115=FACE_OUTER_BOUND('',#167,.T.);
#116=FACE_OUTER_BOUND('',#168,.T.);
#117=FACE_OUTER_BOUND('',#170,.T.);
#118=FACE_OUTER_BOUND('',#171,.T.);
#119=FACE_OUTER_BOUND('',#173,.T.);
#120=FACE_OUTER_BOUND('',#174,.T.);
#121=FACE_OUTER_BOUND('',#175,.T.);
#122=FACE_OUTER_BOUND('',#176,.T.);
#123=FACE_OUTER_BOUND('',#177,.T.);
#124=FACE_OUTER_BOUND('',#178,.T.);
#125=FACE_OUTER_BOUND('',#179,.T.);
#126=EDGE_LOOP('',(#416,#417,#418,#419));
#127=EDGE_LOOP('',(#420,#421,#422,#423));
#128=EDGE_LOOP('',(#424,#425,#426,#427));
#129=EDGE_LOOP('',(#428,#429,#430,#431));
#130=EDGE_LOOP('',(#432,#433,#434,#435));
#131=EDGE_LOOP('',(#436,#437,#438,#439));
#132=EDGE_LOOP('',(#440,#441,#442,#443));
#133=EDGE_LOOP('',(#444,#445,#446,#447));
#134=EDGE_LOOP('',(#448,#449,#450,#451));
#135=EDGE_LOOP('',(#452,#453,#454,#455));
#136=EDGE_LOOP('',(#456,#457,#458,#459));
#137=EDGE_LOOP('',(#460,#461,#462,#463));
#138=EDGE_LOOP('',(#464,#465,#466,#467,#468,#469,#470,#471));
#139=EDGE_LOOP('',(#472));
#140=EDGE_LOOP('',(#473));
#141=EDGE_LOOP('',(#474));
#142=EDGE_LOOP('',(#475));
#143=EDGE_LOOP('',(#476));
#144=EDGE_LOOP('',(#477,#478,#479,#480));
#145=EDGE_LOOP('',(#481,#482,#483,#484));
#146=EDGE_LOOP('',(#485,#486,#487,#488));
#147=EDGE_LOOP('',(#489,#490,#491,#492));
#148=EDGE_LOOP('',(#493,#494,#495,#496));
#149=EDGE_LOOP('',(#497,#498,#499,#500));
#150=EDGE_LOOP('',(#501,#502,#503,#504));
#151=EDGE_LOOP('',(#505,#506,#507,#508));
#152=EDGE_LOOP('',(#509,#510,#511,#512));
#153=EDGE_LOOP('',(#513,#514,#515,#516,#517,#518,#519,#520));
#154=EDGE_LOOP('',(#521));
#155=EDGE_LOOP('',(#522));
#156=EDGE_LOOP('',(#523));
#157=EDGE_LOOP('',(#524));
#158=EDGE_LOOP('',(#525));
#159=EDGE_LOOP('',(#526,#527,#528,#529));
#160=EDGE_LOOP('',(#530,#531,#532,#533));
#161=EDGE_LOOP('',(#534,#535,#536,#537));
#162=EDGE_LOOP('',(#538));
#163=EDGE_LOOP('',(#539));
#164=EDGE_LOOP('',(#540,#541,#542,#543));
#165=EDGE_LOOP('',(#544));
#166=EDGE_LOOP('',(#545));
#167=EDGE_LOOP('',(#546,#547,#548,#549));
#168=EDGE_LOOP('',(#550));
#169=EDGE_LOOP('',(#551));
#170=EDGE_LOOP('',(#552,#553,#554,#555));
#171=EDGE_LOOP('',(#556));
#172=EDGE_LOOP('',(#557));
#173=EDGE_LOOP('',(#558,#559,#560,#561));
#174=EDGE_LOOP('',(#562,#563,#564,#565));
#175=EDGE_LOOP('',(#566,#567,#568,#569));
#176=EDGE_LOOP('',(#570,#571,#572,#573));
#177=EDGE_LOOP('',(#574,#575,#576,#577));
#178=EDGE_LOOP('',(#578,#579,#580,#581));
#179=EDGE_LOOP('',(#582,#583,#584,#585));
#180=LINE('',#948,#230);
#181=LINE('',#950,#231);
#182=LINE('',#952,#232);
#183=LINE('',#953,#233);
#184=LINE('',#957,#234);
#185=LINE('',#963,#235);
#186=LINE('',#964,#236);
#187=LINE('',#965,#237);
#188=LINE('',#969,#238);
#189=LINE('',#975,#239);
#190=LINE('',#976,#240);
#191=LINE('',#977,#241);
#192=LINE('',#981,#242);
#193=LINE('',#987,#243);
#194=LINE('',#988,#244);
#195=LINE('',#989,#245);
#196=LINE('',#995,#246);
#197=LINE('',#998,#247);
#198=LINE('',#1001,#248);
#199=LINE('',#1002,#249);
#200=LINE('',#1005,#250);
#201=LINE('',#1009,#251);
#202=LINE('',#1010,#252);
#203=LINE('',#1024,#253);
#204=LINE('',#1026,#254);
#205=LINE('',#1028,#255);
#206=LINE('',#1029,#256);
#207=LINE('',#1032,#257);
#208=LINE('',#1036,#258);
#209=LINE('',#1037,#259);
#210=LINE('',#1040,#260);
#211=LINE('',#1044,#261);
#212=LINE('',#1045,#262);
#213=LINE('',#1049,#263);
#214=LINE('',#1055,#264);
#215=LINE('',#1056,#265);
#216=LINE('',#1057,#266);
#217=LINE('',#1062,#267);
#218=LINE('',#1076,#268);
#219=LINE('',#1079,#269);
#220=LINE('',#1082,#270);
#221=LINE('',#1089,#271);
#222=LINE('',#1096,#272);
#223=LINE('',#1103,#273);
#224=LINE('',#1109,#274);
#225=LINE('',#1111,#275);
#226=LINE('',#1113,#276);
#227=LINE('',#1115,#277);
#228=LINE('',#1117,#278);
#229=LINE('',#1119,#279);
#230=VECTOR('',#746,10.);
#231=VECTOR('',#747,10.);
#232=VECTOR('',#748,10.);
#233=VECTOR('',#749,10.);
#234=VECTOR('',#752,10.);
#235=VECTOR('',#759,10.);
#236=VECTOR('',#760,10.);
#237=VECTOR('',#761,10.);
#238=VECTOR('',#764,10.);
#239=VECTOR('',#771,10.);
#240=VECTOR('',#772,10.);
#241=VECTOR('',#773,10.);
#242=VECTOR('',#776,10.);
#243=VECTOR('',#783,10.);
#244=VECTOR('',#784,10.);
#245=VECTOR('',#785,10.);
#246=VECTOR('',#794,10.);
#247=VECTOR('',#797,10.);
#248=VECTOR('',#800,10.);
#249=VECTOR('',#801,10.);
#250=VECTOR('',#804,10.);
#251=VECTOR('',#809,10.);
#252=VECTOR('',#810,10.);
#253=VECTOR('',#825,10.);
#254=VECTOR('',#826,10.);
#255=VECTOR('',#827,10.);
#256=VECTOR('',#828,10.);
#257=VECTOR('',#831,10.);
#258=VECTOR('',#836,10.);
#259=VECTOR('',#837,10.);
#260=VECTOR('',#840,10.);
#261=VECTOR('',#845,10.);
#262=VECTOR('',#846,10.);
#263=VECTOR('',#849,10.);
#264=VECTOR('',#856,10.);
#265=VECTOR('',#857,10.);
#266=VECTOR('',#858,10.);
#267=VECTOR('',#867,10.);
#268=VECTOR('',#882,25.5);
#269=VECTOR('',#887,25.);
#270=VECTOR('',#890,3.525);
#271=VECTOR('',#899,3.525);
#272=VECTOR('',#908,3.525);
#273=VECTOR('',#917,3.525);
#274=VECTOR('',#926,2.1);
#275=VECTOR('',#929,2.1);
#276=VECTOR('',#932,2.1);
#277=VECTOR('',#935,2.1);
#278=VECTOR('',#938,10.);
#279=VECTOR('',#941,10.);
#280=VERTEX_POINT('',#946);
#281=VERTEX_POINT('',#947);
#282=VERTEX_POINT('',#949);
#283=VERTEX_POINT('',#951);
#284=VERTEX_POINT('',#955);
#285=VERTEX_POINT('',#956);
#286=VERTEX_POINT('',#961);
#287=VERTEX_POINT('',#962);
#288=VERTEX_POINT('',#967);
#289=VERTEX_POINT('',#968);
#290=VERTEX_POINT('',#973);
#291=VERTEX_POINT('',#974);
#292=VERTEX_POINT('',#979);
#293=VERTEX_POINT('',#980);
#294=VERTEX_POINT('',#985);
#295=VERTEX_POINT('',#986);
#296=VERTEX_POINT('',#994);
#297=VERTEX_POINT('',#996);
#298=VERTEX_POINT('',#1000);
#299=VERTEX_POINT('',#1004);
#300=VERTEX_POINT('',#1008);
#301=VERTEX_POINT('',#1012);
#302=VERTEX_POINT('',#1014);
#303=VERTEX_POINT('',#1016);
#304=VERTEX_POINT('',#1018);
#305=VERTEX_POINT('',#1020);
#306=VERTEX_POINT('',#1023);
#307=VERTEX_POINT('',#1025);
#308=VERTEX_POINT('',#1027);
#309=VERTEX_POINT('',#1031);
#310=VERTEX_POINT('',#1035);
#311=VERTEX_POINT('',#1039);
#312=VERTEX_POINT('',#1043);
#313=VERTEX_POINT('',#1047);
#314=VERTEX_POINT('',#1048);
#315=VERTEX_POINT('',#1053);
#316=VERTEX_POINT('',#1054);
#317=VERTEX_POINT('',#1064);
#318=VERTEX_POINT('',#1066);
#319=VERTEX_POINT('',#1068);
#320=VERTEX_POINT('',#1070);
#321=VERTEX_POINT('',#1072);
#322=VERTEX_POINT('',#1075);
#323=VERTEX_POINT('',#1081);
#324=VERTEX_POINT('',#1085);
#325=VERTEX_POINT('',#1088);
#326=VERTEX_POINT('',#1092);
#327=VERTEX_POINT('',#1095);
#328=VERTEX_POINT('',#1099);
#329=VERTEX_POINT('',#1102);
#330=VERTEX_POINT('',#1106);
#331=EDGE_CURVE('',#280,#281,#180,.T.);
#332=EDGE_CURVE('',#281,#282,#181,.T.);
#333=EDGE_CURVE('',#282,#283,#182,.T.);
#334=EDGE_CURVE('',#283,#280,#183,.T.);
#335=EDGE_CURVE('',#284,#285,#184,.T.);
#336=EDGE_CURVE('',#285,#281,#42,.T.);
#337=EDGE_CURVE('',#280,#284,#43,.T.);
#338=EDGE_CURVE('',#286,#287,#185,.T.);
#339=EDGE_CURVE('',#287,#285,#186,.T.);
#340=EDGE_CURVE('',#284,#286,#187,.T.);
#341=EDGE_CURVE('',#288,#289,#188,.T.);
#342=EDGE_CURVE('',#289,#287,#44,.T.);
#343=EDGE_CURVE('',#286,#288,#45,.T.);
#344=EDGE_CURVE('',#290,#291,#189,.T.);
#345=EDGE_CURVE('',#291,#289,#190,.T.);
#346=EDGE_CURVE('',#288,#290,#191,.T.);
#347=EDGE_CURVE('',#292,#293,#192,.T.);
#348=EDGE_CURVE('',#293,#291,#46,.T.);
#349=EDGE_CURVE('',#290,#292,#47,.T.);
#350=EDGE_CURVE('',#294,#295,#193,.T.);
#351=EDGE_CURVE('',#295,#293,#194,.T.);
#352=EDGE_CURVE('',#292,#294,#195,.T.);
#353=EDGE_CURVE('',#282,#295,#48,.T.);
#354=EDGE_CURVE('',#294,#283,#49,.T.);
#355=EDGE_CURVE('',#293,#296,#196,.T.);
#356=EDGE_CURVE('',#297,#296,#50,.T.);
#357=EDGE_CURVE('',#291,#297,#197,.T.);
#358=EDGE_CURVE('',#295,#298,#198,.T.);
#359=EDGE_CURVE('',#296,#298,#199,.T.);
#360=EDGE_CURVE('',#282,#299,#200,.T.);
#361=EDGE_CURVE('',#298,#299,#51,.T.);
#362=EDGE_CURVE('',#281,#300,#201,.T.);
#363=EDGE_CURVE('',#299,#300,#202,.T.);
#364=EDGE_CURVE('',#301,#301,#52,.T.);
#365=EDGE_CURVE('',#302,#302,#53,.T.);
#366=EDGE_CURVE('',#303,#303,#54,.T.);
#367=EDGE_CURVE('',#304,#304,#55,.T.);
#368=EDGE_CURVE('',#305,#305,#56,.T.);
#369=EDGE_CURVE('',#297,#306,#203,.T.);
#370=EDGE_CURVE('',#306,#307,#204,.T.);
#371=EDGE_CURVE('',#307,#308,#205,.T.);
#372=EDGE_CURVE('',#308,#297,#206,.T.);
#373=EDGE_CURVE('',#296,#309,#207,.T.);
#374=EDGE_CURVE('',#309,#306,#57,.T.);
#375=EDGE_CURVE('',#298,#310,#208,.T.);
#376=EDGE_CURVE('',#310,#309,#209,.T.);
#377=EDGE_CURVE('',#299,#311,#210,.T.);
#378=EDGE_CURVE('',#311,#310,#58,.T.);
#379=EDGE_CURVE('',#300,#312,#211,.T.);
#380=EDGE_CURVE('',#312,#311,#212,.T.);
#381=EDGE_CURVE('',#313,#314,#213,.T.);
#382=EDGE_CURVE('',#314,#312,#59,.T.);
#383=EDGE_CURVE('',#300,#313,#60,.T.);
#384=EDGE_CURVE('',#315,#316,#214,.T.);
#385=EDGE_CURVE('',#316,#314,#215,.T.);
#386=EDGE_CURVE('',#313,#315,#216,.T.);
#387=EDGE_CURVE('',#307,#316,#61,.T.);
#388=EDGE_CURVE('',#315,#308,#62,.T.);
#389=EDGE_CURVE('',#289,#308,#217,.T.);
#390=EDGE_CURVE('',#317,#317,#63,.T.);
#391=EDGE_CURVE('',#318,#318,#64,.T.);
#392=EDGE_CURVE('',#319,#319,#65,.T.);
#393=EDGE_CURVE('',#320,#320,#66,.T.);
#394=EDGE_CURVE('',#321,#321,#67,.T.);
#395=EDGE_CURVE('',#317,#322,#218,.T.);
#396=EDGE_CURVE('',#322,#322,#68,.T.);
#397=EDGE_CURVE('',#322,#301,#219,.T.);
#398=EDGE_CURVE('',#318,#323,#220,.T.);
#399=EDGE_CURVE('',#323,#323,#69,.T.);
#400=EDGE_CURVE('',#324,#324,#70,.T.);
#401=EDGE_CURVE('',#319,#325,#221,.T.);
#402=EDGE_CURVE('',#325,#325,#71,.T.);
#403=EDGE_CURVE('',#326,#326,#72,.T.);
#404=EDGE_CURVE('',#320,#327,#222,.T.);
#405=EDGE_CURVE('',#327,#327,#73,.T.);
#406=EDGE_CURVE('',#328,#328,#74,.T.);
#407=EDGE_CURVE('',#321,#329,#223,.T.);
#408=EDGE_CURVE('',#329,#329,#75,.T.);
#409=EDGE_CURVE('',#330,#330,#76,.T.);
#410=EDGE_CURVE('',#330,#302,#224,.T.);
#411=EDGE_CURVE('',#326,#303,#225,.T.);
#412=EDGE_CURVE('',#324,#304,#226,.T.);
#413=EDGE_CURVE('',#328,#305,#227,.T.);
#414=EDGE_CURVE('',#287,#315,#228,.T.);
#415=EDGE_CURVE('',#285,#313,#229,.T.);
#416=ORIENTED_EDGE('',*,*,#331,.T.);
#417=ORIENTED_EDGE('',*,*,#332,.T.);
#418=ORIENTED_EDGE('',*,*,#333,.T.);
#419=ORIENTED_EDGE('',*,*,#334,.T.);
#420=ORIENTED_EDGE('',*,*,#335,.T.);
#421=ORIENTED_EDGE('',*,*,#336,.T.);
#422=ORIENTED_EDGE('',*,*,#331,.F.);
#423=ORIENTED_EDGE('',*,*,#337,.T.);
#424=ORIENTED_EDGE('',*,*,#338,.T.);
#425=ORIENTED_EDGE('',*,*,#339,.T.);
#426=ORIENTED_EDGE('',*,*,#335,.F.);
#427=ORIENTED_EDGE('',*,*,#340,.T.);
#428=ORIENTED_EDGE('',*,*,#341,.T.);
#429=ORIENTED_EDGE('',*,*,#342,.T.);
#430=ORIENTED_EDGE('',*,*,#338,.F.);
#431=ORIENTED_EDGE('',*,*,#343,.T.);
#432=ORIENTED_EDGE('',*,*,#344,.T.);
#433=ORIENTED_EDGE('',*,*,#345,.T.);
#434=ORIENTED_EDGE('',*,*,#341,.F.);
#435=ORIENTED_EDGE('',*,*,#346,.T.);
#436=ORIENTED_EDGE('',*,*,#347,.T.);
#437=ORIENTED_EDGE('',*,*,#348,.T.);
#438=ORIENTED_EDGE('',*,*,#344,.F.);
#439=ORIENTED_EDGE('',*,*,#349,.T.);
#440=ORIENTED_EDGE('',*,*,#350,.T.);
#441=ORIENTED_EDGE('',*,*,#351,.T.);
#442=ORIENTED_EDGE('',*,*,#347,.F.);
#443=ORIENTED_EDGE('',*,*,#352,.T.);
#444=ORIENTED_EDGE('',*,*,#333,.F.);
#445=ORIENTED_EDGE('',*,*,#353,.T.);
#446=ORIENTED_EDGE('',*,*,#350,.F.);
#447=ORIENTED_EDGE('',*,*,#354,.T.);
#448=ORIENTED_EDGE('',*,*,#348,.F.);
#449=ORIENTED_EDGE('',*,*,#355,.T.);
#450=ORIENTED_EDGE('',*,*,#356,.F.);
#451=ORIENTED_EDGE('',*,*,#357,.F.);
#452=ORIENTED_EDGE('',*,*,#351,.F.);
#453=ORIENTED_EDGE('',*,*,#358,.T.);
#454=ORIENTED_EDGE('',*,*,#359,.F.);
#455=ORIENTED_EDGE('',*,*,#355,.F.);
#456=ORIENTED_EDGE('',*,*,#353,.F.);
#457=ORIENTED_EDGE('',*,*,#360,.T.);
#458=ORIENTED_EDGE('',*,*,#361,.F.);
#459=ORIENTED_EDGE('',*,*,#358,.F.);
#460=ORIENTED_EDGE('',*,*,#332,.F.);
#461=ORIENTED_EDGE('',*,*,#362,.T.);
#462=ORIENTED_EDGE('',*,*,#363,.F.);
#463=ORIENTED_EDGE('',*,*,#360,.F.);
#464=ORIENTED_EDGE('',*,*,#334,.F.);
#465=ORIENTED_EDGE('',*,*,#354,.F.);
#466=ORIENTED_EDGE('',*,*,#352,.F.);
#467=ORIENTED_EDGE('',*,*,#349,.F.);
#468=ORIENTED_EDGE('',*,*,#346,.F.);
#469=ORIENTED_EDGE('',*,*,#343,.F.);
#470=ORIENTED_EDGE('',*,*,#340,.F.);
#471=ORIENTED_EDGE('',*,*,#337,.F.);
#472=ORIENTED_EDGE('',*,*,#364,.F.);
#473=ORIENTED_EDGE('',*,*,#365,.F.);
#474=ORIENTED_EDGE('',*,*,#366,.F.);
#475=ORIENTED_EDGE('',*,*,#367,.F.);
#476=ORIENTED_EDGE('',*,*,#368,.F.);
#477=ORIENTED_EDGE('',*,*,#369,.T.);
#478=ORIENTED_EDGE('',*,*,#370,.T.);
#479=ORIENTED_EDGE('',*,*,#371,.T.);
#480=ORIENTED_EDGE('',*,*,#372,.T.);
#481=ORIENTED_EDGE('',*,*,#373,.T.);
#482=ORIENTED_EDGE('',*,*,#374,.T.);
#483=ORIENTED_EDGE('',*,*,#369,.F.);
#484=ORIENTED_EDGE('',*,*,#356,.T.);
#485=ORIENTED_EDGE('',*,*,#375,.T.);
#486=ORIENTED_EDGE('',*,*,#376,.T.);
#487=ORIENTED_EDGE('',*,*,#373,.F.);
#488=ORIENTED_EDGE('',*,*,#359,.T.);
#489=ORIENTED_EDGE('',*,*,#377,.T.);
#490=ORIENTED_EDGE('',*,*,#378,.T.);
#491=ORIENTED_EDGE('',*,*,#375,.F.);
#492=ORIENTED_EDGE('',*,*,#361,.T.);
#493=ORIENTED_EDGE('',*,*,#379,.T.);
#494=ORIENTED_EDGE('',*,*,#380,.T.);
#495=ORIENTED_EDGE('',*,*,#377,.F.);
#496=ORIENTED_EDGE('',*,*,#363,.T.);
#497=ORIENTED_EDGE('',*,*,#381,.T.);
#498=ORIENTED_EDGE('',*,*,#382,.T.);
#499=ORIENTED_EDGE('',*,*,#379,.F.);
#500=ORIENTED_EDGE('',*,*,#383,.T.);
#501=ORIENTED_EDGE('',*,*,#384,.T.);
#502=ORIENTED_EDGE('',*,*,#385,.T.);
#503=ORIENTED_EDGE('',*,*,#381,.F.);
#504=ORIENTED_EDGE('',*,*,#386,.T.);
#505=ORIENTED_EDGE('',*,*,#371,.F.);
#506=ORIENTED_EDGE('',*,*,#387,.T.);
#507=ORIENTED_EDGE('',*,*,#384,.F.);
#508=ORIENTED_EDGE('',*,*,#388,.T.);
#509=ORIENTED_EDGE('',*,*,#345,.F.);
#510=ORIENTED_EDGE('',*,*,#357,.T.);
#511=ORIENTED_EDGE('',*,*,#372,.F.);
#512=ORIENTED_EDGE('',*,*,#389,.F.);
#513=ORIENTED_EDGE('',*,*,#370,.F.);
#514=ORIENTED_EDGE('',*,*,#374,.F.);
#515=ORIENTED_EDGE('',*,*,#376,.F.);
#516=ORIENTED_EDGE('',*,*,#378,.F.);
#517=ORIENTED_EDGE('',*,*,#380,.F.);
#518=ORIENTED_EDGE('',*,*,#382,.F.);
#519=ORIENTED_EDGE('',*,*,#385,.F.);
#520=ORIENTED_EDGE('',*,*,#387,.F.);
#521=ORIENTED_EDGE('',*,*,#390,.F.);
#522=ORIENTED_EDGE('',*,*,#391,.T.);
#523=ORIENTED_EDGE('',*,*,#392,.T.);
#524=ORIENTED_EDGE('',*,*,#393,.T.);
#525=ORIENTED_EDGE('',*,*,#394,.T.);
#526=ORIENTED_EDGE('',*,*,#390,.T.);
#527=ORIENTED_EDGE('',*,*,#395,.T.);
#528=ORIENTED_EDGE('',*,*,#396,.T.);
#529=ORIENTED_EDGE('',*,*,#395,.F.);
#530=ORIENTED_EDGE('',*,*,#396,.F.);
#531=ORIENTED_EDGE('',*,*,#397,.T.);
#532=ORIENTED_EDGE('',*,*,#364,.T.);
#533=ORIENTED_EDGE('',*,*,#397,.F.);
#534=ORIENTED_EDGE('',*,*,#391,.F.);
#535=ORIENTED_EDGE('',*,*,#398,.T.);
#536=ORIENTED_EDGE('',*,*,#399,.T.);
#537=ORIENTED_EDGE('',*,*,#398,.F.);
#538=ORIENTED_EDGE('',*,*,#399,.F.);
#539=ORIENTED_EDGE('',*,*,#400,.F.);
#540=ORIENTED_EDGE('',*,*,#392,.F.);
#541=ORIENTED_EDGE('',*,*,#401,.T.);
#542=ORIENTED_EDGE('',*,*,#402,.T.);
#543=ORIENTED_EDGE('',*,*,#401,.F.);
#544=ORIENTED_EDGE('',*,*,#402,.F.);
#545=ORIENTED_EDGE('',*,*,#403,.F.);
#546=ORIENTED_EDGE('',*,*,#393,.F.);
#547=ORIENTED_EDGE('',*,*,#404,.T.);
#548=ORIENTED_EDGE('',*,*,#405,.T.);
#549=ORIENTED_EDGE('',*,*,#404,.F.);
#550=ORIENTED_EDGE('',*,*,#405,.F.);
#551=ORIENTED_EDGE('',*,*,#406,.F.);
#552=ORIENTED_EDGE('',*,*,#394,.F.);
#553=ORIENTED_EDGE('',*,*,#407,.T.);
#554=ORIENTED_EDGE('',*,*,#408,.T.);
#555=ORIENTED_EDGE('',*,*,#407,.F.);
#556=ORIENTED_EDGE('',*,*,#408,.F.);
#557=ORIENTED_EDGE('',*,*,#409,.F.);
#558=ORIENTED_EDGE('',*,*,#409,.T.);
#559=ORIENTED_EDGE('',*,*,#410,.T.);
#560=ORIENTED_EDGE('',*,*,#365,.T.);
#561=ORIENTED_EDGE('',*,*,#410,.F.);
#562=ORIENTED_EDGE('',*,*,#403,.T.);
#563=ORIENTED_EDGE('',*,*,#411,.T.);
#564=ORIENTED_EDGE('',*,*,#366,.T.);
#565=ORIENTED_EDGE('',*,*,#411,.F.);
#566=ORIENTED_EDGE('',*,*,#400,.T.);
#567=ORIENTED_EDGE('',*,*,#412,.T.);
#568=ORIENTED_EDGE('',*,*,#367,.T.);
#569=ORIENTED_EDGE('',*,*,#412,.F.);
#570=ORIENTED_EDGE('',*,*,#406,.T.);
#571=ORIENTED_EDGE('',*,*,#413,.T.);
#572=ORIENTED_EDGE('',*,*,#368,.T.);
#573=ORIENTED_EDGE('',*,*,#413,.F.);
#574=ORIENTED_EDGE('',*,*,#342,.F.);
#575=ORIENTED_EDGE('',*,*,#389,.T.);
#576=ORIENTED_EDGE('',*,*,#388,.F.);
#577=ORIENTED_EDGE('',*,*,#414,.F.);
#578=ORIENTED_EDGE('',*,*,#339,.F.);
#579=ORIENTED_EDGE('',*,*,#414,.T.);
#580=ORIENTED_EDGE('',*,*,#386,.F.);
#581=ORIENTED_EDGE('',*,*,#415,.F.);
#582=ORIENTED_EDGE('',*,*,#336,.F.);
#583=ORIENTED_EDGE('',*,*,#415,.T.);
#584=ORIENTED_EDGE('',*,*,#383,.F.);
#585=ORIENTED_EDGE('',*,*,#362,.F.);
#586=PLANE('',#667);
#587=PLANE('',#671);
#588=PLANE('',#675);
#589=PLANE('',#679);
#590=PLANE('',#685);
#591=PLANE('',#688);
#592=PLANE('',#689);
#593=PLANE('',#695);
#594=PLANE('',#698);
#595=PLANE('',#701);
#596=PLANE('',#705);
#597=PLANE('',#709);
#598=PLANE('',#710);
#599=PLANE('',#721);
#600=PLANE('',#725);
#601=PLANE('',#729);
#602=PLANE('',#733);
#603=PLANE('',#740);
#604=ADVANCED_FACE('',(#86),#586,.T.);
#605=ADVANCED_FACE('',(#87),#77,.T.);
#606=ADVANCED_FACE('',(#88),#587,.T.);
#607=ADVANCED_FACE('',(#89),#78,.T.);
#608=ADVANCED_FACE('',(#90),#588,.T.);
#609=ADVANCED_FACE('',(#91),#79,.T.);
#610=ADVANCED_FACE('',(#92),#589,.T.);
#611=ADVANCED_FACE('',(#93),#80,.T.);
#612=ADVANCED_FACE('',(#94),#29,.T.);
#613=ADVANCED_FACE('',(#95),#590,.T.);
#614=ADVANCED_FACE('',(#96),#30,.T.);
#615=ADVANCED_FACE('',(#97),#591,.T.);
#616=ADVANCED_FACE('',(#98,#15,#16,#17,#18,#19),#592,.F.);
#617=ADVANCED_FACE('',(#99),#593,.T.);
#618=ADVANCED_FACE('',(#100),#81,.T.);
#619=ADVANCED_FACE('',(#101),#594,.T.);
#620=ADVANCED_FACE('',(#102),#82,.T.);
#621=ADVANCED_FACE('',(#103),#595,.T.);
#622=ADVANCED_FACE('',(#104),#83,.T.);
#623=ADVANCED_FACE('',(#105),#596,.T.);
#624=ADVANCED_FACE('',(#106),#84,.T.);
#625=ADVANCED_FACE('',(#107),#597,.T.);
#626=ADVANCED_FACE('',(#108,#20,#21,#22,#23,#24),#598,.T.);
#627=ADVANCED_FACE('',(#109),#85,.F.);
#628=ADVANCED_FACE('',(#110),#31,.F.);
#629=ADVANCED_FACE('',(#111),#32,.F.);
#630=ADVANCED_FACE('',(#112,#25),#599,.T.);
#631=ADVANCED_FACE('',(#113),#33,.F.);
#632=ADVANCED_FACE('',(#114,#26),#600,.T.);
#633=ADVANCED_FACE('',(#115),#34,.F.);
#634=ADVANCED_FACE('',(#116,#27),#601,.T.);
#635=ADVANCED_FACE('',(#117),#35,.F.);
#636=ADVANCED_FACE('',(#118,#28),#602,.T.);
#637=ADVANCED_FACE('',(#119),#36,.F.);
#638=ADVANCED_FACE('',(#120),#37,.F.);
#639=ADVANCED_FACE('',(#121),#38,.F.);
#640=ADVANCED_FACE('',(#122),#39,.F.);
#641=ADVANCED_FACE('',(#123),#40,.T.);
#642=ADVANCED_FACE('',(#124),#603,.T.);
#643=ADVANCED_FACE('',(#125),#41,.T.);
#644=CLOSED_SHELL('',(#604,#605,#606,#607,#608,#609,#610,#611,#612,#613,
#614,#615,#616,#617,#618,#619,#620,#621,#622,#623,#624,#625,#626,#627,#628,
#629,#630,#631,#632,#633,#634,#635,#636,#637,#638,#639,#640,#641,#642,#643));
#645=DERIVED_UNIT_ELEMENT(#648,1.);
#646=DERIVED_UNIT_ELEMENT(#1126,-3.);
#647=DIMENSIONAL_EXPONENTS(0.,1.,0.,0.,0.,0.,0.);
#648=(
CONVERSION_BASED_UNIT('gram',#650)
MASS_UNIT()
NAMED_UNIT(#647)
);
#649=(
MASS_UNIT()
NAMED_UNIT(*)
SI_UNIT(.KILO.,.GRAM.)
);
#650=MASS_MEASURE_WITH_UNIT(MASS_MEASURE(0.001),#649);
#651=DERIVED_UNIT((#645,#646));
#652=MEASURE_REPRESENTATION_ITEM('density measure',
POSITIVE_RATIO_MEASURE(1.),#651);
#653=PROPERTY_DEFINITION_REPRESENTATION(#658,#655);
#654=PROPERTY_DEFINITION_REPRESENTATION(#659,#656);
#655=REPRESENTATION('material name',(#657),#1123);
#656=REPRESENTATION('density',(#652),#1123);
#657=DESCRIPTIVE_REPRESENTATION_ITEM('Generic','Generic');
#658=PROPERTY_DEFINITION('material property','material name',#1133);
#659=PROPERTY_DEFINITION('material property','density of part',#1133);
#660=DATE_TIME_ROLE('creation_date');
#661=APPLIED_DATE_AND_TIME_ASSIGNMENT(#662,#660,(#1133));
#662=DATE_AND_TIME(#663,#664);
#663=CALENDAR_DATE(2024,14,11);
#664=LOCAL_TIME(0,0,0.,#665);
#665=COORDINATED_UNIVERSAL_TIME_OFFSET(0,0,.BEHIND.);
#666=AXIS2_PLACEMENT_3D('',#944,#742,#743);
#667=AXIS2_PLACEMENT_3D('',#945,#744,#745);
#668=AXIS2_PLACEMENT_3D('',#954,#750,#751);
#669=AXIS2_PLACEMENT_3D('',#958,#753,#754);
#670=AXIS2_PLACEMENT_3D('',#959,#755,#756);
#671=AXIS2_PLACEMENT_3D('',#960,#757,#758);
#672=AXIS2_PLACEMENT_3D('',#966,#762,#763);
#673=AXIS2_PLACEMENT_3D('',#970,#765,#766);
#674=AXIS2_PLACEMENT_3D('',#971,#767,#768);
#675=AXIS2_PLACEMENT_3D('',#972,#769,#770);
#676=AXIS2_PLACEMENT_3D('',#978,#774,#775);
#677=AXIS2_PLACEMENT_3D('',#982,#777,#778);
#678=AXIS2_PLACEMENT_3D('',#983,#779,#780);
#679=AXIS2_PLACEMENT_3D('',#984,#781,#782);
#680=AXIS2_PLACEMENT_3D('',#990,#786,#787);
#681=AXIS2_PLACEMENT_3D('',#991,#788,#789);
#682=AXIS2_PLACEMENT_3D('',#992,#790,#791);
#683=AXIS2_PLACEMENT_3D('',#993,#792,#793);
#684=AXIS2_PLACEMENT_3D('',#997,#795,#796);
#685=AXIS2_PLACEMENT_3D('',#999,#798,#799);
#686=AXIS2_PLACEMENT_3D('',#1003,#802,#803);
#687=AXIS2_PLACEMENT_3D('',#1006,#805,#806);
#688=AXIS2_PLACEMENT_3D('',#1007,#807,#808);
#689=AXIS2_PLACEMENT_3D('',#1011,#811,#812);
#690=AXIS2_PLACEMENT_3D('',#1013,#813,#814);
#691=AXIS2_PLACEMENT_3D('',#1015,#815,#816);
#692=AXIS2_PLACEMENT_3D('',#1017,#817,#818);
#693=AXIS2_PLACEMENT_3D('',#1019,#819,#820);
#694=AXIS2_PLACEMENT_3D('',#1021,#821,#822);
#695=AXIS2_PLACEMENT_3D('',#1022,#823,#824);
#696=AXIS2_PLACEMENT_3D('',#1030,#829,#830);
#697=AXIS2_PLACEMENT_3D('',#1033,#832,#833);
#698=AXIS2_PLACEMENT_3D('',#1034,#834,#835);
#699=AXIS2_PLACEMENT_3D('',#1038,#838,#839);
#700=AXIS2_PLACEMENT_3D('',#1041,#841,#842);
#701=AXIS2_PLACEMENT_3D('',#1042,#843,#844);
#702=AXIS2_PLACEMENT_3D('',#1046,#847,#848);
#703=AXIS2_PLACEMENT_3D('',#1050,#850,#851);
#704=AXIS2_PLACEMENT_3D('',#1051,#852,#853);
#705=AXIS2_PLACEMENT_3D('',#1052,#854,#855);
#706=AXIS2_PLACEMENT_3D('',#1058,#859,#860);
#707=AXIS2_PLACEMENT_3D('',#1059,#861,#862);
#708=AXIS2_PLACEMENT_3D('',#1060,#863,#864);
#709=AXIS2_PLACEMENT_3D('',#1061,#865,#866);
#710=AXIS2_PLACEMENT_3D('',#1063,#868,#869);
#711=AXIS2_PLACEMENT_3D('',#1065,#870,#871);
#712=AXIS2_PLACEMENT_3D('',#1067,#872,#873);
#713=AXIS2_PLACEMENT_3D('',#1069,#874,#875);
#714=AXIS2_PLACEMENT_3D('',#1071,#876,#877);
#715=AXIS2_PLACEMENT_3D('',#1073,#878,#879);
#716=AXIS2_PLACEMENT_3D('',#1074,#880,#881);
#717=AXIS2_PLACEMENT_3D('',#1077,#883,#884);
#718=AXIS2_PLACEMENT_3D('',#1078,#885,#886);
#719=AXIS2_PLACEMENT_3D('',#1080,#888,#889);
#720=AXIS2_PLACEMENT_3D('',#1083,#891,#892);
#721=AXIS2_PLACEMENT_3D('',#1084,#893,#894);
#722=AXIS2_PLACEMENT_3D('',#1086,#895,#896);
#723=AXIS2_PLACEMENT_3D('',#1087,#897,#898);
#724=AXIS2_PLACEMENT_3D('',#1090,#900,#901);
#725=AXIS2_PLACEMENT_3D('',#1091,#902,#903);
#726=AXIS2_PLACEMENT_3D('',#1093,#904,#905);
#727=AXIS2_PLACEMENT_3D('',#1094,#906,#907);
#728=AXIS2_PLACEMENT_3D('',#1097,#909,#910);
#729=AXIS2_PLACEMENT_3D('',#1098,#911,#912);
#730=AXIS2_PLACEMENT_3D('',#1100,#913,#914);
#731=AXIS2_PLACEMENT_3D('',#1101,#915,#916);
#732=AXIS2_PLACEMENT_3D('',#1104,#918,#919);
#733=AXIS2_PLACEMENT_3D('',#1105,#920,#921);
#734=AXIS2_PLACEMENT_3D('',#1107,#922,#923);
#735=AXIS2_PLACEMENT_3D('',#1108,#924,#925);
#736=AXIS2_PLACEMENT_3D('',#1110,#927,#928);
#737=AXIS2_PLACEMENT_3D('',#1112,#930,#931);
#738=AXIS2_PLACEMENT_3D('',#1114,#933,#934);
#739=AXIS2_PLACEMENT_3D('',#1116,#936,#937);
#740=AXIS2_PLACEMENT_3D('',#1118,#939,#940);
#741=AXIS2_PLACEMENT_3D('',#1120,#942,#943);
#742=DIRECTION('axis',(0.,0.,1.));
#743=DIRECTION('refdir',(1.,0.,0.));
#744=DIRECTION('center_axis',(0.,0.707106781186549,-0.707106781186546));
#745=DIRECTION('ref_axis',(-1.,0.,0.));
#746=DIRECTION('',(0.,0.707106781186546,0.707106781186549));
#747=DIRECTION('',(1.,0.,0.));
#748=DIRECTION('',(0.,-0.707106781186546,-0.707106781186549));
#749=DIRECTION('',(-1.,0.,0.));
#750=DIRECTION('center_axis',(0.,0.,1.));
#751=DIRECTION('ref_axis',(0.,1.,0.));
#752=DIRECTION('',(-0.707106781186546,0.,0.707106781186549));
#753=DIRECTION('center_axis',(0.,0.,-1.));
#754=DIRECTION('ref_axis',(0.,1.,0.));
#755=DIRECTION('center_axis',(0.,0.,1.));
#756=DIRECTION('ref_axis',(0.,1.,0.));
#757=DIRECTION('center_axis',(-0.707106781186549,0.,-0.707106781186546));
#758=DIRECTION('ref_axis',(-0.707106781186546,0.,0.707106781186549));
#759=DIRECTION('',(-0.707106781186546,0.,0.707106781186549));
#760=DIRECTION('',(0.,1.,0.));
#761=DIRECTION('',(0.,-1.,0.));
#762=DIRECTION('center_axis',(0.,0.,1.));
#763=DIRECTION('ref_axis',(-1.,0.,0.));
#764=DIRECTION('',(0.,-0.707106781186546,0.707106781186549));
#765=DIRECTION('center_axis',(0.,0.,-1.));
#766=DIRECTION('ref_axis',(-1.,0.,0.));
#767=DIRECTION('center_axis',(0.,0.,1.));
#768=DIRECTION('ref_axis',(-1.,0.,0.));
#769=DIRECTION('center_axis',(0.,-0.707106781186549,-0.707106781186546));
#770=DIRECTION('ref_axis',(-1.,0.,0.));
#771=DIRECTION('',(0.,-0.707106781186546,0.707106781186549));
#772=DIRECTION('',(-1.,0.,0.));
#773=DIRECTION('',(1.,0.,0.));
#774=DIRECTION('center_axis',(0.,0.,1.));
#775=DIRECTION('ref_axis',(0.,-1.,0.));
#776=DIRECTION('',(0.707106781186546,0.,0.707106781186549));
#777=DIRECTION('center_axis',(0.,0.,-1.));
#778=DIRECTION('ref_axis',(0.,-1.,0.));
#779=DIRECTION('center_axis',(0.,0.,1.));
#780=DIRECTION('ref_axis',(0.,-1.,0.));
#781=DIRECTION('center_axis',(0.707106781186549,0.,-0.707106781186546));
#782=DIRECTION('ref_axis',(-0.707106781186546,0.,-0.707106781186549));
#783=DIRECTION('',(0.707106781186546,0.,0.707106781186549));
#784=DIRECTION('',(0.,-1.,0.));
#785=DIRECTION('',(0.,1.,0.));
#786=DIRECTION('center_axis',(0.,0.,1.));
#787=DIRECTION('ref_axis',(1.,0.,0.));
#788=DIRECTION('center_axis',(0.,0.,-1.));
#789=DIRECTION('ref_axis',(1.,0.,0.));
#790=DIRECTION('center_axis',(0.,0.,1.));
#791=DIRECTION('ref_axis',(1.,0.,0.));
#792=DIRECTION('center_axis',(0.,0.,1.));
#793=DIRECTION('ref_axis',(0.,-1.,0.));
#794=DIRECTION('',(0.,0.,1.));
#795=DIRECTION('center_axis',(0.,0.,1.));
#796=DIRECTION('ref_axis',(0.,-1.,0.));
#797=DIRECTION('',(0.,0.,1.));
#798=DIRECTION('center_axis',(1.,0.,0.));
#799=DIRECTION('ref_axis',(0.,1.,0.));
#800=DIRECTION('',(0.,0.,1.));
#801=DIRECTION('',(0.,1.,0.));
#802=DIRECTION('center_axis',(0.,0.,1.));
#803=DIRECTION('ref_axis',(1.,0.,0.));
#804=DIRECTION('',(0.,0.,1.));
#805=DIRECTION('center_axis',(0.,0.,1.));
#806=DIRECTION('ref_axis',(1.,0.,0.));
#807=DIRECTION('center_axis',(0.,1.,0.));
#808=DIRECTION('ref_axis',(-1.,0.,0.));
#809=DIRECTION('',(0.,0.,1.));
#810=DIRECTION('',(-1.,0.,0.));
#811=DIRECTION('center_axis',(0.,0.,1.));
#812=DIRECTION('ref_axis',(1.,0.,0.));
#813=DIRECTION('center_axis',(0.,0.,-1.));
#814=DIRECTION('ref_axis',(-1.,0.,0.));
#815=DIRECTION('center_axis',(0.,0.,-1.));
#816=DIRECTION('ref_axis',(-1.,0.,0.));
#817=DIRECTION('center_axis',(0.,0.,-1.));
#818=DIRECTION('ref_axis',(-1.,0.,0.));
#819=DIRECTION('center_axis',(0.,0.,-1.));
#820=DIRECTION('ref_axis',(-1.,0.,0.));
#821=DIRECTION('center_axis',(0.,0.,-1.));
#822=DIRECTION('ref_axis',(-1.,0.,0.));
#823=DIRECTION('center_axis',(0.,-0.707106781186547,0.707106781186548));
#824=DIRECTION('ref_axis',(1.,0.,0.));
#825=DIRECTION('',(0.,0.707106781186548,0.707106781186547));
#826=DIRECTION('',(-1.,0.,0.));
#827=DIRECTION('',(0.,-0.707106781186548,-0.707106781186547));
#828=DIRECTION('',(1.,0.,0.));
#829=DIRECTION('center_axis',(0.,0.,-1.));
#830=DIRECTION('ref_axis',(0.,-1.,0.));
#831=DIRECTION('',(-0.707106781186546,0.,0.707106781186549));
#832=DIRECTION('center_axis',(0.,0.,-1.));
#833=DIRECTION('ref_axis',(0.,-1.,0.));
#834=DIRECTION('center_axis',(0.707106781186547,0.,0.707106781186548));
#835=DIRECTION('ref_axis',(0.707106781186548,0.,-0.707106781186547));
#836=DIRECTION('',(-0.707106781186548,0.,0.707106781186547));
#837=DIRECTION('',(0.,-1.,0.));
#838=DIRECTION('center_axis',(0.,0.,-1.));
#839=DIRECTION('ref_axis',(1.,0.,0.));
#840=DIRECTION('',(0.,-0.707106781186546,0.707106781186549));
#841=DIRECTION('center_axis',(0.,0.,-1.));
#842=DIRECTION('ref_axis',(1.,0.,0.));
#843=DIRECTION('center_axis',(0.,0.707106781186547,0.707106781186548));
#844=DIRECTION('ref_axis',(1.,0.,0.));
#845=DIRECTION('',(0.,-0.707106781186548,0.707106781186547));
#846=DIRECTION('',(1.,0.,0.));
#847=DIRECTION('center_axis',(0.,0.,-1.));
#848=DIRECTION('ref_axis',(0.,1.,0.));
#849=DIRECTION('',(0.707106781186546,0.,0.707106781186549));
#850=DIRECTION('center_axis',(0.,0.,-1.));
#851=DIRECTION('ref_axis',(0.,1.,0.));
#852=DIRECTION('center_axis',(0.,0.,1.));
#853=DIRECTION('ref_axis',(0.,1.,0.));
#854=DIRECTION('center_axis',(-0.707106781186547,0.,0.707106781186548));
#855=DIRECTION('ref_axis',(0.707106781186548,0.,0.707106781186547));
#856=DIRECTION('',(0.707106781186548,0.,0.707106781186547));
#857=DIRECTION('',(0.,1.,0.));
#858=DIRECTION('',(0.,-1.,0.));
#859=DIRECTION('center_axis',(0.,0.,-1.));
#860=DIRECTION('ref_axis',(-1.,0.,0.));
#861=DIRECTION('center_axis',(0.,0.,-1.));
#862=DIRECTION('ref_axis',(-1.,0.,0.));
#863=DIRECTION('center_axis',(0.,0.,1.));
#864=DIRECTION('ref_axis',(-1.,0.,0.));
#865=DIRECTION('center_axis',(0.,-1.,0.));
#866=DIRECTION('ref_axis',(1.,0.,0.));
#867=DIRECTION('',(0.,0.,1.));
#868=DIRECTION('center_axis',(0.,0.,1.));
#869=DIRECTION('ref_axis',(1.,0.,0.));
#870=DIRECTION('center_axis',(0.,0.,1.));
#871=DIRECTION('ref_axis',(-1.,0.,0.));
#872=DIRECTION('center_axis',(0.,0.,-1.));
#873=DIRECTION('ref_axis',(1.,0.,0.));
#874=DIRECTION('center_axis',(0.,0.,-1.));
#875=DIRECTION('ref_axis',(1.,0.,0.));
#876=DIRECTION('center_axis',(0.,0.,-1.));
#877=DIRECTION('ref_axis',(1.,0.,0.));
#878=DIRECTION('center_axis',(0.,0.,-1.));
#879=DIRECTION('ref_axis',(1.,0.,0.));
#880=DIRECTION('center_axis',(0.,0.,1.));
#881=DIRECTION('ref_axis',(-1.,0.,0.));
#882=DIRECTION('',(-0.707106781186548,-8.65956056235494E-17,-0.707106781186547));
#883=DIRECTION('center_axis',(0.,0.,-1.));
#884=DIRECTION('ref_axis',(-1.,0.,0.));
#885=DIRECTION('center_axis',(0.,0.,1.));
#886=DIRECTION('ref_axis',(-1.,0.,0.));
#887=DIRECTION('',(0.,0.,-1.));
#888=DIRECTION('center_axis',(0.,0.,-1.));
#889=DIRECTION('ref_axis',(1.,0.,0.));
#890=DIRECTION('',(0.,0.,-1.));
#891=DIRECTION('center_axis',(0.,0.,-1.));
#892=DIRECTION('ref_axis',(1.,0.,0.));
#893=DIRECTION('center_axis',(0.,0.,1.));
#894=DIRECTION('ref_axis',(1.,0.,0.));
#895=DIRECTION('center_axis',(0.,0.,1.));
#896=DIRECTION('ref_axis',(-1.,0.,0.));
#897=DIRECTION('center_axis',(0.,0.,-1.));
#898=DIRECTION('ref_axis',(1.,0.,0.));
#899=DIRECTION('',(0.,0.,-1.));
#900=DIRECTION('center_axis',(0.,0.,-1.));
#901=DIRECTION('ref_axis',(1.,0.,0.));
#902=DIRECTION('center_axis',(0.,0.,1.));
#903=DIRECTION('ref_axis',(1.,0.,0.));
#904=DIRECTION('center_axis',(0.,0.,1.));
#905=DIRECTION('ref_axis',(-1.,0.,0.));
#906=DIRECTION('center_axis',(0.,0.,-1.));
#907=DIRECTION('ref_axis',(1.,0.,0.));
#908=DIRECTION('',(0.,0.,-1.));
#909=DIRECTION('center_axis',(0.,0.,-1.));
#910=DIRECTION('ref_axis',(1.,0.,0.));
#911=DIRECTION('center_axis',(0.,0.,1.));
#912=DIRECTION('ref_axis',(1.,0.,0.));
#913=DIRECTION('center_axis',(0.,0.,1.));
#914=DIRECTION('ref_axis',(-1.,0.,0.));
#915=DIRECTION('center_axis',(0.,0.,-1.));
#916=DIRECTION('ref_axis',(1.,0.,0.));
#917=DIRECTION('',(0.,0.,-1.));
#918=DIRECTION('center_axis',(0.,0.,-1.));
#919=DIRECTION('ref_axis',(1.,0.,0.));
#920=DIRECTION('center_axis',(0.,0.,1.));
#921=DIRECTION('ref_axis',(1.,0.,0.));
#922=DIRECTION('center_axis',(0.,0.,1.));
#923=DIRECTION('ref_axis',(-1.,0.,0.));
#924=DIRECTION('center_axis',(0.,0.,1.));
#925=DIRECTION('ref_axis',(-1.,0.,0.));
#926=DIRECTION('',(0.,0.,-1.));
#927=DIRECTION('center_axis',(0.,0.,1.));
#928=DIRECTION('ref_axis',(-1.,0.,0.));
#929=DIRECTION('',(0.,0.,-1.));
#930=DIRECTION('center_axis',(0.,0.,1.));
#931=DIRECTION('ref_axis',(-1.,0.,0.));
#932=DIRECTION('',(0.,0.,-1.));
#933=DIRECTION('center_axis',(0.,0.,1.));
#934=DIRECTION('ref_axis',(-1.,0.,0.));
#935=DIRECTION('',(0.,0.,-1.));
#936=DIRECTION('center_axis',(0.,0.,1.));
#937=DIRECTION('ref_axis',(-1.,0.,0.));
#938=DIRECTION('',(0.,0.,1.));
#939=DIRECTION('center_axis',(-1.,0.,0.));
#940=DIRECTION('ref_axis',(0.,-1.,0.));
#941=DIRECTION('',(0.,0.,1.));
#942=DIRECTION('center_axis',(0.,0.,1.));
#943=DIRECTION('ref_axis',(0.,1.,0.));
#944=CARTESIAN_POINT('',(0.,0.,0.));
#945=CARTESIAN_POINT('Origin',(11.25,32.25,0.25));
#946=CARTESIAN_POINT('',(-22.5,32.,0.));
#947=CARTESIAN_POINT('',(-22.5,32.5,0.5));
#948=CARTESIAN_POINT('',(-22.5,32.,0.));
#949=CARTESIAN_POINT('',(22.5,32.5,0.5));
#950=CARTESIAN_POINT('',(11.25,32.5,0.5));
#951=CARTESIAN_POINT('',(22.5,32.,0.));
#952=CARTESIAN_POINT('',(22.5,32.5,0.5));
#953=CARTESIAN_POINT('',(11.25,32.,0.));
#954=CARTESIAN_POINT('Origin',(-22.5,22.5,0.25));
#955=CARTESIAN_POINT('',(-32.,22.5,0.));
#956=CARTESIAN_POINT('',(-32.5,22.5,0.5));
#957=CARTESIAN_POINT('',(-32.,22.5,0.));
#958=CARTESIAN_POINT('Origin',(-22.5,22.5,0.5));
#959=CARTESIAN_POINT('Origin',(-22.5,22.5,0.));
#960=CARTESIAN_POINT('Origin',(-32.25,11.25,0.25));
#961=CARTESIAN_POINT('',(-32.,-22.5,0.));
#962=CARTESIAN_POINT('',(-32.5,-22.5,0.5));
#963=CARTESIAN_POINT('',(-32.,-22.5,0.));
#964=CARTESIAN_POINT('',(-32.5,11.25,0.5));
#965=CARTESIAN_POINT('',(-32.,11.25,0.));
#966=CARTESIAN_POINT('Origin',(-22.5,-22.5,0.25));
#967=CARTESIAN_POINT('',(-22.5,-32.,0.));
#968=CARTESIAN_POINT('',(-22.5,-32.5,0.5));
#969=CARTESIAN_POINT('',(-22.5,-32.,0.));
#970=CARTESIAN_POINT('Origin',(-22.5,-22.5,0.5));
#971=CARTESIAN_POINT('Origin',(-22.5,-22.5,0.));
#972=CARTESIAN_POINT('Origin',(-11.25,-32.25,0.25));
#973=CARTESIAN_POINT('',(22.5,-32.,0.));
#974=CARTESIAN_POINT('',(22.5,-32.5,0.5));
#975=CARTESIAN_POINT('',(22.5,-32.,0.));
#976=CARTESIAN_POINT('',(-11.25,-32.5,0.5));
#977=CARTESIAN_POINT('',(-11.25,-32.,0.));
#978=CARTESIAN_POINT('Origin',(22.5,-22.5,0.25));
#979=CARTESIAN_POINT('',(32.,-22.5,0.));
#980=CARTESIAN_POINT('',(32.5,-22.5,0.5));
#981=CARTESIAN_POINT('',(32.,-22.5,0.));
#982=CARTESIAN_POINT('Origin',(22.5,-22.5,0.5));
#983=CARTESIAN_POINT('Origin',(22.5,-22.5,0.));
#984=CARTESIAN_POINT('Origin',(32.25,-11.25,0.25));
#985=CARTESIAN_POINT('',(32.,22.5,0.));
#986=CARTESIAN_POINT('',(32.5,22.5,0.5));
#987=CARTESIAN_POINT('',(32.,22.5,0.));
#988=CARTESIAN_POINT('',(32.5,-11.25,0.5));
#989=CARTESIAN_POINT('',(32.,-11.25,0.));
#990=CARTESIAN_POINT('Origin',(22.5,22.5,0.25));
#991=CARTESIAN_POINT('Origin',(22.5,22.5,0.5));
#992=CARTESIAN_POINT('Origin',(22.5,22.5,0.));
#993=CARTESIAN_POINT('Origin',(22.5,-22.5,0.));
#994=CARTESIAN_POINT('',(32.5,-22.5,4.));
#995=CARTESIAN_POINT('',(32.5,-22.5,0.));
#996=CARTESIAN_POINT('',(22.5,-32.5,4.));
#997=CARTESIAN_POINT('Origin',(22.5,-22.5,4.));
#998=CARTESIAN_POINT('',(22.5,-32.5,0.));
#999=CARTESIAN_POINT('Origin',(32.5,-22.5,0.));
#1000=CARTESIAN_POINT('',(32.5,22.5,4.));
#1001=CARTESIAN_POINT('',(32.5,22.5,0.));
#1002=CARTESIAN_POINT('',(32.5,-11.25,4.));
#1003=CARTESIAN_POINT('Origin',(22.5,22.5,0.));
#1004=CARTESIAN_POINT('',(22.5,32.5,4.));
#1005=CARTESIAN_POINT('',(22.5,32.5,0.));
#1006=CARTESIAN_POINT('Origin',(22.5,22.5,4.));
#1007=CARTESIAN_POINT('Origin',(22.5,32.5,0.));
#1008=CARTESIAN_POINT('',(-22.5,32.5,4.));
#1009=CARTESIAN_POINT('',(-22.5,32.5,0.));
#1010=CARTESIAN_POINT('',(11.25,32.5,4.));
#1011=CARTESIAN_POINT('Origin',(0.,0.,0.));
#1012=CARTESIAN_POINT('',(25.,3.06161699786838E-15,0.));
#1013=CARTESIAN_POINT('Origin',(0.,0.,0.));
#1014=CARTESIAN_POINT('',(-22.9,25.,0.));
#1015=CARTESIAN_POINT('Origin',(-25.,25.,0.));
#1016=CARTESIAN_POINT('',(27.1,25.,0.));
#1017=CARTESIAN_POINT('Origin',(25.,25.,0.));
#1018=CARTESIAN_POINT('',(-22.9,-25.,0.));
#1019=CARTESIAN_POINT('Origin',(-25.,-25.,0.));
#1020=CARTESIAN_POINT('',(27.1,-25.,0.));
#1021=CARTESIAN_POINT('Origin',(25.,-25.,0.));
#1022=CARTESIAN_POINT('Origin',(-11.25,-32.,4.5));
#1023=CARTESIAN_POINT('',(22.5,-31.5,5.));
#1024=CARTESIAN_POINT('',(22.5,-32.5,4.));
#1025=CARTESIAN_POINT('',(-22.5,-31.5,5.));
#1026=CARTESIAN_POINT('',(-11.25,-31.5,5.));
#1027=CARTESIAN_POINT('',(-22.5,-32.5,4.));
#1028=CARTESIAN_POINT('',(-22.5,-31.5,5.));
#1029=CARTESIAN_POINT('',(-11.25,-32.5,4.));
#1030=CARTESIAN_POINT('Origin',(22.5,-22.5,4.5));
#1031=CARTESIAN_POINT('',(31.5,-22.5,5.));
#1032=CARTESIAN_POINT('',(32.5,-22.5,4.));
#1033=CARTESIAN_POINT('Origin',(22.5,-22.5,5.));
#1034=CARTESIAN_POINT('Origin',(32.,-11.25,4.5));
#1035=CARTESIAN_POINT('',(31.5,22.5,5.));
#1036=CARTESIAN_POINT('',(32.5,22.5,4.));
#1037=CARTESIAN_POINT('',(31.5,-11.25,5.));
#1038=CARTESIAN_POINT('Origin',(22.5,22.5,4.5));
#1039=CARTESIAN_POINT('',(22.5,31.5,5.));
#1040=CARTESIAN_POINT('',(22.5,32.5,4.));
#1041=CARTESIAN_POINT('Origin',(22.5,22.5,5.));
#1042=CARTESIAN_POINT('Origin',(11.25,32.,4.5));
#1043=CARTESIAN_POINT('',(-22.5,31.5,5.));
#1044=CARTESIAN_POINT('',(-22.5,32.5,4.));
#1045=CARTESIAN_POINT('',(11.25,31.5,5.));
#1046=CARTESIAN_POINT('Origin',(-22.5,22.5,4.5));
#1047=CARTESIAN_POINT('',(-32.5,22.5,4.));
#1048=CARTESIAN_POINT('',(-31.5,22.5,5.));
#1049=CARTESIAN_POINT('',(-32.5,22.5,4.));
#1050=CARTESIAN_POINT('Origin',(-22.5,22.5,5.));
#1051=CARTESIAN_POINT('Origin',(-22.5,22.5,4.));
#1052=CARTESIAN_POINT('Origin',(-32.,11.25,4.5));
#1053=CARTESIAN_POINT('',(-32.5,-22.5,4.));
#1054=CARTESIAN_POINT('',(-31.5,-22.5,5.));
#1055=CARTESIAN_POINT('',(-32.5,-22.5,4.));
#1056=CARTESIAN_POINT('',(-31.5,11.25,5.));
#1057=CARTESIAN_POINT('',(-32.5,11.25,4.));
#1058=CARTESIAN_POINT('Origin',(-22.5,-22.5,4.5));
#1059=CARTESIAN_POINT('Origin',(-22.5,-22.5,5.));
#1060=CARTESIAN_POINT('Origin',(-22.5,-22.5,4.));
#1061=CARTESIAN_POINT('Origin',(-22.5,-32.5,0.));
#1062=CARTESIAN_POINT('',(-22.5,-32.5,0.));
#1063=CARTESIAN_POINT('Origin',(0.,0.,5.));
#1064=CARTESIAN_POINT('',(26.,3.18408167778312E-15,5.));
#1065=CARTESIAN_POINT('Origin',(0.,0.,5.));
#1066=CARTESIAN_POINT('',(-28.525,-25.,5.));
#1067=CARTESIAN_POINT('Origin',(-25.,-25.,5.));
#1068=CARTESIAN_POINT('',(21.475,25.,5.));
#1069=CARTESIAN_POINT('Origin',(25.,25.,5.));
#1070=CARTESIAN_POINT('',(21.475,-25.,5.));
#1071=CARTESIAN_POINT('Origin',(25.,-25.,5.));
#1072=CARTESIAN_POINT('',(-28.525,25.,5.));
#1073=CARTESIAN_POINT('Origin',(-25.,25.,5.));
#1074=CARTESIAN_POINT('Origin',(0.,0.,4.5));
#1075=CARTESIAN_POINT('',(25.,-3.06161699786838E-15,4.));
#1076=CARTESIAN_POINT('',(25.5,3.12284933782575E-15,4.5));
#1077=CARTESIAN_POINT('Origin',(0.,0.,4.));
#1078=CARTESIAN_POINT('Origin',(0.,0.,0.));
#1079=CARTESIAN_POINT('',(25.,3.06161699786838E-15,0.));
#1080=CARTESIAN_POINT('Origin',(-25.,-25.,5.));
#1081=CARTESIAN_POINT('',(-28.525,-25.,1.8));
#1082=CARTESIAN_POINT('',(-28.525,-25.,5.));
#1083=CARTESIAN_POINT('Origin',(-25.,-25.,1.8));
#1084=CARTESIAN_POINT('Origin',(-25.,-25.,1.8));
#1085=CARTESIAN_POINT('',(-22.9,-25.,1.8));
#1086=CARTESIAN_POINT('Origin',(-25.,-25.,1.8));
#1087=CARTESIAN_POINT('Origin',(25.,25.,5.));
#1088=CARTESIAN_POINT('',(21.475,25.,1.8));
#1089=CARTESIAN_POINT('',(21.475,25.,5.));
#1090=CARTESIAN_POINT('Origin',(25.,25.,1.8));
#1091=CARTESIAN_POINT('Origin',(25.,25.,1.8));
#1092=CARTESIAN_POINT('',(27.1,25.,1.8));
#1093=CARTESIAN_POINT('Origin',(25.,25.,1.8));
#1094=CARTESIAN_POINT('Origin',(25.,-25.,5.));
#1095=CARTESIAN_POINT('',(21.475,-25.,1.8));
#1096=CARTESIAN_POINT('',(21.475,-25.,5.));
#1097=CARTESIAN_POINT('Origin',(25.,-25.,1.8));
#1098=CARTESIAN_POINT('Origin',(25.,-25.,1.8));
#1099=CARTESIAN_POINT('',(27.1,-25.,1.8));
#1100=CARTESIAN_POINT('Origin',(25.,-25.,1.8));
#1101=CARTESIAN_POINT('Origin',(-25.,25.,5.));
#1102=CARTESIAN_POINT('',(-28.525,25.,1.8));
#1103=CARTESIAN_POINT('',(-28.525,25.,5.));
#1104=CARTESIAN_POINT('Origin',(-25.,25.,1.8));
#1105=CARTESIAN_POINT('Origin',(-25.,25.,1.8));
#1106=CARTESIAN_POINT('',(-22.9,25.,1.8));
#1107=CARTESIAN_POINT('Origin',(-25.,25.,1.8));
#1108=CARTESIAN_POINT('Origin',(-25.,25.,0.));
#1109=CARTESIAN_POINT('',(-22.9,25.,0.));
#1110=CARTESIAN_POINT('Origin',(25.,25.,0.));
#1111=CARTESIAN_POINT('',(27.1,25.,0.));
#1112=CARTESIAN_POINT('Origin',(-25.,-25.,0.));
#1113=CARTESIAN_POINT('',(-22.9,-25.,0.));
#1114=CARTESIAN_POINT('Origin',(25.,-25.,0.));
#1115=CARTESIAN_POINT('',(27.1,-25.,0.));
#1116=CARTESIAN_POINT('Origin',(-22.5,-22.5,0.));
#1117=CARTESIAN_POINT('',(-32.5,-22.5,0.));
#1118=CARTESIAN_POINT('Origin',(-32.5,22.5,0.));
#1119=CARTESIAN_POINT('',(-32.5,22.5,0.));
#1120=CARTESIAN_POINT('Origin',(-22.5,22.5,0.));
#1121=UNCERTAINTY_MEASURE_WITH_UNIT(LENGTH_MEASURE(0.01),#1125,
'DISTANCE_ACCURACY_VALUE',
'Maximum model space distance between geometric entities at asserted c
onnectivities');
#1122=UNCERTAINTY_MEASURE_WITH_UNIT(LENGTH_MEASURE(0.01),#1125,
'DISTANCE_ACCURACY_VALUE',
'Maximum model space distance between geometric entities at asserted c
onnectivities');
#1123=(
GEOMETRIC_REPRESENTATION_CONTEXT(3)
GLOBAL_UNCERTAINTY_ASSIGNED_CONTEXT((#1121))
GLOBAL_UNIT_ASSIGNED_CONTEXT((#1125,#1127,#1128))
REPRESENTATION_CONTEXT('','3D')
);
#1124=(
GEOMETRIC_REPRESENTATION_CONTEXT(3)
GLOBAL_UNCERTAINTY_ASSIGNED_CONTEXT((#1122))
GLOBAL_UNIT_ASSIGNED_CONTEXT((#1125,#1127,#1128))
REPRESENTATION_CONTEXT('','3D')
);
#1125=(
LENGTH_UNIT()
NAMED_UNIT(*)
SI_UNIT(.MILLI.,.METRE.)
);
#1126=(
LENGTH_UNIT()
NAMED_UNIT(*)
SI_UNIT(.CENTI.,.METRE.)
);
#1127=(
NAMED_UNIT(*)
PLANE_ANGLE_UNIT()
SI_UNIT($,.RADIAN.)
);
#1128=(
NAMED_UNIT(*)
SI_UNIT($,.STERADIAN.)
SOLID_ANGLE_UNIT()
);
#1129=SHAPE_DEFINITION_REPRESENTATION(#1130,#1131);
#1130=PRODUCT_DEFINITION_SHAPE('',$,#1133);
#1131=SHAPE_REPRESENTATION('',(#666),#1123);
#1132=PRODUCT_DEFINITION_CONTEXT('part definition',#1137,'design');
#1133=PRODUCT_DEFINITION('StageInsert_FoilHolder_Part1',
'stage_insert_foil_holder_bottom',#1134,#1132);
#1134=PRODUCT_DEFINITION_FORMATION('',$,#1139);
#1135=PRODUCT_RELATED_PRODUCT_CATEGORY(
'stage_insert_foil_holder_bottom','stage_insert_foil_holder_bottom',(#1139));
#1136=APPLICATION_PROTOCOL_DEFINITION('international standard',
'automotive_design',2009,#1137);
#1137=APPLICATION_CONTEXT(
'Core Data for Automotive Mechanical Design Process');
#1138=PRODUCT_CONTEXT('part definition',#1137,'mechanical');
#1139=PRODUCT('StageInsert_FoilHolder_Part1',
'stage_insert_foil_holder_bottom',$,(#1138));
#1140=PRESENTATION_STYLE_ASSIGNMENT((#1141));
#1141=SURFACE_STYLE_USAGE(.BOTH.,#1144);
#1142=SURFACE_STYLE_RENDERING_WITH_PROPERTIES($,#1148,(#1143));
#1143=SURFACE_STYLE_TRANSPARENT(0.);
#1144=SURFACE_SIDE_STYLE('',(#1145,#1142));
#1145=SURFACE_STYLE_FILL_AREA(#1146);
#1146=FILL_AREA_STYLE('',(#1147));
#1147=FILL_AREA_STYLE_COLOUR('',#1148);
#1148=COLOUR_RGB('',0.749019607843137,0.749019607843137,0.749019607843137);
ENDSEC;
END-ISO-10303-21;
